<svg width="407" height="372" viewBox="0 0 407 372" fill="none" xmlns="http://www.w3.org/2000/svg">
<path d="M180.672 406.5C230.565 406.5 271.001 366.056 271.001 316.162C271.001 266.268 230.559 225.831 180.672 225.831V406.5Z" fill="#FC4A6B"/>
<path d="M180.672 225.831C180.672 175.944 140.229 135.5 90.3428 135.5C40.45 135.5 0.00728512 175.944 0.00728512 225.831H180.672Z" fill="#FC4A6B"/>
<path opacity="0.5" d="M180.665 225.831H0V406.5H180.665V225.831Z" fill="#FC4A6B"/>
<path d="M361.336 135.5C386.282 135.5 406.501 115.279 406.501 90.3316C406.501 65.3846 386.279 45.166 361.336 45.166V135.5Z" fill="#FC4A6B"/>
<path d="M361.336 45.1656C361.336 20.2218 341.115 0 316.171 0C291.225 0 271.004 20.2218 271.004 45.1656H361.336Z" fill="#FC4A6B"/>
<path opacity="0.5" d="M361.332 45.166H271V135.5H361.332V45.166Z" fill="#FC4A6B"/>
</svg>
