<svg width="24" height="24" viewBox="0 0 24 24" fill="none" xmlns="http://www.w3.org/2000/svg">
<path d="M23.0067 18.4912C24.2361 19.6804 24.2361 21.5743 23.0067 22.7635C22.3919 23.3581 21.5951 23.6444 20.7982 23.6444C20.0013 23.6444 19.2045 23.3581 18.5897 22.7635L11.9644 16.355L5.339 22.7635C4.72428 23.3581 3.92741 23.6444 3.13055 23.6444C2.33368 23.6444 1.53681 23.3581 0.922088 22.7635C-0.307363 21.5743 -0.307363 19.6804 0.922088 18.4912L7.54746 12.0827L0.922088 5.67422C-0.284595 4.48502 -0.284595 2.59111 0.922088 1.40191C2.12877 0.21271 4.10955 0.234732 5.339 1.40191L11.9644 7.81038L18.5897 1.40191C19.8192 0.21271 21.7772 0.21271 23.0067 1.40191C24.2361 2.59111 24.2361 4.48502 23.0067 5.67422L16.3813 12.0827L23.0067 18.4912Z" fill="#FC4A6B"/>
</svg>
