<svg width="17" height="17" viewBox="0 0 17 17" fill="none" xmlns="http://www.w3.org/2000/svg">
<path fill-rule="evenodd" clip-rule="evenodd" d="M8.5 17C13.1944 17 17 13.1944 17 8.5C17 3.80558 13.1944 0 8.5 0C3.80558 0 0 3.80558 0 8.5C0 13.1944 3.80558 17 8.5 17ZM6.83701 11.1553C7.00439 11.272 7.20396 11.3333 7.40353 11.3333L7.40997 11.3272C7.64816 11.3272 7.8928 11.2413 8.07305 11.0694L12.1803 7.20265C12.5472 6.85894 12.5537 6.28813 12.1867 5.93214C11.8198 5.58229 11.2275 5.57616 10.8541 5.92601L7.32628 9.25265L5.56235 7.99442C5.1439 7.69367 4.55164 7.77346 4.24263 8.17241C3.92718 8.56522 4.01087 9.12989 4.42932 9.43064L6.83701 11.1553Z" fill="#17FCC4"/>
<path d="M7.40357 11.3337C7.204 11.3337 7.00444 11.2723 6.83706 11.1557L4.42936 9.43097C4.01091 9.13022 3.92722 8.56555 4.24267 8.17274C4.55168 7.77378 5.14394 7.69399 5.56239 7.99474L7.32632 9.25297L10.8542 5.92633C11.2276 5.57648 11.8198 5.58262 12.1868 5.93247C12.5537 6.28846 12.5473 6.85926 12.1803 7.20298L8.07309 11.0697C7.89284 11.2416 7.6482 11.3275 7.41001 11.3275L7.40357 11.3337Z" fill="#002EA6"/>
</svg>
