<?xml version="1.0" encoding="UTF-8"?><svg id="Layer_1" xmlns="http://www.w3.org/2000/svg" viewBox="0 0 200 200"><defs><style>.cls-1{fill:#fc4a6b;}</style></defs><path class="cls-1" d="M176.57,155.12l-38.17-32.37c7.38-10.68,11.72-23.62,11.72-37.56,0-16.29-5.92-31.22-15.73-42.77-2.37-2.82-4.99-5.42-7.81-7.79-11.53-9.75-26.41-15.62-42.65-15.62-36.5,0-66.19,29.69-66.19,66.19,0,16.24,5.88,31.12,15.62,42.65,2.37,2.83,4.98,5.44,7.79,7.81,11.55,9.81,26.48,15.73,42.77,15.73,13.94,0,26.87-4.34,37.56-11.72l32.37,38.16c6.09,7.19,17.01,7.64,23.68.98,6.66-6.67,6.21-17.59-.97-23.68ZM83.93,140.34c-13.25,0-25.42-4.7-34.94-12.52-2.85-2.34-5.46-4.96-7.79-7.82-7.76-9.49-12.41-21.62-12.41-34.81,0-30.41,24.73-55.15,55.14-55.15,13.19,0,25.32,4.65,34.81,12.42,2.86,2.32,5.49,4.93,7.82,7.79,7.82,9.52,12.52,21.69,12.52,34.94,0,30.41-24.74,55.15-55.15,55.15Z"/><path class="cls-1" d="M85.67,70.08h-3.24c-2.38,0-4.59,1.62-5,4-.45,2.8,1.53,5.24,4.15,5.55l7.8-7.79h0c-.89-1.08-2.22-1.76-3.71-1.76ZM113.01,63.81c-2.07-3.07-4.63-5.79-7.55-8.06-5.95-4.63-13.41-7.37-21.53-7.37-19.39,0-35.12,15.72-35.12,35.12,0,8.12,2.76,15.59,7.37,21.53,2.27,2.92,5,5.48,8.06,7.55,5.62,3.81,12.4,6.04,19.69,6.04,19.39,0,35.12-15.72,35.12-35.11,0-7.3-2.23-14.08-6.04-19.69ZM98.1,93.36c-.56,5.59-4.97,9.87-10.35,10.94v5c0,.55-.45,1.01-1,1.01h-5.62c-.55,0-1.03-.45-1.03-1.01v-4.93c-1.99-.34-3.81-1.14-5.35-2.28-2.76-2.06-4.65-5.23-4.96-8.86-.07-.59.45-1.1,1.03-1.1h5.62c.48,0,.93.32,1,.8.27,1.64,1.37,2.99,2.86,3.61.57.25,1.2.38,1.86.38h3.25c2.41,0,4.62-1.62,5-3.97.33-1.89-.47-3.64-1.85-4.66-.8-.6-1.79-.95-2.87-.95h-2.93c-2.5,0-4.9-.69-6.94-1.92-3.28-1.97-5.64-5.29-6.03-9.29-.66-6.69,4.03-12.45,10.31-13.49v-4.89c0-.59.48-1.03,1.03-1.03h5.62c.54,0,1,.45,1,1.03v4.89c2.76.46,5.21,1.84,7.06,3.78,1.84,1.98,3.04,4.55,3.29,7.4.03.59-.45,1.07-1.04,1.07h-5.65c-.45,0-.9-.31-.97-.75-.14-.86-.52-1.64-1.05-2.28h0c-.89-1.08-2.22-1.76-3.71-1.76h-3.24c-2.38,0-4.59,1.62-5,4-.45,2.8,1.53,5.24,4.15,5.55.19.03.38.04.58.04h3.52c3.18,0,6.09,1.2,8.3,3.18,2.84,2.53,4.52,6.34,4.12,10.52Z"/><path class="cls-1" d="M85.67,87.32c1.08,0,2.07.35,2.87.95l-8.25,8.25c-1.49-.62-2.59-1.97-2.86-3.61-.07-.48-.52-.8-1-.8h-5.62c-.59,0-1.1.52-1.03,1.1.31,3.63,2.2,6.81,4.96,8.86l-33.57,33.57c-2.82-2.37-5.42-4.99-7.79-7.81l7.84-7.84,14.98-14.98,19.62-19.62c2.04,1.22,4.44,1.92,6.94,1.92h2.93Z"/><path class="cls-1" d="M134.39,42.43l-7.83,7.83-13.55,13.55-19.04,19.04c-2.21-1.98-5.12-3.18-8.3-3.18h-3.52c-.19,0-.38,0-.58-.04l7.8-7.79c.53.65.91,1.43,1.05,2.28.07.44.52.75.97.75h5.65c.59,0,1.07-.48,1.04-1.07-.24-2.85-1.45-5.42-3.29-7.4l31.77-31.77c2.83,2.37,5.44,4.98,7.81,7.79Z"/></svg>