<?xml version="1.0" encoding="UTF-8"?><svg id="Layer_1" xmlns="http://www.w3.org/2000/svg" viewBox="0 0 200 200"><defs><style>.cls-1{fill:#fc4a6b;}</style></defs><path class="cls-1" d="M128.72,52.84v-15.38c0-7.73-6.25-13.98-13.98-13.98H20.27c-7.73,0-13.97,6.24-13.97,13.98v125.08c0,7.73,6.24,13.98,13.97,13.98h94.47c7.73,0,13.98-6.25,13.98-13.98v-15.3c-20.77-5.62-35.99-24.67-35.99-47.24s15.22-41.54,35.99-47.16ZM31.12,95.31h45.21c2.58,0,4.69,2.11,4.69,4.69s-2.11,4.69-4.69,4.69H31.12c-2.58,0-4.69-2.11-4.69-4.69s2.11-4.69,4.69-4.69ZM26.44,74.78c0-2.58,2.11-4.69,4.69-4.69h51.14c2.58,0,4.68,2.11,4.68,4.69s-2.11,4.69-4.68,4.69H31.12c-2.58,0-4.69-2.11-4.69-4.69ZM31.12,120.61h51.14c2.58,0,4.68,2.03,4.68,4.61s-2.11,4.69-4.68,4.69H31.12c-2.58,0-4.69-2.03-4.69-4.69s2.11-4.61,4.69-4.61ZM103.97,145.83c2.58,0,4.69,2.11,4.69,4.69s-2.11,4.68-4.69,4.68H31.12c-2.58,0-4.69-2.1-4.69-4.68s2.11-4.69,4.69-4.69h72.85ZM103.97,54.17H31.12c-2.58,0-4.69-2.03-4.69-4.69s2.11-4.61,4.69-4.61h72.85c2.58,0,4.69,2.03,4.69,4.61s-2.11,4.69-4.69,4.69Z"/><path class="cls-1" d="M172.86,124.2c5.19-6.68,8.3-15.06,8.3-24.16,0-21.75-17.7-39.45-39.45-39.45s-39.45,17.7-39.45,39.45,17.7,39.45,39.45,39.45c9.1,0,17.48-3.1,24.16-8.3l19.39,19.4c.97.97,2.23,1.45,3.49,1.45s2.53-.48,3.49-1.45c1.93-1.93,1.93-5.06,0-6.99l-19.4-19.4ZM112.14,100.04c0-16.3,13.26-29.57,29.57-29.57s29.57,13.26,29.57,29.57-13.26,29.57-29.57,29.57-29.57-13.26-29.57-29.57Z"/><path class="cls-1" d="M150.64,87.44l-12.27,14.64-5.83-6.03c-1.9-1.96-5.03-2.02-6.99-.12-1.96,1.9-2.02,5.02-.12,6.99l9.64,9.98c.93.97,2.22,1.51,3.55,1.51.06,0,.12,0,.17,0,1.4-.05,2.71-.69,3.61-1.76l15.8-18.85c1.75-2.09,1.48-5.21-.61-6.96-2.09-1.75-5.21-1.48-6.96.61Z"/></svg>