<?xml version="1.0" encoding="UTF-8"?><svg id="Layer_1" xmlns="http://www.w3.org/2000/svg" viewBox="0 0 200 200"><defs><style>.cls-1{fill:#fc4a6b;}</style></defs><path class="cls-1" d="M25.91,91.67l10.05-11.63c3.94-4.56,9.66-7.18,15.68-7.18h66.09l-4.29,21.29c-1.1,5.47,5.12,9.41,9.59,6.09l55.11-40.89c3.28-2.43,3.28-7.34,0-9.78L123.03,8.68c-4.47-3.32-10.69.62-9.59,6.09l4.29,21.3H50.39c-17.11,0-30.99,13.87-30.99,30.99v22.2c0,3.43,4.26,5.02,6.51,2.42Z"/><path class="cls-1" d="M175.65,101.89c-3.45-1.28-7.24-.3-9.65,2.48l-9.5,10.99c-2.72,3.15-6.67,4.96-10.84,4.96h-56.01l2.79-13.83c.91-4.5-1.01-8.99-4.88-11.45-3.87-2.46-8.75-2.28-12.43.46l-52.04,38.61c-2.82,2.09-4.44,5.3-4.44,8.82s1.62,6.73,4.44,8.82l52.04,38.62c1.95,1.45,4.24,2.18,6.54,2.18,2.03,0,4.08-.57,5.89-1.72,3.87-2.46,5.79-6.95,4.88-11.44l-2.79-13.84h57.19c19.02,0,34.5-15.47,34.5-34.5v-20.96c0-3.69-2.24-6.91-5.69-8.19ZM170.87,131.03c0,13.24-10.78,24.02-24.02,24.02h-63.59c-1.57,0-3.06.71-4.05,1.92-.99,1.22-1.39,2.81-1.08,4.35l4.05,20.11c.03.14.07.34-.23.53-.3.18-.46.06-.57-.02l-52.04-38.62s-.27-.2-.26-.41c.01-.21.26-.41.26-.41l52.04-38.61c.12-.09.28-.2.57-.02.3.19.26.38.23.53l-4.05,20.1c-.31,1.54.09,3.14,1.08,4.35.99,1.21,2.48,1.92,4.05,1.92h62.41c7.22,0,14.06-3.13,18.77-8.58l6.44-7.45v16.28Z"/></svg>