<?xml version="1.0" encoding="UTF-8"?><svg id="Layer_1" xmlns="http://www.w3.org/2000/svg" viewBox="0 0 200 200"><defs><style>.cls-1{fill:#fc4a6b;}</style></defs><path class="cls-1" d="M143.41,7.44H56.59c-6.43,0-11.68,5.25-11.68,11.68v113.73c0,6.43,5.25,11.68,11.68,11.68h86.82c6.43,0,11.68-5.25,11.68-11.68V19.12c0-6.43-5.25-11.68-11.68-11.68ZM78.67,126.85c0,2.03-1.61,3.64-3.98,3.64h-13.29c-2.37,0-3.98-1.61-3.98-3.64v-11.68c0-2.03,1.61-3.98,3.98-3.98h13.29c2.37,0,3.98,2.03,3.98,3.98v11.68ZM78.67,101.12c0,2.37-1.61,3.98-3.98,3.98h-13.29c-2.37,0-3.98-1.61-3.98-3.98v-11.26c0-2.03,1.61-3.98,3.98-3.98h13.29c2.37,0,3.98,2.03,3.98,3.98v11.26ZM78.67,75.82c0,2.37-1.61,3.98-3.98,3.98h-13.29c-2.37,0-3.98-1.61-3.98-3.98v-11.26c0-2.03,1.61-3.98,3.98-3.98h13.29c2.37,0,3.98,2.03,3.98,3.98v11.26ZM110.83,126.85c0,2.03-2.03,3.64-3.98,3.64h-13.62c-2.03,0-3.98-1.61-3.98-3.64v-11.68c0-2.03,2.03-3.98,3.98-3.98h13.62c2.03,0,3.98,2.03,3.98,3.98v11.68ZM110.83,101.12c0,2.37-2.03,3.98-3.98,3.98h-13.62c-2.03,0-3.98-1.61-3.98-3.98v-11.26c0-2.03,2.03-3.98,3.98-3.98h13.62c2.03,0,3.98,2.03,3.98,3.98v11.26ZM142.82,126.85c0,2.03-2.03,3.64-3.98,3.64h-13.62c-2.03,0-3.98-1.61-3.98-3.64v-11.68c0-2.03,2.03-3.98,3.98-3.98h13.62c2.03,0,3.98,2.03,3.98,3.98v11.68ZM142.82,101.12c0,2.37-2.03,3.98-3.98,3.98h-13.62c-2.03,0-3.98-1.61-3.98-3.98v-11.26c0-2.03,2.03-3.98,3.98-3.98h13.62c2.03,0,3.98,2.03,3.98,3.98v11.26ZM110.83,75.82c0,2.37-2.03,3.98-3.98,3.98h-13.62c-2.03,0-3.98-1.61-3.98-3.98v-11.26c0-2.03,2.03-3.98,3.98-3.98h13.62c2.03,0,3.98,2.03,3.98,3.98v11.26ZM142.57,75.82c0,2.37-1.61,3.98-3.64,3.98h-13.62c-2.03,0-3.98-1.61-3.98-3.98v-11.26c0-2.03,2.03-3.98,3.98-3.98h13.62c2.03,0,3.64,2.03,3.64,3.98v11.26ZM143.84,42.81c0,2.37-2.03,3.98-3.98,3.98H60.23c-2.03,0-3.64-1.61-3.64-3.98v-17.69c0-2.03,1.61-3.64,3.64-3.64h79.55c2.03,0,3.98,1.61,3.98,3.64v17.69h.08Z"/><path class="cls-1" d="M77.89,151.26h-16.59v30.3c0,6.09,4.99,11,11,11h5.59v-41.3Z"/><path class="cls-1" d="M126.53,151.26v22.59h-5.84v-22.59h-6.77v22.59h-5.84v-22.59h-17.43v41.3h36.98c6.09,0,11-4.99,11-11v-30.3h-12.1Z"/></svg>