<?xml version="1.0" encoding="UTF-8"?><svg id="Layer_1" xmlns="http://www.w3.org/2000/svg" viewBox="0 0 200 200"><defs><style>.cls-1{fill:#fc4a6b;}</style></defs><path class="cls-1" d="M131.11,17.99l55.7,15.11c.19.05.3.25.25.43l-15.11,55.7-10.06-2.73c1.48-2.71,2.29-5.76,2.36-8.93.15-7.01-3.74-13.69-9.91-17.02-2.87-1.54-6.06-2.36-9.24-2.36-8.61,0-16.2,5.81-18.46,14.13-.39,1.46-.61,2.95-.66,4.44l-10.06-2.73,5.1-18.81c.54-2,.17-4.13-1.01-5.83-1.18-1.7-3.05-2.79-5.11-2.97-2.36-.21-4.5-.32-6.53-.32-.98,0-1.95.02-2.89.07-.09,0-.17,0-.26,0-.44,0-.89-.06-1.33-.18-1.52-.41-2.75-1.48-3.38-2.94-.37-.85-.82-2.59.27-4.61.83-1.53,2.56-2.56,4.3-2.56h.11c1.08.03,2.04.32,2.85.86,2.51,1.67,5.22,3.16,8.29,4.57.93.43,1.92.64,2.92.64s2.03-.22,2.97-.66c1.86-.87,3.25-2.52,3.79-4.51l5.1-18.82M126.18,9.4l-6.94,25.57c-2.54-1.17-5-2.49-7.34-4.04-1.83-1.22-4.05-1.97-6.55-2.03-.1,0-.2,0-.3,0-4.31,0-8.42,2.44-10.47,6.24-3.89,7.21.05,15.62,7.44,17.62,1.06.29,2.12.42,3.16.42.21,0,.42,0,.63-.02.84-.04,1.68-.06,2.52-.06,1.97,0,3.94.11,5.9.29l-6.93,25.56,25.48,6.91c.22-2.63.32-5.28.19-7.93-.07-1.24.06-2.52.41-3.79,1.47-5.4,6.36-8.96,11.7-8.96,1.96,0,3.98.48,5.92,1.52,3.87,2.09,6.33,6.31,6.24,10.71-.05,2.52-.8,4.76-2.03,6.6-1.46,2.19-2.71,4.5-3.83,6.88l25.49,6.91,16.95-62.46c1.06-3.92-1.25-7.96-5.17-9.02l-62.46-16.95h0Z"/><path class="cls-1" d="M31.45,126.58c-.7,2.09-.84,4.43-.24,6.85,1.04,4.29,4.54,7.75,8.84,8.75,7.97,1.86,15.06-4.14,15.06-11.79,0-1.31-.21-2.58-.6-3.76-.88-2.68-1.5-5.42-1.99-8.19h26.49v-26.4c-2.6.48-5.18,1.07-7.7,1.9-1.18.39-2.45.6-3.76.6-7.65,0-13.65-7.09-11.79-15.06,1-4.29,4.46-7.78,8.74-8.83,2.43-.6,4.78-.46,6.87.24,2.5.83,5.06,1.44,7.65,1.89v-26.41H14.29c-4.06,0-7.36,3.29-7.36,7.35v64.72h26.5c-.46,2.76-1.09,5.48-1.98,8.14Z"/><path class="cls-1" d="M131.06,110.41c.71-2.15.85-4.56.21-7.06-1.09-4.21-4.56-7.56-8.8-8.56-7.97-1.85-15.06,4.15-15.06,11.8,0,1.32.21,2.59.59,3.77.88,2.68,1.5,5.41,2,8.18h-22.13v15.33c1.03-.18,2.09-.24,3.15-.24,6.41,0,12.41,2.88,16.41,7.94,4,5.03,5.44,11.59,3.97,17.94-1.74,7.41-7.62,13.41-14.97,15.33-1.79.47-3.62.71-5.41.71-1.06,0-2.12-.09-3.15-.24v15.3h56.01c4.06,0,7.35-3.29,7.35-7.35v-64.72h-22.14c.47-2.77,1.09-5.47,1.97-8.12Z"/><path class="cls-1" d="M94.21,166.27c4.21-1.09,7.59-4.53,8.59-8.77,1.85-7.97-4.15-15.06-11.8-15.06-1.32,0-2.59.21-3.76.59-2.68.88-5.41,1.5-8.21,2v-17.77h-15.35c.18,1.03.23,2.09.23,3.12,0,11.56-9.38,20.97-20.94,20.97-1.65,0-3.33-.21-4.94-.59-7.41-1.74-13.41-7.59-15.33-14.94-.74-2.85-.88-5.74-.47-8.56H6.97v55.98c0,4.06,3.29,7.35,7.35,7.35h64.72v-26.5c2.76.47,5.5,1.12,8.15,2,2.15.71,4.56.82,7.03.18Z"/></svg>