<svg width="24" height="24" viewBox="0 0 24 24" fill="none" xmlns="http://www.w3.org/2000/svg">
<g id="Close" clip-path="url(#clip0_230_11222)">
<path id="Union" fill-rule="evenodd" clip-rule="evenodd" d="M5.00018 0.841133C3.87011 -0.288932 2.13234 -0.383362 1.11876 0.630218C0.105184 1.6438 0.199614 3.38157 1.32968 4.51163L8.25165 11.4336L1.10911 18.141C-0.0558826 19.235 -0.204837 20.969 0.776414 22.0139C1.75767 23.0588 3.49754 23.019 4.66254 21.9249L11.924 15.1059L18.9675 22.1495C20.0976 23.2796 21.8354 23.374 22.849 22.3604C23.8625 21.3468 23.7681 19.6091 22.638 18.479L15.7098 11.5507L22.8456 4.84966C24.0106 3.75564 24.1595 2.02169 23.1783 0.976785C22.197 -0.0681249 20.4572 -0.0283126 19.2922 1.06571L12.0375 7.87842L5.00018 0.841133Z" fill="#002EA6"/>
</g>
<defs>
<clipPath id="clip0_230_11222">
<rect width="24" height="24" fill="white"/>
</clipPath>
</defs>
</svg>
