<?xml version="1.0" encoding="UTF-8"?><svg id="Layer_2" xmlns="http://www.w3.org/2000/svg" width="454.58" height="493" viewBox="0 0 454.58 493"><defs><style>.cls-1{fill:#002ea6;}</style></defs><g id="Layer_1-2"><path class="cls-1" d="m357.38,255.3c-12.1-3.9-25,2.8-28.9,14.9l-6.7,20.9s-.1.4-.2.6v.2s-.2.2-.3.4l-.1.2s-.1.2-.2.3l-.1.2s-.2.3-.3.4c0,0-.3.3-.4.5l-.1.1-.3.3s-.1.1-.2.1c-.1.1-.2.2-.3.2l-.2.1s-.2.2-.4.2c0,0-.1,0-.1.1-.2.1-.3.2-.5.2h-.2s-.3.2-.4.2h-.2s-.2.1-.4.2h-.2s-.3.1-.4.1h-1.6s-.3-.1-.4-.1h-.2s-.4-.1-.6-.2c-3.4-1.1-5.3-4.8-4.2-8.2l6.7-20.9,5.4-17.1c1.8-5.9,1.3-12.1-1.5-17.5-2.8-5.5-7.6-9.5-13.4-11.4-5.9-1.8-12.1-1.3-17.5,1.5-5.5,2.8-9.5,7.6-11.4,13.4l-8.1,25.4c-1.1,3.4-4.8,5.3-8.2,4.2-3.4-1.1-5.3-4.8-4.2-8.2l4.1-12.9,11.1-34.7c1.8-5.9,1.3-12.1-1.5-17.5-2.8-5.5-7.6-9.5-13.4-11.4-5.9-1.8-12.1-1.3-17.5,1.5-5.5,2.8-9.5,7.6-11.4,13.4l-10.9,34-.2.7-1,3.2c-1.1,3.4-4.8,5.3-8.2,4.2-3.4-1.1-5.3-4.8-4.2-8.2l1-3.2,11.1-34.7,34.4-107.7c1.8-5.9,1.3-12.1-1.5-17.5-2.8-5.5-7.6-9.5-13.4-11.4-5.9-1.8-12.1-1.3-17.5,1.5-5.5,2.8-9.5,7.6-11.4,13.4l-65.6,205.1c-.9,2.7-3.5,4.6-6.4,4.5s-5.4-2.1-6.1-4.9l-16-62.3c-1.6-6.1-5.8-11.1-11.5-13.7-5.8-2.6-12.3-2.4-17.9.4-8.2,4.2-12.5,13-10.8,22.1,4.7,25.5,6.7,68.5,4.7,82-2.5,17.4,4,53.1,4.6,56.1l12.9,49.7c1.6,6.3,3.2,10.8,4.6,14.8,4.2,11.8,6,18.2,1.3,36-2.1,8.2-.4,16.7,4.8,23.4s12.9,10.5,21.4,10.5h118.6c10.3,0,19.5-5.7,24.2-15,13.5-26.9,36.8-58.7,52.9-76.3,17.2-18.8,30.9-57.3,31.5-59.1l18.7-58.5c3.9-12.1-2.8-25-14.9-28.9l-.3.1Z"/><path class="cls-1" d="m131.48,52.3c0-3.6-2.9-6.5-6.5-6.5H57.98V8.8c0-2.6-1.6-5-4-6s-5.2-.4-7.1,1.4L1.88,49.2c-2.5,2.5-2.5,6.7,0,9.2l45,45c1.2,1.2,2.9,1.9,4.6,1.9.8,0,1.7-.2,2.5-.5,2.4-1,4-3.4,4-6v-40h67c3.5,0,6.4-2.9,6.5-6.5h0Z"/><path class="cls-1" d="m452.78,49.1l-45-45c-1.8-1.8-4.6-2.4-7.1-1.4-2.4,1-4,3.4-4,6v37h-67c-3.6,0-6.5,2.9-6.5,6.5s2.9,6.5,6.5,6.5h67v39.9c0,2.6,1.6,5,4,6,.8.3,1.7.5,2.5.5,1.7,0,3.4-.7,4.6-1.9l45-45c2.4-2.4,2.4-6.5,0-9.1h0Z"/><path class="cls-1" d="m160.88,98.3c3.5-.8,5.7-4.3,4.9-7.8-1.1-4.6-1.6-9.3-1.6-14.1,0-34.9,28.4-63.3,63.3-63.3s63.3,28.4,63.3,63.3c0,12.7-3.8,24.9-10.8,35.4-2,3-1.2,7,1.7,9,1.1.7,2.4,1.1,3.6,1.1,2.1,0,4.1-1,5.4-2.9,8.5-12.6,13-27.4,13-42.7C303.68,34.2,269.47,0,227.37,0s-76.3,34.2-76.3,76.3c0,5.7.6,11.4,1.9,16.9.9,3.7,4.4,5.9,7.9,5.1h0Z"/></g></svg>