<?xml version="1.0" encoding="utf-8"?>
<!-- Generator: Adobe Illustrator 26.0.3, SVG Export Plug-In . SVG Version: 6.00 Build 0)  -->
<svg version="1.1" id="Layer_1" xmlns="http://www.w3.org/2000/svg" xmlns:xlink="http://www.w3.org/1999/xlink" x="0px" y="0px" viewBox="0 0 210 130" style="enable-background:new 0 0 210 130;" xml:space="preserve">
	<style type="text/css">
	.st0{fill:none;stroke:#000000;stroke-width:0.2646;}
</style>
	<path class="st0" d="M21.8,126.3l7.9-0.3l15.2-1.7l18.7-3.2l12.9-3.1l17.5-5.4l12.2-4.4l12.5-5.7l12.6-6.6l9-5.5l10.1-6.8l10.8-8.4
	l13.1-12.5l8.3-9.9l6.9-10l6.2-10.7l5.7-13.3l3.7-14.1" />
	<path class="st0" d="M22,126.6l4.6-0.2l8.6-0.5l6.8-0.6l8.7-1l7.2-0.9l7.7-1.1l7.9-1.4l10.1-1.9l12.1-2.6l11.2-3l10-3l10.5-3.6
	l7.2-2.8l8.3-3.5l6.4-3l8.7-4.6l7.2-4.2l7-4.7l6-4.5l6.2-5.5l5.2-5l5.1-6.1l4.4-6.4l3.4-6.5l2.7-7.5" />
</svg>