<svg xmlns="http://www.w3.org/2000/svg" viewBox="0 0 200.28959 124.08959"><g fill="none" stroke="#000" stroke-width=".264583"><path d="m200.2851 1.7038432-3.70836 14.0984678-5.67948 13.296659-6.18061 10.69078-6.94901 9.95579-8.28535 9.888973-13.09621 12.49485-10.7576 8.38558-10.08942 6.848782-8.98694 5.479026-12.62849 6.614922-12.49485 5.746297-12.260986 4.47676-17.539562 5.44562-12.929163 3.14041-18.742274 3.17383-15.134138 1.57021-7.943658.32756"/><path d="m200.32738 39.54576-2.71671 7.535899-3.44903 6.543712-4.37035 6.401972-5.1263 6.071243-5.22079 5.031809-6.23661 5.527899-6.00037 4.512093-7.03981 4.748324-7.15793 4.204986-8.66982 4.559337-6.35473 3.000187-8.31547 3.543529-7.18155 2.76395-10.53609 3.63802-10.01637 3.04743-11.221166 3.04744-12.118861 2.6222-10.063615 1.93713-7.890253 1.37017-7.748514 1.06305-7.228792.87407-8.740701.99219-6.756323.59059-8.646206.47247-4.639067.19194"/></g></svg>