<svg version="1.1" id="mono" xmlns="http://www.w3.org/2000/svg" x="0" y="0" viewBox="0 0 340.4 510.1" xml:space="preserve"><style>.st0{fill:none;stroke:#002EA6;stroke-width:0.25;stroke-miterlimit:10;}</style><path class="st0" d="M170.5 425c0 23.5-19 42.5-42.5 42.5 0-23.5 19-42.5 42.5-42.5z"/><path class="st0" d="M128 467.5c-23.5 0-42.5-19-42.5-42.5 23.4 0 42.5 19 42.5 42.5z"/><path class="st0" d="M128 467.5c23.5 0 42.5 19 42.5 42.5-23.5 0-42.5-19-42.5-42.5z"/><path class="st0" d="M128 467.5c0 23.5-19 42.5-42.5 42.5 0-23.5 19-42.5 42.5-42.5z"/><path class="st0" d="M340.3 340c0 23.5-19 42.5-42.5 42.5 0-23.5 19-42.5 42.5-42.5z"/><path class="st0" d="M297.8 382.5c-23.5 0-42.5-19-42.5-42.5 23.4 0 42.5 19 42.5 42.5z"/><path class="st0" d="M297.8 382.5c23.5 0 42.5 19 42.5 42.5-23.5 0-42.5-19-42.5-42.5z"/><path class="st0" d="M297.8 382.5c0 23.5-19 42.5-42.5 42.5 0-23.5 19-42.5 42.5-42.5z"/><circle class="st0" cx="233.9" cy="361.2" r="21.3"/><circle class="st0" cx="233.9" cy="403.7" r="21.3"/><circle class="st0" cx="191.3" cy="361.2" r="21.3"/><circle class="st0" cx="191.3" cy="403.7" r="21.3"/><circle class="st0" cx="64" cy="106.3" r="21.3"/><circle class="st0" cx="64" cy="148.8" r="21.3"/><circle class="st0" cx="21.5" cy="106.3" r="21.3"/><circle class="st0" cx="21.5" cy="148.8" r="21.3"/><path class="st0" d="M255.1.1c0 23.5-19 42.5-42.5 42.5 0-23.4 19-42.5 42.5-42.5z"/><path class="st0" d="M212.6 42.6c-23.5 0-42.5-19-42.5-42.5 23.5 0 42.5 19.1 42.5 42.5z"/><path class="st0" d="M212.6 42.6c23.5 0 42.5 19 42.5 42.5-23.5 0-42.5-19-42.5-42.5z"/><path class="st0" d="M212.6 42.6c0 23.5-19 42.5-42.5 42.5 0-23.4 19-42.5 42.5-42.5z"/><path class="st0" d="M127.9.1c-23.5 0-42.5 19-42.5 42.5s19 42.5 42.5 42.5 42.5-19 42.5-42.5c0-23.4-19.1-42.5-42.5-42.5zm0 63.8c-11.7 0-21.3-9.5-21.3-21.3s9.5-21.3 21.3-21.3 21.3 9.5 21.3 21.3-9.6 21.3-21.3 21.3z"/><path class="st0" d="M212.6 85.1c-23.5 0-42.5 19-42.5 42.5s19 42.5 42.5 42.5 42.5-19 42.5-42.5-19-42.5-42.5-42.5zm0 63.7c-11.7 0-21.3-9.5-21.3-21.3s9.5-21.3 21.3-21.3c11.7 0 21.3 9.5 21.3 21.3s-9.5 21.3-21.3 21.3z"/><path class="st0" d="M85.3 85.1c-23.5 0-42.5-19-42.5-42.5S61.8.1 85.3.1v85z"/><path class="st0" d="M.2.1c23.5 0 42.5 19 42.5 42.5S23.7 85.1.2 85.1V.1z"/><circle class="st0" cx="319" cy="191.3" r="21.3"/><circle class="st0" cx="319" cy="233.8" r="21.3"/><circle class="st0" cx="276.4" cy="191.3" r="21.3"/><circle class="st0" cx="276.4" cy="233.8" r="21.3"/><circle class="st0" cx="148.8" cy="276.3" r="21.3"/><circle class="st0" cx="148.8" cy="318.8" r="21.3"/><circle class="st0" cx="106.3" cy="276.3" r="21.3"/><circle class="st0" cx="106.3" cy="318.8" r="21.3"/><path class="st0" d="M255.1 170.1c0 23.5-19 42.5-42.5 42.5 0-23.5 19-42.5 42.5-42.5z"/><path class="st0" d="M212.6 212.6c-23.5 0-42.5-19-42.5-42.5 23.5 0 42.5 19 42.5 42.5z"/><path class="st0" d="M212.6 212.6c23.5 0 42.5 19 42.5 42.5-23.5 0-42.5-19-42.5-42.5z"/><path class="st0" d="M212.6 212.6c0 23.5-19 42.5-42.5 42.5 0-23.5 19-42.5 42.5-42.5z"/><g><path class="st0" d="M85.1 170c0 23.5-19 42.5-42.5 42.5 0-23.5 19.1-42.5 42.5-42.5z"/><path class="st0" d="M42.6 212.5C19.1 212.5.1 193.5.1 170c23.5 0 42.5 19 42.5 42.5z"/><path class="st0" d="M42.6 212.5c23.5 0 42.5 19 42.5 42.5-23.4 0-42.5-19-42.5-42.5z"/><path class="st0" d="M42.6 212.5c0 23.5-19 42.5-42.5 42.5 0-23.4 19.1-42.5 42.5-42.5z"/></g><path class="st0" d="M127.9 170.1c-23.5 0-42.5 19-42.5 42.5s19 42.5 42.5 42.5 42.5-19 42.5-42.5-19.1-42.5-42.5-42.5zm0 63.7c-11.7 0-21.3-9.5-21.3-21.3 0-11.7 9.5-21.3 21.3-21.3s21.3 9.5 21.3 21.3c-.1 11.8-9.6 21.3-21.3 21.3z"/><path class="st0" d="M212.6 255c-23.5 0-42.5 19-42.5 42.5s19 42.5 42.5 42.5 42.5-19 42.5-42.5c0-23.4-19-42.5-42.5-42.5zm0 63.8c-11.7 0-21.3-9.5-21.3-21.3s9.5-21.3 21.3-21.3c11.7 0 21.3 9.5 21.3 21.3s-9.5 21.3-21.3 21.3z"/><path class="st0" d="M340.2 340c-23.5 0-42.5-19-42.5-42.5s19-42.5 42.5-42.5v85z"/><path class="st0" d="M255.2 255c23.5 0 42.5 19 42.5 42.5s-19 42.5-42.5 42.5v-85z"/></svg>