<svg width="54" height="54" viewBox="0 0 54 54" fill="none" xmlns="http://www.w3.org/2000/svg">
<path d="M21.4863 16.4727L18.7751 20.2248C17.5099 22.0551 17.781 25.3497 19.5885 26.7224L24.559 30.3831C25.4628 31.0237 25.4628 31.5728 25.1013 32.2134L25.8243 32.7625L28.2643 29.2849C29.8007 27.0885 29.6199 24.16 27.3606 22.5127L22.3901 18.8521C21.7574 18.3945 21.7574 17.7539 22.0286 17.1133L21.4863 16.4727Z" fill="#939598"/>
<path d="M25.6442 0L21.5774 5.7655C19.6796 8.51097 20.4025 13.0868 22.933 15.1001L29.711 20.1335C31.0666 21.1402 31.2474 23.7941 30.2533 25.0753L30.7955 25.5329L35.4046 18.8523C37.4831 15.9238 37.3928 11.4395 34.1393 8.96855L26.9094 3.56912C25.9153 2.83699 25.3731 1.55577 26.2768 0.274547L25.6442 0Z" fill="#939598"/>
<path d="M14.8892 36.4236H20.4019L21.3961 39.8097H30.343L31.3371 36.4236H36.7596L36.0366 33.9526H15.7025L14.8892 36.4236Z" fill="#939598"/>
<path d="M42.9956 52.896C42.9956 52.8045 42.9956 52.713 42.9052 52.713C42.8148 52.713 42.8148 52.6215 42.8148 52.6215C42.8148 52.6215 42.7245 52.53 42.6341 52.53C42.5437 52.53 42.5437 52.53 42.4533 52.4385C42.4533 52.4385 42.363 52.4385 42.363 52.3469V51.8894H42.8148C42.8148 51.8894 42.9052 51.8894 42.9052 51.9809L42.9956 51.8894C42.9052 51.8894 42.9052 51.7979 42.8148 51.7979H42.2726C42.1822 51.7979 42.1822 51.7979 42.1822 51.8894L42.0918 51.9809V52.1639C42.0918 52.1639 42.0918 52.2554 42.1822 52.2554L42.2726 52.3469C42.2726 52.3469 42.363 52.3469 42.4533 52.4385C42.5437 52.4385 42.5437 52.4385 42.5437 52.53C42.5437 52.6215 42.6341 52.53 42.6341 52.6215L42.7245 52.713V52.8045C42.7245 52.896 42.7245 52.9876 42.6341 52.9876C42.5437 52.9876 42.5437 53.0791 42.4533 53.0791H42.2726C42.1822 53.0791 42.1822 52.9876 42.0918 52.9876L42.0015 53.0791C42.0918 53.1706 42.1822 53.1706 42.1822 53.1706H42.6341C42.7245 53.1706 42.7245 53.1706 42.7245 53.0791L42.8148 52.9876C42.9956 52.9876 42.9956 52.896 42.9956 52.896Z" fill="#939598"/>
<path d="M44.5317 53.1706V51.7979H44.351L43.9895 52.6215V52.713V52.896V52.9876V53.0791V52.9876V52.896V52.713L43.628 51.8894H43.4473V53.2621H43.5376V52.3469V52.1639V52.3469V52.4385V52.53L43.8991 53.4451L44.2606 52.53V52.4385V52.3469V52.1639V52.3469V53.2621H44.5317V53.1706Z" fill="#939598"/>
<path d="M19.5891 50.2422C19.4084 48.5949 18.7758 48.2289 17.4202 47.6798C18.4143 47.1307 18.9565 46.2155 18.9565 45.1173C18.9565 42.8294 17.149 41.8228 15.0704 41.8228H9.46729V53.9944H15.0704C17.5105 54.0859 19.9506 53.0792 19.5891 50.2422ZM11.9977 44.2022H14.8897C16.6972 44.2022 16.7875 46.8561 14.9801 46.8561H11.9977V44.2022ZM15.2512 51.798H11.9977V49.0525H15.2512C17.6913 49.0525 17.5105 51.798 15.2512 51.798Z" fill="#939598"/>
<path d="M30.7048 50.2422C30.5241 48.5949 29.8011 48.2289 28.5359 47.6798C29.53 47.1307 30.0722 46.2155 30.0722 45.1173C30.0722 42.8294 28.2648 41.8228 26.1862 41.8228H20.583V53.9944H26.1862C28.7166 54.0859 31.1567 53.0792 30.7048 50.2422ZM23.2038 44.2022H26.0958C27.9033 44.2022 27.9936 46.8561 26.1862 46.8561H23.2038V44.2022ZM26.5477 51.798H23.2942V49.0525H26.5477C28.8974 49.0525 28.807 51.798 26.5477 51.798Z" fill="#939598"/>
<path d="M42.0017 50.2422C41.821 48.5949 41.098 48.2289 39.8328 47.6798C40.8269 47.1307 41.3691 46.2155 41.3691 45.1173C41.3691 42.8294 39.5616 41.8228 37.483 41.8228H31.8799V53.9944H37.483C39.9231 54.0859 42.3632 53.0792 42.0017 50.2422ZM34.4103 44.2022H37.3023C39.1098 44.2022 39.2905 46.8561 37.3927 46.8561H34.4103V44.2022ZM37.7542 51.798H34.5007V49.0525H37.7542C40.1039 49.0525 40.0135 51.798 37.7542 51.798Z" fill="#939598"/>
</svg>
