<svg width="205" height="204" viewBox="0 0 205 204" fill="none" xmlns="http://www.w3.org/2000/svg">
<g opacity="0.2" clip-path="url(#clip0_3_400)">
<g opacity="0.7">
<path d="M205 135.531C186.221 135.531 170.998 120.308 170.998 101.529C170.998 82.7498 186.221 67.5268 205 67.5268L205 135.531Z" fill="#008FC4"/>
<path d="M136.995 67.5268C155.775 67.5268 170.998 82.7498 170.998 101.529C170.998 120.308 155.775 135.531 136.995 135.531L136.995 67.5268Z" fill="#008FC4"/>
</g>
</g>
<g opacity="0.2">
<path d="M102.169 170.406C83.4871 170.406 68.3463 155.262 68.3463 136.582C87.0281 136.582 102.169 151.726 102.169 170.406Z" fill="#008FC4"/>
<path d="M68.3478 204.23C68.3478 185.55 83.4886 170.406 102.17 170.406C102.17 189.086 87.0296 204.23 68.3478 204.23Z" fill="#008FC4"/>
<path d="M102.169 170.406C102.169 151.726 117.315 136.582 135.996 136.582C135.996 155.262 120.851 170.406 102.169 170.406Z" fill="#008FC4"/>
<path d="M135.996 204.23C117.315 204.23 102.169 189.086 102.169 170.406C120.851 170.406 135.996 185.55 135.996 204.23Z" fill="#008FC4"/>
</g>
<g opacity="0.2">
<ellipse opacity="0.7" cx="187.796" cy="187.148" rx="17.0716" ry="16.9522" transform="rotate(-180 187.796 187.148)" fill="#008FC4"/>
<ellipse opacity="0.7" cx="187.796" cy="153.243" rx="17.0716" ry="16.9522" transform="rotate(-180 187.796 153.243)" fill="#008FC4"/>
<ellipse opacity="0.7" cx="153.653" cy="187.148" rx="17.0716" ry="16.9522" transform="rotate(-180 153.653 187.148)" fill="#008FC4"/>
<ellipse opacity="0.7" cx="153.653" cy="153.243" rx="17.0716" ry="16.9522" transform="rotate(-180 153.653 153.243)" fill="#008FC4"/>
</g>
<g opacity="0.2">
<ellipse opacity="0.7" cx="187.796" cy="50.8567" rx="17.0716" ry="16.9522" transform="rotate(-180 187.796 50.8567)" fill="#005FB5"/>
<ellipse opacity="0.7" cx="187.796" cy="16.9523" rx="17.0716" ry="16.9522" transform="rotate(-180 187.796 16.9523)" fill="#005FB5"/>
<ellipse opacity="0.7" cx="153.653" cy="50.8567" rx="17.0716" ry="16.9522" transform="rotate(-180 153.653 50.8567)" fill="#005FB5"/>
<ellipse opacity="0.7" cx="153.653" cy="16.9523" rx="17.0716" ry="16.9522" transform="rotate(-180 153.653 16.9523)" fill="#005FB5"/>
</g>
<path fill-rule="evenodd" clip-rule="evenodd" d="M102.015 68.0912C83.3918 68.0912 68.2949 83.1881 68.2949 101.811C68.2949 120.434 83.3918 135.531 102.015 135.531C120.638 135.531 135.735 120.434 135.735 101.811C135.735 83.1881 120.638 68.0912 102.015 68.0912ZM101.735 84.8812C92.385 84.8812 84.8052 92.461 84.8052 101.811C84.8052 111.161 92.385 118.741 101.735 118.741C111.085 118.741 118.665 111.161 118.665 101.811C118.665 92.461 111.085 84.8812 101.735 84.8812Z" fill="#0038A9"/>
<path fill-rule="evenodd" clip-rule="evenodd" d="M34.5749 136.66C15.9519 136.66 0.854939 151.757 0.854938 170.38C0.854936 189.003 15.9519 204.1 34.5749 204.1C53.198 204.1 68.2949 189.003 68.2949 170.38C68.2949 151.757 53.198 136.66 34.5749 136.66ZM34.2951 153.45C24.9449 153.45 17.3651 161.03 17.3651 170.38C17.3651 179.73 24.9449 187.31 34.2951 187.31C43.6453 187.31 51.2251 179.73 51.2251 170.38C51.2251 161.03 43.6453 153.45 34.2951 153.45Z" fill="#0038A9"/>
<defs>
<clipPath id="clip0_3_400">
<rect width="68.0043" height="68.0043" fill="white" transform="translate(205 135.531) rotate(-180)"/>
</clipPath>
</defs>
</svg>
