<svg width="47" height="47" viewBox="0 0 47 47" fill="none" xmlns="http://www.w3.org/2000/svg">
<g clip-path="url(#clip0_10_9954)">
<path d="M34.2708 42.8099C33.7296 42.8099 33.2917 43.2478 33.2917 43.789V44.0625C33.2917 44.6018 32.8528 45.0417 32.3125 45.0417H2.9375C2.39723 45.0417 1.95833 44.6018 1.95833 44.0625V9.79298L33.2917 9.83434V12.3371C33.2917 12.8784 33.7296 13.3163 34.2708 13.3163C34.8121 13.3163 35.25 12.8784 35.25 12.3371V4.89583C35.25 3.276 33.9323 1.95833 32.3125 1.95833H25.4583V0.979167C25.4583 0.437942 25.0204 0 24.4792 0C23.9379 0 23.5 0.437942 23.5 0.979167V1.95833H11.75V0.979167C11.75 0.437942 11.3121 0 10.7708 0C10.2296 0 9.79167 0.437942 9.79167 0.979167V1.95833H2.9375C1.31766 1.95833 0 3.276 0 4.89583V44.0625C0 45.6823 1.31766 47 2.9375 47H32.3125C33.9323 47 35.25 45.6823 35.25 44.0625V43.789C35.25 43.2478 34.8121 42.8099 34.2708 42.8099ZM1.95833 4.89583C1.95833 4.35653 2.39723 3.91667 2.9375 3.91667H9.79167V4.89583C9.79167 5.43706 10.2296 5.875 10.7708 5.875C11.3121 5.875 11.75 5.43706 11.75 4.89583V3.91667H23.5V4.89583C23.5 5.43706 23.9379 5.875 24.4792 5.875C25.0204 5.875 25.4583 5.43706 25.4583 4.89583V3.91667H32.3125C32.8528 3.91667 33.2917 4.35653 33.2917 4.89583V7.876L1.95833 7.83465V4.89583Z" fill="white"/>
<path d="M28.3958 18.0304C23.5362 18.0304 19.5833 21.9834 19.5833 26.8429C19.5833 31.7024 23.5362 35.6554 28.3958 35.6554C33.2553 35.6554 37.2083 31.7024 37.2083 26.8429C37.2083 21.9834 33.2553 18.0304 28.3958 18.0304ZM28.3958 33.6971C24.6168 33.6971 21.5416 30.6219 21.5416 26.8429C21.5416 23.064 24.6168 19.9888 28.3958 19.9888C32.1747 19.9888 35.2499 23.064 35.2499 26.8429C35.2499 30.6219 32.1747 33.6971 28.3958 33.6971Z" fill="white"/>
<path d="M44.7549 36.2808L40.1618 31.6877C40.7796 30.193 41.1251 28.5582 41.1251 26.8429C41.1251 19.8243 35.4145 14.1138 28.3959 14.1138C21.3773 14.1138 15.6667 19.8243 15.6667 26.8429C15.6667 33.8616 21.3773 39.5721 28.3959 39.5721C30.1129 39.5721 31.7495 39.2259 33.2455 38.6069L37.8281 43.2076C38.7594 44.1371 39.9853 44.6496 41.2819 44.6496C42.591 44.6496 43.8235 44.1371 44.7549 43.2076C46.6635 41.2971 46.6635 38.1913 44.7549 36.2808ZM28.3959 37.6138C22.4569 37.6138 17.6251 32.781 17.6251 26.8429C17.6251 20.9048 22.4569 16.0721 28.3959 16.0721C34.335 16.0721 39.1667 20.9048 39.1667 26.8429C39.1667 32.781 34.335 37.6138 28.3959 37.6138ZM43.3703 41.823C42.2582 42.9361 40.3419 42.9495 39.2136 41.825L35.0674 37.663C36.753 36.6198 38.1743 35.1983 39.2173 33.5124L43.3703 37.6654C44.5158 38.811 44.5158 40.6775 43.3703 41.823Z" fill="white"/>
<path d="M40.1524 37.216C39.7699 36.8335 39.1503 36.8335 38.7678 37.216C38.3853 37.5985 38.3853 38.2181 38.7678 38.6006L40.4326 40.2644C40.6238 40.4556 40.8744 40.5512 41.1249 40.5512C41.3754 40.5512 41.6259 40.4556 41.8172 40.2644C42.1997 39.8819 42.1997 39.2623 41.8172 38.8798L40.1524 37.216Z" fill="white"/>
<path d="M17.6251 12.7292C17.6251 12.1879 17.1871 11.75 16.6459 11.75H10.7709C10.2297 11.75 9.79175 12.1879 9.79175 12.7292C9.79175 13.2704 10.2297 13.7083 10.7709 13.7083H16.6459C17.1871 13.7083 17.6251 13.2704 17.6251 12.7292Z" fill="white"/>
<path d="M4.89591 13.7083H6.85425C7.39547 13.7083 7.83341 13.2704 7.83341 12.7292C7.83341 12.1879 7.39547 11.75 6.85425 11.75H4.89591C4.35469 11.75 3.91675 12.1879 3.91675 12.7292C3.91675 13.2704 4.35469 13.7083 4.89591 13.7083Z" fill="white"/>
<path d="M14.6876 15.6667H4.89591C4.35469 15.6667 3.91675 16.1046 3.91675 16.6458C3.91675 17.1871 4.35469 17.625 4.89591 17.625H14.6876C15.2288 17.625 15.6667 17.1871 15.6667 16.6458C15.6667 16.1046 15.2288 15.6667 14.6876 15.6667Z" fill="white"/>
<path d="M4.89591 21.5417H12.7292C13.2705 21.5417 13.7084 21.1037 13.7084 20.5625C13.7084 20.0213 13.2705 19.5833 12.7292 19.5833H4.89591C4.35469 19.5833 3.91675 20.0213 3.91675 20.5625C3.91675 21.1037 4.35469 21.5417 4.89591 21.5417Z" fill="white"/>
<path d="M4.89591 43.0833H16.6459C17.1871 43.0833 17.6251 42.6454 17.6251 42.1042C17.6251 41.5629 17.1871 41.125 16.6459 41.125H4.89591C4.35469 41.125 3.91675 41.5629 3.91675 42.1042C3.91675 42.6454 4.35469 43.0833 4.89591 43.0833Z" fill="white"/>
<path d="M14.6876 37.2083H10.7709C10.2297 37.2083 9.79175 37.6463 9.79175 38.1875C9.79175 38.7287 10.2297 39.1667 10.7709 39.1667H14.6876C15.2288 39.1667 15.6667 38.7287 15.6667 38.1875C15.6667 37.6463 15.2288 37.2083 14.6876 37.2083Z" fill="white"/>
<path d="M4.89591 39.1667H6.85425C7.39547 39.1667 7.83341 38.7287 7.83341 38.1875C7.83341 37.6463 7.39547 37.2083 6.85425 37.2083H4.89591C4.35469 37.2083 3.91675 37.6463 3.91675 38.1875C3.91675 38.7287 4.35469 39.1667 4.89591 39.1667Z" fill="white"/>
<path d="M4.89591 35.25H12.7292C13.2705 35.25 13.7084 34.812 13.7084 34.2708C13.7084 33.7296 13.2705 33.2917 12.7292 33.2917H4.89591C4.35469 33.2917 3.91675 33.7296 3.91675 34.2708C3.91675 34.812 4.35469 35.25 4.89591 35.25Z" fill="white"/>
</g>
<defs>
<clipPath id="clip0_10_9954">
<rect width="47" height="47" fill="white"/>
</clipPath>
</defs>
</svg>
