<svg width="417" height="351" viewBox="0 0 417 351" fill="none" xmlns="http://www.w3.org/2000/svg">
<path opacity="0.5" d="M416.998 365.144C416.998 449.011 349.481 516.978 266.259 516.978C222.997 516.978 183.965 498.616 156.525 469.217C181.941 442.009 197.53 405.452 197.53 365.144C197.53 324.835 183.385 291.682 159.994 264.939C187.202 292.198 224.79 309.064 266.259 309.064C307.728 309.064 348.617 290.638 376.057 261.187C401.473 288.33 416.998 324.886 416.998 365.144Z" fill="#17FCC4"/>
<path opacity="0.5" d="M115.465 157.228C115.465 195.629 129.61 230.689 153.001 257.433C125.806 230.174 88.2054 213.256 46.8006 213.256C5.39576 213.256 -35.6222 231.669 -63.0492 261.185C-88.4647 234.042 -103.99 197.486 -103.99 157.228C-103.99 73.3613 -36.4733 5.3418 46.8006 5.3418C90.0623 5.3418 129.043 23.7038 156.534 53.1553C131.067 80.3502 115.478 116.907 115.478 157.228" fill="#17FCC4"/>
<path opacity="0.5" d="M416.998 157.228C416.998 197.486 401.46 234.042 376.057 261.185C348.617 231.669 309.585 213.256 266.272 213.256C222.959 213.256 187.202 230.174 159.994 257.433C183.385 230.689 197.53 195.629 197.53 157.228C197.53 116.907 181.941 80.3502 156.525 53.1553C183.965 23.7038 222.997 5.3418 266.259 5.3418C349.481 5.3418 416.998 73.3742 416.998 157.228Z" fill="#17FCC4"/>
<path opacity="0.5" d="M115.468 365.144C115.468 405.452 131.057 442.009 156.524 469.217C129.033 498.616 90.0522 516.978 46.7905 516.978C-36.4834 516.978 -104 449.011 -104 365.144C-104 324.886 -88.4619 288.33 -63.0594 261.187C-35.6195 290.638 3.47723 309.064 46.7905 309.064C90.1037 309.064 125.796 292.198 153.004 264.939C129.613 291.682 115.468 326.743 115.468 365.144Z" fill="#17FCC4"/>
<path d="M376.04 261.16C348.613 290.611 309.568 309.038 266.255 309.038C222.941 309.038 187.184 292.172 159.977 264.912C183.368 291.656 197.513 326.716 197.513 365.117C197.513 405.426 181.923 441.995 156.508 469.19C131.041 441.982 115.451 405.426 115.451 365.117C115.451 324.808 129.597 291.656 152.988 264.912C125.793 292.172 88.1918 309.038 46.787 309.038C5.38215 309.038 -35.623 290.611 -63.0629 261.16C-35.623 231.657 3.46085 213.23 46.787 213.23C90.1131 213.23 125.793 230.148 152.988 257.408L156.392 261.16L156.521 261.276L156.572 261.16L156.521 261.044L152.988 257.408C129.597 230.664 115.451 195.603 115.451 157.203C115.451 116.881 131.041 80.3248 156.508 53.1299C181.923 80.3248 197.513 116.881 197.513 157.203C197.513 197.525 183.368 230.664 159.977 257.408C187.184 230.148 224.785 213.23 266.255 213.23C307.724 213.23 348.613 231.657 376.04 261.16Z" fill="#17FCC4"/>
</svg>
