<svg width="17" height="20" viewBox="0 0 17 20" fill="none" xmlns="http://www.w3.org/2000/svg">
<path fill-rule="evenodd" clip-rule="evenodd" d="M8.5 20C13.1944 20 17 16.1944 17 11.5C17 6.80558 13.1944 3 8.5 3C3.80558 3 0 6.80558 0 11.5C0 16.1944 3.80558 20 8.5 20ZM6.83701 14.1553C7.00439 14.272 7.20396 14.3333 7.40353 14.3333L7.40997 14.3272C7.64816 14.3272 7.8928 14.2413 8.07305 14.0694L12.1803 10.2027C12.5472 9.85894 12.5537 9.28813 12.1867 8.93214C11.8198 8.58229 11.2275 8.57616 10.8541 8.92601L7.32628 12.2526L5.56235 10.9944C5.1439 10.6937 4.55164 10.7735 4.24263 11.1724C3.92718 11.5652 4.01087 12.1299 4.42932 12.4306L6.83701 14.1553Z" fill="#17FCC4"/>
<path d="M7.40333 14.3337C7.20376 14.3337 7.00419 14.2723 6.83681 14.1557L4.42912 12.431C4.01067 12.1302 3.92698 11.5655 4.24242 11.1727C4.55143 10.7738 5.1437 10.694 5.56215 10.9947L7.32608 12.253L10.8539 8.92633C11.2273 8.57648 11.8196 8.58262 12.1865 8.93247C12.5535 9.28846 12.547 9.85926 12.1801 10.203L8.07285 14.0697C7.89259 14.2416 7.64796 14.3275 7.40977 14.3275L7.40333 14.3337Z" fill="#002EA6"/>
</svg>
