<svg width="48" height="48" viewBox="0 0 48 48" fill="none" xmlns="http://www.w3.org/2000/svg">
<g clip-path="url(#clip0_18_2531)">
<path d="M23.9925 0C10.7481 0 0 10.7481 0 23.9925C0 37.237 10.7481 47.985 23.9925 47.985C37.237 47.985 47.985 37.237 47.985 23.9925C47.985 10.7481 37.2519 0 23.9925 0Z" fill="#17FCC4"/>
<path d="M36.7286 33.1411C36.8034 33.0215 36.8781 32.902 36.9379 32.7973H36.923C37.5209 31.721 36.8034 30.4205 35.0245 28.9854L32.7673 27.3261C32.7673 27.3261 30.6595 25.906 29.6729 27.5653C29.6729 27.5653 28.477 30.0767 26.4589 29.1199C26.4589 29.1199 21.0625 24.6354 19.0444 22.0194C19.0444 22.0194 17.3702 20.3601 19.9114 17.9384C19.9114 17.9384 21.8398 15.9801 20.031 14.4853L17.2207 12.2579C17.2207 12.2579 14.5 10.2847 12.6913 12.4522C12.6913 12.4522 9.52216 16.5332 11.4655 20.4199C11.4655 20.4199 16.6227 29.9421 26.743 35.1741C26.743 35.1741 32.0049 37.7602 34.4415 35.8917C34.4415 35.8917 35.9962 34.2473 36.7286 33.1411Z" fill="#002EA6"/>
</g>
<defs>
<clipPath id="clip0_18_2531">
<rect width="48" height="48" fill="white"/>
</clipPath>
</defs>
</svg>
