<svg width="75" height="75" viewBox="0 0 75 75" fill="none" xmlns="http://www.w3.org/2000/svg">
<g clip-path="url(#clip0_41_133)">
<path d="M62.9797 32.4626C61.9879 32.2509 61.4273 31.7852 61.2548 31.1502L61.2116 31.1502C61.0822 30.5152 61.2116 29.5838 61.6429 28.3984L68.8016 12.2686C69.1466 11.5065 69.1034 10.8292 68.7153 10.2365C68.3272 9.64377 67.7666 9.34742 66.9903 9.34742L64.1872 9.34742C63.3247 9.34742 62.376 9.55909 61.3841 9.98245C60.3923 10.4058 59.5298 11.0408 58.8829 11.9299L43.8755 35.0874C43.4443 35.5954 43.2286 36.2305 43.2286 36.8655L43.2286 54.6464C43.2286 56.1705 44.0049 56.9326 45.5574 56.9326L66.4728 56.9326C68.1547 56.9326 68.9741 56.0435 68.9741 54.3078L68.9741 35.7225C68.9741 34.6217 68.7584 33.8597 68.3272 33.4363C67.8528 33.013 66.9903 32.759 65.6535 32.632L62.9797 32.4626Z" fill="#002ea6"/>
<ellipse cx="57.1418" cy="47.1362" rx="17.4945" ry="18.1943" transform="rotate(-180 57.1418 47.1362)" fill="#002ea6"/>
<path d="M23.797 32.4626C22.8051 32.2509 22.2445 31.7852 22.072 31.1502L22.0289 31.1502C21.8995 30.5152 22.0289 29.5838 22.4601 28.3984L29.6188 12.2686C29.9638 11.5065 29.9207 10.8292 29.5326 10.2365C29.1445 9.64377 28.5838 9.34742 27.8076 9.34742L25.0045 9.34742C24.142 9.34742 23.1933 9.55909 22.2014 9.98245C21.2095 10.4058 20.347 11.0408 19.7002 11.9299L4.69277 35.0874C4.26152 35.5954 4.04589 36.2305 4.04589 36.8655L4.04589 54.6464C4.04589 56.1705 4.82214 56.9326 6.37462 56.9326L27.2901 56.9326C28.972 56.9326 29.7913 56.0435 29.7913 54.3078L29.7913 35.7225C29.7913 34.6217 29.5757 33.8597 29.1445 33.4363C28.6701 33.013 27.8076 32.759 26.4707 32.632L23.797 32.4626Z" fill="#002ea6"/>
<ellipse cx="17.9531" cy="47.1362" rx="17.4945" ry="18.1943" transform="rotate(-180 17.9531 47.1362)" fill="#002ea6"/>
</g>
<defs>
<clipPath id="clip0_41_133">
<rect width="74.1762" height="74.1762" fill="#002ea6" transform="translate(0.460205 0.0761719)"/>
</clipPath>
</defs>
</svg>
