<svg width="75" height="75" viewBox="0 0 75 75" fill="none" xmlns="http://www.w3.org/2000/svg">
<g clip-path="url(#clip0_41_134)">
<path d="M11.9235 42.8875C12.9153 43.0992 13.4759 43.5648 13.6484 44.1999L13.6916 44.1999C13.8209 44.8349 13.6916 45.7663 13.2603 46.9517L6.10162 63.0815C5.75662 63.8436 5.79976 64.5209 6.18788 65.1136C6.576 65.7063 7.13662 66.0027 7.91286 66.0027L10.716 66.0027C11.5785 66.0027 12.5272 65.791 13.5191 65.3676C14.5109 64.9443 15.3734 64.3093 16.0203 63.4202L31.0277 40.2627C31.4589 39.7547 31.6746 39.1196 31.6746 38.4846L31.6746 20.7037C31.6746 19.1796 30.8983 18.4175 29.3458 18.4175L8.43037 18.4175C6.7485 18.4175 5.92913 19.3066 5.92913 21.0423L5.92913 39.6276C5.92913 40.7284 6.14476 41.4904 6.576 41.9138C7.05038 42.3371 7.91286 42.5911 9.24973 42.7181L11.9235 42.8875Z" fill="white"/>
<ellipse cx="17.7614" cy="28.2139" rx="17.4945" ry="18.1943" fill="white"/>
<path d="M51.1062 42.8875C52.0981 43.0992 52.6587 43.5648 52.8312 44.1999L52.8743 44.1999C53.0037 44.8349 52.8743 45.7663 52.4431 46.9517L45.2844 63.0815C44.9394 63.8436 44.9825 64.5209 45.3706 65.1136C45.7587 65.7063 46.3194 66.0027 47.0956 66.0027L49.8987 66.0027C50.7612 66.0027 51.7099 65.791 52.7018 65.3676C53.6937 64.9443 54.5562 64.3093 55.203 63.4202L70.2104 40.2627C70.6417 39.7547 70.8573 39.1196 70.8573 38.4846L70.8573 20.7037C70.8573 19.1796 70.0811 18.4175 68.5286 18.4175L47.6131 18.4175C45.9312 18.4175 45.1119 19.3066 45.1119 21.0423L45.1119 39.6276C45.1119 40.7284 45.3275 41.4904 45.7587 41.9138C46.2331 42.3371 47.0956 42.5911 48.4325 42.7181L51.1062 42.8875Z" fill="white"/>
<ellipse cx="56.9501" cy="28.2139" rx="17.4945" ry="18.1943" fill="white"/>
</g>
<defs>
<clipPath id="clip0_41_134">
<rect width="74.1762" height="74.1762" fill="white" transform="translate(0.268311 0.747559)"/>
</clipPath>
</defs>
</svg>
