<svg width="572" height="262" viewBox="0 0 572 262" preserveAspectRatio="none" fill="none" xmlns="http://www.w3.org/2000/svg">
<path d="M7.47703 4.30005C7.47703 2.27018 5.8315 0.624652 3.80164 0.624652C1.77177 0.624652 0.126239 2.27018 0.126239 4.30005H7.47703ZM571.149 254.561H55.2572V261.912H571.149V254.561ZM7.47703 206.738C7.47703 206.592 7.47703 206.446 7.47703 206.3C7.47703 206.154 7.47703 206.009 7.47703 205.863C7.47703 205.718 7.47703 205.573 7.47703 205.428C7.47703 205.283 7.47703 205.138 7.47703 204.993C7.47703 204.848 7.47703 204.704 7.47703 204.559C7.47703 204.415 7.47703 204.271 7.47703 204.127C7.47703 203.982 7.47703 203.839 7.47703 203.695C7.47703 203.551 7.47703 203.407 7.47703 203.264C7.47703 203.121 7.47703 202.977 7.47703 202.834C7.47703 202.691 7.47703 202.548 7.47703 202.405C7.47703 202.263 7.47703 202.12 7.47703 201.977C7.47703 201.835 7.47703 201.693 7.47703 201.551C7.47703 201.408 7.47703 201.266 7.47703 201.125C7.47703 200.983 7.47703 200.841 7.47703 200.7C7.47703 200.558 7.47703 200.417 7.47703 200.275C7.47703 200.134 7.47703 199.993 7.47703 199.852C7.47703 199.711 7.47703 199.571 7.47703 199.43C7.47703 199.29 7.47703 199.149 7.47703 199.009C7.47703 198.869 7.47703 198.729 7.47703 198.589C7.47703 198.449 7.47703 198.309 7.47703 198.169C7.47703 198.029 7.47703 197.89 7.47703 197.751C7.47703 197.611 7.47703 197.472 7.47703 197.333C7.47703 197.194 7.47703 197.055 7.47703 196.916C7.47703 196.778 7.47703 196.639 7.47703 196.501C7.47703 196.362 7.47703 196.224 7.47703 196.086C7.47703 195.948 7.47703 195.81 7.47703 195.672C7.47703 195.534 7.47703 195.396 7.47703 195.259C7.47703 195.121 7.47703 194.984 7.47703 194.846C7.47703 194.709 7.47703 194.572 7.47703 194.435C7.47703 194.298 7.47703 194.161 7.47703 194.024C7.47703 193.888 7.47703 193.751 7.47703 193.615C7.47703 193.478 7.47703 193.342 7.47703 193.206C7.47703 193.07 7.47703 192.934 7.47703 192.798C7.47703 192.662 7.47703 192.527 7.47703 192.391C7.47703 192.255 7.47703 192.12 7.47703 191.985C7.47703 191.85 7.47703 191.714 7.47703 191.579C7.47703 191.444 7.47703 191.31 7.47703 191.175C7.47703 191.04 7.47703 190.906 7.47703 190.771C7.47703 190.637 7.47703 190.502 7.47703 190.368C7.47703 190.234 7.47703 190.1 7.47703 189.966C7.47703 189.832 7.47703 189.699 7.47703 189.565C7.47703 189.431 7.47703 189.298 7.47703 189.164C7.47703 189.031 7.47703 188.898 7.47703 188.765C7.47703 188.632 7.47703 188.499 7.47703 188.366C7.47703 188.233 7.47703 188.1 7.47703 187.968C7.47703 187.835 7.47703 187.703 7.47703 187.571C7.47703 187.438 7.47703 187.306 7.47703 187.174C7.47703 187.042 7.47703 186.91 7.47703 186.779C7.47703 186.647 7.47703 186.515 7.47703 186.384C7.47703 186.252 7.47703 186.121 7.47703 185.989C7.47703 185.858 7.47703 185.727 7.47703 185.596C7.47703 185.465 7.47703 185.334 7.47703 185.203C7.47703 185.073 7.47703 184.942 7.47703 184.812C7.47703 184.681 7.47703 184.551 7.47703 184.42C7.47703 184.29 7.47703 184.16 7.47703 184.03C7.47703 183.9 7.47703 183.77 7.47703 183.641C7.47703 183.511 7.47703 183.381 7.47703 183.252C7.47703 183.122 7.47703 182.993 7.47703 182.863C7.47703 182.734 7.47703 182.605 7.47703 182.476C7.47703 182.347 7.47703 182.218 7.47703 182.089C7.47703 181.961 7.47703 181.832 7.47703 181.703C7.47703 181.575 7.47703 181.446 7.47703 181.318C7.47703 181.19 7.47703 181.062 7.47703 180.933C7.47703 180.805 7.47703 180.677 7.47703 180.55C7.47703 180.422 7.47703 180.294 7.47703 180.166C7.47703 180.039 7.47703 179.911 7.47703 179.784C7.47703 179.657 7.47703 179.529 7.47703 179.402C7.47703 179.275 7.47703 179.148 7.47703 179.021C7.47703 178.894 7.47703 178.767 7.47703 178.641C7.47703 178.514 7.47703 178.387 7.47703 178.261C7.47703 178.134 7.47703 178.008 7.47703 177.882C7.47703 177.755 7.47703 177.629 7.47703 177.503C7.47703 177.377 7.47703 177.251 7.47703 177.125C7.47703 177 7.47703 176.874 7.47703 176.748C7.47703 176.623 7.47703 176.497 7.47703 176.372C7.47703 176.246 7.47703 176.121 7.47703 175.996C7.47703 175.871 7.47703 175.746 7.47703 175.621C7.47703 175.496 7.47703 175.371 7.47703 175.246C7.47703 175.121 7.47703 174.997 7.47703 174.872C7.47703 174.748 7.47703 174.623 7.47703 174.499C7.47703 174.375 7.47703 174.25 7.47703 174.126C7.47703 174.002 7.47703 173.878 7.47703 173.754C7.47703 173.63 7.47703 173.506 7.47703 173.383C7.47703 173.259 7.47703 173.135 7.47703 173.012C7.47703 172.888 7.47703 172.765 7.47703 172.641C7.47703 172.518 7.47703 172.395 7.47703 172.272C7.47703 172.149 7.47703 172.026 7.47703 171.903C7.47703 171.78 7.47703 171.657 7.47703 171.534C7.47703 171.411 7.47703 171.289 7.47703 171.166C7.47703 171.044 7.47703 170.921 7.47703 170.799C7.47703 170.676 7.47703 170.554 7.47703 170.432C7.47703 170.31 7.47703 170.188 7.47703 170.066C7.47703 169.944 7.47703 169.822 7.47703 169.7C7.47703 169.578 7.47703 169.456 7.47703 169.335C7.47703 169.213 7.47703 169.092 7.47703 168.97C7.47703 168.849 7.47703 168.727 7.47703 168.606C7.47703 168.485 7.47703 168.364 7.47703 168.243C7.47703 168.122 7.47703 168.001 7.47703 167.88C7.47703 167.759 7.47703 167.638 7.47703 167.517C7.47703 167.397 7.47703 167.276 7.47703 167.155C7.47703 167.035 7.47703 166.914 7.47703 166.794C7.47703 166.674 7.47703 166.553 7.47703 166.433C7.47703 166.313 7.47703 166.193 7.47703 166.073C7.47703 165.953 7.47703 165.833 7.47703 165.713C7.47703 165.593 7.47703 165.473 7.47703 165.353C7.47703 165.234 7.47703 165.114 7.47703 164.994C7.47703 164.875 7.47703 164.755 7.47703 164.636C7.47703 164.517 7.47703 164.397 7.47703 164.278C7.47703 164.159 7.47703 164.04 7.47703 163.921C7.47703 163.802 7.47703 163.683 7.47703 163.564C7.47703 163.445 7.47703 163.326 7.47703 163.207C7.47703 163.088 7.47703 162.97 7.47703 162.851C7.47703 162.733 7.47703 162.614 7.47703 162.496C7.47703 162.377 7.47703 162.259 7.47703 162.14C7.47703 162.022 7.47703 161.904 7.47703 161.786C7.47703 161.668 7.47703 161.549 7.47703 161.431C7.47703 161.313 7.47703 161.196 7.47703 161.078C7.47703 160.96 7.47703 160.842 7.47703 160.724C7.47703 160.607 7.47703 160.489 7.47703 160.371C7.47703 160.254 7.47703 160.136 7.47703 160.019C7.47703 159.901 7.47703 159.784 7.47703 159.667C7.47703 159.549 7.47703 159.432 7.47703 159.315C7.47703 159.198 7.47703 159.081 7.47703 158.964C7.47703 158.847 7.47703 158.73 7.47703 158.613C7.47703 158.496 7.47703 158.379 7.47703 158.262C7.47703 158.146 7.47703 158.029 7.47703 157.912C7.47703 157.796 7.47703 157.679 7.47703 157.563C7.47703 157.446 7.47703 157.33 7.47703 157.213C7.47703 157.097 7.47703 156.981 7.47703 156.864C7.47703 156.748 7.47703 156.632 7.47703 156.516C7.47703 156.4 7.47703 156.284 7.47703 156.168C7.47703 156.052 7.47703 155.936 7.47703 155.82C7.47703 155.704 7.47703 155.588 7.47703 155.472C7.47703 155.357 7.47703 155.241 7.47703 155.125C7.47703 155.01 7.47703 154.894 7.47703 154.779C7.47703 154.663 7.47703 154.548 7.47703 154.432C7.47703 154.317 7.47703 154.201 7.47703 154.086C7.47703 153.971 7.47703 153.856 7.47703 153.74C7.47703 153.625 7.47703 153.51 7.47703 153.395C7.47703 153.28 7.47703 153.165 7.47703 153.05C7.47703 152.935 7.47703 152.82 7.47703 152.705C7.47703 152.59 7.47703 152.475 7.47703 152.361C7.47703 152.246 7.47703 152.131 7.47703 152.016C7.47703 151.902 7.47703 151.787 7.47703 151.673C7.47703 151.558 7.47703 151.444 7.47703 151.329C7.47703 151.215 7.47703 151.1 7.47703 150.986C7.47703 150.872 7.47703 150.757 7.47703 150.643C7.47703 150.529 7.47703 150.414 7.47703 150.3C7.47703 150.186 7.47703 150.072 7.47703 149.958C7.47703 149.844 7.47703 149.73 7.47703 149.616C7.47703 149.502 7.47703 149.388 7.47703 149.274C7.47703 149.16 7.47703 149.046 7.47703 148.932C7.47703 148.819 7.47703 148.705 7.47703 148.591C7.47703 148.477 7.47703 148.364 7.47703 148.25C7.47703 148.136 7.47703 148.023 7.47703 147.909C7.47703 147.796 7.47703 147.682 7.47703 147.569C7.47703 147.455 7.47703 147.342 7.47703 147.228C7.47703 147.115 7.47703 147.001 7.47703 146.888C7.47703 146.775 7.47703 146.662 7.47703 146.548C7.47703 146.435 7.47703 146.322 7.47703 146.209C7.47703 146.095 7.47703 145.982 7.47703 145.869C7.47703 145.756 7.47703 145.643 7.47703 145.53C7.47703 145.417 7.47703 145.304 7.47703 145.191C7.47703 145.078 7.47703 144.965 7.47703 144.852C7.47703 144.739 7.47703 144.626 7.47703 144.514C7.47703 144.401 7.47703 144.288 7.47703 144.175C7.47703 144.062 7.47703 143.95 7.47703 143.837C7.47703 143.724 7.47703 143.612 7.47703 143.499C7.47703 143.386 7.47703 143.274 7.47703 143.161C7.47703 143.049 7.47703 142.936 7.47703 142.824C7.47703 142.711 7.47703 142.599 7.47703 142.486C7.47703 142.374 7.47703 142.261 7.47703 142.149C7.47703 142.036 7.47703 141.924 7.47703 141.812C7.47703 141.699 7.47703 141.587 7.47703 141.475C7.47703 141.362 7.47703 141.25 7.47703 141.138C7.47703 141.025 7.47703 140.913 7.47703 140.801C7.47703 140.689 7.47703 140.577 7.47703 140.464C7.47703 140.352 7.47703 140.24 7.47703 140.128C7.47703 140.016 7.47703 139.904 7.47703 139.792C7.47703 139.68 7.47703 139.568 7.47703 139.456C7.47703 139.343 7.47703 139.231 7.47703 139.119C7.47703 139.007 7.47703 138.896 7.47703 138.784C7.47703 138.672 7.47703 138.56 7.47703 138.448C7.47703 138.336 7.47703 138.224 7.47703 138.112C7.47703 138 7.47703 137.888 7.47703 137.776C7.47703 137.665 7.47703 137.553 7.47703 137.441C7.47703 137.329 7.47703 137.217 7.47703 137.105C7.47703 136.994 7.47703 136.882 7.47703 136.77C7.47703 136.658 7.47703 136.547 7.47703 136.435C7.47703 136.323 7.47703 136.211 7.47703 136.1C7.47703 135.988 7.47703 135.876 7.47703 135.765C7.47703 135.653 7.47703 135.541 7.47703 135.429C7.47703 135.318 7.47703 135.206 7.47703 135.094C7.47703 134.983 7.47703 134.871 7.47703 134.76C7.47703 134.648 7.47703 134.536 7.47703 134.425C7.47703 134.313 7.47703 134.201 7.47703 134.09C7.47703 133.978 7.47703 133.867 7.47703 133.755C7.47703 133.643 7.47703 133.532 7.47703 133.42C7.47703 133.309 7.47703 133.197 7.47703 133.086C7.47703 132.974 7.47703 132.862 7.47703 132.751C7.47703 132.639 7.47703 132.528 7.47703 132.416C7.47703 132.305 7.47703 132.193 7.47703 132.082C7.47703 131.97 7.47703 131.858 7.47703 131.747C7.47703 131.635 7.47703 131.524 7.47703 131.412C7.47703 131.301 7.47703 131.189 7.47703 131.078C7.47703 130.966 7.47703 130.855 7.47703 130.743C7.47703 130.631 7.47703 130.52 7.47703 130.408C7.47703 130.297 7.47703 130.185 7.47703 130.074C7.47703 129.962 7.47703 129.851 7.47703 129.739C7.47703 129.627 7.47703 129.516 7.47703 129.404C7.47703 129.293 7.47703 129.181 7.47703 129.07C7.47703 128.958 7.47703 128.846 7.47703 128.735C7.47703 128.623 7.47703 128.512 7.47703 128.4C7.47703 128.288 7.47703 128.177 7.47703 128.065C7.47703 127.954 7.47703 127.842 7.47703 127.73C7.47703 127.619 7.47703 127.507 7.47703 127.395C7.47703 127.284 7.47703 127.172 7.47703 127.06C7.47703 126.949 7.47703 126.837 7.47703 126.725C7.47703 126.614 7.47703 126.502 7.47703 126.39C7.47703 126.279 7.47703 126.167 7.47703 126.055C7.47703 125.943 7.47703 125.832 7.47703 125.72C7.47703 125.608 7.47703 125.496 7.47703 125.384C7.47703 125.273 7.47703 125.161 7.47703 125.049C7.47703 124.937 7.47703 124.825 7.47703 124.713C7.47703 124.602 7.47703 124.49 7.47703 124.378C7.47703 124.266 7.47703 124.154 7.47703 124.042C7.47703 123.93 7.47703 123.818 7.47703 123.706C7.47703 123.594 7.47703 123.482 7.47703 123.37C7.47703 123.258 7.47703 123.146 7.47703 123.034C7.47703 122.922 7.47703 122.81 7.47703 122.698C7.47703 122.586 7.47703 122.474 7.47703 122.362C7.47703 122.25 7.47703 122.137 7.47703 122.025C7.47703 121.913 7.47703 121.801 7.47703 121.689C7.47703 121.576 7.47703 121.464 7.47703 121.352C7.47703 121.24 7.47703 121.127 7.47703 121.015C7.47703 120.903 7.47703 120.79 7.47703 120.678C7.47703 120.566 7.47703 120.453 7.47703 120.341C7.47703 120.228 7.47703 120.116 7.47703 120.003C7.47703 119.891 7.47703 119.779 7.47703 119.666C7.47703 119.553 7.47703 119.441 7.47703 119.328C7.47703 119.216 7.47703 119.103 7.47703 118.99C7.47703 118.878 7.47703 118.765 7.47703 118.652C7.47703 118.54 7.47703 118.427 7.47703 118.314C7.47703 118.201 7.47703 118.089 7.47703 117.976C7.47703 117.863 7.47703 117.75 7.47703 117.637C7.47703 117.524 7.47703 117.411 7.47703 117.298C7.47703 117.185 7.47703 117.072 7.47703 116.959C7.47703 116.846 7.47703 116.733 7.47703 116.62C7.47703 116.507 7.47703 116.394 7.47703 116.281C7.47703 116.167 7.47703 116.054 7.47703 115.941C7.47703 115.828 7.47703 115.714 7.47703 115.601C7.47703 115.488 7.47703 115.374 7.47703 115.261C7.47703 115.148 7.47703 115.034 7.47703 114.921C7.47703 114.807 7.47703 114.694 7.47703 114.58C7.47703 114.466 7.47703 114.353 7.47703 114.239C7.47703 114.125 7.47703 114.012 7.47703 113.898C7.47703 113.784 7.47703 113.67 7.47703 113.557C7.47703 113.443 7.47703 113.329 7.47703 113.215C7.47703 113.101 7.47703 112.987 7.47703 112.873C7.47703 112.759 7.47703 112.645 7.47703 112.531C7.47703 112.417 7.47703 112.303 7.47703 112.189C7.47703 112.074 7.47703 111.96 7.47703 111.846C7.47703 111.732 7.47703 111.617 7.47703 111.503C7.47703 111.389 7.47703 111.274 7.47703 111.16C7.47703 111.045 7.47703 110.931 7.47703 110.816C7.47703 110.701 7.47703 110.587 7.47703 110.472C7.47703 110.357 7.47703 110.243 7.47703 110.128C7.47703 110.013 7.47703 109.898 7.47703 109.783C7.47703 109.669 7.47703 109.554 7.47703 109.439C7.47703 109.324 7.47703 109.209 7.47703 109.094C7.47703 108.978 7.47703 108.863 7.47703 108.748C7.47703 108.633 7.47703 108.518 7.47703 108.402C7.47703 108.287 7.47703 108.172 7.47703 108.056C7.47703 107.941 7.47703 107.825 7.47703 107.71C7.47703 107.594 7.47703 107.479 7.47703 107.363C7.47703 107.247 7.47703 107.132 7.47703 107.016C7.47703 106.9 7.47703 106.784 7.47703 106.668C7.47703 106.552 7.47703 106.436 7.47703 106.32C7.47703 106.204 7.47703 106.088 7.47703 105.972C7.47703 105.856 7.47703 105.74 7.47703 105.624C7.47703 105.507 7.47703 105.391 7.47703 105.275C7.47703 105.158 7.47703 105.042 7.47703 104.925C7.47703 104.809 7.47703 104.692 7.47703 104.575C7.47703 104.459 7.47703 104.342 7.47703 104.225C7.47703 104.109 7.47703 103.992 7.47703 103.875C7.47703 103.758 7.47703 103.641 7.47703 103.524C7.47703 103.407 7.47703 103.29 7.47703 103.173C7.47703 103.055 7.47703 102.938 7.47703 102.821C7.47703 102.703 7.47703 102.586 7.47703 102.469C7.47703 102.351 7.47703 102.234 7.47703 102.116C7.47703 101.998 7.47703 101.881 7.47703 101.763C7.47703 101.645 7.47703 101.527 7.47703 101.41C7.47703 101.292 7.47703 101.174 7.47703 101.056C7.47703 100.938 7.47703 100.82 7.47703 100.701C7.47703 100.583 7.47703 100.465 7.47703 100.347C7.47703 100.228 7.47703 100.11 7.47703 99.9915C7.47703 99.873 7.47703 99.7545 7.47703 99.6358C7.47703 99.5172 7.47703 99.3985 7.47703 99.2797C7.47703 99.161 7.47703 99.0421 7.47703 98.9232C7.47703 98.8042 7.47703 98.6852 7.47703 98.5661C7.47703 98.447 7.47703 98.3279 7.47703 98.2086C7.47703 98.0894 7.47703 97.97 7.47703 97.8506C7.47703 97.7312 7.47703 97.6117 7.47703 97.4921C7.47703 97.3726 7.47703 97.2529 7.47703 97.1332C7.47703 97.0134 7.47703 96.8936 7.47703 96.7737C7.47703 96.6538 7.47703 96.5338 7.47703 96.4138C7.47703 96.2937 7.47703 96.1735 7.47703 96.0533C7.47703 95.9331 7.47703 95.8127 7.47703 95.6923C7.47703 95.5719 7.47703 95.4514 7.47703 95.3308C7.47703 95.2103 7.47703 95.0896 7.47703 94.9688C7.47703 94.8481 7.47703 94.7272 7.47703 94.6063C7.47703 94.4854 7.47703 94.3644 7.47703 94.2433C7.47703 94.1221 7.47703 94.0009 7.47703 93.8797C7.47703 93.7584 7.47703 93.637 7.47703 93.5155C7.47703 93.3941 7.47703 93.2725 7.47703 93.1509C7.47703 93.0292 7.47703 92.9075 7.47703 92.7856C7.47703 92.6638 7.47703 92.5419 7.47703 92.4199C7.47703 92.2979 7.47703 92.1758 7.47703 92.0535C7.47703 91.9313 7.47703 91.809 7.47703 91.6867C7.47703 91.5643 7.47703 91.4418 7.47703 91.3192C7.47703 91.1966 7.47703 91.0739 7.47703 90.9512C7.47703 90.8284 7.47703 90.7055 7.47703 90.5825C7.47703 90.4596 7.47703 90.3365 7.47703 90.2133C7.47703 90.0902 7.47703 89.9669 7.47703 89.8436C7.47703 89.7202 7.47703 89.5967 7.47703 89.4732C7.47703 89.3496 7.47703 89.226 7.47703 89.1022C7.47703 88.9785 7.47703 88.8546 7.47703 88.7306C7.47703 88.6067 7.47703 88.4826 7.47703 88.3585C7.47703 88.2343 7.47703 88.11 7.47703 87.9857C7.47703 87.8613 7.47703 87.7368 7.47703 87.6122C7.47703 87.4877 7.47703 87.363 7.47703 87.2382C7.47703 87.1134 7.47703 86.9885 7.47703 86.8635C7.47703 86.7385 7.47703 86.6134 7.47703 86.4882C7.47703 86.363 7.47703 86.2377 7.47703 86.1123C7.47703 85.9869 7.47703 85.8614 7.47703 85.7357C7.47703 85.6101 7.47703 85.4844 7.47703 85.3585C7.47703 85.2327 7.47703 85.1067 7.47703 84.9806C7.47703 84.8546 7.47703 84.7284 7.47703 84.6021C7.47703 84.4758 7.47703 84.3494 7.47703 84.2229C7.47703 84.0964 7.47703 83.9698 7.47703 83.843C7.47703 83.7163 7.47703 83.5895 7.47703 83.4625C7.47703 83.3355 7.47703 83.2085 7.47703 83.0813C7.47703 82.9541 7.47703 82.8268 7.47703 82.6994C7.47703 82.572 7.47703 82.4445 7.47703 82.3168C7.47703 82.1892 7.47703 82.0614 7.47703 81.9335C7.47703 81.8057 7.47703 81.6777 7.47703 81.5496C7.47703 81.4214 7.47703 81.2932 7.47703 81.1649C7.47703 81.0365 7.47703 80.9081 7.47703 80.7795C7.47703 80.6509 7.47703 80.5222 7.47703 80.3934C7.47703 80.2646 7.47703 80.1357 7.47703 80.0066C7.47703 79.8775 7.47703 79.7484 7.47703 79.6191C7.47703 79.4898 7.47703 79.3604 7.47703 79.2308C7.47703 79.1013 7.47703 78.9716 7.47703 78.8418C7.47703 78.712 7.47703 78.5821 7.47703 78.4521C7.47703 78.3221 7.47703 78.1919 7.47703 78.0616C7.47703 77.9313 7.47703 77.8009 7.47703 77.6704C7.47703 77.5399 7.47703 77.4092 7.47703 77.2784C7.47703 77.1477 7.47703 77.0168 7.47703 76.8857C7.47703 76.7547 7.47703 76.6235 7.47703 76.4922C7.47703 76.3609 7.47703 76.2295 7.47703 76.098C7.47703 75.9664 7.47703 75.8348 7.47703 75.703C7.47703 75.5712 7.47703 75.4392 7.47703 75.3072C7.47703 75.1751 7.47703 75.0429 7.47703 74.9106C7.47703 74.7783 7.47703 74.6458 7.47703 74.5132C7.47703 74.3806 7.47703 74.2479 7.47703 74.1151C7.47703 73.9822 7.47703 73.8492 7.47703 73.7161C7.47703 73.583 7.47703 73.4497 7.47703 73.3164C7.47703 73.183 7.47703 73.0494 7.47703 72.9158C7.47703 72.7821 7.47703 72.6483 7.47703 72.5144C7.47703 72.3805 7.47703 72.2464 7.47703 72.1122C7.47703 71.978 7.47703 71.8437 7.47703 71.7092C7.47703 71.5748 7.47703 71.4401 7.47703 71.3054C7.47703 71.1706 7.47703 71.0358 7.47703 70.9007C7.47703 70.7657 7.47703 70.6305 7.47703 70.4952C7.47703 70.3599 7.47703 70.2245 7.47703 70.0889C7.47703 69.9533 7.47703 69.8176 7.47703 69.6817C7.47703 69.5458 7.47703 69.4098 7.47703 69.2737C7.47703 69.1375 7.47703 69.0012 7.47703 68.8648C7.47703 68.7283 7.47703 68.5917 7.47703 68.455C7.47703 68.3183 7.47703 68.1814 7.47703 68.0444C7.47703 67.9074 7.47703 67.7702 7.47703 67.6329C7.47703 67.4956 7.47703 67.3581 7.47703 67.2205C7.47703 67.0829 7.47703 66.9452 7.47703 66.8073C7.47703 66.6694 7.47703 66.5313 7.47703 66.3931C7.47703 66.255 7.47703 66.1166 7.47703 65.9781C7.47703 65.8396 7.47703 65.701 7.47703 65.5622C7.47703 65.4234 7.47703 65.2845 7.47703 65.1454C7.47703 65.0063 7.47703 64.8671 7.47703 64.7277C7.47703 64.5883 7.47703 64.4487 7.47703 64.309C7.47703 64.1693 7.47703 64.0295 7.47703 63.8895C7.47703 63.7495 7.47703 63.6093 7.47703 63.469C7.47703 63.3287 7.47703 63.1882 7.47703 63.0476C7.47703 62.907 7.47703 62.7662 7.47703 62.6253C7.47703 62.4844 7.47703 62.3433 7.47703 62.202C7.47703 62.0608 7.47703 61.9194 7.47703 61.7778C7.47703 61.6363 7.47703 61.4946 7.47703 61.3527C7.47703 61.2108 7.47703 61.0688 7.47703 60.9266C7.47703 60.7844 7.47703 60.642 7.47703 60.4995C7.47703 60.357 7.47703 60.2144 7.47703 60.0715C7.47703 59.9287 7.47703 59.7857 7.47703 59.6426C7.47703 59.4994 7.47703 59.3561 7.47703 59.2126C7.47703 59.0691 7.47703 58.9255 7.47703 58.7817C7.47703 58.6379 7.47703 58.4939 7.47703 58.3498C7.47703 58.2057 7.47703 58.0614 7.47703 57.9169C7.47703 57.7725 7.47703 57.6278 7.47703 57.483C7.47703 57.3382 7.47703 57.1933 7.47703 57.0482C7.47703 56.903 7.47703 56.7578 7.47703 56.6123C7.47703 56.4669 7.47703 56.3212 7.47703 56.1754C7.47703 56.0296 7.47703 55.8837 7.47703 55.7376C7.47703 55.5914 7.47703 55.4451 7.47703 55.2987C7.47703 55.1522 7.47703 55.0056 7.47703 54.8587C7.47703 54.7119 7.47703 54.565 7.47703 54.4178C7.47703 54.2707 7.47703 54.1233 7.47703 53.9758C7.47703 53.8283 7.47703 53.6807 7.47703 53.5328C7.47703 53.385 7.47703 53.237 7.47703 53.0888C7.47703 52.9406 7.47703 52.7923 7.47703 52.6437C7.47703 52.4952 7.47703 52.3465 7.47703 52.1976C7.47703 52.0487 7.47703 51.8996 7.47703 51.7504C7.47703 51.6012 7.47703 51.4517 7.47703 51.3021C7.47703 51.1526 7.47703 51.0028 7.47703 50.8528C7.47703 50.7029 7.47703 50.5528 7.47703 50.4025C7.47703 50.2522 7.47703 50.1017 7.47703 49.951C7.47703 49.8003 7.47703 49.6495 7.47703 49.4985C7.47703 49.3474 7.47703 49.1962 7.47703 49.0449C7.47703 48.8935 7.47703 48.7419 7.47703 48.5901C7.47703 48.4384 7.47703 48.2865 7.47703 48.1343C7.47703 47.9822 7.47703 47.8299 7.47703 47.6775C7.47703 47.525 7.47703 47.3723 7.47703 47.2195C7.47703 47.0666 7.47703 46.9136 7.47703 46.7603C7.47703 46.6071 7.47703 46.4537 7.47703 46.3001C7.47703 46.1465 7.47703 45.9927 7.47703 45.8388C7.47703 45.6848 7.47703 45.5307 7.47703 45.3763C7.47703 45.222 7.47703 45.0674 7.47703 44.9127C7.47703 44.758 7.47703 44.6031 7.47703 44.448C7.47703 44.2929 7.47703 44.1376 7.47703 43.9821C7.47703 43.8267 7.47703 43.671 7.47703 43.5151C7.47703 43.3593 7.47703 43.2032 7.47703 43.047C7.47703 42.8907 7.47703 42.7343 7.47703 42.5777C7.47703 42.421 7.47703 42.2642 7.47703 42.1072C7.47703 41.9502 7.47703 41.793 7.47703 41.6356C7.47703 41.4782 7.47703 41.3206 7.47703 41.1628C7.47703 41.005 7.47703 40.847 7.47703 40.6888C7.47703 40.5306 7.47703 40.3722 7.47703 40.2136C7.47703 40.0551 7.47703 39.8963 7.47703 39.7373C7.47703 39.5783 7.47703 39.4192 7.47703 39.2598C7.47703 39.1004 7.47703 38.9408 7.47703 38.7811C7.47703 38.6213 7.47703 38.4613 7.47703 38.3012C7.47703 38.141 7.47703 37.9806 7.47703 37.82C7.47703 37.6595 7.47703 37.4987 7.47703 37.3377C7.47703 37.1767 7.47703 37.0156 7.47703 36.8542C7.47703 36.6928 7.47703 36.5312 7.47703 36.3694C7.47703 36.2076 7.47703 36.0457 7.47703 35.8835C7.47703 35.7213 7.47703 35.5589 7.47703 35.3963C7.47703 35.2337 7.47703 35.0708 7.47703 34.9078C7.47703 34.7448 7.47703 34.5816 7.47703 34.4181C7.47703 34.2547 7.47703 34.0911 7.47703 33.9272C7.47703 33.7634 7.47703 33.5993 7.47703 33.4351C7.47703 33.2708 7.47703 33.1063 7.47703 32.9417C7.47703 32.777 7.47703 32.6121 7.47703 32.447C7.47703 32.2819 7.47703 32.1166 7.47703 31.951C7.47703 31.7855 7.47703 31.6198 7.47703 31.4538C7.47703 31.2879 7.47703 31.1217 7.47703 30.9554C7.47703 30.789 7.47703 30.6224 7.47703 30.4556C7.47703 30.2888 7.47703 30.1218 7.47703 29.9546C7.47703 29.7874 7.47703 29.6199 7.47703 29.4523C7.47703 29.2846 7.47703 29.1167 7.47703 28.9487C7.47703 28.7806 7.47703 28.6123 7.47703 28.4437C7.47703 28.2752 7.47703 28.1065 7.47703 27.9375C7.47703 27.7686 7.47703 27.5994 7.47703 27.43C7.47703 27.2606 7.47703 27.091 7.47703 26.9212C7.47703 26.7514 7.47703 26.5813 7.47703 26.411C7.47703 26.2408 7.47703 26.0703 7.47703 25.8996C7.47703 25.7289 7.47703 25.5579 7.47703 25.3868C7.47703 25.2156 7.47703 25.0443 7.47703 24.8727C7.47703 24.7011 7.47703 24.5292 7.47703 24.3572C7.47703 24.1851 7.47703 24.0129 7.47703 23.8404C7.47703 23.6679 7.47703 23.4952 7.47703 23.3222C7.47703 23.1493 7.47703 22.9761 7.47703 22.8027C7.47703 22.6293 7.47703 22.4557 7.47703 22.2819C7.47703 22.108 7.47703 21.9339 7.47703 21.7596C7.47703 21.5853 7.47703 21.4108 7.47703 21.2361C7.47703 21.0613 7.47703 20.8863 7.47703 20.7111C7.47703 20.5359 7.47703 20.3604 7.47703 20.1848C7.47703 20.0091 7.47703 19.8332 7.47703 19.657C7.47703 19.4809 7.47703 19.3045 7.47703 19.1279C7.47703 18.9513 7.47703 18.7745 7.47703 18.5975C7.47703 18.4204 7.47703 18.2431 7.47703 18.0656C7.47703 17.888 7.47703 17.7103 7.47703 17.5323C7.47703 17.3543 7.47703 17.176 7.47703 16.9976C7.47703 16.8191 7.47703 16.6404 7.47703 16.4615C7.47703 16.2825 7.47703 16.1034 7.47703 15.9239C7.47703 15.7445 7.47703 15.5649 7.47703 15.385C7.47703 15.2051 7.47703 15.025 7.47703 14.8446C7.47703 14.6643 7.47703 14.4837 7.47703 14.3028C7.47703 14.122 7.47703 13.9409 7.47703 13.7596C7.47703 13.5783 7.47703 13.3967 7.47703 13.2149C7.47703 13.0331 7.47703 12.8511 7.47703 12.6688C7.47703 12.4865 7.47703 12.304 7.47703 12.1212C7.47703 11.9384 7.47703 11.7554 7.47703 11.5722C7.47703 11.3889 7.47703 11.2054 7.47703 11.0217C7.47703 10.8379 7.47703 10.654 7.47703 10.4697C7.47703 10.2855 7.47703 10.101 7.47703 9.9163C7.47703 9.73157 7.47703 9.54661 7.47703 9.36139C7.47703 9.17618 7.47703 8.99072 7.47703 8.80501C7.47703 8.6193 7.47703 8.43334 7.47703 8.24714C7.47703 8.06094 7.47703 7.87448 7.47703 7.68778C7.47703 7.50108 7.47703 7.31413 7.47703 7.12693C7.47703 6.93972 7.47703 6.75227 7.47703 6.56457C7.47703 6.37687 7.47703 6.18892 7.47703 6.00071C7.47703 5.81251 7.47703 5.62405 7.47703 5.43534C7.47703 5.24663 7.47703 5.05767 7.47703 4.86845C7.47703 4.67924 7.47703 4.48977 7.47703 4.30005H0.126239C0.126239 4.48977 0.126239 4.67924 0.126239 4.86845C0.126239 5.05767 0.126239 5.24663 0.126239 5.43534C0.126239 5.62405 0.126239 5.81251 0.126239 6.00071C0.126239 6.18892 0.126239 6.37687 0.126239 6.56457C0.126239 6.75227 0.126239 6.93972 0.126239 7.12693C0.126239 7.31413 0.126239 7.50108 0.126239 7.68778C0.126239 7.87448 0.126239 8.06094 0.126239 8.24714C0.126239 8.43334 0.126239 8.6193 0.126239 8.80501C0.126239 8.99072 0.126239 9.17618 0.126239 9.36139C0.126239 9.54661 0.126239 9.73157 0.126239 9.9163C0.126239 10.101 0.126239 10.2855 0.126239 10.4697C0.126239 10.654 0.126239 10.8379 0.126239 11.0217C0.126239 11.2054 0.126239 11.3889 0.126239 11.5722C0.126239 11.7554 0.126239 11.9384 0.126239 12.1212C0.126239 12.304 0.126239 12.4865 0.126239 12.6688C0.126239 12.8511 0.126239 13.0331 0.126239 13.2149C0.126239 13.3967 0.126239 13.5783 0.126239 13.7596C0.126239 13.9409 0.126239 14.122 0.126239 14.3028C0.126239 14.4837 0.126239 14.6643 0.126239 14.8446C0.126239 15.025 0.126239 15.2051 0.126239 15.385C0.126239 15.5649 0.126239 15.7445 0.126239 15.9239C0.126239 16.1034 0.126239 16.2825 0.126239 16.4615C0.126239 16.6404 0.126239 16.8191 0.126239 16.9976C0.126239 17.176 0.126239 17.3543 0.126239 17.5323C0.126239 17.7103 0.126239 17.888 0.126239 18.0656C0.126239 18.2431 0.126239 18.4204 0.126239 18.5975C0.126239 18.7745 0.126239 18.9513 0.126239 19.1279C0.126239 19.3045 0.126239 19.4809 0.126239 19.657C0.126239 19.8332 0.126239 20.0091 0.126239 20.1848C0.126239 20.3604 0.126239 20.5359 0.126239 20.7111C0.126239 20.8863 0.126239 21.0613 0.126239 21.2361C0.126239 21.4108 0.126239 21.5853 0.126239 21.7596C0.126239 21.9339 0.126239 22.108 0.126239 22.2819C0.126239 22.4557 0.126239 22.6293 0.126239 22.8027C0.126239 22.9761 0.126239 23.1493 0.126239 23.3222C0.126239 23.4952 0.126239 23.6679 0.126239 23.8404C0.126239 24.0129 0.126239 24.1851 0.126239 24.3572C0.126239 24.5292 0.126239 24.7011 0.126239 24.8727C0.126239 25.0443 0.126239 25.2156 0.126239 25.3868C0.126239 25.5579 0.126239 25.7289 0.126239 25.8996C0.126239 26.0703 0.126239 26.2408 0.126239 26.411C0.126239 26.5813 0.126239 26.7514 0.126239 26.9212C0.126239 27.091 0.126239 27.2606 0.126239 27.43C0.126239 27.5994 0.126239 27.7686 0.126239 27.9375C0.126239 28.1065 0.126239 28.2752 0.126239 28.4437C0.126239 28.6123 0.126239 28.7806 0.126239 28.9487C0.126239 29.1167 0.126239 29.2846 0.126239 29.4523C0.126239 29.6199 0.126239 29.7874 0.126239 29.9546C0.126239 30.1218 0.126239 30.2888 0.126239 30.4556C0.126239 30.6224 0.126239 30.789 0.126239 30.9554C0.126239 31.1217 0.126239 31.2879 0.126239 31.4538C0.126239 31.6198 0.126239 31.7855 0.126239 31.951C0.126239 32.1166 0.126239 32.2819 0.126239 32.447C0.126239 32.6121 0.126239 32.777 0.126239 32.9417C0.126239 33.1063 0.126239 33.2708 0.126239 33.4351C0.126239 33.5993 0.126239 33.7634 0.126239 33.9272C0.126239 34.0911 0.126239 34.2547 0.126239 34.4181C0.126239 34.5816 0.126239 34.7448 0.126239 34.9078C0.126239 35.0708 0.126239 35.2337 0.126239 35.3963C0.126239 35.5589 0.126239 35.7213 0.126239 35.8835C0.126239 36.0457 0.126239 36.2076 0.126239 36.3694C0.126239 36.5312 0.126239 36.6928 0.126239 36.8542C0.126239 37.0156 0.126239 37.1767 0.126239 37.3377C0.126239 37.4987 0.126239 37.6595 0.126239 37.82C0.126239 37.9806 0.126239 38.141 0.126239 38.3012C0.126239 38.4613 0.126239 38.6213 0.126239 38.7811C0.126239 38.9408 0.126239 39.1004 0.126239 39.2598C0.126239 39.4192 0.126239 39.5783 0.126239 39.7373C0.126239 39.8963 0.126239 40.0551 0.126239 40.2136C0.126239 40.3722 0.126239 40.5306 0.126239 40.6888C0.126239 40.847 0.126239 41.005 0.126239 41.1628C0.126239 41.3206 0.126239 41.4782 0.126239 41.6356C0.126239 41.793 0.126239 41.9502 0.126239 42.1072C0.126239 42.2642 0.126239 42.421 0.126239 42.5777C0.126239 42.7343 0.126239 42.8907 0.126239 43.047C0.126239 43.2032 0.126239 43.3593 0.126239 43.5151C0.126239 43.671 0.126239 43.8267 0.126239 43.9821C0.126239 44.1376 0.126239 44.2929 0.126239 44.448C0.126239 44.6031 0.126239 44.758 0.126239 44.9127C0.126239 45.0674 0.126239 45.222 0.126239 45.3763C0.126239 45.5307 0.126239 45.6848 0.126239 45.8388C0.126239 45.9927 0.126239 46.1465 0.126239 46.3001C0.126239 46.4537 0.126239 46.6071 0.126239 46.7603C0.126239 46.9136 0.126239 47.0666 0.126239 47.2195C0.126239 47.3723 0.126239 47.525 0.126239 47.6775C0.126239 47.8299 0.126239 47.9822 0.126239 48.1343C0.126239 48.2865 0.126239 48.4384 0.126239 48.5901C0.126239 48.7419 0.126239 48.8935 0.126239 49.0449C0.126239 49.1962 0.126239 49.3474 0.126239 49.4985C0.126239 49.6495 0.126239 49.8003 0.126239 49.951C0.126239 50.1017 0.126239 50.2522 0.126239 50.4025C0.126239 50.5528 0.126239 50.7029 0.126239 50.8528C0.126239 51.0028 0.126239 51.1526 0.126239 51.3021C0.126239 51.4517 0.126239 51.6012 0.126239 51.7504C0.126239 51.8996 0.126239 52.0487 0.126239 52.1976C0.126239 52.3465 0.126239 52.4952 0.126239 52.6437C0.126239 52.7923 0.126239 52.9406 0.126239 53.0888C0.126239 53.237 0.126239 53.385 0.126239 53.5328C0.126239 53.6807 0.126239 53.8283 0.126239 53.9758C0.126239 54.1233 0.126239 54.2707 0.126239 54.4178C0.126239 54.565 0.126239 54.7119 0.126239 54.8587C0.126239 55.0056 0.126239 55.1522 0.126239 55.2987C0.126239 55.4451 0.126239 55.5914 0.126239 55.7376C0.126239 55.8837 0.126239 56.0296 0.126239 56.1754C0.126239 56.3212 0.126239 56.4669 0.126239 56.6123C0.126239 56.7578 0.126239 56.903 0.126239 57.0482C0.126239 57.1933 0.126239 57.3382 0.126239 57.483C0.126239 57.6278 0.126239 57.7725 0.126239 57.9169C0.126239 58.0614 0.126239 58.2057 0.126239 58.3498C0.126239 58.4939 0.126239 58.6379 0.126239 58.7817C0.126239 58.9255 0.126239 59.0691 0.126239 59.2126C0.126239 59.3561 0.126239 59.4994 0.126239 59.6426C0.126239 59.7857 0.126239 59.9287 0.126239 60.0715C0.126239 60.2144 0.126239 60.357 0.126239 60.4995C0.126239 60.642 0.126239 60.7844 0.126239 60.9266C0.126239 61.0688 0.126239 61.2108 0.126239 61.3527C0.126239 61.4946 0.126239 61.6363 0.126239 61.7778C0.126239 61.9194 0.126239 62.0608 0.126239 62.202C0.126239 62.3433 0.126239 62.4844 0.126239 62.6253C0.126239 62.7662 0.126239 62.907 0.126239 63.0476C0.126239 63.1882 0.126239 63.3287 0.126239 63.469C0.126239 63.6093 0.126239 63.7495 0.126239 63.8895C0.126239 64.0295 0.126239 64.1693 0.126239 64.309C0.126239 64.4487 0.126239 64.5883 0.126239 64.7277C0.126239 64.8671 0.126239 65.0063 0.126239 65.1454C0.126239 65.2845 0.126239 65.4234 0.126239 65.5622C0.126239 65.701 0.126239 65.8396 0.126239 65.9781C0.126239 66.1166 0.126239 66.255 0.126239 66.3931C0.126239 66.5313 0.126239 66.6694 0.126239 66.8073C0.126239 66.9452 0.126239 67.0829 0.126239 67.2205C0.126239 67.3581 0.126239 67.4956 0.126239 67.6329C0.126239 67.7702 0.126239 67.9074 0.126239 68.0444C0.126239 68.1814 0.126239 68.3183 0.126239 68.455C0.126239 68.5917 0.126239 68.7283 0.126239 68.8648C0.126239 69.0012 0.126239 69.1375 0.126239 69.2737C0.126239 69.4098 0.126239 69.5458 0.126239 69.6817C0.126239 69.8176 0.126239 69.9533 0.126239 70.0889C0.126239 70.2245 0.126239 70.3599 0.126239 70.4952C0.126239 70.6305 0.126239 70.7657 0.126239 70.9007C0.126239 71.0358 0.126239 71.1706 0.126239 71.3054C0.126239 71.4401 0.126239 71.5748 0.126239 71.7092C0.126239 71.8437 0.126239 71.978 0.126239 72.1122C0.126239 72.2464 0.126239 72.3805 0.126239 72.5144C0.126239 72.6483 0.126239 72.7821 0.126239 72.9158C0.126239 73.0494 0.126239 73.183 0.126239 73.3164C0.126239 73.4497 0.126239 73.583 0.126239 73.7161C0.126239 73.8492 0.126239 73.9822 0.126239 74.1151C0.126239 74.2479 0.126239 74.3806 0.126239 74.5132C0.126239 74.6458 0.126239 74.7783 0.126239 74.9106C0.126239 75.0429 0.126239 75.1751 0.126239 75.3072C0.126239 75.4392 0.126239 75.5712 0.126239 75.703C0.126239 75.8348 0.126239 75.9664 0.126239 76.098C0.126239 76.2295 0.126239 76.3609 0.126239 76.4922C0.126239 76.6235 0.126239 76.7547 0.126239 76.8857C0.126239 77.0168 0.126239 77.1477 0.126239 77.2784C0.126239 77.4092 0.126239 77.5399 0.126239 77.6704C0.126239 77.8009 0.126239 77.9313 0.126239 78.0616C0.126239 78.1919 0.126239 78.3221 0.126239 78.4521C0.126239 78.5821 0.126239 78.712 0.126239 78.8418C0.126239 78.9716 0.126239 79.1013 0.126239 79.2308C0.126239 79.3604 0.126239 79.4898 0.126239 79.6191C0.126239 79.7484 0.126239 79.8775 0.126239 80.0066C0.126239 80.1357 0.126239 80.2646 0.126239 80.3934C0.126239 80.5222 0.126239 80.6509 0.126239 80.7795C0.126239 80.9081 0.126239 81.0365 0.126239 81.1649C0.126239 81.2932 0.126239 81.4214 0.126239 81.5496C0.126239 81.6777 0.126239 81.8057 0.126239 81.9335C0.126239 82.0614 0.126239 82.1892 0.126239 82.3168C0.126239 82.4445 0.126239 82.572 0.126239 82.6994C0.126239 82.8268 0.126239 82.9541 0.126239 83.0813C0.126239 83.2085 0.126239 83.3355 0.126239 83.4625C0.126239 83.5895 0.126239 83.7163 0.126239 83.843C0.126239 83.9698 0.126239 84.0964 0.126239 84.2229C0.126239 84.3494 0.126239 84.4758 0.126239 84.6021C0.126239 84.7284 0.126239 84.8546 0.126239 84.9806C0.126239 85.1067 0.126239 85.2327 0.126239 85.3585C0.126239 85.4844 0.126239 85.6101 0.126239 85.7357C0.126239 85.8614 0.126239 85.9869 0.126239 86.1123C0.126239 86.2377 0.126239 86.363 0.126239 86.4882C0.126239 86.6134 0.126239 86.7385 0.126239 86.8635C0.126239 86.9885 0.126239 87.1134 0.126239 87.2382C0.126239 87.363 0.126239 87.4877 0.126239 87.6122C0.126239 87.7368 0.126239 87.8613 0.126239 87.9857C0.126239 88.11 0.126239 88.2343 0.126239 88.3585C0.126239 88.4826 0.126239 88.6067 0.126239 88.7306C0.126239 88.8546 0.126239 88.9785 0.126239 89.1022C0.126239 89.226 0.126239 89.3496 0.126239 89.4732C0.126239 89.5967 0.126239 89.7202 0.126239 89.8436C0.126239 89.9669 0.126239 90.0902 0.126239 90.2133C0.126239 90.3365 0.126239 90.4596 0.126239 90.5825C0.126239 90.7055 0.126239 90.8284 0.126239 90.9512C0.126239 91.0739 0.126239 91.1966 0.126239 91.3192C0.126239 91.4418 0.126239 91.5643 0.126239 91.6867C0.126239 91.809 0.126239 91.9313 0.126239 92.0535C0.126239 92.1758 0.126239 92.2979 0.126239 92.4199C0.126239 92.5419 0.126239 92.6638 0.126239 92.7856C0.126239 92.9075 0.126239 93.0292 0.126239 93.1509C0.126239 93.2725 0.126239 93.3941 0.126239 93.5155C0.126239 93.637 0.126239 93.7584 0.126239 93.8797C0.126239 94.0009 0.126239 94.1221 0.126239 94.2433C0.126239 94.3644 0.126239 94.4854 0.126239 94.6063C0.126239 94.7272 0.126239 94.8481 0.126239 94.9688C0.126239 95.0896 0.126239 95.2103 0.126239 95.3308C0.126239 95.4514 0.126239 95.5719 0.126239 95.6923C0.126239 95.8127 0.126239 95.9331 0.126239 96.0533C0.126239 96.1735 0.126239 96.2937 0.126239 96.4138C0.126239 96.5338 0.126239 96.6538 0.126239 96.7737C0.126239 96.8936 0.126239 97.0134 0.126239 97.1332C0.126239 97.2529 0.126239 97.3726 0.126239 97.4921C0.126239 97.6117 0.126239 97.7312 0.126239 97.8506C0.126239 97.97 0.126239 98.0894 0.126239 98.2086C0.126239 98.3279 0.126239 98.447 0.126239 98.5661C0.126239 98.6852 0.126239 98.8042 0.126239 98.9232C0.126239 99.0421 0.126239 99.161 0.126239 99.2797C0.126239 99.3985 0.126239 99.5172 0.126239 99.6358C0.126239 99.7545 0.126239 99.873 0.126239 99.9915C0.126239 100.11 0.126239 100.228 0.126239 100.347C0.126239 100.465 0.126239 100.583 0.126239 100.701C0.126239 100.82 0.126239 100.938 0.126239 101.056C0.126239 101.174 0.126239 101.292 0.126239 101.41C0.126239 101.527 0.126239 101.645 0.126239 101.763C0.126239 101.881 0.126239 101.998 0.126239 102.116C0.126239 102.234 0.126239 102.351 0.126239 102.469C0.126239 102.586 0.126239 102.703 0.126239 102.821C0.126239 102.938 0.126239 103.055 0.126239 103.173C0.126239 103.29 0.126239 103.407 0.126239 103.524C0.126239 103.641 0.126239 103.758 0.126239 103.875C0.126239 103.992 0.126239 104.109 0.126239 104.225C0.126239 104.342 0.126239 104.459 0.126239 104.575C0.126239 104.692 0.126239 104.809 0.126239 104.925C0.126239 105.042 0.126239 105.158 0.126239 105.275C0.126239 105.391 0.126239 105.507 0.126239 105.624C0.126239 105.74 0.126239 105.856 0.126239 105.972C0.126239 106.088 0.126239 106.204 0.126239 106.32C0.126239 106.436 0.126239 106.552 0.126239 106.668C0.126239 106.784 0.126239 106.9 0.126239 107.016C0.126239 107.132 0.126239 107.247 0.126239 107.363C0.126239 107.479 0.126239 107.594 0.126239 107.71C0.126239 107.825 0.126239 107.941 0.126239 108.056C0.126239 108.172 0.126239 108.287 0.126239 108.402C0.126239 108.518 0.126239 108.633 0.126239 108.748C0.126239 108.863 0.126239 108.978 0.126239 109.094C0.126239 109.209 0.126239 109.324 0.126239 109.439C0.126239 109.554 0.126239 109.669 0.126239 109.783C0.126239 109.898 0.126239 110.013 0.126239 110.128C0.126239 110.243 0.126239 110.357 0.126239 110.472C0.126239 110.587 0.126239 110.701 0.126239 110.816C0.126239 110.931 0.126239 111.045 0.126239 111.16C0.126239 111.274 0.126239 111.389 0.126239 111.503C0.126239 111.617 0.126239 111.732 0.126239 111.846C0.126239 111.96 0.126239 112.074 0.126239 112.189C0.126239 112.303 0.126239 112.417 0.126239 112.531C0.126239 112.645 0.126239 112.759 0.126239 112.873C0.126239 112.987 0.126239 113.101 0.126239 113.215C0.126239 113.329 0.126239 113.443 0.126239 113.557C0.126239 113.67 0.126239 113.784 0.126239 113.898C0.126239 114.012 0.126239 114.125 0.126239 114.239C0.126239 114.353 0.126239 114.466 0.126239 114.58C0.126239 114.694 0.126239 114.807 0.126239 114.921C0.126239 115.034 0.126239 115.148 0.126239 115.261C0.126239 115.374 0.126239 115.488 0.126239 115.601C0.126239 115.714 0.126239 115.828 0.126239 115.941C0.126239 116.054 0.126239 116.167 0.126239 116.281C0.126239 116.394 0.126239 116.507 0.126239 116.62C0.126239 116.733 0.126239 116.846 0.126239 116.959C0.126239 117.072 0.126239 117.185 0.126239 117.298C0.126239 117.411 0.126239 117.524 0.126239 117.637C0.126239 117.75 0.126239 117.863 0.126239 117.976C0.126239 118.089 0.126239 118.201 0.126239 118.314C0.126239 118.427 0.126239 118.54 0.126239 118.652C0.126239 118.765 0.126239 118.878 0.126239 118.99C0.126239 119.103 0.126239 119.216 0.126239 119.328C0.126239 119.441 0.126239 119.553 0.126239 119.666C0.126239 119.779 0.126239 119.891 0.126239 120.003C0.126239 120.116 0.126239 120.228 0.126239 120.341C0.126239 120.453 0.126239 120.566 0.126239 120.678C0.126239 120.79 0.126239 120.903 0.126239 121.015C0.126239 121.127 0.126239 121.24 0.126239 121.352C0.126239 121.464 0.126239 121.576 0.126239 121.689C0.126239 121.801 0.126239 121.913 0.126239 122.025C0.126239 122.137 0.126239 122.25 0.126239 122.362C0.126239 122.474 0.126239 122.586 0.126239 122.698C0.126239 122.81 0.126239 122.922 0.126239 123.034C0.126239 123.146 0.126239 123.258 0.126239 123.37C0.126239 123.482 0.126239 123.594 0.126239 123.706C0.126239 123.818 0.126239 123.93 0.126239 124.042C0.126239 124.154 0.126239 124.266 0.126239 124.378C0.126239 124.49 0.126239 124.602 0.126239 124.713C0.126239 124.825 0.126239 124.937 0.126239 125.049C0.126239 125.161 0.126239 125.273 0.126239 125.384C0.126239 125.496 0.126239 125.608 0.126239 125.72C0.126239 125.832 0.126239 125.943 0.126239 126.055C0.126239 126.167 0.126239 126.279 0.126239 126.39C0.126239 126.502 0.126239 126.614 0.126239 126.725C0.126239 126.837 0.126239 126.949 0.126239 127.06C0.126239 127.172 0.126239 127.284 0.126239 127.395C0.126239 127.507 0.126239 127.619 0.126239 127.73C0.126239 127.842 0.126239 127.954 0.126239 128.065C0.126239 128.177 0.126239 128.288 0.126239 128.4C0.126239 128.512 0.126239 128.623 0.126239 128.735C0.126239 128.846 0.126239 128.958 0.126239 129.07C0.126239 129.181 0.126239 129.293 0.126239 129.404C0.126239 129.516 0.126239 129.627 0.126239 129.739C0.126239 129.851 0.126239 129.962 0.126239 130.074C0.126239 130.185 0.126239 130.297 0.126239 130.408C0.126239 130.52 0.126239 130.631 0.126239 130.743C0.126239 130.855 0.126239 130.966 0.126239 131.078C0.126239 131.189 0.126239 131.301 0.126239 131.412C0.126239 131.524 0.126239 131.635 0.126239 131.747C0.126239 131.858 0.126239 131.97 0.126239 132.082C0.126239 132.193 0.126239 132.305 0.126239 132.416C0.126239 132.528 0.126239 132.639 0.126239 132.751C0.126239 132.862 0.126239 132.974 0.126239 133.086C0.126239 133.197 0.126239 133.309 0.126239 133.42C0.126239 133.532 0.126239 133.643 0.126239 133.755C0.126239 133.867 0.126239 133.978 0.126239 134.09C0.126239 134.201 0.126239 134.313 0.126239 134.425C0.126239 134.536 0.126239 134.648 0.126239 134.76C0.126239 134.871 0.126239 134.983 0.126239 135.094C0.126239 135.206 0.126239 135.318 0.126239 135.429C0.126239 135.541 0.126239 135.653 0.126239 135.765C0.126239 135.876 0.126239 135.988 0.126239 136.1C0.126239 136.211 0.126239 136.323 0.126239 136.435C0.126239 136.547 0.126239 136.658 0.126239 136.77C0.126239 136.882 0.126239 136.994 0.126239 137.105C0.126239 137.217 0.126239 137.329 0.126239 137.441C0.126239 137.553 0.126239 137.665 0.126239 137.776C0.126239 137.888 0.126239 138 0.126239 138.112C0.126239 138.224 0.126239 138.336 0.126239 138.448C0.126239 138.56 0.126239 138.672 0.126239 138.784C0.126239 138.896 0.126239 139.007 0.126239 139.119C0.126239 139.231 0.126239 139.343 0.126239 139.456C0.126239 139.568 0.126239 139.68 0.126239 139.792C0.126239 139.904 0.126239 140.016 0.126239 140.128C0.126239 140.24 0.126239 140.352 0.126239 140.464C0.126239 140.577 0.126239 140.689 0.126239 140.801C0.126239 140.913 0.126239 141.025 0.126239 141.138C0.126239 141.25 0.126239 141.362 0.126239 141.475C0.126239 141.587 0.126239 141.699 0.126239 141.812C0.126239 141.924 0.126239 142.036 0.126239 142.149C0.126239 142.261 0.126239 142.374 0.126239 142.486C0.126239 142.599 0.126239 142.711 0.126239 142.824C0.126239 142.936 0.126239 143.049 0.126239 143.161C0.126239 143.274 0.126239 143.386 0.126239 143.499C0.126239 143.612 0.126239 143.724 0.126239 143.837C0.126239 143.95 0.126239 144.062 0.126239 144.175C0.126239 144.288 0.126239 144.401 0.126239 144.514C0.126239 144.626 0.126239 144.739 0.126239 144.852C0.126239 144.965 0.126239 145.078 0.126239 145.191C0.126239 145.304 0.126239 145.417 0.126239 145.53C0.126239 145.643 0.126239 145.756 0.126239 145.869C0.126239 145.982 0.126239 146.095 0.126239 146.209C0.126239 146.322 0.126239 146.435 0.126239 146.548C0.126239 146.662 0.126239 146.775 0.126239 146.888C0.126239 147.001 0.126239 147.115 0.126239 147.228C0.126239 147.342 0.126239 147.455 0.126239 147.569C0.126239 147.682 0.126239 147.796 0.126239 147.909C0.126239 148.023 0.126239 148.136 0.126239 148.25C0.126239 148.364 0.126239 148.477 0.126239 148.591C0.126239 148.705 0.126239 148.819 0.126239 148.932C0.126239 149.046 0.126239 149.16 0.126239 149.274C0.126239 149.388 0.126239 149.502 0.126239 149.616C0.126239 149.73 0.126239 149.844 0.126239 149.958C0.126239 150.072 0.126239 150.186 0.126239 150.3C0.126239 150.414 0.126239 150.529 0.126239 150.643C0.126239 150.757 0.126239 150.872 0.126239 150.986C0.126239 151.1 0.126239 151.215 0.126239 151.329C0.126239 151.444 0.126239 151.558 0.126239 151.673C0.126239 151.787 0.126239 151.902 0.126239 152.016C0.126239 152.131 0.126239 152.246 0.126239 152.361C0.126239 152.475 0.126239 152.59 0.126239 152.705C0.126239 152.82 0.126239 152.935 0.126239 153.05C0.126239 153.165 0.126239 153.28 0.126239 153.395C0.126239 153.51 0.126239 153.625 0.126239 153.74C0.126239 153.856 0.126239 153.971 0.126239 154.086C0.126239 154.201 0.126239 154.317 0.126239 154.432C0.126239 154.548 0.126239 154.663 0.126239 154.779C0.126239 154.894 0.126239 155.01 0.126239 155.125C0.126239 155.241 0.126239 155.357 0.126239 155.472C0.126239 155.588 0.126239 155.704 0.126239 155.82C0.126239 155.936 0.126239 156.052 0.126239 156.168C0.126239 156.284 0.126239 156.4 0.126239 156.516C0.126239 156.632 0.126239 156.748 0.126239 156.864C0.126239 156.981 0.126239 157.097 0.126239 157.213C0.126239 157.33 0.126239 157.446 0.126239 157.563C0.126239 157.679 0.126239 157.796 0.126239 157.912C0.126239 158.029 0.126239 158.146 0.126239 158.262C0.126239 158.379 0.126239 158.496 0.126239 158.613C0.126239 158.73 0.126239 158.847 0.126239 158.964C0.126239 159.081 0.126239 159.198 0.126239 159.315C0.126239 159.432 0.126239 159.549 0.126239 159.667C0.126239 159.784 0.126239 159.901 0.126239 160.019C0.126239 160.136 0.126239 160.254 0.126239 160.371C0.126239 160.489 0.126239 160.607 0.126239 160.724C0.126239 160.842 0.126239 160.96 0.126239 161.078C0.126239 161.196 0.126239 161.313 0.126239 161.431C0.126239 161.549 0.126239 161.668 0.126239 161.786C0.126239 161.904 0.126239 162.022 0.126239 162.14C0.126239 162.259 0.126239 162.377 0.126239 162.496C0.126239 162.614 0.126239 162.733 0.126239 162.851C0.126239 162.97 0.126239 163.088 0.126239 163.207C0.126239 163.326 0.126239 163.445 0.126239 163.564C0.126239 163.683 0.126239 163.802 0.126239 163.921C0.126239 164.04 0.126239 164.159 0.126239 164.278C0.126239 164.397 0.126239 164.517 0.126239 164.636C0.126239 164.755 0.126239 164.875 0.126239 164.994C0.126239 165.114 0.126239 165.234 0.126239 165.353C0.126239 165.473 0.126239 165.593 0.126239 165.713C0.126239 165.833 0.126239 165.953 0.126239 166.073C0.126239 166.193 0.126239 166.313 0.126239 166.433C0.126239 166.553 0.126239 166.674 0.126239 166.794C0.126239 166.914 0.126239 167.035 0.126239 167.155C0.126239 167.276 0.126239 167.397 0.126239 167.517C0.126239 167.638 0.126239 167.759 0.126239 167.88C0.126239 168.001 0.126239 168.122 0.126239 168.243C0.126239 168.364 0.126239 168.485 0.126239 168.606C0.126239 168.727 0.126239 168.849 0.126239 168.97C0.126239 169.092 0.126239 169.213 0.126239 169.335C0.126239 169.456 0.126239 169.578 0.126239 169.7C0.126239 169.822 0.126239 169.944 0.126239 170.066C0.126239 170.188 0.126239 170.31 0.126239 170.432C0.126239 170.554 0.126239 170.676 0.126239 170.799C0.126239 170.921 0.126239 171.044 0.126239 171.166C0.126239 171.289 0.126239 171.411 0.126239 171.534C0.126239 171.657 0.126239 171.78 0.126239 171.903C0.126239 172.026 0.126239 172.149 0.126239 172.272C0.126239 172.395 0.126239 172.518 0.126239 172.641C0.126239 172.765 0.126239 172.888 0.126239 173.012C0.126239 173.135 0.126239 173.259 0.126239 173.383C0.126239 173.506 0.126239 173.63 0.126239 173.754C0.126239 173.878 0.126239 174.002 0.126239 174.126C0.126239 174.25 0.126239 174.375 0.126239 174.499C0.126239 174.623 0.126239 174.748 0.126239 174.872C0.126239 174.997 0.126239 175.121 0.126239 175.246C0.126239 175.371 0.126239 175.496 0.126239 175.621C0.126239 175.746 0.126239 175.871 0.126239 175.996C0.126239 176.121 0.126239 176.246 0.126239 176.372C0.126239 176.497 0.126239 176.623 0.126239 176.748C0.126239 176.874 0.126239 177 0.126239 177.125C0.126239 177.251 0.126239 177.377 0.126239 177.503C0.126239 177.629 0.126239 177.755 0.126239 177.882C0.126239 178.008 0.126239 178.134 0.126239 178.261C0.126239 178.387 0.126239 178.514 0.126239 178.641C0.126239 178.767 0.126239 178.894 0.126239 179.021C0.126239 179.148 0.126239 179.275 0.126239 179.402C0.126239 179.529 0.126239 179.657 0.126239 179.784C0.126239 179.911 0.126239 180.039 0.126239 180.166C0.126239 180.294 0.126239 180.422 0.126239 180.55C0.126239 180.677 0.126239 180.805 0.126239 180.933C0.126239 181.062 0.126239 181.19 0.126239 181.318C0.126239 181.446 0.126239 181.575 0.126239 181.703C0.126239 181.832 0.126239 181.961 0.126239 182.089C0.126239 182.218 0.126239 182.347 0.126239 182.476C0.126239 182.605 0.126239 182.734 0.126239 182.863C0.126239 182.993 0.126239 183.122 0.126239 183.252C0.126239 183.381 0.126239 183.511 0.126239 183.641C0.126239 183.77 0.126239 183.9 0.126239 184.03C0.126239 184.16 0.126239 184.29 0.126239 184.42C0.126239 184.551 0.126239 184.681 0.126239 184.812C0.126239 184.942 0.126239 185.073 0.126239 185.203C0.126239 185.334 0.126239 185.465 0.126239 185.596C0.126239 185.727 0.126239 185.858 0.126239 185.989C0.126239 186.121 0.126239 186.252 0.126239 186.384C0.126239 186.515 0.126239 186.647 0.126239 186.779C0.126239 186.91 0.126239 187.042 0.126239 187.174C0.126239 187.306 0.126239 187.438 0.126239 187.571C0.126239 187.703 0.126239 187.835 0.126239 187.968C0.126239 188.1 0.126239 188.233 0.126239 188.366C0.126239 188.499 0.126239 188.632 0.126239 188.765C0.126239 188.898 0.126239 189.031 0.126239 189.164C0.126239 189.298 0.126239 189.431 0.126239 189.565C0.126239 189.699 0.126239 189.832 0.126239 189.966C0.126239 190.1 0.126239 190.234 0.126239 190.368C0.126239 190.502 0.126239 190.637 0.126239 190.771C0.126239 190.906 0.126239 191.04 0.126239 191.175C0.126239 191.31 0.126239 191.444 0.126239 191.579C0.126239 191.714 0.126239 191.85 0.126239 191.985C0.126239 192.12 0.126239 192.255 0.126239 192.391C0.126239 192.527 0.126239 192.662 0.126239 192.798C0.126239 192.934 0.126239 193.07 0.126239 193.206C0.126239 193.342 0.126239 193.478 0.126239 193.615C0.126239 193.751 0.126239 193.888 0.126239 194.024C0.126239 194.161 0.126239 194.298 0.126239 194.435C0.126239 194.572 0.126239 194.709 0.126239 194.846C0.126239 194.984 0.126239 195.121 0.126239 195.259C0.126239 195.396 0.126239 195.534 0.126239 195.672C0.126239 195.81 0.126239 195.948 0.126239 196.086C0.126239 196.224 0.126239 196.362 0.126239 196.501C0.126239 196.639 0.126239 196.778 0.126239 196.916C0.126239 197.055 0.126239 197.194 0.126239 197.333C0.126239 197.472 0.126239 197.611 0.126239 197.751C0.126239 197.89 0.126239 198.029 0.126239 198.169C0.126239 198.309 0.126239 198.449 0.126239 198.589C0.126239 198.729 0.126239 198.869 0.126239 199.009C0.126239 199.149 0.126239 199.29 0.126239 199.43C0.126239 199.571 0.126239 199.711 0.126239 199.852C0.126239 199.993 0.126239 200.134 0.126239 200.275C0.126239 200.417 0.126239 200.558 0.126239 200.7C0.126239 200.841 0.126239 200.983 0.126239 201.125C0.126239 201.266 0.126239 201.408 0.126239 201.551C0.126239 201.693 0.126239 201.835 0.126239 201.977C0.126239 202.12 0.126239 202.263 0.126239 202.405C0.126239 202.548 0.126239 202.691 0.126239 202.834C0.126239 202.977 0.126239 203.121 0.126239 203.264C0.126239 203.407 0.126239 203.551 0.126239 203.695C0.126239 203.839 0.126239 203.982 0.126239 204.127C0.126239 204.271 0.126239 204.415 0.126239 204.559C0.126239 204.704 0.126239 204.848 0.126239 204.993C0.126239 205.138 0.126239 205.283 0.126239 205.428C0.126239 205.573 0.126239 205.718 0.126239 205.863C0.126239 206.009 0.126239 206.154 0.126239 206.3C0.126239 206.446 0.126239 206.592 0.126239 206.738H7.47703ZM55.2572 254.561C28.873 254.561 7.47703 233.13 7.47703 206.738H0.126239C0.126239 237.182 24.8052 261.912 55.2572 261.912V254.561Z" fill="white"/>
</svg>
