<svg preserveAspectRatio="none" viewBox="0 0 802 421" fill="none" xmlns="http://www.w3.org/2000/svg">
<g clip-path="url(#clip0_41_130)">
<rect width="801.905" height="421" fill="#002EA6"/>
<g opacity="0.05">
<path d="M93.9232 88.9111C93.9232 33.9834 47.0869 -11.082 -11.3604 -11.082L-11.3605 187.861C47.0869 187.861 93.9233 143.839 93.9232 88.9111Z" fill="white"/>
<path d="M93.939 88.9111C93.939 143.854 141.834 187.861 200.281 187.861L200.281 -11.082C141.834 -11.082 93.939 33.9686 93.939 88.9111Z" fill="white"/>
<path d="M518.264 487.855C518.264 432.927 471.428 387.862 412.98 387.862L412.98 586.805C471.428 586.805 518.264 542.783 518.264 487.855Z" fill="white"/>
<path d="M518.28 487.855C518.28 542.797 566.174 586.805 624.622 586.805L624.622 387.862C566.174 387.862 518.28 432.912 518.28 487.855Z" fill="white"/>
<path d="M519.33 88.9481C519.33 144.006 472.546 187.861 414.039 187.861C414.039 132.803 460.823 88.9481 519.33 88.9481C460.823 88.9481 414.039 43.961 414.039 -11.082C472.546 -11.082 519.33 33.9051 519.33 88.9481C577.837 88.9481 625.68 132.803 625.68 187.861C567.173 187.861 519.33 144.006 519.33 88.9481Z" fill="white"/>
<path d="M625.68 -11.082C625.68 43.961 577.837 88.9185 519.33 88.9185C519.33 33.8755 567.173 -11.082 625.68 -11.082Z" fill="white"/>
<path d="M306.631 288.949C306.631 344.007 259.846 387.862 201.339 387.862C201.339 332.804 248.124 288.949 306.631 288.949C248.124 288.949 201.339 243.962 201.339 188.919C259.846 188.919 306.631 233.906 306.631 288.949C365.138 288.949 412.98 332.804 412.98 387.862C354.473 387.862 306.631 344.007 306.631 288.949Z" fill="white"/>
<path d="M412.98 188.919C412.981 243.962 365.138 288.919 306.631 288.919C306.631 233.876 354.473 188.919 412.98 188.919Z" fill="white"/>
<path fill-rule="evenodd" clip-rule="evenodd" d="M144.176 288.39C116.724 288.38 94.4708 266.127 94.4602 238.674C94.4496 266.118 72.212 288.365 44.7722 288.39C72.212 288.416 94.4496 310.663 94.4602 338.107C94.4707 310.654 116.724 288.401 144.176 288.39ZM94.4602 338.146C94.4496 365.605 72.1862 387.862 44.7245 387.862C17.2562 387.862 -5.01123 365.594 -5.01123 338.126C-5.01123 310.674 17.2304 288.416 44.6767 288.39C17.2304 288.365 -5.01123 266.107 -5.01123 238.655C-5.01123 211.186 17.2562 188.919 44.7245 188.919C72.1862 188.919 94.4496 211.176 94.4602 238.635C94.4707 211.176 116.734 188.919 144.196 188.919C171.664 188.919 193.932 211.186 193.932 238.655C193.932 266.116 171.675 288.38 144.215 288.39C171.675 288.401 193.932 310.664 193.932 338.126C193.932 365.594 171.664 387.862 144.196 387.862C116.734 387.862 94.4707 365.605 94.4602 338.146Z" fill="white"/>
<path fill-rule="evenodd" clip-rule="evenodd" d="M406.631 437.598C406.631 465.066 384.364 487.333 356.895 487.333C329.427 487.333 307.16 465.066 307.16 437.598C307.16 410.129 329.427 387.862 356.895 387.862C384.364 387.862 406.631 410.129 406.631 437.598ZM307.16 537.089C307.17 564.548 329.434 586.805 356.895 586.805C384.364 586.805 406.631 564.537 406.631 537.069C406.631 509.601 384.364 487.333 356.895 487.333C329.434 487.333 307.17 509.59 307.16 537.049C307.149 509.611 284.919 487.367 257.486 487.333C284.926 487.3 307.16 465.045 307.16 437.598C307.16 410.129 284.892 387.862 257.424 387.862C229.956 387.862 207.688 410.129 207.688 437.598C207.688 465.045 229.922 487.3 257.362 487.333C229.922 487.367 207.688 509.621 207.688 537.069C207.688 564.537 229.956 586.805 257.424 586.805C284.886 586.805 307.149 564.548 307.16 537.089Z" fill="white"/>
<path fill-rule="evenodd" clip-rule="evenodd" d="M312.98 187.861C367.916 187.861 412.451 143.326 412.451 88.3894C412.451 33.4529 367.916 -11.082 312.98 -11.082C258.043 -11.082 213.508 33.4529 213.508 88.3894C213.508 143.326 258.043 187.861 312.98 187.861ZM312.981 138.906C340.305 138.906 362.456 116.755 362.456 89.4308C362.456 62.1063 340.305 39.9554 312.981 39.9554C285.656 39.9554 263.506 62.1063 263.506 89.4308C263.506 116.755 285.656 138.906 312.981 138.906Z" fill="white"/>
<path fill-rule="evenodd" clip-rule="evenodd" d="M519.859 387.862C574.796 387.862 619.331 343.327 619.331 288.39C619.331 233.454 574.796 188.919 519.859 188.919C464.923 188.919 420.388 233.454 420.388 288.39C420.388 343.327 464.923 387.862 519.859 387.862ZM519.86 338.907C547.185 338.907 569.336 316.756 569.336 289.432C569.336 262.107 547.185 239.956 519.86 239.956C492.536 239.956 470.385 262.107 470.385 289.432C470.385 316.756 492.536 338.907 519.86 338.907Z" fill="white"/>
<path d="M94.9894 488.95C94.9894 544.008 48.205 587.863 -10.3022 587.863C-10.3022 532.805 36.4822 488.95 94.9894 488.95C36.4822 488.95 -10.3022 443.963 -10.3022 388.92C48.2051 388.92 94.9894 433.907 94.9894 488.95C153.497 488.95 201.339 532.805 201.339 587.863C142.832 587.863 94.9894 544.008 94.9894 488.95Z" fill="white"/>
<path d="M201.339 388.92C201.339 443.963 153.497 488.92 94.9894 488.92C94.9894 433.877 142.832 388.92 201.339 388.92Z" fill="white"/>
</g>
<g opacity="0.05">
<path d="M729.433 88.9111C729.433 33.9834 682.597 -11.082 624.149 -11.082L624.149 187.861C682.597 187.861 729.433 143.839 729.433 88.9111Z" fill="white"/>
<path d="M729.449 88.9111C729.449 143.854 777.343 187.861 835.79 187.861L835.79 -11.082C777.343 -11.082 729.449 33.9686 729.449 88.9111Z" fill="white"/>
<path fill-rule="evenodd" clip-rule="evenodd" d="M779.686 288.39C752.233 288.38 729.98 266.127 729.97 238.674C729.959 266.118 707.722 288.365 680.282 288.39C707.722 288.416 729.959 310.663 729.97 338.107C729.98 310.654 752.233 288.401 779.686 288.39ZM729.97 338.146C729.959 365.605 707.696 387.862 680.234 387.862C652.766 387.862 630.498 365.594 630.498 338.126C630.498 310.674 652.74 288.416 680.186 288.39C652.74 288.365 630.498 266.107 630.498 238.655C630.498 211.186 652.766 188.919 680.234 188.919C707.696 188.919 729.959 211.176 729.97 238.635C729.98 211.176 752.244 188.919 779.706 188.919C807.174 188.919 829.441 211.186 829.441 238.655C829.441 266.116 807.184 288.38 779.725 288.39C807.184 288.401 829.441 310.664 829.441 338.126C829.441 365.594 807.174 387.862 779.706 387.862C752.244 387.862 729.98 365.605 729.97 338.146Z" fill="white"/>
<path d="M730.499 488.95C730.499 544.008 683.715 587.863 625.207 587.863C625.207 532.805 671.992 488.95 730.499 488.95C671.992 488.95 625.207 443.963 625.207 388.92C683.715 388.92 730.499 433.907 730.499 488.95C789.006 488.95 836.849 532.805 836.849 587.863C778.342 587.863 730.499 544.008 730.499 488.95Z" fill="white"/>
<path d="M836.849 388.92C836.849 443.963 789.006 488.92 730.499 488.92C730.499 433.877 778.342 388.92 836.849 388.92Z" fill="white"/>
</g>
</g>
<defs>
<clipPath id="clip0_41_130">
<rect width="801.905" height="421" fill="white"/>
</clipPath>
</defs>
</svg>
