<svg width="24" height="19" viewBox="0 0 24 19" fill="none" xmlns="http://www.w3.org/2000/svg">
<path d="M14.68 18.499C14.12 18.499 13.84 18.219 13.84 17.659V11.119C13.84 10.879 13.92 10.659 14.08 10.459L19.48 1.93902C19.72 1.61902 20.02 1.37902 20.38 1.21902C20.74 1.05902 21.08 0.979021 21.4 0.979021H22.42C22.7 0.979021 22.9 1.09902 23.02 1.33902C23.18 1.53902 23.2 1.77902 23.08 2.05902L20.5 7.99902C20.34 8.43902 20.28 8.77902 20.32 9.01902C20.4 9.25902 20.62 9.41902 20.98 9.49902L21.94 9.55902C22.42 9.59902 22.74 9.69902 22.9 9.85902C23.06 10.019 23.14 10.299 23.14 10.699V17.539C23.14 18.179 22.84 18.499 22.24 18.499H14.68ZM1.24 18.499C0.68 18.499 0.4 18.219 0.4 17.659V11.119C0.4 10.879 0.46 10.659 0.58 10.459L6.04 1.93902C6.24 1.61902 6.52 1.37902 6.88 1.21902C7.28 1.05902 7.64 0.979021 7.96 0.979021H8.92C9.24 0.979021 9.46 1.09902 9.58 1.33902C9.7 1.53902 9.72 1.77902 9.64 2.05902L7.06 7.99902C6.86 8.43902 6.78 8.77902 6.82 9.01902C6.9 9.25902 7.12 9.41902 7.48 9.49902L8.5 9.55902C8.94 9.59902 9.24 9.69902 9.4 9.85902C9.56 10.019 9.64 10.299 9.64 10.699V17.539C9.64 18.179 9.36 18.499 8.8 18.499H1.24Z" fill="#FC4A6B"/>
</svg>
