<svg width="572" height="262" viewBox="0 0 572 262" preserveAspectRatio="none" fill="none" xmlns="http://www.w3.org/2000/svg">
<path d="M564.428 257.7C564.428 259.73 566.073 261.375 568.103 261.375C570.133 261.375 571.779 259.73 571.779 257.7H564.428ZM0.755615 8.10709H516.648V0.756287H0.755615V8.10709ZM564.428 55.9309C564.428 56.0764 564.428 56.2218 564.428 56.3669C564.428 56.5121 564.428 56.6571 564.428 56.8019C564.428 56.9468 564.428 57.0914 564.428 57.2359C564.428 57.3804 564.428 57.5248 564.428 57.669C564.428 57.8131 564.428 57.9571 564.428 58.101C564.428 58.2448 564.428 58.3885 564.428 58.532C564.428 58.6755 564.428 58.8189 564.428 58.9621C564.428 59.1053 564.428 59.2483 564.428 59.3912C564.428 59.534 564.428 59.6768 564.428 59.8193C564.428 59.9618 564.428 60.1042 564.428 60.2465C564.428 60.3887 564.428 60.5307 564.428 60.6727C564.428 60.8146 564.428 60.9563 564.428 61.0979C564.428 61.2395 564.428 61.3809 564.428 61.5222C564.428 61.6635 564.428 61.8046 564.428 61.9455C564.428 62.0865 564.428 62.2273 564.428 62.368C564.428 62.5086 564.428 62.6491 564.428 62.7894C564.428 62.9298 564.428 63.0699 564.428 63.21C564.428 63.35 564.428 63.4899 564.428 63.6296C564.428 63.7693 564.428 63.9089 564.428 64.0483C564.428 64.1877 564.428 64.327 564.428 64.4661C564.428 64.6052 564.428 64.7442 564.428 64.883C564.428 65.0218 564.428 65.1604 564.428 65.299C564.428 65.4375 564.428 65.5758 564.428 65.714C564.428 65.8522 564.428 65.9903 564.428 66.1282C564.428 66.2661 564.428 66.4039 564.428 66.5415C564.428 66.6791 564.428 66.8166 564.428 66.9539C564.428 67.0912 564.428 67.2284 564.428 67.3654C564.428 67.5025 564.428 67.6393 564.428 67.7761C564.428 67.9128 564.428 68.0494 564.428 68.1859C564.428 68.3223 564.428 68.4586 564.428 68.5948C564.428 68.7309 564.428 68.867 564.428 69.0028C564.428 69.1387 564.428 69.2744 564.428 69.41C564.428 69.5456 564.428 69.6811 564.428 69.8164C564.428 69.9517 564.428 70.0869 564.428 70.2219C564.428 70.3569 564.428 70.4918 564.428 70.6266C564.428 70.7613 564.428 70.8959 564.428 71.0304C564.428 71.1649 564.428 71.2992 564.428 71.4334C564.428 71.5676 564.428 71.7016 564.428 71.8356C564.428 71.9695 564.428 72.1033 564.428 72.2369C564.428 72.3706 564.428 72.5041 564.428 72.6375C564.428 72.7708 564.428 72.9041 564.428 73.0372C564.428 73.1703 564.428 73.3033 564.428 73.4361C564.428 73.5689 564.428 73.7016 564.428 73.8342C564.428 73.9668 564.428 74.0992 564.428 74.2315C564.428 74.3638 564.428 74.496 564.428 74.6281C564.428 74.7601 564.428 74.892 564.428 75.0238C564.428 75.1556 564.428 75.2873 564.428 75.4188C564.428 75.5503 564.428 75.6817 564.428 75.813C564.428 75.9442 564.428 76.0754 564.428 76.2064C564.428 76.3374 564.428 76.4683 564.428 76.599C564.428 76.7298 564.428 76.8604 564.428 76.9909C564.428 77.1214 564.428 77.2518 564.428 77.3821C564.428 77.5123 564.428 77.6425 564.428 77.7725C564.428 77.9025 564.428 78.0323 564.428 78.1621C564.428 78.2918 564.428 78.4215 564.428 78.551C564.428 78.6805 564.428 78.8099 564.428 78.9391C564.428 79.0684 564.428 79.1976 564.428 79.3266C564.428 79.4556 564.428 79.5845 564.428 79.7133C564.428 79.842 564.428 79.9707 564.428 80.0992C564.428 80.2278 564.428 80.3562 564.428 80.4845C564.428 80.6128 564.428 80.741 564.428 80.869C564.428 80.9971 564.428 81.1251 564.428 81.2529C564.428 81.3807 564.428 81.5084 564.428 81.636C564.428 81.7636 564.428 81.8911 564.428 82.0185C564.428 82.1458 564.428 82.2731 564.428 82.4002C564.428 82.5274 564.428 82.6544 564.428 82.7813C564.428 82.9082 564.428 83.035 564.428 83.1617C564.428 83.2883 564.428 83.4149 564.428 83.5414C564.428 83.6678 564.428 83.7942 564.428 83.9204C564.428 84.0466 564.428 84.1727 564.428 84.2988C564.428 84.4248 564.428 84.5507 564.428 84.6765C564.428 84.8022 564.428 84.9279 564.428 85.0535C564.428 85.1791 564.428 85.3045 564.428 85.4299C564.428 85.5552 564.428 85.6805 564.428 85.8056C564.428 85.9308 564.428 86.0558 564.428 86.1807C564.428 86.3056 564.428 86.4305 564.428 86.5552C564.428 86.6799 564.428 86.8045 564.428 86.929C564.428 87.0535 564.428 87.1779 564.428 87.3022C564.428 87.4265 564.428 87.5507 564.428 87.6748C564.428 87.7989 564.428 87.9229 564.428 88.0467C564.428 88.1706 564.428 88.2944 564.428 88.4181C564.428 88.5418 564.428 88.6653 564.428 88.7888C564.428 88.9123 564.428 89.0357 564.428 89.159C564.428 89.2822 564.428 89.4054 564.428 89.5285C564.428 89.6516 564.428 89.7746 564.428 89.8974C564.428 90.0203 564.428 90.1431 564.428 90.2658C564.428 90.3885 564.428 90.511 564.428 90.6335C564.428 90.756 564.428 90.8784 564.428 91.0007C564.428 91.123 564.428 91.2452 564.428 91.3673C564.428 91.4895 564.428 91.6115 564.428 91.7334C564.428 91.8553 564.428 91.9771 564.428 92.0989C564.428 92.2206 564.428 92.3423 564.428 92.4638C564.428 92.5853 564.428 92.7068 564.428 92.8282C564.428 92.9495 564.428 93.0708 564.428 93.192C564.428 93.3132 564.428 93.4343 564.428 93.5553C564.428 93.6763 564.428 93.7972 564.428 93.918C564.428 94.0388 564.428 94.1596 564.428 94.2802C564.428 94.4008 564.428 94.5214 564.428 94.6419C564.428 94.7623 564.428 94.8827 564.428 95.003C564.428 95.1233 564.428 95.2435 564.428 95.3636C564.428 95.4838 564.428 95.6038 564.428 95.7238C564.428 95.8437 564.428 95.9636 564.428 96.0834C564.428 96.2032 564.428 96.3228 564.428 96.4425C564.428 96.5621 564.428 96.6816 564.428 96.8011C564.428 96.9205 564.428 97.0399 564.428 97.1592C564.428 97.2785 564.428 97.3977 564.428 97.5168C564.428 97.6359 564.428 97.755 564.428 97.8739C564.428 97.9929 564.428 98.1118 564.428 98.2306C564.428 98.3494 564.428 98.4681 564.428 98.5867C564.428 98.7054 564.428 98.824 564.428 98.9424C564.428 99.0609 564.428 99.1794 564.428 99.2977C564.428 99.416 564.428 99.5343 564.428 99.6525C564.428 99.7706 564.428 99.8888 564.428 100.007C564.428 100.125 564.428 100.243 564.428 100.361C564.428 100.479 564.428 100.596 564.428 100.714C564.428 100.832 564.428 100.949 564.428 101.067C564.428 101.185 564.428 101.302 564.428 101.42C564.428 101.537 564.428 101.654 564.428 101.772C564.428 101.889 564.428 102.006 564.428 102.123C564.428 102.241 564.428 102.358 564.428 102.475C564.428 102.592 564.428 102.709 564.428 102.826C564.428 102.942 564.428 103.059 564.428 103.176C564.428 103.293 564.428 103.409 564.428 103.526C564.428 103.643 564.428 103.759 564.428 103.876C564.428 103.992 564.428 104.109 564.428 104.225C564.428 104.341 564.428 104.458 564.428 104.574C564.428 104.69 564.428 104.806 564.428 104.922C564.428 105.038 564.428 105.154 564.428 105.27C564.428 105.386 564.428 105.502 564.428 105.618C564.428 105.734 564.428 105.85 564.428 105.965C564.428 106.081 564.428 106.197 564.428 106.312C564.428 106.428 564.428 106.544 564.428 106.659C564.428 106.774 564.428 106.89 564.428 107.005C564.428 107.121 564.428 107.236 564.428 107.351C564.428 107.466 564.428 107.582 564.428 107.697C564.428 107.812 564.428 107.927 564.428 108.042C564.428 108.157 564.428 108.272 564.428 108.387C564.428 108.502 564.428 108.617 564.428 108.731C564.428 108.846 564.428 108.961 564.428 109.076C564.428 109.19 564.428 109.305 564.428 109.419C564.428 109.534 564.428 109.649 564.428 109.763C564.428 109.878 564.428 109.992 564.428 110.106C564.428 110.221 564.428 110.335 564.428 110.449C564.428 110.564 564.428 110.678 564.428 110.792C564.428 110.906 564.428 111.02 564.428 111.134C564.428 111.248 564.428 111.362 564.428 111.476C564.428 111.59 564.428 111.704 564.428 111.818C564.428 111.932 564.428 112.046 564.428 112.16C564.428 112.273 564.428 112.387 564.428 112.501C564.428 112.615 564.428 112.728 564.428 112.842C564.428 112.955 564.428 113.069 564.428 113.182C564.428 113.296 564.428 113.409 564.428 113.523C564.428 113.636 564.428 113.75 564.428 113.863C564.428 113.976 564.428 114.09 564.428 114.203C564.428 114.316 564.428 114.429 564.428 114.543C564.428 114.656 564.428 114.769 564.428 114.882C564.428 114.995 564.428 115.108 564.428 115.221C564.428 115.334 564.428 115.447 564.428 115.56C564.428 115.673 564.428 115.786 564.428 115.899C564.428 116.012 564.428 116.125 564.428 116.237C564.428 116.35 564.428 116.463 564.428 116.576C564.428 116.688 564.428 116.801 564.428 116.914C564.428 117.026 564.428 117.139 564.428 117.252C564.428 117.364 564.428 117.477 564.428 117.589C564.428 117.702 564.428 117.814 564.428 117.927C564.428 118.039 564.428 118.151 564.428 118.264C564.428 118.376 564.428 118.489 564.428 118.601C564.428 118.713 564.428 118.826 564.428 118.938C564.428 119.05 564.428 119.162 564.428 119.275C564.428 119.387 564.428 119.499 564.428 119.611C564.428 119.723 564.428 119.835 564.428 119.947C564.428 120.059 564.428 120.172 564.428 120.284C564.428 120.396 564.428 120.508 564.428 120.62C564.428 120.732 564.428 120.844 564.428 120.956C564.428 121.067 564.428 121.179 564.428 121.291C564.428 121.403 564.428 121.515 564.428 121.627C564.428 121.739 564.428 121.85 564.428 121.962C564.428 122.074 564.428 122.186 564.428 122.298C564.428 122.409 564.428 122.521 564.428 122.633C564.428 122.745 564.428 122.856 564.428 122.968C564.428 123.08 564.428 123.191 564.428 123.303C564.428 123.414 564.428 123.526 564.428 123.638C564.428 123.749 564.428 123.861 564.428 123.972C564.428 124.084 564.428 124.195 564.428 124.307C564.428 124.418 564.428 124.53 564.428 124.641C564.428 124.753 564.428 124.864 564.428 124.976C564.428 125.087 564.428 125.199 564.428 125.31C564.428 125.422 564.428 125.533 564.428 125.644C564.428 125.756 564.428 125.867 564.428 125.979C564.428 126.09 564.428 126.201 564.428 126.313C564.428 126.424 564.428 126.535 564.428 126.647C564.428 126.758 564.428 126.869 564.428 126.981C564.428 127.092 564.428 127.203 564.428 127.315C564.428 127.426 564.428 127.537 564.428 127.648C564.428 127.76 564.428 127.871 564.428 127.982C564.428 128.093 564.428 128.205 564.428 128.316C564.428 128.427 564.428 128.538 564.428 128.65C564.428 128.761 564.428 128.872 564.428 128.983C564.428 129.094 564.428 129.206 564.428 129.317C564.428 129.428 564.428 129.539 564.428 129.651C564.428 129.762 564.428 129.873 564.428 129.984C564.428 130.095 564.428 130.206 564.428 130.318C564.428 130.429 564.428 130.54 564.428 130.651C564.428 130.762 564.428 130.874 564.428 130.985C564.428 131.096 564.428 131.207 564.428 131.318C564.428 131.429 564.428 131.541 564.428 131.652C564.428 131.763 564.428 131.874 564.428 131.985C564.428 132.097 564.428 132.208 564.428 132.319C564.428 132.43 564.428 132.541 564.428 132.653C564.428 132.764 564.428 132.875 564.428 132.986C564.428 133.097 564.428 133.209 564.428 133.32C564.428 133.431 564.428 133.542 564.428 133.654C564.428 133.765 564.428 133.876 564.428 133.987C564.428 134.099 564.428 134.21 564.428 134.321C564.428 134.432 564.428 134.544 564.428 134.655C564.428 134.766 564.428 134.877 564.428 134.989C564.428 135.1 564.428 135.211 564.428 135.323C564.428 135.434 564.428 135.545 564.428 135.657C564.428 135.768 564.428 135.879 564.428 135.991C564.428 136.102 564.428 136.213 564.428 136.325C564.428 136.436 564.428 136.548 564.428 136.659C564.428 136.77 564.428 136.882 564.428 136.993C564.428 137.105 564.428 137.216 564.428 137.328C564.428 137.439 564.428 137.551 564.428 137.662C564.428 137.774 564.428 137.885 564.428 137.997C564.428 138.108 564.428 138.22 564.428 138.331C564.428 138.443 564.428 138.554 564.428 138.666C564.428 138.778 564.428 138.889 564.428 139.001C564.428 139.113 564.428 139.224 564.428 139.336C564.428 139.448 564.428 139.559 564.428 139.671C564.428 139.783 564.428 139.895 564.428 140.006C564.428 140.118 564.428 140.23 564.428 140.342C564.428 140.454 564.428 140.565 564.428 140.677C564.428 140.789 564.428 140.901 564.428 141.013C564.428 141.125 564.428 141.237 564.428 141.349C564.428 141.461 564.428 141.573 564.428 141.685C564.428 141.797 564.428 141.909 564.428 142.021C564.428 142.133 564.428 142.245 564.428 142.357C564.428 142.469 564.428 142.581 564.428 142.694C564.428 142.806 564.428 142.918 564.428 143.03C564.428 143.142 564.428 143.255 564.428 143.367C564.428 143.479 564.428 143.592 564.428 143.704C564.428 143.816 564.428 143.929 564.428 144.041C564.428 144.154 564.428 144.266 564.428 144.378C564.428 144.491 564.428 144.603 564.428 144.716C564.428 144.829 564.428 144.941 564.428 145.054C564.428 145.166 564.428 145.279 564.428 145.392C564.428 145.504 564.428 145.617 564.428 145.73C564.428 145.843 564.428 145.955 564.428 146.068C564.428 146.181 564.428 146.294 564.428 146.407C564.428 146.52 564.428 146.633 564.428 146.746C564.428 146.859 564.428 146.972 564.428 147.085C564.428 147.198 564.428 147.311 564.428 147.424C564.428 147.537 564.428 147.65 564.428 147.764C564.428 147.877 564.428 147.99 564.428 148.103C564.428 148.217 564.428 148.33 564.428 148.443C564.428 148.557 564.428 148.67 564.428 148.784C564.428 148.897 564.428 149.011 564.428 149.124C564.428 149.238 564.428 149.351 564.428 149.465C564.428 149.579 564.428 149.692 564.428 149.806C564.428 149.92 564.428 150.034 564.428 150.148C564.428 150.261 564.428 150.375 564.428 150.489C564.428 150.603 564.428 150.717 564.428 150.831C564.428 150.945 564.428 151.059 564.428 151.173C564.428 151.287 564.428 151.402 564.428 151.516C564.428 151.63 564.428 151.744 564.428 151.859C564.428 151.973 564.428 152.087 564.428 152.202C564.428 152.316 564.428 152.431 564.428 152.545C564.428 152.66 564.428 152.774 564.428 152.889C564.428 153.004 564.428 153.118 564.428 153.233C564.428 153.348 564.428 153.463 564.428 153.577C564.428 153.692 564.428 153.807 564.428 153.922C564.428 154.037 564.428 154.152 564.428 154.267C564.428 154.382 564.428 154.497 564.428 154.613C564.428 154.728 564.428 154.843 564.428 154.958C564.428 155.074 564.428 155.189 564.428 155.304C564.428 155.42 564.428 155.535 564.428 155.651C564.428 155.766 564.428 155.882 564.428 155.998C564.428 156.113 564.428 156.229 564.428 156.345C564.428 156.46 564.428 156.576 564.428 156.692C564.428 156.808 564.428 156.924 564.428 157.04C564.428 157.156 564.428 157.272 564.428 157.388C564.428 157.505 564.428 157.621 564.428 157.737C564.428 157.853 564.428 157.97 564.428 158.086C564.428 158.203 564.428 158.319 564.428 158.436C564.428 158.552 564.428 158.669 564.428 158.785C564.428 158.902 564.428 159.019 564.428 159.136C564.428 159.253 564.428 159.369 564.428 159.486C564.428 159.603 564.428 159.72 564.428 159.837C564.428 159.955 564.428 160.072 564.428 160.189C564.428 160.306 564.428 160.423 564.428 160.541C564.428 160.658 564.428 160.776 564.428 160.893C564.428 161.011 564.428 161.128 564.428 161.246C564.428 161.364 564.428 161.481 564.428 161.599C564.428 161.717 564.428 161.835 564.428 161.953C564.428 162.071 564.428 162.189 564.428 162.307C564.428 162.425 564.428 162.543 564.428 162.661C564.428 162.78 564.428 162.898 564.428 163.016C564.428 163.135 564.428 163.253 564.428 163.372C564.428 163.491 564.428 163.609 564.428 163.728C564.428 163.847 564.428 163.965 564.428 164.084C564.428 164.203 564.428 164.322 564.428 164.441C564.428 164.56 564.428 164.679 564.428 164.799C564.428 164.918 564.428 165.037 564.428 165.156C564.428 165.276 564.428 165.395 564.428 165.515C564.428 165.634 564.428 165.754 564.428 165.874C564.428 165.993 564.428 166.113 564.428 166.233C564.428 166.353 564.428 166.473 564.428 166.593C564.428 166.713 564.428 166.833 564.428 166.953C564.428 167.074 564.428 167.194 564.428 167.314C564.428 167.435 564.428 167.555 564.428 167.676C564.428 167.796 564.428 167.917 564.428 168.038C564.428 168.158 564.428 168.279 564.428 168.4C564.428 168.521 564.428 168.642 564.428 168.763C564.428 168.884 564.428 169.005 564.428 169.127C564.428 169.248 564.428 169.369 564.428 169.491C564.428 169.612 564.428 169.734 564.428 169.855C564.428 169.977 564.428 170.099 564.428 170.221C564.428 170.342 564.428 170.464 564.428 170.586C564.428 170.708 564.428 170.83 564.428 170.953C564.428 171.075 564.428 171.197 564.428 171.32C564.428 171.442 564.428 171.564 564.428 171.687C564.428 171.81 564.428 171.932 564.428 172.055C564.428 172.178 564.428 172.301 564.428 172.424C564.428 172.547 564.428 172.67 564.428 172.793C564.428 172.916 564.428 173.039 564.428 173.163C564.428 173.286 564.428 173.41 564.428 173.533C564.428 173.657 564.428 173.781 564.428 173.904C564.428 174.028 564.428 174.152 564.428 174.276C564.428 174.4 564.428 174.524 564.428 174.648C564.428 174.772 564.428 174.897 564.428 175.021C564.428 175.146 564.428 175.27 564.428 175.395C564.428 175.519 564.428 175.644 564.428 175.769C564.428 175.894 564.428 176.019 564.428 176.144C564.428 176.269 564.428 176.394 564.428 176.519C564.428 176.644 564.428 176.77 564.428 176.895C564.428 177.021 564.428 177.146 564.428 177.272C564.428 177.398 564.428 177.523 564.428 177.649C564.428 177.775 564.428 177.901 564.428 178.027C564.428 178.153 564.428 178.28 564.428 178.406C564.428 178.532 564.428 178.659 564.428 178.785C564.428 178.912 564.428 179.039 564.428 179.165C564.428 179.292 564.428 179.419 564.428 179.546C564.428 179.673 564.428 179.8 564.428 179.928C564.428 180.055 564.428 180.182 564.428 180.31C564.428 180.437 564.428 180.565 564.428 180.692C564.428 180.82 564.428 180.948 564.428 181.076C564.428 181.204 564.428 181.332 564.428 181.46C564.428 181.588 564.428 181.717 564.428 181.845C564.428 181.973 564.428 182.102 564.428 182.231C564.428 182.359 564.428 182.488 564.428 182.617C564.428 182.746 564.428 182.875 564.428 183.004C564.428 183.133 564.428 183.263 564.428 183.392C564.428 183.521 564.428 183.651 564.428 183.78C564.428 183.91 564.428 184.04 564.428 184.17C564.428 184.3 564.428 184.43 564.428 184.56C564.428 184.69 564.428 184.82 564.428 184.951C564.428 185.081 564.428 185.211 564.428 185.342C564.428 185.473 564.428 185.603 564.428 185.734C564.428 185.865 564.428 185.996 564.428 186.127C564.428 186.259 564.428 186.39 564.428 186.521C564.428 186.653 564.428 186.784 564.428 186.916C564.428 187.047 564.428 187.179 564.428 187.311C564.428 187.443 564.428 187.575 564.428 187.707C564.428 187.839 564.428 187.972 564.428 188.104C564.428 188.237 564.428 188.369 564.428 188.502C564.428 188.635 564.428 188.768 564.428 188.9C564.428 189.033 564.428 189.167 564.428 189.3C564.428 189.433 564.428 189.566 564.428 189.7C564.428 189.833 564.428 189.967 564.428 190.101C564.428 190.235 564.428 190.369 564.428 190.503C564.428 190.637 564.428 190.771 564.428 190.905C564.428 191.04 564.428 191.174 564.428 191.309C564.428 191.443 564.428 191.578 564.428 191.713C564.428 191.848 564.428 191.983 564.428 192.118C564.428 192.253 564.428 192.389 564.428 192.524C564.428 192.659 564.428 192.795 564.428 192.931C564.428 193.067 564.428 193.202 564.428 193.338C564.428 193.474 564.428 193.611 564.428 193.747C564.428 193.883 564.428 194.02 564.428 194.156C564.428 194.293 564.428 194.43 564.428 194.567C564.428 194.703 564.428 194.84 564.428 194.978C564.428 195.115 564.428 195.252 564.428 195.39C564.428 195.527 564.428 195.665 564.428 195.802C564.428 195.94 564.428 196.078 564.428 196.216C564.428 196.354 564.428 196.492 564.428 196.631C564.428 196.769 564.428 196.908 564.428 197.046C564.428 197.185 564.428 197.324 564.428 197.463C564.428 197.602 564.428 197.741 564.428 197.88C564.428 198.019 564.428 198.159 564.428 198.298C564.428 198.438 564.428 198.578 564.428 198.718C564.428 198.857 564.428 198.998 564.428 199.138C564.428 199.278 564.428 199.418 564.428 199.559C564.428 199.699 564.428 199.84 564.428 199.981C564.428 200.122 564.428 200.262 564.428 200.404C564.428 200.545 564.428 200.686 564.428 200.827C564.428 200.969 564.428 201.11 564.428 201.252C564.428 201.394 564.428 201.536 564.428 201.678C564.428 201.82 564.428 201.962 564.428 202.105C564.428 202.247 564.428 202.39 564.428 202.532C564.428 202.675 564.428 202.818 564.428 202.961C564.428 203.104 564.428 203.247 564.428 203.39C564.428 203.534 564.428 203.677 564.428 203.821C564.428 203.965 564.428 204.109 564.428 204.253C564.428 204.397 564.428 204.541 564.428 204.685C564.428 204.829 564.428 204.974 564.428 205.119C564.428 205.263 564.428 205.408 564.428 205.553C564.428 205.698 564.428 205.843 564.428 205.989C564.428 206.134 564.428 206.28 564.428 206.425C564.428 206.571 564.428 206.717 564.428 206.863C564.428 207.009 564.428 207.155 564.428 207.301C564.428 207.448 564.428 207.594 564.428 207.741C564.428 207.888 564.428 208.034 564.428 208.181C564.428 208.329 564.428 208.476 564.428 208.623C564.428 208.77 564.428 208.918 564.428 209.066C564.428 209.213 564.428 209.361 564.428 209.509C564.428 209.658 564.428 209.806 564.428 209.954C564.428 210.103 564.428 210.251 564.428 210.4C564.428 210.549 564.428 210.698 564.428 210.847C564.428 210.996 564.428 211.145 564.428 211.295C564.428 211.444 564.428 211.594 564.428 211.744C564.428 211.894 564.428 212.044 564.428 212.194C564.428 212.344 564.428 212.494 564.428 212.645C564.428 212.796 564.428 212.946 564.428 213.097C564.428 213.248 564.428 213.399 564.428 213.55C564.428 213.702 564.428 213.853 564.428 214.005C564.428 214.156 564.428 214.308 564.428 214.46C564.428 214.612 564.428 214.764 564.428 214.917C564.428 215.069 564.428 215.222 564.428 215.375C564.428 215.527 564.428 215.68 564.428 215.833C564.428 215.986 564.428 216.14 564.428 216.293C564.428 216.447 564.428 216.6 564.428 216.754C564.428 216.908 564.428 217.062 564.428 217.216C564.428 217.371 564.428 217.525 564.428 217.68C564.428 217.834 564.428 217.989 564.428 218.144C564.428 218.299 564.428 218.454 564.428 218.61C564.428 218.765 564.428 218.921 564.428 219.076C564.428 219.232 564.428 219.388 564.428 219.544C564.428 219.7 564.428 219.857 564.428 220.013C564.428 220.17 564.428 220.326 564.428 220.483C564.428 220.64 564.428 220.797 564.428 220.955C564.428 221.112 564.428 221.269 564.428 221.427C564.428 221.585 564.428 221.743 564.428 221.901C564.428 222.059 564.428 222.217 564.428 222.376C564.428 222.534 564.428 222.693 564.428 222.852C564.428 223.011 564.428 223.17 564.428 223.329C564.428 223.488 564.428 223.648 564.428 223.807C564.428 223.967 564.428 224.127 564.428 224.287C564.428 224.447 564.428 224.607 564.428 224.768C564.428 224.928 564.428 225.089 564.428 225.25C564.428 225.411 564.428 225.572 564.428 225.733C564.428 225.894 564.428 226.056 564.428 226.217C564.428 226.379 564.428 226.541 564.428 226.703C564.428 226.865 564.428 227.027 564.428 227.19C564.428 227.352 564.428 227.515 564.428 227.678C564.428 227.841 564.428 228.004 564.428 228.167C564.428 228.331 564.428 228.494 564.428 228.658C564.428 228.822 564.428 228.986 564.428 229.15C564.428 229.314 564.428 229.478 564.428 229.643C564.428 229.808 564.428 229.972 564.428 230.137C564.428 230.302 564.428 230.468 564.428 230.633C564.428 230.798 564.428 230.964 564.428 231.13C564.428 231.296 564.428 231.462 564.428 231.628C564.428 231.794 564.428 231.961 564.428 232.128C564.428 232.294 564.428 232.461 564.428 232.628C564.428 232.795 564.428 232.963 564.428 233.13C564.428 233.298 564.428 233.466 564.428 233.634C564.428 233.802 564.428 233.97 564.428 234.138C564.428 234.307 564.428 234.475 564.428 234.644C564.428 234.813 564.428 234.982 564.428 235.151C564.428 235.321 564.428 235.49 564.428 235.66C564.428 235.83 564.428 236 564.428 236.17C564.428 236.34 564.428 236.51 564.428 236.681C564.428 236.851 564.428 237.022 564.428 237.193C564.428 237.364 564.428 237.536 564.428 237.707C564.428 237.879 564.428 238.05 564.428 238.222C564.428 238.394 564.428 238.566 564.428 238.739C564.428 238.911 564.428 239.084 564.428 239.257C564.428 239.43 564.428 239.603 564.428 239.776C564.428 239.949 564.428 240.123 564.428 240.296C564.428 240.47 564.428 240.644 564.428 240.818C564.428 240.993 564.428 241.167 564.428 241.342C564.428 241.516 564.428 241.691 564.428 241.866C564.428 242.041 564.428 242.217 564.428 242.392C564.428 242.568 564.428 242.744 564.428 242.92C564.428 243.096 564.428 243.272 564.428 243.449C564.428 243.625 564.428 243.802 564.428 243.979C564.428 244.156 564.428 244.333 564.428 244.51C564.428 244.688 564.428 244.865 564.428 245.043C564.428 245.221 564.428 245.399 564.428 245.578C564.428 245.756 564.428 245.935 564.428 246.114C564.428 246.292 564.428 246.471 564.428 246.651C564.428 246.83 564.428 247.01 564.428 247.189C564.428 247.369 564.428 247.549 564.428 247.729C564.428 247.91 564.428 248.09 564.428 248.271C564.428 248.452 564.428 248.633 564.428 248.814C564.428 248.995 564.428 249.177 564.428 249.358C564.428 249.54 564.428 249.722 564.428 249.904C564.428 250.086 564.428 250.269 564.428 250.451C564.428 250.634 564.428 250.817 564.428 251C564.428 251.183 564.428 251.367 564.428 251.55C564.428 251.734 564.428 251.918 564.428 252.102C564.428 252.286 564.428 252.47 564.428 252.655C564.428 252.84 564.428 253.024 564.428 253.21C564.428 253.395 564.428 253.58 564.428 253.766C564.428 253.951 564.428 254.137 564.428 254.323C564.428 254.509 564.428 254.696 564.428 254.882C564.428 255.069 564.428 255.256 564.428 255.443C564.428 255.63 564.428 255.817 564.428 256.005C564.428 256.192 564.428 256.38 564.428 256.568C564.428 256.756 564.428 256.945 564.428 257.133C564.428 257.322 564.428 257.511 564.428 257.7H571.779C571.779 257.511 571.779 257.322 571.779 257.133C571.779 256.945 571.779 256.756 571.779 256.568C571.779 256.38 571.779 256.192 571.779 256.005C571.779 255.817 571.779 255.63 571.779 255.443C571.779 255.256 571.779 255.069 571.779 254.882C571.779 254.696 571.779 254.509 571.779 254.323C571.779 254.137 571.779 253.951 571.779 253.766C571.779 253.58 571.779 253.395 571.779 253.21C571.779 253.024 571.779 252.84 571.779 252.655C571.779 252.47 571.779 252.286 571.779 252.102C571.779 251.918 571.779 251.734 571.779 251.55C571.779 251.367 571.779 251.183 571.779 251C571.779 250.817 571.779 250.634 571.779 250.451C571.779 250.269 571.779 250.086 571.779 249.904C571.779 249.722 571.779 249.54 571.779 249.358C571.779 249.177 571.779 248.995 571.779 248.814C571.779 248.633 571.779 248.452 571.779 248.271C571.779 248.09 571.779 247.91 571.779 247.729C571.779 247.549 571.779 247.369 571.779 247.189C571.779 247.01 571.779 246.83 571.779 246.651C571.779 246.471 571.779 246.292 571.779 246.114C571.779 245.935 571.779 245.756 571.779 245.578C571.779 245.399 571.779 245.221 571.779 245.043C571.779 244.865 571.779 244.688 571.779 244.51C571.779 244.333 571.779 244.156 571.779 243.979C571.779 243.802 571.779 243.625 571.779 243.449C571.779 243.272 571.779 243.096 571.779 242.92C571.779 242.744 571.779 242.568 571.779 242.392C571.779 242.217 571.779 242.041 571.779 241.866C571.779 241.691 571.779 241.516 571.779 241.342C571.779 241.167 571.779 240.993 571.779 240.818C571.779 240.644 571.779 240.47 571.779 240.296C571.779 240.123 571.779 239.949 571.779 239.776C571.779 239.603 571.779 239.43 571.779 239.257C571.779 239.084 571.779 238.911 571.779 238.739C571.779 238.566 571.779 238.394 571.779 238.222C571.779 238.05 571.779 237.879 571.779 237.707C571.779 237.536 571.779 237.364 571.779 237.193C571.779 237.022 571.779 236.851 571.779 236.681C571.779 236.51 571.779 236.34 571.779 236.17C571.779 236 571.779 235.83 571.779 235.66C571.779 235.49 571.779 235.321 571.779 235.151C571.779 234.982 571.779 234.813 571.779 234.644C571.779 234.475 571.779 234.307 571.779 234.138C571.779 233.97 571.779 233.802 571.779 233.634C571.779 233.466 571.779 233.298 571.779 233.13C571.779 232.963 571.779 232.795 571.779 232.628C571.779 232.461 571.779 232.294 571.779 232.128C571.779 231.961 571.779 231.794 571.779 231.628C571.779 231.462 571.779 231.296 571.779 231.13C571.779 230.964 571.779 230.798 571.779 230.633C571.779 230.468 571.779 230.302 571.779 230.137C571.779 229.972 571.779 229.808 571.779 229.643C571.779 229.478 571.779 229.314 571.779 229.15C571.779 228.986 571.779 228.822 571.779 228.658C571.779 228.494 571.779 228.331 571.779 228.167C571.779 228.004 571.779 227.841 571.779 227.678C571.779 227.515 571.779 227.352 571.779 227.19C571.779 227.027 571.779 226.865 571.779 226.703C571.779 226.541 571.779 226.379 571.779 226.217C571.779 226.056 571.779 225.894 571.779 225.733C571.779 225.572 571.779 225.411 571.779 225.25C571.779 225.089 571.779 224.928 571.779 224.768C571.779 224.607 571.779 224.447 571.779 224.287C571.779 224.127 571.779 223.967 571.779 223.807C571.779 223.648 571.779 223.488 571.779 223.329C571.779 223.17 571.779 223.011 571.779 222.852C571.779 222.693 571.779 222.534 571.779 222.376C571.779 222.217 571.779 222.059 571.779 221.901C571.779 221.743 571.779 221.585 571.779 221.427C571.779 221.269 571.779 221.112 571.779 220.955C571.779 220.797 571.779 220.64 571.779 220.483C571.779 220.326 571.779 220.17 571.779 220.013C571.779 219.857 571.779 219.7 571.779 219.544C571.779 219.388 571.779 219.232 571.779 219.076C571.779 218.921 571.779 218.765 571.779 218.61C571.779 218.454 571.779 218.299 571.779 218.144C571.779 217.989 571.779 217.834 571.779 217.68C571.779 217.525 571.779 217.371 571.779 217.216C571.779 217.062 571.779 216.908 571.779 216.754C571.779 216.6 571.779 216.447 571.779 216.293C571.779 216.14 571.779 215.986 571.779 215.833C571.779 215.68 571.779 215.527 571.779 215.375C571.779 215.222 571.779 215.069 571.779 214.917C571.779 214.764 571.779 214.612 571.779 214.46C571.779 214.308 571.779 214.156 571.779 214.005C571.779 213.853 571.779 213.702 571.779 213.55C571.779 213.399 571.779 213.248 571.779 213.097C571.779 212.946 571.779 212.796 571.779 212.645C571.779 212.494 571.779 212.344 571.779 212.194C571.779 212.044 571.779 211.894 571.779 211.744C571.779 211.594 571.779 211.444 571.779 211.295C571.779 211.145 571.779 210.996 571.779 210.847C571.779 210.698 571.779 210.549 571.779 210.4C571.779 210.251 571.779 210.103 571.779 209.954C571.779 209.806 571.779 209.658 571.779 209.509C571.779 209.361 571.779 209.213 571.779 209.066C571.779 208.918 571.779 208.77 571.779 208.623C571.779 208.476 571.779 208.329 571.779 208.181C571.779 208.034 571.779 207.888 571.779 207.741C571.779 207.594 571.779 207.448 571.779 207.301C571.779 207.155 571.779 207.009 571.779 206.863C571.779 206.717 571.779 206.571 571.779 206.425C571.779 206.28 571.779 206.134 571.779 205.989C571.779 205.843 571.779 205.698 571.779 205.553C571.779 205.408 571.779 205.263 571.779 205.119C571.779 204.974 571.779 204.829 571.779 204.685C571.779 204.541 571.779 204.397 571.779 204.253C571.779 204.109 571.779 203.965 571.779 203.821C571.779 203.677 571.779 203.534 571.779 203.39C571.779 203.247 571.779 203.104 571.779 202.961C571.779 202.818 571.779 202.675 571.779 202.532C571.779 202.39 571.779 202.247 571.779 202.105C571.779 201.962 571.779 201.82 571.779 201.678C571.779 201.536 571.779 201.394 571.779 201.252C571.779 201.11 571.779 200.969 571.779 200.827C571.779 200.686 571.779 200.545 571.779 200.404C571.779 200.262 571.779 200.122 571.779 199.981C571.779 199.84 571.779 199.699 571.779 199.559C571.779 199.418 571.779 199.278 571.779 199.138C571.779 198.998 571.779 198.857 571.779 198.718C571.779 198.578 571.779 198.438 571.779 198.298C571.779 198.159 571.779 198.019 571.779 197.88C571.779 197.741 571.779 197.602 571.779 197.463C571.779 197.324 571.779 197.185 571.779 197.046C571.779 196.908 571.779 196.769 571.779 196.631C571.779 196.492 571.779 196.354 571.779 196.216C571.779 196.078 571.779 195.94 571.779 195.802C571.779 195.665 571.779 195.527 571.779 195.39C571.779 195.252 571.779 195.115 571.779 194.978C571.779 194.84 571.779 194.703 571.779 194.567C571.779 194.43 571.779 194.293 571.779 194.156C571.779 194.02 571.779 193.883 571.779 193.747C571.779 193.611 571.779 193.474 571.779 193.338C571.779 193.202 571.779 193.067 571.779 192.931C571.779 192.795 571.779 192.659 571.779 192.524C571.779 192.389 571.779 192.253 571.779 192.118C571.779 191.983 571.779 191.848 571.779 191.713C571.779 191.578 571.779 191.443 571.779 191.309C571.779 191.174 571.779 191.04 571.779 190.905C571.779 190.771 571.779 190.637 571.779 190.503C571.779 190.369 571.779 190.235 571.779 190.101C571.779 189.967 571.779 189.833 571.779 189.7C571.779 189.566 571.779 189.433 571.779 189.3C571.779 189.167 571.779 189.033 571.779 188.9C571.779 188.768 571.779 188.635 571.779 188.502C571.779 188.369 571.779 188.237 571.779 188.104C571.779 187.972 571.779 187.839 571.779 187.707C571.779 187.575 571.779 187.443 571.779 187.311C571.779 187.179 571.779 187.047 571.779 186.916C571.779 186.784 571.779 186.653 571.779 186.521C571.779 186.39 571.779 186.259 571.779 186.127C571.779 185.996 571.779 185.865 571.779 185.734C571.779 185.603 571.779 185.473 571.779 185.342C571.779 185.211 571.779 185.081 571.779 184.951C571.779 184.82 571.779 184.69 571.779 184.56C571.779 184.43 571.779 184.3 571.779 184.17C571.779 184.04 571.779 183.91 571.779 183.78C571.779 183.651 571.779 183.521 571.779 183.392C571.779 183.263 571.779 183.133 571.779 183.004C571.779 182.875 571.779 182.746 571.779 182.617C571.779 182.488 571.779 182.359 571.779 182.231C571.779 182.102 571.779 181.973 571.779 181.845C571.779 181.717 571.779 181.588 571.779 181.46C571.779 181.332 571.779 181.204 571.779 181.076C571.779 180.948 571.779 180.82 571.779 180.692C571.779 180.565 571.779 180.437 571.779 180.31C571.779 180.182 571.779 180.055 571.779 179.928C571.779 179.8 571.779 179.673 571.779 179.546C571.779 179.419 571.779 179.292 571.779 179.165C571.779 179.039 571.779 178.912 571.779 178.785C571.779 178.659 571.779 178.532 571.779 178.406C571.779 178.28 571.779 178.153 571.779 178.027C571.779 177.901 571.779 177.775 571.779 177.649C571.779 177.523 571.779 177.398 571.779 177.272C571.779 177.146 571.779 177.021 571.779 176.895C571.779 176.77 571.779 176.644 571.779 176.519C571.779 176.394 571.779 176.269 571.779 176.144C571.779 176.019 571.779 175.894 571.779 175.769C571.779 175.644 571.779 175.519 571.779 175.395C571.779 175.27 571.779 175.146 571.779 175.021C571.779 174.897 571.779 174.772 571.779 174.648C571.779 174.524 571.779 174.4 571.779 174.276C571.779 174.152 571.779 174.028 571.779 173.904C571.779 173.781 571.779 173.657 571.779 173.533C571.779 173.41 571.779 173.286 571.779 173.163C571.779 173.039 571.779 172.916 571.779 172.793C571.779 172.67 571.779 172.547 571.779 172.424C571.779 172.301 571.779 172.178 571.779 172.055C571.779 171.932 571.779 171.81 571.779 171.687C571.779 171.564 571.779 171.442 571.779 171.32C571.779 171.197 571.779 171.075 571.779 170.953C571.779 170.83 571.779 170.708 571.779 170.586C571.779 170.464 571.779 170.342 571.779 170.221C571.779 170.099 571.779 169.977 571.779 169.855C571.779 169.734 571.779 169.612 571.779 169.491C571.779 169.369 571.779 169.248 571.779 169.127C571.779 169.005 571.779 168.884 571.779 168.763C571.779 168.642 571.779 168.521 571.779 168.4C571.779 168.279 571.779 168.158 571.779 168.038C571.779 167.917 571.779 167.796 571.779 167.676C571.779 167.555 571.779 167.435 571.779 167.314C571.779 167.194 571.779 167.074 571.779 166.953C571.779 166.833 571.779 166.713 571.779 166.593C571.779 166.473 571.779 166.353 571.779 166.233C571.779 166.113 571.779 165.993 571.779 165.874C571.779 165.754 571.779 165.634 571.779 165.515C571.779 165.395 571.779 165.276 571.779 165.156C571.779 165.037 571.779 164.918 571.779 164.799C571.779 164.679 571.779 164.56 571.779 164.441C571.779 164.322 571.779 164.203 571.779 164.084C571.779 163.965 571.779 163.847 571.779 163.728C571.779 163.609 571.779 163.491 571.779 163.372C571.779 163.253 571.779 163.135 571.779 163.016C571.779 162.898 571.779 162.78 571.779 162.661C571.779 162.543 571.779 162.425 571.779 162.307C571.779 162.189 571.779 162.071 571.779 161.953C571.779 161.835 571.779 161.717 571.779 161.599C571.779 161.481 571.779 161.364 571.779 161.246C571.779 161.128 571.779 161.011 571.779 160.893C571.779 160.776 571.779 160.658 571.779 160.541C571.779 160.423 571.779 160.306 571.779 160.189C571.779 160.072 571.779 159.955 571.779 159.837C571.779 159.72 571.779 159.603 571.779 159.486C571.779 159.369 571.779 159.253 571.779 159.136C571.779 159.019 571.779 158.902 571.779 158.785C571.779 158.669 571.779 158.552 571.779 158.436C571.779 158.319 571.779 158.203 571.779 158.086C571.779 157.97 571.779 157.853 571.779 157.737C571.779 157.621 571.779 157.505 571.779 157.388C571.779 157.272 571.779 157.156 571.779 157.04C571.779 156.924 571.779 156.808 571.779 156.692C571.779 156.576 571.779 156.46 571.779 156.345C571.779 156.229 571.779 156.113 571.779 155.998C571.779 155.882 571.779 155.766 571.779 155.651C571.779 155.535 571.779 155.42 571.779 155.304C571.779 155.189 571.779 155.074 571.779 154.958C571.779 154.843 571.779 154.728 571.779 154.613C571.779 154.497 571.779 154.382 571.779 154.267C571.779 154.152 571.779 154.037 571.779 153.922C571.779 153.807 571.779 153.692 571.779 153.577C571.779 153.463 571.779 153.348 571.779 153.233C571.779 153.118 571.779 153.004 571.779 152.889C571.779 152.774 571.779 152.66 571.779 152.545C571.779 152.431 571.779 152.316 571.779 152.202C571.779 152.087 571.779 151.973 571.779 151.859C571.779 151.744 571.779 151.63 571.779 151.516C571.779 151.402 571.779 151.287 571.779 151.173C571.779 151.059 571.779 150.945 571.779 150.831C571.779 150.717 571.779 150.603 571.779 150.489C571.779 150.375 571.779 150.261 571.779 150.148C571.779 150.034 571.779 149.92 571.779 149.806C571.779 149.692 571.779 149.579 571.779 149.465C571.779 149.351 571.779 149.238 571.779 149.124C571.779 149.011 571.779 148.897 571.779 148.784C571.779 148.67 571.779 148.557 571.779 148.443C571.779 148.33 571.779 148.217 571.779 148.103C571.779 147.99 571.779 147.877 571.779 147.764C571.779 147.65 571.779 147.537 571.779 147.424C571.779 147.311 571.779 147.198 571.779 147.085C571.779 146.972 571.779 146.859 571.779 146.746C571.779 146.633 571.779 146.52 571.779 146.407C571.779 146.294 571.779 146.181 571.779 146.068C571.779 145.955 571.779 145.843 571.779 145.73C571.779 145.617 571.779 145.504 571.779 145.392C571.779 145.279 571.779 145.166 571.779 145.054C571.779 144.941 571.779 144.829 571.779 144.716C571.779 144.603 571.779 144.491 571.779 144.378C571.779 144.266 571.779 144.154 571.779 144.041C571.779 143.929 571.779 143.816 571.779 143.704C571.779 143.592 571.779 143.479 571.779 143.367C571.779 143.255 571.779 143.142 571.779 143.03C571.779 142.918 571.779 142.806 571.779 142.694C571.779 142.581 571.779 142.469 571.779 142.357C571.779 142.245 571.779 142.133 571.779 142.021C571.779 141.909 571.779 141.797 571.779 141.685C571.779 141.573 571.779 141.461 571.779 141.349C571.779 141.237 571.779 141.125 571.779 141.013C571.779 140.901 571.779 140.789 571.779 140.677C571.779 140.565 571.779 140.454 571.779 140.342C571.779 140.23 571.779 140.118 571.779 140.006C571.779 139.895 571.779 139.783 571.779 139.671C571.779 139.559 571.779 139.448 571.779 139.336C571.779 139.224 571.779 139.113 571.779 139.001C571.779 138.889 571.779 138.778 571.779 138.666C571.779 138.554 571.779 138.443 571.779 138.331C571.779 138.22 571.779 138.108 571.779 137.997C571.779 137.885 571.779 137.774 571.779 137.662C571.779 137.551 571.779 137.439 571.779 137.328C571.779 137.216 571.779 137.105 571.779 136.993C571.779 136.882 571.779 136.77 571.779 136.659C571.779 136.548 571.779 136.436 571.779 136.325C571.779 136.213 571.779 136.102 571.779 135.991C571.779 135.879 571.779 135.768 571.779 135.657C571.779 135.545 571.779 135.434 571.779 135.323C571.779 135.211 571.779 135.1 571.779 134.989C571.779 134.877 571.779 134.766 571.779 134.655C571.779 134.544 571.779 134.432 571.779 134.321C571.779 134.21 571.779 134.099 571.779 133.987C571.779 133.876 571.779 133.765 571.779 133.654C571.779 133.542 571.779 133.431 571.779 133.32C571.779 133.209 571.779 133.097 571.779 132.986C571.779 132.875 571.779 132.764 571.779 132.653C571.779 132.541 571.779 132.43 571.779 132.319C571.779 132.208 571.779 132.097 571.779 131.985C571.779 131.874 571.779 131.763 571.779 131.652C571.779 131.541 571.779 131.429 571.779 131.318C571.779 131.207 571.779 131.096 571.779 130.985C571.779 130.874 571.779 130.762 571.779 130.651C571.779 130.54 571.779 130.429 571.779 130.318C571.779 130.206 571.779 130.095 571.779 129.984C571.779 129.873 571.779 129.762 571.779 129.651C571.779 129.539 571.779 129.428 571.779 129.317C571.779 129.206 571.779 129.094 571.779 128.983C571.779 128.872 571.779 128.761 571.779 128.65C571.779 128.538 571.779 128.427 571.779 128.316C571.779 128.205 571.779 128.093 571.779 127.982C571.779 127.871 571.779 127.76 571.779 127.648C571.779 127.537 571.779 127.426 571.779 127.315C571.779 127.203 571.779 127.092 571.779 126.981C571.779 126.869 571.779 126.758 571.779 126.647C571.779 126.535 571.779 126.424 571.779 126.313C571.779 126.201 571.779 126.09 571.779 125.979C571.779 125.867 571.779 125.756 571.779 125.644C571.779 125.533 571.779 125.422 571.779 125.31C571.779 125.199 571.779 125.087 571.779 124.976C571.779 124.864 571.779 124.753 571.779 124.641C571.779 124.53 571.779 124.418 571.779 124.307C571.779 124.195 571.779 124.084 571.779 123.972C571.779 123.861 571.779 123.749 571.779 123.638C571.779 123.526 571.779 123.414 571.779 123.303C571.779 123.191 571.779 123.08 571.779 122.968C571.779 122.856 571.779 122.745 571.779 122.633C571.779 122.521 571.779 122.409 571.779 122.298C571.779 122.186 571.779 122.074 571.779 121.962C571.779 121.85 571.779 121.739 571.779 121.627C571.779 121.515 571.779 121.403 571.779 121.291C571.779 121.179 571.779 121.067 571.779 120.956C571.779 120.844 571.779 120.732 571.779 120.62C571.779 120.508 571.779 120.396 571.779 120.284C571.779 120.172 571.779 120.059 571.779 119.947C571.779 119.835 571.779 119.723 571.779 119.611C571.779 119.499 571.779 119.387 571.779 119.275C571.779 119.162 571.779 119.05 571.779 118.938C571.779 118.826 571.779 118.713 571.779 118.601C571.779 118.489 571.779 118.376 571.779 118.264C571.779 118.151 571.779 118.039 571.779 117.927C571.779 117.814 571.779 117.702 571.779 117.589C571.779 117.477 571.779 117.364 571.779 117.252C571.779 117.139 571.779 117.026 571.779 116.914C571.779 116.801 571.779 116.688 571.779 116.576C571.779 116.463 571.779 116.35 571.779 116.237C571.779 116.125 571.779 116.012 571.779 115.899C571.779 115.786 571.779 115.673 571.779 115.56C571.779 115.447 571.779 115.334 571.779 115.221C571.779 115.108 571.779 114.995 571.779 114.882C571.779 114.769 571.779 114.656 571.779 114.543C571.779 114.429 571.779 114.316 571.779 114.203C571.779 114.09 571.779 113.976 571.779 113.863C571.779 113.75 571.779 113.636 571.779 113.523C571.779 113.409 571.779 113.296 571.779 113.182C571.779 113.069 571.779 112.955 571.779 112.842C571.779 112.728 571.779 112.615 571.779 112.501C571.779 112.387 571.779 112.273 571.779 112.16C571.779 112.046 571.779 111.932 571.779 111.818C571.779 111.704 571.779 111.59 571.779 111.476C571.779 111.362 571.779 111.248 571.779 111.134C571.779 111.02 571.779 110.906 571.779 110.792C571.779 110.678 571.779 110.564 571.779 110.449C571.779 110.335 571.779 110.221 571.779 110.106C571.779 109.992 571.779 109.878 571.779 109.763C571.779 109.649 571.779 109.534 571.779 109.419C571.779 109.305 571.779 109.19 571.779 109.076C571.779 108.961 571.779 108.846 571.779 108.731C571.779 108.617 571.779 108.502 571.779 108.387C571.779 108.272 571.779 108.157 571.779 108.042C571.779 107.927 571.779 107.812 571.779 107.697C571.779 107.582 571.779 107.466 571.779 107.351C571.779 107.236 571.779 107.121 571.779 107.005C571.779 106.89 571.779 106.774 571.779 106.659C571.779 106.544 571.779 106.428 571.779 106.312C571.779 106.197 571.779 106.081 571.779 105.965C571.779 105.85 571.779 105.734 571.779 105.618C571.779 105.502 571.779 105.386 571.779 105.27C571.779 105.154 571.779 105.038 571.779 104.922C571.779 104.806 571.779 104.69 571.779 104.574C571.779 104.458 571.779 104.341 571.779 104.225C571.779 104.109 571.779 103.992 571.779 103.876C571.779 103.759 571.779 103.643 571.779 103.526C571.779 103.409 571.779 103.293 571.779 103.176C571.779 103.059 571.779 102.942 571.779 102.826C571.779 102.709 571.779 102.592 571.779 102.475C571.779 102.358 571.779 102.241 571.779 102.123C571.779 102.006 571.779 101.889 571.779 101.772C571.779 101.654 571.779 101.537 571.779 101.42C571.779 101.302 571.779 101.185 571.779 101.067C571.779 100.949 571.779 100.832 571.779 100.714C571.779 100.596 571.779 100.479 571.779 100.361C571.779 100.243 571.779 100.125 571.779 100.007C571.779 99.8888 571.779 99.7706 571.779 99.6525C571.779 99.5343 571.779 99.416 571.779 99.2977C571.779 99.1794 571.779 99.0609 571.779 98.9424C571.779 98.824 571.779 98.7054 571.779 98.5867C571.779 98.4681 571.779 98.3494 571.779 98.2306C571.779 98.1118 571.779 97.9929 571.779 97.8739C571.779 97.755 571.779 97.6359 571.779 97.5168C571.779 97.3977 571.779 97.2785 571.779 97.1592C571.779 97.0399 571.779 96.9205 571.779 96.8011C571.779 96.6816 571.779 96.5621 571.779 96.4425C571.779 96.3228 571.779 96.2032 571.779 96.0834C571.779 95.9636 571.779 95.8437 571.779 95.7238C571.779 95.6038 571.779 95.4838 571.779 95.3636C571.779 95.2435 571.779 95.1233 571.779 95.003C571.779 94.8827 571.779 94.7623 571.779 94.6419C571.779 94.5214 571.779 94.4008 571.779 94.2802C571.779 94.1596 571.779 94.0388 571.779 93.918C571.779 93.7972 571.779 93.6763 571.779 93.5553C571.779 93.4343 571.779 93.3132 571.779 93.192C571.779 93.0708 571.779 92.9495 571.779 92.8282C571.779 92.7068 571.779 92.5853 571.779 92.4638C571.779 92.3423 571.779 92.2206 571.779 92.0989C571.779 91.9771 571.779 91.8553 571.779 91.7334C571.779 91.6115 571.779 91.4895 571.779 91.3673C571.779 91.2452 571.779 91.123 571.779 91.0007C571.779 90.8784 571.779 90.756 571.779 90.6335C571.779 90.511 571.779 90.3885 571.779 90.2658C571.779 90.1431 571.779 90.0203 571.779 89.8974C571.779 89.7746 571.779 89.6516 571.779 89.5285C571.779 89.4054 571.779 89.2822 571.779 89.159C571.779 89.0357 571.779 88.9123 571.779 88.7888C571.779 88.6653 571.779 88.5418 571.779 88.4181C571.779 88.2944 571.779 88.1706 571.779 88.0467C571.779 87.9229 571.779 87.7989 571.779 87.6748C571.779 87.5507 571.779 87.4265 571.779 87.3022C571.779 87.1779 571.779 87.0535 571.779 86.929C571.779 86.8045 571.779 86.6799 571.779 86.5552C571.779 86.4305 571.779 86.3056 571.779 86.1807C571.779 86.0558 571.779 85.9308 571.779 85.8056C571.779 85.6805 571.779 85.5552 571.779 85.4299C571.779 85.3045 571.779 85.1791 571.779 85.0535C571.779 84.9279 571.779 84.8022 571.779 84.6765C571.779 84.5507 571.779 84.4248 571.779 84.2988C571.779 84.1727 571.779 84.0466 571.779 83.9204C571.779 83.7942 571.779 83.6678 571.779 83.5414C571.779 83.4149 571.779 83.2883 571.779 83.1617C571.779 83.035 571.779 82.9082 571.779 82.7813C571.779 82.6544 571.779 82.5274 571.779 82.4002C571.779 82.2731 571.779 82.1458 571.779 82.0185C571.779 81.8911 571.779 81.7636 571.779 81.636C571.779 81.5084 571.779 81.3807 571.779 81.2529C571.779 81.1251 571.779 80.9971 571.779 80.869C571.779 80.741 571.779 80.6128 571.779 80.4845C571.779 80.3562 571.779 80.2278 571.779 80.0992C571.779 79.9707 571.779 79.842 571.779 79.7133C571.779 79.5845 571.779 79.4556 571.779 79.3266C571.779 79.1976 571.779 79.0684 571.779 78.9391C571.779 78.8099 571.779 78.6805 571.779 78.551C571.779 78.4215 571.779 78.2918 571.779 78.1621C571.779 78.0323 571.779 77.9025 571.779 77.7725C571.779 77.6425 571.779 77.5123 571.779 77.3821C571.779 77.2518 571.779 77.1214 571.779 76.9909C571.779 76.8604 571.779 76.7298 571.779 76.599C571.779 76.4683 571.779 76.3374 571.779 76.2064C571.779 76.0754 571.779 75.9442 571.779 75.813C571.779 75.6817 571.779 75.5503 571.779 75.4188C571.779 75.2873 571.779 75.1556 571.779 75.0238C571.779 74.892 571.779 74.7601 571.779 74.6281C571.779 74.496 571.779 74.3638 571.779 74.2315C571.779 74.0992 571.779 73.9668 571.779 73.8342C571.779 73.7016 571.779 73.5689 571.779 73.4361C571.779 73.3033 571.779 73.1703 571.779 73.0372C571.779 72.9041 571.779 72.7708 571.779 72.6375C571.779 72.5041 571.779 72.3706 571.779 72.2369C571.779 72.1033 571.779 71.9695 571.779 71.8356C571.779 71.7016 571.779 71.5676 571.779 71.4334C571.779 71.2992 571.779 71.1649 571.779 71.0304C571.779 70.8959 571.779 70.7613 571.779 70.6266C571.779 70.4918 571.779 70.3569 571.779 70.2219C571.779 70.0869 571.779 69.9517 571.779 69.8164C571.779 69.6811 571.779 69.5456 571.779 69.41C571.779 69.2744 571.779 69.1387 571.779 69.0028C571.779 68.867 571.779 68.7309 571.779 68.5948C571.779 68.4586 571.779 68.3223 571.779 68.1859C571.779 68.0494 571.779 67.9128 571.779 67.7761C571.779 67.6393 571.779 67.5025 571.779 67.3654C571.779 67.2284 571.779 67.0912 571.779 66.9539C571.779 66.8166 571.779 66.6791 571.779 66.5415C571.779 66.4039 571.779 66.2661 571.779 66.1282C571.779 65.9903 571.779 65.8522 571.779 65.714C571.779 65.5758 571.779 65.4375 571.779 65.299C571.779 65.1604 571.779 65.0218 571.779 64.883C571.779 64.7442 571.779 64.6052 571.779 64.4661C571.779 64.327 571.779 64.1877 571.779 64.0483C571.779 63.9089 571.779 63.7693 571.779 63.6296C571.779 63.4899 571.779 63.35 571.779 63.21C571.779 63.0699 571.779 62.9298 571.779 62.7894C571.779 62.6491 571.779 62.5086 571.779 62.368C571.779 62.2273 571.779 62.0865 571.779 61.9455C571.779 61.8046 571.779 61.6635 571.779 61.5222C571.779 61.3809 571.779 61.2395 571.779 61.0979C571.779 60.9563 571.779 60.8146 571.779 60.6727C571.779 60.5307 571.779 60.3887 571.779 60.2465C571.779 60.1042 571.779 59.9618 571.779 59.8193C571.779 59.6768 571.779 59.534 571.779 59.3912C571.779 59.2483 571.779 59.1053 571.779 58.9621C571.779 58.8189 571.779 58.6755 571.779 58.532C571.779 58.3885 571.779 58.2448 571.779 58.101C571.779 57.9571 571.779 57.8131 571.779 57.669C571.779 57.5248 571.779 57.3804 571.779 57.2359C571.779 57.0914 571.779 56.9468 571.779 56.8019C571.779 56.6571 571.779 56.5121 571.779 56.3669C571.779 56.2218 571.779 56.0764 571.779 55.9309H564.428ZM516.648 8.10709C543.032 8.10709 564.428 29.5386 564.428 55.9309H571.779C571.779 25.487 547.1 0.756287 516.648 0.756287V8.10709Z" fill="#002ea6"/>
</svg>
