<svg width="16" height="16" viewBox="0 0 16 16" fill="none" xmlns="http://www.w3.org/2000/svg">
<g clip-path="url(#clip0_265_1782)">
<path d="M15.5491 15.5467C15.1025 15.9957 14.5169 16.1355 14.243 15.8581L13.729 15.3413L15.328 13.6955L15.8609 14.2314C16.1369 14.5089 15.9958 15.0956 15.5491 15.5446V15.5467Z" fill="#002EA6"/>
<path d="M14.875 13.1829L11.5549 9.84484C12.2207 8.84086 12.6104 7.63567 12.6104 6.33729C12.6104 2.83822 9.78747 -1.52588e-05 6.30518 -1.52588e-05C2.82289 -1.52588e-05 -0.0526865 2.83822 -2.02986e-05 6.33941C0.0547526 9.90626 2.86502 12.7275 6.30518 12.6788C7.67029 12.6598 8.93007 12.2383 9.96232 11.4969L13.2761 14.8287L14.875 13.1829ZM10.7397 6.42413C10.7397 8.88534 8.75521 10.8806 6.30729 10.8806C3.85936 10.8806 1.87279 8.88746 1.87279 6.42625C1.87279 3.96504 3.85725 1.96768 6.30518 1.96768C8.75311 1.96768 10.7376 3.96292 10.7376 6.42413H10.7397Z" fill="#002EA6"/>
</g>
<defs>
<clipPath id="clip0_265_1782">
<rect width="16" height="16" fill="white"/>
</clipPath>
</defs>
</svg>
