<svg width="16" height="16" viewBox="0 0 16 16" fill="none" xmlns="http://www.w3.org/2000/svg">
<g clip-path="url(#clip0_122_841)">
<path d="M15.5491 15.5468C15.1025 15.9958 14.5169 16.1356 14.243 15.8581L13.729 15.3413L15.328 13.6956L15.8609 14.2314C16.1369 14.5089 15.9958 15.0956 15.5491 15.5446V15.5468Z" fill="white"/>
<path d="M14.875 13.1829L11.5549 9.84485C12.2207 8.84088 12.6104 7.63569 12.6104 6.3373C12.6104 2.83823 9.78747 0 6.30518 0C2.82289 0 -0.0526865 2.83823 -2.02986e-05 6.33942C0.0547526 9.90627 2.86502 12.7276 6.30518 12.6788C7.67029 12.6598 8.93007 12.2383 9.96232 11.497L13.2761 14.8287L14.875 13.1829ZM10.7397 6.42415C10.7397 8.88536 8.75521 10.8806 6.30729 10.8806C3.85936 10.8806 1.87279 8.88748 1.87279 6.42626C1.87279 3.96505 3.85725 1.9677 6.30518 1.9677C8.75311 1.9677 10.7376 3.96293 10.7376 6.42415H10.7397Z" fill="white"/>
</g>
<defs>
<clipPath id="clip0_122_841">
<rect width="16" height="16" fill="white"/>
</clipPath>
</defs>
</svg>
