<svg width="16" height="16" viewBox="0 0 16 16" fill="none" xmlns="http://www.w3.org/2000/svg">
<g clip-path="url(#clip0_59_6732)">
<path d="M3.23694 3.16618C3.80931 3.50083 4.43848 3.77302 5.108 3.97529C5.12593 3.87713 5.14386 3.78045 5.16478 3.68526C5.41735 2.47902 5.78498 1.45276 6.22435 0.719494C6.33195 0.539525 6.44404 0.377404 6.5606 0.234619C6.27666 0.328322 5.9972 0.448797 5.7267 0.597532C5.02431 0.982754 4.39066 1.53605 3.84518 2.24254C3.62849 2.52364 3.42375 2.8345 3.23694 3.16767V3.16618Z" fill="white"/>
<path d="M5.59029 4.65955C5.45429 5.546 5.37807 6.48452 5.36462 7.45278H10.6311C10.6176 6.48006 10.5429 5.54154 10.4054 4.65955C8.84222 5.02097 7.149 5.01948 5.58879 4.65955H5.59029Z" fill="white"/>
<path d="M7.91987 10.5434C8.76722 10.5434 9.60412 10.6416 10.4081 10.8349C10.5441 9.94995 10.6203 9.01143 10.6323 8.04614H5.36584C5.3778 8.99358 5.45103 9.91871 5.58403 10.8007C6.34322 10.6312 7.12781 10.5449 7.91837 10.5449L7.91987 10.5434Z" fill="white"/>
<path d="M2.98893 3.64355C2.44196 4.78732 2.13261 6.10214 2.09375 7.45265H4.77331C4.78676 6.42787 4.86895 5.43878 5.0169 4.5077C4.43108 4.33517 3.87364 4.11207 3.35656 3.84583C3.23551 3.78337 3.11446 3.71643 2.98893 3.64355Z" fill="white"/>
<path d="M2.09241 8.04468C2.13126 9.37585 2.43015 10.6713 2.96218 11.8017C3.59284 11.4418 4.28029 11.1547 5.00659 10.945C4.86462 10.0258 4.78691 9.05161 4.77196 8.04468H2.09241Z" fill="white"/>
<path d="M10.318 4.12999C10.2971 4.01993 10.2762 3.91135 10.2538 3.80575C10.0132 2.66049 9.67095 1.69669 9.26446 1.02144C9.00891 0.591592 8.72496 0.282224 8.4455 0.126053C8.14212 -0.0420175 7.85668 -0.0420175 7.5548 0.126053C7.39788 0.213806 7.23947 0.350642 7.08255 0.530611C6.76125 0.902447 6.45787 1.46615 6.20382 2.16223C5.99459 2.73337 5.81974 3.39524 5.68225 4.12999C7.18119 4.48249 8.81164 4.48398 10.318 4.12999Z" fill="white"/>
<path d="M7.92359 11.0789H7.9206C7.15395 11.0789 6.39775 11.1621 5.67444 11.3287C5.69686 11.4522 5.72077 11.5741 5.74617 11.6931C5.98528 12.8369 6.32751 13.8007 6.73401 14.4774C6.99255 14.9073 7.27649 15.2167 7.55596 15.3728C7.85634 15.5409 8.14627 15.5409 8.44665 15.3728C8.60357 15.2851 8.76198 15.1482 8.9174 14.9683C9.23871 14.5979 9.54209 14.0327 9.79614 13.3366C10.0069 12.761 10.1817 12.0977 10.3192 11.3659C9.54358 11.1755 8.73956 11.0803 7.92509 11.0803L7.92359 11.0789Z" fill="white"/>
<path d="M3.37521 13.6178C3.1361 13.3084 2.91043 12.9633 2.7042 12.5945C2.47704 12.7492 2.26035 12.9143 2.05859 13.0883C2.86261 13.9747 3.84895 14.6649 4.94588 15.117C4.36753 14.7229 3.83998 14.2202 3.37521 13.6178Z" fill="white"/>
<path d="M12.7546 12.3491C12.1882 12.01 11.562 11.7334 10.894 11.5251C10.8761 11.6233 10.8567 11.7185 10.8372 11.8137C10.5832 13.0199 10.217 14.0462 9.77766 14.7795C9.67006 14.9579 9.55797 15.1201 9.44141 15.2643C9.72685 15.1706 10.0063 15.0487 10.2753 14.9014C10.9792 14.5162 11.6128 13.9629 12.1568 13.2564C12.3705 12.9798 12.5708 12.6749 12.7546 12.3491Z" fill="white"/>
<path d="M2.44934 2.64114C2.54499 2.71551 2.64512 2.78541 2.73479 2.84639C3.32061 1.81566 4.07681 0.972335 4.94807 0.380371C3.87057 0.822113 2.89918 1.49588 2.10413 2.35705C2.22518 2.46414 2.33876 2.55636 2.44934 2.63965V2.64114Z" fill="white"/>
<path d="M1.49894 8.04468H0C0.0627671 9.7462 0.653076 11.3451 1.70966 12.6792C1.82772 12.5781 1.93681 12.4889 2.04142 12.4086C2.16397 12.3148 2.29698 12.2211 2.45539 12.1155C1.86807 10.8929 1.53929 9.48889 1.49894 8.04616V8.04468Z" fill="white"/>
<path d="M12.6255 1.88108C12.8557 2.18153 13.0709 2.50725 13.2636 2.84786C13.4893 2.69168 13.7015 2.52808 13.8958 2.35852C13.1022 1.49735 12.1308 0.823578 11.0533 0.381836C11.6332 0.775983 12.1607 1.27871 12.6255 1.88257V1.88108Z" fill="white"/>
<path d="M5.09645 11.479C4.53902 11.6426 4.01147 11.8538 3.52428 12.1052C3.42565 12.1557 3.32104 12.2138 3.20447 12.2792C3.84708 13.4438 4.71686 14.3496 5.72412 14.9029C5.99312 15.0501 6.27258 15.1721 6.55653 15.2658C6.2128 14.8389 5.90644 14.2589 5.64491 13.539C5.42373 12.9336 5.23991 12.242 5.09645 11.479Z" fill="white"/>
<path d="M14.4991 7.45266H15.9996C15.9353 5.72586 15.3315 4.10762 14.2466 2.76306C14.118 2.87461 13.9985 2.97426 13.8789 3.06499C13.7668 3.14977 13.6473 3.23455 13.5143 3.32528C14.118 4.56126 14.4588 5.98465 14.4991 7.45266Z" fill="white"/>
<path d="M14.2268 12.7611C15.3237 11.412 15.9365 9.78487 16.0007 8.04468H14.5018C14.4614 9.52013 14.1177 10.9524 13.5065 12.1959C13.7575 12.3699 13.9996 12.5603 14.2268 12.7611Z" fill="white"/>
<path d="M1.7515 2.76455C0.668021 4.10911 0.0627671 5.72734 0 7.45266H1.49894C1.53929 5.98763 1.87853 4.56424 2.48229 3.32528C2.22524 3.14977 1.98015 2.96237 1.7515 2.76306V2.76455Z" fill="white"/>
<path d="M12.564 11.6292C12.7105 11.7035 12.8569 11.7854 13.0034 11.8716C13.5548 10.7264 13.8672 9.40709 13.9075 8.04468H11.2265C11.213 9.07243 11.1323 10.0615 10.9844 10.9896C11.5403 11.1577 12.0708 11.3719 12.564 11.6277V11.6292Z" fill="white"/>
<path d="M13.252 12.6733C12.6691 13.6937 11.9159 14.5295 11.0521 15.1185C12.1192 14.6798 13.0831 14.0149 13.8737 13.1671C13.7406 13.0482 13.6061 12.9366 13.4716 12.834C13.3999 12.7804 13.3282 12.7269 13.2535 12.6733H13.252Z" fill="white"/>
<path d="M10.894 3.97532C11.4245 3.81468 11.9297 3.61092 12.3959 3.36997C12.523 3.30452 12.647 3.23611 12.7666 3.1662C12.1269 2.02689 11.2661 1.13895 10.2753 0.596067C10.0063 0.44882 9.72685 0.326857 9.44141 0.233154C9.78513 0.660023 10.0915 1.24009 10.3545 1.96145C10.5712 2.5549 10.752 3.23164 10.894 3.97532Z" fill="white"/>
<path d="M10.9857 4.5077C11.1322 5.44176 11.2144 6.43084 11.2278 7.45414H13.9074C13.8685 6.09916 13.5592 4.78584 13.0122 3.64355C12.389 4.00498 11.7075 4.29501 10.9857 4.5077Z" fill="white"/>
</g>
<defs>
<clipPath id="clip0_59_6732">
<rect width="16" height="16" fill="white"/>
</clipPath>
</defs>
</svg>
