<svg xmlns="http://www.w3.org/2000/svg" width="32" height="32" viewBox="0 0 32 32" fill="none">
<path d="M6.99289 31.3679C7.22993 31.7629 7.6645 32 8.13857 32C8.37561 32 8.57314 31.921 8.77067 31.8419L11.0225 30.5777C11.2991 30.4197 11.5361 30.1432 11.6151 29.8271V29.7876C11.6941 29.4716 11.6546 29.116 11.4966 28.8H19.0423C21.9657 28.8 26.983 22.558 27.7731 19.9506C27.7731 19.9111 27.8126 19.8716 27.8126 19.8321C28.0102 19.0814 27.8126 18.6469 27.6151 18.4098C27.5361 18.2913 27.4176 18.2123 27.3386 18.1728C27.3386 18.1728 27.3386 18.1728 27.2991 18.1728C27.062 18.0543 26.825 17.9753 26.588 17.9358C26.2719 17.8568 25.9559 17.8963 25.6398 17.9753C24.3361 18.2913 23.2299 19.6345 22.5188 20.5432C22.4793 20.5827 22.4398 20.6617 22.4003 20.7012C22.2423 20.8987 22.0447 21.1358 21.8472 21.3728C21.7682 21.2543 21.6497 21.1358 21.5707 21.0568C21.5312 21.0172 21.5312 21.0172 21.4917 20.9777C20.504 20.1876 18.8843 20.3852 17.9361 20.5037C17.6991 20.5432 17.5805 20.5827 17.4225 20.5432C16.0793 20.5432 15.2102 20.2666 14.4201 19.9901C13.5904 19.7135 12.8003 19.4765 11.6941 19.5555C11.4966 19.5555 11.2991 19.595 11.062 19.6345C10.9435 19.6345 10.825 19.674 10.7065 19.7135C10.4694 19.7926 10.2324 19.9111 9.99536 20.0296C9.87684 20.1086 9.75832 20.1481 9.67931 20.2271C9.36326 20.4247 9.04721 20.6222 8.73116 20.8592C8.2966 21.1753 7.86203 21.5308 7.54598 21.8074L7.26943 21.3333C7.19042 21.1753 7.0719 21.0568 6.95338 20.9777C6.55832 20.6617 5.96573 20.5827 5.49166 20.8592L3.2398 22.1234C2.64721 22.5185 2.44968 23.3086 2.76573 23.9407L6.99289 31.3679ZM5.68919 22.479L6.08425 22.2419L6.71635 23.3876L7.50647 24.7308L8.73116 26.9037L9.32376 27.9703L9.75832 28.721L10.1139 29.3531L9.48178 29.7086L8.13857 30.4592L4.14845 23.3481L5.68919 22.479ZM11.2991 21.0963C11.3386 21.0963 11.3386 21.0963 11.2991 21.0963C11.8126 21.0173 12.2472 21.0172 12.6028 21.0568C13.0373 21.1358 13.4719 21.2543 13.946 21.4123C14.8151 21.6889 15.8423 22.0049 17.383 22.0049C17.5805 21.9654 17.8176 21.9654 18.1336 21.9259C18.8052 21.8469 19.9904 21.6889 20.5435 22.0049C20.583 22.0444 20.6225 22.0444 20.6225 22.0839C20.7015 22.1234 20.7805 22.2419 20.8201 22.4395C20.662 22.5975 20.504 22.716 20.346 22.8345C20.0299 23.0716 19.6744 23.2691 19.3188 23.3876C19.2398 23.4271 19.1608 23.4271 19.0423 23.4666C18.9633 23.4666 18.8842 23.5061 18.7657 23.5061C18.6472 23.5061 18.5287 23.5456 18.3707 23.5456C18.3312 23.5456 18.2917 23.5456 18.2917 23.5456H14.5386V24.1777L14.4991 25.0074C14.6176 25.0074 16.988 25.1259 18.4102 25.0074C18.8052 25.0074 19.1608 24.9284 19.5163 24.8493C20.1089 24.6913 20.6225 24.4148 21.0176 24.1777C21.6892 23.7432 22.0842 23.2691 22.1238 23.2296L22.2818 23.0321C22.5188 22.795 22.7163 22.558 22.9139 22.321C23.1114 22.0839 23.3089 21.8469 23.467 21.6098C23.5065 21.5703 23.546 21.4913 23.5855 21.4518C24.8102 19.8321 25.6398 19.2 26.3114 19.358C26.3509 19.358 26.3509 19.358 26.3904 19.358C26.3509 19.516 26.2719 19.7531 26.1534 20.0691C25.8768 20.7012 25.3238 21.6493 24.4941 22.716C24.1781 23.1506 23.8225 23.5852 23.4275 24.0197C21.6892 26.0345 19.9509 27.3382 19.0423 27.3382H10.7065L10.1139 26.3111L8.81017 24.0592L8.29659 23.1506C8.77067 22.716 9.36326 22.2814 9.87684 21.8864C10.2324 21.6098 10.588 21.4123 10.8645 21.2543C11.062 21.1753 11.1805 21.1358 11.2991 21.0963Z" fill="#002EA6"/>
<path d="M9.00763 29.5901C9.04714 29.5506 9.08665 29.5506 9.12615 29.5111C9.36319 29.274 9.4422 28.879 9.28418 28.6024L8.57307 27.3778C8.57307 27.3778 8.57307 27.3382 8.53356 27.3382C8.29652 27.0222 7.90146 26.9037 7.5459 27.1012C7.19035 27.2987 7.07183 27.7728 7.30887 28.0889L8.01998 29.3136C8.178 29.5506 8.41504 29.6691 8.65208 29.6691C8.73109 29.7086 8.88911 29.6691 9.00763 29.5901Z" fill="#002EA6"/>
<path d="M13 5.5C13 7.98151 15.0189 10 17.5 10C19.9811 10 22 7.98151 22 5.5C22 3.01849 19.9811 1 17.5 1C15.0189 1 13 3.01849 13 5.5ZM20.4089 5.5C20.4089 7.10357 19.104 8.40879 17.5 8.40879C15.896 8.40879 14.5912 7.10357 14.5912 5.5C14.5912 3.89643 15.896 2.59115 17.5 2.59115C19.104 2.59115 20.4089 3.89643 20.4089 5.5Z" fill="#002EA6"/>
<path d="M11 15.3426V17.4008C11 17.7546 11.2866 18.0408 11.64 18.0408H23.3599C23.7134 18.0408 24 17.7546 24 17.4008V15.3426C24 12.9262 22.3381 10.9604 19.9218 10.9604H15.3821C12.9657 10.9604 11 12.9262 11 15.3426ZM14.8821 12.5H20.4218C22.1325 12.5 22.5 13.6319 22.5 15.3426V16.5H12.5V15.3426C12.5 13.6319 13.1717 12.5 14.8821 12.5Z" fill="#002EA6"/>
</svg>