<svg class="solution-svg equipment-svg-header" viewBox="0 0 100 100">
    <!-- <g clip-path="url(#a)"  fill="#FC4A6B"> -->
        <path class="st0" fill-rule="evenodd" clip-rule="evenodd" d="M76.475 13.118C68.375 5.018 57.168 0 44.803 0 32.425 0 21.23 5.005 13.118 13.118 5.018 21.23 0 32.425 0 44.79a44.885 44.885 0 0 0 5.585 21.674L.16 84.908a3.697 3.697 0 0 0 0 2.071 3.601 3.601 0 0 0 4.488 2.454l18.48-5.437a44.89 44.89 0 0 0 21.674 5.585c12.366 0 23.56-5.006 31.673-13.118 8.1-8.1 13.118-19.307 13.118-31.673 0-12.365-5.005-23.56-13.118-31.672Zm-33.1 2.91c-1.904 0-3.518.677-4.84 2.022-1.324 1.345-1.99 3.028-1.99 4.92 0 1.89.666 3.52 2.021 4.886 1.356 1.366 2.905 2.055 4.808 2.055 1.904 0 3.518-.678 4.84-2.022 1.324-1.345 1.99-2.985 1.99-4.92s-.666-3.575-1.99-4.92c-1.322-1.344-2.936-2.021-4.84-2.021Zm4.732 55.074c2.302.252 3.7.383 4.206.383l-.032.022c2.958 0 4.431-1.75 4.431-5.258 0-2.646-1.054-3.969-3.151-3.969-.344 0-.785.055-1.313.186-.527.12-.882.186-1.086.186-.957 0-1.43-1.3-1.43-3.892V35.792c0-1.978-.7-2.973-2.098-2.973-.14 0-.8.096-1.994.269l-.254.037c-1.355.208-2.453.306-3.302.306-1.054 0-2.453-.131-4.206-.383-1.043-.153-1.85-.23-2.399-.23-1.398 0-2.527.47-3.377 1.411-.86.94-1.28 2.165-1.28 3.695 0 2.853 1.205 4.274 3.603 4.274.301 0 .7-.054 1.205-.153.753-.251 1.205-.382 1.355-.382.85 0 1.28 1.454 1.28 4.35v12.354c0 2.853-.452 4.274-1.355 4.274a1.97 1.97 0 0 1-.527-.076l-1.947-.46c-2.399 0-3.603 1.454-3.603 4.351 0 1.476.43 2.679 1.28 3.619.85.94 1.947 1.41 3.302 1.41.85 0 2.151-.098 3.904-.306 1.754-.208 3.077-.306 3.98-.306 1.807 0 3.41.076 4.808.23Z"/>
    <!-- </g> -->
    <defs><clipPath id="a"><path class="st0" d="M0 0h90v90H0z"/></clipPath></defs>
</svg> 