<svg xmlns="http://www.w3.org/2000/svg" width="32" height="32" viewBox="0 0 32 32" fill="none">
<g clip-path="url(#clip0_356_1943)">
<path fill-rule="evenodd" clip-rule="evenodd" d="M16 0C20.4186 0 24.4186 1.79269 27.3129 4.68707C30.2073 7.58144 32 11.5814 32 16C32 20.4186 30.2073 24.4186 27.3129 27.3129C24.4186 30.2073 20.4186 32 16 32C14.5271 32 13.0938 31.7986 11.7236 31.4156C10.4995 31.076 9.3386 30.5982 8.26061 30.002L1.66239 31.9447C0.97927 32.1461 0.260612 31.7552 0.05923 31.0681C-0.0157947 30.8154 -0.00789733 30.5627 0.05923 30.3297L1.99803 23.7433C1.40178 22.6654 0.923988 21.5044 0.584403 20.2804C0.205331 18.9102 0 17.4729 0 16.0039C0 11.5814 1.79269 7.58144 4.68707 4.68707C7.58144 1.79269 11.5814 0 16 0ZM25.4807 6.51925C23.0523 4.09082 19.7038 2.59033 16 2.59033C12.2962 2.59033 8.94768 4.09082 6.51925 6.51925C4.09082 8.94373 2.59033 12.2962 2.59033 16C2.59033 17.2517 2.75617 18.4561 3.07206 19.5893C3.39585 20.7621 3.88154 21.8756 4.50148 22.9023C4.68312 23.2024 4.74235 23.5735 4.63574 23.9368L3.20632 28.7937L8 27.384C8.35143 27.2616 8.7542 27.2892 9.09773 27.4946C10.1283 28.1145 11.2419 28.6002 12.4146 28.924C13.5479 29.2359 14.7522 29.4057 16.0039 29.4057C19.7038 29.4057 23.0563 27.9052 25.4847 25.4768C27.9092 23.0484 29.4136 19.6999 29.4136 15.9961C29.4136 12.2922 27.9131 8.94373 25.4847 6.5153L25.4807 6.51925ZM13.8124 8.83317C13.8124 8.20928 14.0336 7.67621 14.4719 7.23001C14.9141 6.78381 15.4472 6.56269 16.0711 6.56269C16.695 6.56269 17.232 6.78776 17.6703 7.23001C18.1086 7.67621 18.3258 8.20928 18.3258 8.83317C18.3258 9.45706 18.1046 9.98618 17.6663 10.4245C17.2241 10.8628 16.691 11.0839 16.075 11.0839C15.459 11.0839 14.9339 10.8628 14.4877 10.4166C14.0415 9.97433 13.8203 9.44126 13.8203 8.83317H13.8124ZM12 15.5104V12.5252H18.0809V22.464H20V25.4373H11.9961V22.464H13.9585V15.5143H11.9961L12 15.5104Z" fill="#002EA6"/>
</g>
<defs>
<clipPath id="clip0_356_1943">
<rect width="32" height="32" fill="white"/>
</clipPath>
</defs>
</svg>