<svg class="solution-svg new-business-svg" viewBox="0 0 100 100">
    <path class="st1" d="M7.644 6.745 0 31.477c0 4.947 4.047 8.994 8.994 8.994 4.946 0 8.993-4.047 8.993-8.994 0 4.947 4.047 8.994 8.994 8.994 4.946 0 8.993-4.047 8.993-8.994 0 4.947 4.047 8.994 8.994 8.994 4.946 0 8.993-4.047 8.993-8.994 0 4.947 4.047 8.994 8.994 8.994 4.946 0 8.993-4.047 8.993-8.994 0 4.947 4.047 8.994 8.994 8.994 4.946 0 8.993-4.047 8.993-8.994L83.19 6.745C82.066 2.698 78.47 0 74.421 0H16.413C12.366 0 8.77 2.698 7.645 6.745Z"/>
    <path class="st1" fill-rule="evenodd" clip-rule="evenodd" d="M80.171 46.638c-3.96 0-7.344-2.594-8.536-6.167h-.915c-1.192 3.573-4.576 6.167-8.536 6.167s-7.344-2.594-8.536-6.167h-.915c-1.192 3.573-4.576 6.167-8.536 6.167s-7.344-2.594-8.536-6.167h-.915c-1.192 3.573-4.576 6.167-8.536 6.167s-7.344-2.594-8.536-6.167h-.915c-1.186 3.554-4.54 6.139-8.472 6.167v39.076A4.286 4.286 0 0 0 12.573 90h67.938a4.286 4.286 0 0 0 4.286-4.286V45.35a8.92 8.92 0 0 1-4.626 1.29Zm-24.86 17.345a8.86 8.86 0 0 1-4.239 7.563v8.216c0 1.184-.96 2.143-2.143 2.143h-4.772a2.143 2.143 0 0 1-2.143-2.143v-8.1a8.865 8.865 0 1 1 13.296-7.68Z"/>
</svg>