
<svg class="solution-svg rates-svg" viewBox="0 0 100 100">
    <path class="st0" fill-rule="evenodd" clip-rule="evenodd" d="M46.59 91.762c25.731 0 46.59-20.86 46.59-46.59 0-19.303-11.738-35.864-28.466-42.934V37.65l6.344-.18c4.712-.18 7.611 5.4 4.35 9.001L51.302 70.416c-2.538 2.52-6.706 2.52-9.244 0L17.774 46.291c-3.263-3.24-.363-9.002 4.35-8.822l6.343.18V2.239C11.739 9.308 0 25.869 0 45.172c0 25.73 20.86 46.59 46.59 46.59Zm1.981-49.127v-2.67c1.673-.368 2.994-1.012 4.226-1.84 1.144-.92 2.025-1.933 2.64-3.222.617-1.288.881-2.669.881-4.233 0-1.473-.264-2.854-.704-3.958-.528-1.105-1.32-2.117-2.377-3.038-1.056-.92-2.465-1.748-4.226-2.577a31.1 31.1 0 0 1-2.64-1.565c-.705-.46-1.233-.92-1.585-1.38-.352-.46-.528-.92-.528-1.473 0-.552.176-1.012.44-1.472.264-.46.704-.829 1.32-1.105a5.234 5.234 0 0 1 2.201-.46c.792 0 1.585.092 2.29.276.703.184 1.32.368 1.936.552a1.383 1.383 0 0 0 1.937-1.012l.616-2.761c.176-.737-.176-1.473-.88-1.75a7.191 7.191 0 0 0-1.497-.46c-1.056-.276-2.2-.46-3.521-.552V4.622c0-.46-.353-.92-.88-.92h-3.17c-.44 0-.88.368-.88.92v3.774a12.44 12.44 0 0 0-3.962 1.932c-1.056.829-1.848 1.933-2.465 3.13-.616 1.196-.88 2.577-.88 3.958 0 1.472.264 2.76.88 3.865.529 1.105 1.32 2.025 2.377 2.854 1.057.828 2.201 1.564 3.61 2.3 1.32.553 2.288 1.105 3.08 1.657l.125.098c.652.51 1.212.948 1.46 1.467.352.552.44 1.105.44 1.749 0 .644-.176 1.104-.44 1.657-.264.552-.704.92-1.32 1.196-.616.276-1.145.46-2.113.46-.88 0-1.76-.092-2.641-.276-.792-.184-1.584-.368-2.289-.736h-.088a1.8 1.8 0 0 0-2.377 1.288l-.528 2.21c-.176.92.264 1.84 1.145 2.116.088.046.176.07.264.093.088.023.176.045.264.091.792.277 1.584.46 2.377.645.792.184 1.76.276 2.729.368v3.221c0 .553.44.92.88.92H47.603c.528 0 .88-.46.88-.92v-1.104h.088Z"/>
</svg>