<svg xmlns="http://www.w3.org/2000/svg" width="32" height="32" viewBox="0 0 32 32" fill="none">
<path d="M29.491 3.47704H2.50783C1.12517 3.47704 0 4.60849 0 6V20.4955C0 21.887 1.12517 23.0194 2.50783 23.0194H12.3243L15.5266 27.3399C15.6372 27.4896 15.814 27.5781 15.999 27.5781C16.1839 27.5781 16.3607 27.4896 16.4713 27.3399L19.6746 23.0194H29.491C30.8736 23.0194 31.9988 21.887 31.9988 20.4955V6C31.9988 4.60849 30.8736 3.47704 29.491 3.47704ZM28.6667 21.0952H19.379C19.194 21.0952 19.0172 21.1837 18.9066 21.3333L15.999 25.3333L13.0922 21.3333C12.9816 21.1837 12.8057 21.0952 12.6198 21.0952H3.33333C2.60075 21.0952 2.00417 21.2328 2.00417 20.4955V6.52298C2.00417 5.78571 2.60075 5.18622 3.33333 5.18622H28.6667C29.4002 5.18622 29.9958 5.78571 29.9958 6.52298V19.7575C29.9958 20.4948 29.4002 21.0952 28.6667 21.0952Z" fill="#002EA6"/>
<path d="M12.2835 11.8612C12.2017 11.6091 11.9706 11.4257 11.7086 11.4062L10.0666 11.2733L9.43224 9.73849C9.33033 9.49582 9.08561 9.33331 8.82439 9.33331C8.56316 9.33331 8.31772 9.49654 8.2151 9.74138L7.58212 11.2733L5.93654 11.4062C5.67674 11.4286 5.44638 11.612 5.36385 11.8641C5.28347 12.1169 5.36385 12.4007 5.56264 12.5712L6.81495 13.6502L6.43387 15.2594C6.38651 15.4493 6.42813 15.6573 6.54583 15.8155C6.66209 15.9715 6.84868 16.0712 7.04675 16.0813C7.05536 16.082 7.06397 16.082 7.07259 16.082C7.19746 16.082 7.31731 16.0473 7.41778 15.9838L8.82367 15.1193L10.2317 15.9838C10.4563 16.1225 10.7506 16.1109 10.9637 15.9549C11.1769 15.7974 11.2781 15.5201 11.2163 15.2644L10.8338 13.6502L12.0854 12.5712C12.2842 12.4 12.3646 12.1154 12.2835 11.8612ZM10.0107 13.1237C9.87647 13.2385 9.81906 13.4169 9.85996 13.5888L10.1556 14.8376L9.06695 14.1688C8.91696 14.0763 8.73037 14.0763 8.58038 14.1688L7.49242 14.8376L7.78809 13.5888C7.829 13.4169 7.77158 13.2385 7.6381 13.1237L6.66926 12.2888L7.94023 12.1862C8.11534 12.1725 8.26605 12.062 8.33351 11.8987L8.82439 10.7121L9.31455 11.8987C9.38201 12.062 9.53271 12.1725 9.70782 12.1862L10.9788 12.2888L10.0107 13.1237Z" fill="#002EA6"/>
<path d="M19.638 11.8612C19.5562 11.6091 19.3251 11.4257 19.0631 11.4062L17.4211 11.2733L16.7867 9.73849C16.6848 9.49582 16.4401 9.33331 16.1789 9.33331C15.9177 9.33331 15.6722 9.49654 15.5696 9.74138L14.9366 11.2733L13.291 11.4062C13.0312 11.4286 12.8009 11.612 12.7183 11.8641C12.638 12.1169 12.7183 12.4007 12.9171 12.5712L14.1694 13.6502L13.7884 15.2594C13.741 15.4493 13.7826 15.6573 13.9003 15.8155C14.0166 15.9715 14.2032 16.0712 14.4012 16.0813C14.4099 16.082 14.4185 16.082 14.4271 16.082C14.552 16.082 14.6718 16.0473 14.7723 15.9838L16.1782 15.1193L17.5862 15.9838C17.8108 16.1225 18.1051 16.1109 18.3182 15.9549C18.5314 15.7974 18.6325 15.5201 18.5708 15.2644L18.1883 13.6502L19.4399 12.5712C19.6387 12.4 19.7191 12.1154 19.638 11.8612ZM17.3652 13.1237C17.231 13.2385 17.1735 13.4169 17.2145 13.5888L17.5101 14.8376L16.4214 14.1688C16.2715 14.0763 16.0849 14.0763 15.9349 14.1688L14.8469 14.8376L15.1426 13.5888C15.1835 13.4169 15.1261 13.2385 14.9926 13.1237L14.0238 12.2888L15.2947 12.1862C15.4698 12.1725 15.6205 12.062 15.688 11.8987L16.1789 10.7121L16.669 11.8987C16.7365 12.062 16.8872 12.1725 17.0623 12.1862L18.3333 12.2888L17.3652 13.1237Z" fill="#002EA6"/>
<path d="M26.9944 11.8612C26.9126 11.6091 26.6815 11.4257 26.4196 11.4062L24.7776 11.2733L24.1432 9.73849C24.0413 9.49582 23.7966 9.33331 23.5353 9.33331C23.2741 9.33331 23.0287 9.49654 22.926 9.74138L22.2931 11.2733L20.6475 11.4062C20.3877 11.4286 20.1573 11.612 20.0748 11.8641C19.9944 12.1169 20.0748 12.4007 20.2736 12.5712L21.5259 13.6502L21.1448 15.2594C21.0974 15.4493 21.1391 15.6573 21.2568 15.8155C21.373 15.9715 21.5596 16.0712 21.7577 16.0813C21.7663 16.082 21.7749 16.082 21.7835 16.082C21.9084 16.082 22.0282 16.0473 22.1287 15.9838L23.5346 15.1193L24.9419 15.9838C25.1673 16.1225 25.4615 16.1109 25.6747 15.9549C25.8878 15.7974 25.989 15.5201 25.9273 15.2644L25.5448 13.6502L26.7964 12.5712C26.9951 12.4 27.0755 12.1154 26.9944 11.8612ZM24.7216 13.1237C24.5874 13.2385 24.53 13.4169 24.5709 13.5888L24.8666 14.8376L23.7779 14.1688C23.6279 14.0763 23.4413 14.0763 23.2913 14.1688L22.2034 14.8376L22.499 13.5888C22.5399 13.4169 22.4825 13.2385 22.349 13.1237L21.3802 12.2888L22.6512 12.1862C22.8263 12.1725 22.977 12.062 23.0444 11.8987L23.5353 10.7121L24.0255 11.8987C24.0929 12.062 24.2436 12.1725 24.4188 12.1862L25.6897 12.2888L24.7216 13.1237Z" fill="#002EA6"/>
</svg>