<svg width="25" height="24" viewBox="0 0 25 24" fill="none" xmlns="http://www.w3.org/2000/svg" class="solution-svg new-business-svg">
<circle cx="11.2561" cy="12.2561" r="10.2561" stroke="#e2e8f9" stroke-width="2"/>
<path class="st1" fill-rule="evenodd" clip-rule="evenodd" d="M15.5792 7.40398C14.4698 6.46203 13.0331 5.8938 11.4637 5.8938C7.95 5.8938 5.10156 8.74224 5.10156 12.256C5.10156 15.7697 7.95 18.6181 11.4637 18.6181C14.9775 18.6181 17.8259 15.7697 17.8259 12.256C17.8259 11.4555 17.6781 10.6896 17.4082 9.98396L15.7116 11.2596C15.7864 11.5796 15.8259 11.9132 15.8259 12.256C15.8259 14.6651 13.8729 16.6181 11.4637 16.6181C9.05457 16.6181 7.10156 14.6651 7.10156 12.256C7.10156 9.84681 9.05457 7.8938 11.4637 7.8938C12.375 7.8938 13.221 8.17323 13.9208 8.65109L15.5792 7.40398Z" fill="#002EA6"/>
<path class="st1" d="M22.1858 4.47052L22.4158 2L18.919 4.6296L18.6938 6.20229L12.9116 10.5504C12.6238 10.3805 12.2891 10.2829 11.9302 10.2829C10.8646 10.2829 10 11.1482 10 12.2147C10 13.2812 10.8646 14.1465 11.9302 14.1465C12.9959 14.1465 13.8604 13.2812 13.8604 12.2147C13.8604 12.0291 13.834 11.8507 13.7858 11.6808L19.5512 7.34596L21.1226 7.56771L24.6194 4.93811L22.1858 4.47052Z" fill="#002EA6"/>
</svg>
