<svg xmlns="http://www.w3.org/2000/svg" width="32" height="32" viewBox="0 0 32 32" fill="none">
<path d="M28.2192 7.88282H28.0244C25.7247 3.19574 21.2034 0 15.9805 0C10.7576 0 6.2363 3.19574 3.89769 7.88282H3.7028C1.676 7.88282 0 9.71505 0 11.9308V15.8509C0 17.8109 1.32521 19.4727 3.04019 19.8136C3.27406 19.8562 3.46894 19.8988 3.7028 19.8988H5.7296C5.10597 18.4075 4.79415 16.7031 4.79415 14.9561C4.79415 12.3142 5.53471 9.88549 6.85993 7.88282C8.88672 4.7723 12.1998 2.72703 15.9805 2.72703C19.7613 2.72703 23.0743 4.7723 25.1011 7.88282C26.3873 9.88549 27.1669 12.3142 27.1669 14.9561C27.1669 16.7031 26.8161 18.3648 26.2314 19.8988C24.8672 23.3076 22.0999 25.8642 18.7479 26.8016C18.2022 25.779 17.1888 25.0972 16.0195 25.0972C14.2655 25.0972 12.8624 26.6312 12.8624 28.5486C12.8624 30.466 14.2655 32 16.0195 32C17.4616 32 18.6699 30.9774 19.0597 29.5286C23.6979 28.3782 27.4397 24.6711 28.9598 19.8136C30.6748 19.4727 32 17.8109 32 15.8509V11.9308C31.961 9.71505 30.285 7.88282 28.2192 7.88282Z" fill="#002EA6"/>
<path fill-rule="evenodd" clip-rule="evenodd" d="M15.9805 23.2224H8.4969C9.39337 22.5832 10.1729 21.9015 10.9524 21.1345C9.39337 19.6005 8.41895 17.4274 8.41895 14.9561C8.41895 10.3968 11.8099 6.68976 15.9805 6.68976C20.151 6.68976 23.542 10.3968 23.542 14.9561C23.542 19.5153 20.151 23.2224 15.9805 23.2224ZM16.0193 12.8256C16.0193 12.8256 18.0461 10.2264 19.6831 12.6978C21.4371 15.3396 17.1886 18.2797 16.0193 19.004C14.811 18.2797 10.5626 15.3396 12.3555 12.6978C13.9925 10.2264 16.0193 12.8256 16.0193 12.8256Z" fill="#002EA6"/>
</svg>