<?xml version="1.0" encoding="UTF-8" standalone="no"?>
<svg
   xmlns:dc="http://purl.org/dc/elements/1.1/"
   xmlns:cc="http://creativecommons.org/ns#"
   xmlns:rdf="http://www.w3.org/1999/02/22-rdf-syntax-ns#"
   xmlns:svg="http://www.w3.org/2000/svg"
   xmlns="http://www.w3.org/2000/svg"
   xmlns:sodipodi="http://sodipodi.sourceforge.net/DTD/sodipodi-0.dtd"
   xmlns:inkscape="http://www.inkscape.org/namespaces/inkscape"
   version="1.1"
   id="Layer_1"
   x="0"
   y="0"
   viewBox="0 0 1031 1363"
   xml:space="preserve"
   sodipodi:docname="accept-payments-background-paths-bigger.svg"
   width="1031"
   height="1363"
   inkscape:version="1.0.2-2 (e86c870879, 2021-01-15)"><metadata
     id="metadata27"><rdf:RDF><cc:Work
         rdf:about=""><dc:format>image/svg+xml</dc:format><dc:type
           rdf:resource="http://purl.org/dc/dcmitype/StillImage" /><dc:title></dc:title></cc:Work></rdf:RDF></metadata><defs
     id="defs25" /><sodipodi:namedview
     pagecolor="#ffffff"
     bordercolor="#666666"
     borderopacity="1"
     objecttolerance="10"
     gridtolerance="10"
     guidetolerance="10"
     inkscape:pageopacity="0"
     inkscape:pageshadow="2"
     inkscape:window-width="2400"
     inkscape:window-height="1261"
     id="namedview23"
     showgrid="false"
     inkscape:zoom="0.5890162"
     inkscape:cx="311.76455"
     inkscape:cy="652.45353"
     inkscape:window-x="-9"
     inkscape:window-y="-9"
     inkscape:window-maximized="1"
     inkscape:current-layer="Layer_1" /><style
     id="style2">.st0{fill:none;stroke:#FFFFFF;stroke-width:0.25;stroke-miterlimit:10;}</style><path
     class="st0"
     d="m 732.23378,603.40425 c 8.85042,-1.66154 16.04138,-8.86154 17.70083,-17.72308 3.04233,-15.78461 -10.50987,-29.35384 -26.27467,-26.58461 -8.85041,1.66154 -16.04137,8.86154 -17.70082,17.72308 -3.31891,16.06153 10.50986,29.63076 26.27466,26.58461 z"
     id="path4" /><path
     class="st0"
     d="m 609.71086,1362.7272 c 116.43826,-11.9077 207.43158,-110.4923 207.43158,-230.123 V 729.40423 c 0,-229.01535 213.79286,-247.84612 213.79286,-247.84612 H 733.34008 c -81.31318,0 -147.13813,65.90768 -147.13813,147.32306 v 711.96913 c 0,12.7385 10.78644,23.2615 23.50891,21.8769 z m 95.97168,-785.90756 c 1.65945,-8.86154 8.85041,-16.06154 17.70083,-17.72308 15.7648,-3.04615 29.317,10.52308 26.27467,26.58461 -1.65946,8.86154 -8.85042,16.06154 -17.70083,17.72308 -15.48823,3.04615 -29.317,-10.52308 -26.27467,-26.58461 z"
     id="path6" /><path
     class="st0"
     d="M 562.69304,236.48122 V 921.3119 Z"
     id="path8" /><path
     class="st0"
     d="m 388.72709,862.05037 c 41.48631,30.46153 87.95099,50.39999 137.45799,56.76922 -49.507,-6.64615 -95.97168,-26.58461 -137.45799,-56.76922 z"
     id="path10" /><path
     class="st0"
     d="m 253.20512,236.48122 c -12.16932,28.24615 -21.84946,58.43076 -29.317,89.99999 7.46754,-31.56923 17.14768,-61.75384 29.317,-89.99999 l 309.48792,684.55375 z"
     id="path12" /><path
     class="st0"
     d="M 562.41646,921.3119 H 551.9066 c -2.48918,0 -4.97836,-0.27693 -7.46754,-0.27693 -6.08466,-0.27692 -11.89275,-1.10769 -17.9774,-1.66153 -49.50701,-6.64616 -96.24826,-26.58462 -137.458,-56.76923 C 281.41582,783.68115 208.67647,633.86578 208.3999,461.89657 v -0.83076 c 0,-46.52308 5.53151,-91.66153 15.48822,-134.03076 7.46754,-31.56922 17.14768,-61.75383 29.317,-89.99998 L 183.50811,82.235086 C 6.2232525,162.54277 -52.410741,415.3735 52.411351,647.15809 90.578762,731.89654 145.61727,801.95807 208.3999,852.91191 c 36.50796,29.63076 75.50509,52.61537 115.60853,68.39999 79.93031,31.2923 163.73266,33.78461 238.40803,0 0.27658,0 0.27658,0 0,0 0.27658,0 0,0 0,0 z"
     id="path14" /><path
     class="st0"
     d="m 223.88812,326.48121 c -9.95671,42.36922 -15.48822,87.50768 -15.48822,134.30767 0,172.24613 72.73934,322.33842 180.60376,401.26149 41.48632,30.46153 87.95099,50.39999 137.458,56.76922 5.80808,0.83077 11.89274,1.38462 17.9774,1.66154 2.48918,0.27692 4.97836,0.27692 7.46754,0.27692 h 10.78644 L 253.20512,236.48122 c -12.16932,28.24615 -21.84946,58.43076 -29.317,89.99999 z"
     id="path16" /><path
     class="st0"
     d="m 208.3999,461.06581 c 0,171.9692 73.01592,321.78457 180.60376,400.70763 C 281.13924,782.85038 208.3999,632.75809 208.3999,460.51196 c 0,-46.79999 5.53151,-91.66153 15.48822,-134.30768 -9.95671,42.36923 -15.48822,87.23076 -15.48822,134.03076 z"
     id="path18" /><path
     class="st0"
     d="M 360.79297,82.235086 C 316.5409,122.112 279.47979,175.0043 252.92855,236.48122 L 562.41646,921.03497 V 236.48122 921.03497 0.26586656 c -74.67537,0 -144.37238,30.46153444 -201.62349,81.96921944 z"
     id="path20" /></svg>
