<svg version="1.1" id="Layer_1" xmlns="http://www.w3.org/2000/svg" x="0" y="0" viewBox="0 0 372.7 492.2" xml:space="preserve"><style>.st0{fill:none;stroke:#FFFFFF;stroke-width:0.25;stroke-miterlimit:10;}</style><path class="st0" d="M264.7 217.9c3.2-.6 5.8-3.2 6.4-6.4 1.1-5.7-3.8-10.6-9.5-9.6-3.2.6-5.8 3.2-6.4 6.4-1.2 5.8 3.8 10.7 9.5 9.6z"/><path class="st0" d="M220.4 492.1c42.1-4.3 75-39.9 75-83.1V263.4c0-82.7 77.3-89.5 77.3-89.5H265.1c-29.4 0-53.2 23.8-53.2 53.2v257.1c0 4.6 3.9 8.4 8.5 7.9zm34.7-283.8c.6-3.2 3.2-5.8 6.4-6.4 5.7-1.1 10.6 3.8 9.5 9.6-.6 3.2-3.2 5.8-6.4 6.4-5.6 1.1-10.6-3.8-9.5-9.6z"/><path class="st0" d="M203.4 85.4V332.7 85.4z"/><path class="st0" d="M140.5 311.3c15 11 31.8 18.2 49.7 20.5-17.9-2.4-34.7-9.6-49.7-20.5z"/><path class="st0" d="M91.5 85.4c-4.4 10.2-7.9 21.1-10.6 32.5 2.7-11.4 6.2-22.3 10.6-32.5l111.9 247.2L91.5 85.4z"/><path class="st0" d="M203.3 332.7h-3.8c-.9 0-1.8-.1-2.7-.1-2.2-.1-4.3-.4-6.5-.6-17.9-2.4-34.8-9.6-49.7-20.5-38.9-28.5-65.2-82.6-65.3-144.7v-.3c0-16.8 2-33.1 5.6-48.4 2.7-11.4 6.2-22.3 10.6-32.5L66.3 29.7C2.2 58.7-19 150 18.9 233.7c13.8 30.6 33.7 55.9 56.4 74.3 13.2 10.7 27.3 19 41.8 24.7 28.9 11.3 59.2 12.2 86.2 0 .1 0 .1 0 0 0 .1 0 0 0 0 0z"/><path class="st0" d="M80.9 117.9c-3.6 15.3-5.6 31.6-5.6 48.5 0 62.2 26.3 116.4 65.3 144.9 15 11 31.8 18.2 49.7 20.5 2.1.3 4.3.5 6.5.6.9.1 1.8.1 2.7.1h3.9L91.5 85.4c-4.4 10.2-7.9 21.1-10.6 32.5z"/><path class="st0" d="M75.3 166.5c0 62.1 26.4 116.2 65.3 144.7-39-28.5-65.3-82.7-65.3-144.9 0-16.9 2-33.1 5.6-48.5-3.6 15.3-5.6 31.5-5.6 48.4v.3z"/><path class="st0" d="M130.4 29.7c-16 14.4-29.4 33.5-39 55.7l111.9 247.2V85.4v247.2V.1c-27 0-52.2 11-72.9 29.6z"/></svg>