<svg version="1.1" id="Layer_1" xmlns="http://www.w3.org/2000/svg" x="0" y="0" viewBox="0 0 96.8 127.9" xml:space="preserve"><style>.st0{fill:none;}
	.st1{fill:#FFFFFF;}
	.st2{fill:#FE0249;}
	.st3{fill:#008FC5;}
	.st4{fill:#17FCC5;}</style><path class="st0" d="M52.8 86.4z"/><path class="st0" d="M36.5 80.9c3.9 2.8 8.3 4.7 12.9 5.3-4.6-.6-9-2.5-12.9-5.3z"/><path class="st0" d="m23.7 22.2 29.1 64.3-29.1-64.3c-1.1 2.7-2.1 5.5-2.8 8.4.8-2.9 1.7-5.8 2.8-8.4z"/><path class="st1" d="M57.3 127.9c11-1.1 19.5-10.4 19.5-21.6V68.4c0-21.5 20.1-23.3 20.1-23.3H68.8C61.2 45.2 55 51.4 55 59v66.8c0 1.2 1.1 2.2 2.3 2.1zm9-73.8c.2-.8.8-1.5 1.7-1.7 1.5-.3 2.8 1 2.5 2.5-.2.8-.8 1.5-1.7 1.7-1.5.3-2.8-1-2.5-2.5z"/><path class="st2" d="M52.8 86.4c-1.1 0-2.3-.1-3.4-.2-4.7-.6-9-2.5-12.9-5.3-10.1-7.4-17-21.5-17-37.6v-.1c0-4.4.5-8.6 1.5-12.6.7-3 1.6-5.8 2.8-8.4L17.2 7.7C.6 15.2-5 39 4.9 60.7c3.6 7.9 8.8 14.5 14.7 19.3 3.4 2.8 7.1 4.9 10.9 6.4 7.4 3 15.3 3.2 22.3 0z"/><path class="st3" d="M21 30.6c-.9 4-1.5 8.2-1.5 12.6 0 16.2 6.8 30.2 17 37.7 3.9 2.8 8.3 4.7 12.9 5.3 1.1.1 2.2.2 3.4.2L23.7 22.2c-1.1 2.6-2 5.5-2.7 8.4z"/><path class="st3" d="M52.8 86.4c-1.1 0-2.3-.1-3.4-.2 1.1.2 2.3.2 3.4.2z"/><path class="st3" d="M36.5 80.9c-10.1-7.4-17-21.5-17-37.7 0-4.4.5-8.6 1.5-12.6-.9 4-1.5 8.2-1.5 12.6v.1c0 16.1 6.9 30.2 17 37.6z"/><path class="st4" d="M33.9 7.7c-4.2 3.8-7.6 8.7-10.1 14.5l29.1 64.3V22.2v64.3V0c-7.1 0-13.6 2.8-19 7.7z"/></svg>