<svg xmlns="http://www.w3.org/2000/svg" viewBox="0 0 59.8 60" xml:space="preserve"><path d="M29.9 0C13.5 0 .1 13.4 0 29.8c-.1 8 3 15.6 8.6 21.3 5.6 5.7 13.1 8.9 21.1 8.9h.2c16.4 0 29.8-13.4 29.9-29.8C59.9 13.7 46.6.1 29.9 0zM19.3 24.1c.8-.8 2-.8 2.8 0l4.4 4.4c.2.2.5.2.7.1.2-.1.4-.3.4-.6V14.8c0-1.1.9-2 2-2s2 .9 2 2V28c0 .3.2.5.4.6.1 0 .2.1.3.1.2 0 .3-.1.5-.2l4.4-4.4c.4-.4 1-.6 1.5-.6.6 0 1.1.3 1.4.8.6.8.5 2-.3 2.7l-9.4 9.4c-.5.5-1.2.5-1.7 0l-9.5-9.5c-.7-.8-.7-2.1.1-2.8zm19.5 23.1H20.3c-2.4 0-4.3-1.9-4.3-4.3v-2.7c0-1.1.9-2 2-2s2 .9 2 2v2.3c0 .4.3.7.7.7h17.8c.4 0 .7-.3.7-.7v-2.3c0-1.1.9-2 2-2s2 .9 2 2v2.7c-.1 2.4-2 4.3-4.4 4.3z"/></svg>