<svg version="1.1" id="Layer_1" xmlns="http://www.w3.org/2000/svg" x="0" y="0" viewBox="0 0 512 512" xml:space="preserve"><style>.st0{fill:#007BBC;}</style><path class="st0" d="M508.0844 310.2676v178.232c0 4.404-3.5696 7.9735-7.9736 7.9735h-92.0097c-4.404 0-7.9736-3.5696-7.9736-7.9735V322.7469c0-43.621-15.5867-73.4092-54.6751-73.4092-29.8283 0-47.5493 20.0557-55.3744 39.474-2.842 6.9406-3.5746 16.5779-3.5746 26.3104v173.3691c0 4.404-3.5696 7.9736-7.9735 7.9736h-91.9797c-4.419 0-7.9953-3.5562-7.9736-7.9752.2036-44.1366 1.1348-258.3081.1902-308.646-.0834-4.4591 3.5112-8.0704 7.9702-8.0704h91.8011c4.404 0 7.9736 3.5696 7.9736 7.9736v38.0388c-.2186.3621-.524.7159-.7176 1.063h.7176v-1.063c14.3467-22.0767 39.9329-53.6355 97.2965-53.6355 71.0262 0 124.2762 46.4063 124.2762 146.1175zM18.8968 496.4731h91.978c4.404 0 7.9736-3.5696 7.9736-7.9735V179.7468c0-4.404-3.5696-7.9736-7.9736-7.9736h-91.978c-4.404 0-7.9736 3.5696-7.9736 7.9736v308.7528c0 4.404 3.5696 7.9735 7.9736 7.9735z"/><path class="st0" d="M119.4407 72.6861c0 31.9143-25.8715 57.7875-57.7858 57.7875S3.8675 104.6004 3.8675 72.6861 29.7407 14.9003 61.655 14.9003s57.7857 25.8716 57.7857 57.7858z"/></svg>