<?xml version="1.0" encoding="utf-8"?>
<!-- Generator: Adobe Illustrator 26.5.0, SVG Export Plug-In . SVG Version: 6.00 Build 0)  -->
<svg version="1.1" id="Layer_1" xmlns="http://www.w3.org/2000/svg" xmlns:xlink="http://www.w3.org/1999/xlink" x="0px" y="0px"
	 viewBox="0 0 100 100" style="enable-background:new 0 0 100 100;" xml:space="preserve">
<path d="M35.4,36.7h29.2c0.6,0,1.2,0.1,1.7,0.4L51.2,51.9c-0.7,0.6-1.6,0.6-2.3,0L33.7,37.1C34.2,36.8,34.8,36.7,35.4,36.7z
	 M31.4,59.3V40.7c0-0.6,0.1-1.2,0.4-1.8l0,0L43.1,50L31.8,61.1C31.5,60.5,31.4,59.9,31.4,59.3z M66.3,62.9c-0.5,0.2-1.1,0.4-1.7,0.4
	H35.4c-0.6,0-1.2-0.1-1.7-0.4L45,51.8l2,1.9c1.7,1.7,4.3,1.7,6,0l2-1.9L66.3,62.9L66.3,62.9z M68.6,59.3c0,0.6-0.1,1.2-0.4,1.8
	L56.9,50l11.3-11.1l0,0c0.3,0.5,0.4,1.1,0.4,1.8V59.3z"/>
</svg>
