<svg version="1.1" id="Layer_1" xmlns="http://www.w3.org/2000/svg" x="0" y="0" viewBox="0 0 59.8 60" xml:space="preserve">
    <style>.st0{fill:#000;}</style>
    <path class="st0" d="M47.2 15.8c.7.9.6 2.1-.3 2.8L29.5 32.8 12.1 18.6c-.9-.7-1-2-.3-2.8.7-.9 2-1 2.8-.3l14.9 12.2 14.9-12.2c.9-.7 2.1-.6 2.8.3z" />
    <path class="st0" d="M47.2 46.4c-.4.4-.9.6-1.4.6s-1-.2-1.4-.6l-9.8-9.8c-.8-.8-.8-2 0-2.8.8-.8 2-.8 2.8 0l9.8 9.8c.7.8.7 2 0 2.8z" />
    <path class="st0" d="M24.6 33.8c.8.8.8 2 0 2.8l-9.8 9.8c-.4.4-.9.6-1.4.6s-1-.2-1.4-.6c-.8-.8-.8-2 0-2.8l9.8-9.8c.8-.8 2-.8 2.8 0z" />
</svg>