<svg xmlns="http://www.w3.org/2000/svg" version="1.1" id="Layer_1" x="0" y="0" xml:space="preserve" viewBox="0 0 33.101002 32.736"><style type="text/css" id="style2">.st0{fill:#000;}</style><path class="st0" d="M28.655585 25.577358c.9 1 .9 2.6-.1 3.5l-1.3 1.3-.1.1c-2.2 2.2-4.1 2.7-7 1.9-3.1-.9-5.8-2.6-8.2-4.6-3.5-2.9-7.3-6.6-9.8-10.5-2.5-4-3.3-8.2.2-11.7l.1-.1 1.3-1.3c.9-.9 2.5-.9 3.5 0l3.9 3.9c.9.9.9 2.5 0 3.5l-2.3 2.3.1.1c2.6 3.9 6 7.3 9.9 9.9l.1.1 2.3-2.3c.9-.9 2.5-.9 3.5 0z" id="path4"/><path d="M16.342216 0c-.400772 0-.728658.327885-.728658.728658 0 .400772.327886.728658.728658.728658 8.437597 0 15.301341 6.863744 15.301341 15.301341 0 .400772.327886.728658.728658.728658s.728658-.327886.728658-.728658C33.100805 7.519516 25.581289 0 16.342216 0Z" id="path843" stroke-width=".0683096"/><path d="M28.000403 16.758657c0 .400772.327886.728658.728659.728658.400772 0 .728658-.327886.728658-.728658 0-7.235348-5.887396-13.115435-13.115436-13.115435-.400772 0-.728658.327886-.728658.728658s.320577.728658.728658.728658c6.426495-.000069 11.658119 5.231556 11.658119 11.658119z" id="path845" stroke-width=".0683096"/><path d="M16.342216 8.750932c4.41553 0 8.014965 3.592195 8.014965 8.000416 0 .400772.327886.728658.728658.728658.400773 0 .728659-.327886.728659-.728658 0-5.217006-4.247967-9.464973-9.472282-9.464973-.400772 0-.728658.327886-.728658.728658 0 .400704.320645.735899.728658.735899z" id="path847" stroke-width=".0683096"/><path d="M16.349525 10.944147c-.400772 0-.728658.327886-.728658.728659 0 .400772.327886.728658.728658.728658 2.397187 0 4.335403 1.945456 4.335403 4.335402 0 .400773.327886.728658.728658.728658s.728658-.327885.728658-.728658c-.000068-3.1988-2.594056-5.792719-5.792719-5.792719z" id="path849" stroke-width=".0683096"/></svg>