<svg width="24" height="24" viewBox="0 0 24 24" fill="none" xmlns="http://www.w3.org/2000/svg">
<g clip-path="url(#clip0_7_1700)">
<path d="M9.73097 4.11282L7.00696 10.3479C6.79363 10.8061 6.72799 11.1662 6.79363 11.4116C6.85927 11.6571 7.0726 11.8371 7.45002 11.919L8.51665 11.9844C8.97612 12.0335 9.28791 12.1317 9.46842 12.2954C9.63251 12.459 9.71456 12.7536 9.71456 13.1791V20.3633C9.71456 21.0343 9.41919 21.378 8.82844 21.378H0.886126C0.295375 21.378 0 21.0834 0 20.4942V13.6373C0 13.3918 0.0656389 13.1463 0.180507 12.95L5.94032 3.99827C6.15365 3.6546 6.44903 3.40913 6.85927 3.24548C7.2531 3.08183 7.63053 3 7.95872 3H8.97612C9.32073 3 9.55047 3.11456 9.66533 3.34367C9.79661 3.57278 9.81302 3.83462 9.73097 4.12919V4.11282ZM21.0045 11.428C21.0701 11.6735 21.2834 11.8535 21.6608 11.9353L22.6783 12.0008C23.187 12.0499 23.5151 12.1481 23.6957 12.3117C23.8598 12.4754 23.9418 12.7699 23.9418 13.1954V20.3797C23.9418 21.0507 23.63 21.3943 22.99 21.3943H15.0313C14.4406 21.3943 14.1452 21.0998 14.1452 20.5106V13.6373C14.1452 13.3918 14.2272 13.1463 14.3913 12.95L20.1019 3.99827C20.3481 3.6546 20.6763 3.40913 21.0537 3.24548C21.4311 3.08183 21.7921 3 22.1203 3H23.187C23.4823 3 23.6957 3.11456 23.8433 3.34367C23.991 3.57278 24.0074 3.83462 23.8762 4.12919L21.1521 10.3643C20.9881 10.8225 20.9388 11.1825 20.9881 11.428H21.0045Z" fill="#002EA6"/>
</g>
<defs>
<clipPath id="clip0_7_1700">
<rect width="24" height="24" fill="white"/>
</clipPath>
</defs>
</svg>
