<svg xmlns="http://www.w3.org/2000/svg" viewBox="0 0 59.8 60" xml:space="preserve"><path d="M29.9 0C13.5 0 .1 13.4 0 29.8c-.1 8 3 15.6 8.6 21.3 5.6 5.7 13.1 8.9 21.1 8.9h.2c16.4 0 29.8-13.4 29.9-29.8C59.9 13.7 46.6.1 29.9 0zm8.5 47-1.3 1.3-.1.1c-2.2 2.2-4.1 2.7-7 1.9-3.1-.9-5.8-2.6-8.2-4.6-3.5-2.9-7.3-6.6-9.8-10.5-2.5-4-3.3-8.2.2-11.7l.1-.1 1.3-1.3c.9-.9 2.5-.9 3.5 0L21 26c.9.9.9 2.5 0 3.5l-2.3 2.3.1.1c2.6 3.9 6 7.3 9.9 9.9l.1.1 2.3-2.3c.9-.9 2.5-.9 3.5 0l3.9 3.9c.9 1 .9 2.6-.1 3.5zm8.4-11.4c-.3.9-1.1 1.4-2 1.4-.2 0-.4 0-.6-.1-1.1-.4-1.7-1.5-1.4-2.6 2.7-8.7-3.5-13.6-3.8-13.8-.1 0-.1-.1-.1-.1-4.1-3.7-9.2-3.1-12.1-2.4l2.6 1.6c.9.6 1.2 1.9.6 2.8-.4.6-1.1.9-1.7.9-.4 0-.7-.1-1.1-.3l-6.4-4c-.9-.6-1.2-1.9-.6-2.8l4-6.6c.6-.9 1.9-1.3 2.8-.7.9.6 1.3 1.9.7 2.8l-1.3 2.2c3.8-.9 10.2-1.4 15.5 3.3 2.9 2.6 7.8 9.3 4.9 18.4z"/></svg>