<svg version="1.1" id="Ñëîé_1" xmlns="http://www.w3.org/2000/svg" x="0" y="0" viewBox="0 0 259.2 216.2" xml:space="preserve"><style>.st0{fill:#002EA6;}
	.st1{fill:#17FCC4;}</style><path class="st0" d="M153.6 142.1c-10.4 13.8-26.9 22.8-45.5 22.8-31.4 0-56.8-25.4-56.8-56.8s25.4-56.8 56.8-56.8c18.6 0 35.1 9 45.5 22.8 7.9-15.8 21.1-28.4 37.3-35.6C171.1 15 141.3 0 108.1 0 48.4 0 0 48.4 0 108.1c0 59.7 48.4 108.1 108.1 108.1 33.2 0 62.9-15 82.8-38.6-16.2-7.1-29.4-19.7-37.3-35.5z"/><circle transform="rotate(-9.213 107.32065179 108.10322352)" class="st1" cx="107.3" cy="108.1" r="34"/><circle transform="matrix(.9732 -.2298 .2298 .9732 -19.8256 45.9742)" class="st1" cx="187.5" cy="108.1" r="20.3"/><circle transform="matrix(.3827 -.9239 .9239 .3827 52.5729 294.9284)" class="st1" cx="247" cy="108.1" r="12.2"/></svg>