<svg version="1.1" id="Ñëîé_1" xmlns="http://www.w3.org/2000/svg" x="0" y="0" viewBox="0 0 216.2 216.2" xml:space="preserve"><style>.st0{fill:#002EA6;}
	.st1{fill:#17FCC4;}</style><path class="st0" d="M184.6 184.6C159.3 209.8 124.8 220 92 215L215 92c5 32.8-5.2 67.4-30.4 92.6z"/><path class="st0" d="M31.7 31.7c26-26 61.9-36 95.5-30L1.7 127.2c-6-33.7 4-69.6 30-95.5z"/><path class="st1" d="M184.6 31.7c6 6 11.2 12.6 15.5 19.6L51.2 200.1c-7-4.3-13.5-9.5-19.6-15.5-5.4-5.4-10.2-11.3-14.2-17.5L167.1 17.5c6.2 4 12 8.7 17.5 14.2z"/></svg>