<svg version="1.1" id="Ñëîé_1" xmlns="http://www.w3.org/2000/svg" x="0" y="0" viewBox="0 0 216.2 219.6" xml:space="preserve"><style>.st0{fill:#17FCC4;}
	.st1{fill:#002EA6;}</style><path class="st0" d="M138.3 109.8c0-16.7-13.5-30.2-30.2-30.2s-30.2 13.5-30.2 30.2S91.4 140 108.1 140s30.2-13.5 30.2-30.2z"/><path class="st0" d="M108.1 56.1c22.9 0 42.4 14.3 50.2 34.5h58C207.2 39.2 162.2 0 108.1 0S9.1 39.2 0 90.7h58c7.7-20.2 27.2-34.6 50.1-34.6z"/><path class="st1" d="M108.1 163.5c-22.9 0-42.4-14.3-50.2-34.5H0c9.1 51.5 54 90.7 108.1 90.7 54.1 0 99.1-39.2 108.1-90.7h-58c-7.6 20.1-27.2 34.5-50.1 34.5z"/></svg>