<svg version="1.1" id="Ñëîé_1" xmlns="http://www.w3.org/2000/svg" x="0" y="0" viewBox="0 0 237.1 237.1" xml:space="preserve"><style>.st0{fill:#002EA6;}
	.st1{fill:#17FCC4;}</style><path class="st0" d="M164.3 120.8c2.5 17.1-2.9 35.1-16 48.3-22.2 22.2-58.1 22.2-80.3 0-22.2-22.2-22.2-58.1 0-80.3 13.2-13.2 31.2-18.5 48.3-16-5.6-16.7-5.2-35 1.2-51.5-30.7-2.7-62.3 7.7-85.8 31.2-42.2 42.2-42.2 110.7 0 152.9s110.7 42.2 152.9 0c23.5-23.5 33.9-55.1 31.3-85.8-16.6 6.4-34.9 6.8-51.6 1.2z"/><circle class="st1" cx="188.4" cy="48.7" r="48.7"/></svg>