<svg version="1.1" id="Layer_1" xmlns="http://www.w3.org/2000/svg" x="0" y="0" viewBox="0 0 410.2 341.2" xml:space="preserve"><style>.st0{fill:#76A9EA;}</style><path class="st0" d="M403.6 39.7c-9.1 4-18.6 7.2-28.3 9.5C386 39 394 26.3 398.6 12.1c1.3-4.1-3.1-7.6-6.8-5.4-13.5 8-28 14-43.2 17.9-.9.2-1.8.3-2.7.3-2.8 0-5.5-1-7.6-2.9-16.1-14.2-36.9-22-58.5-22-9.3 0-18.8 1.5-28 4.3-28.6 8.9-50.8 32.6-57.7 61.7-2.6 10.9-3.3 21.9-2.1 32.6.1 1.2-.4 2.1-.8 2.5-.6.7-1.5 1.1-2.4 1.1h-.3C125.7 96.4 69.1 66.1 29.1 17c-2-2.5-6-2.2-7.6.6-7.8 13.4-12 28.8-12 44.5 0 24 9.6 46.6 26.4 63-7-1.7-13.8-4.3-20.2-7.8-3.1-1.7-6.8.5-6.9 4-.4 35.6 20.4 67.3 51.6 81.6h-1.9c-5 0-10-.5-14.9-1.4-3.4-.7-6.3 2.6-5.3 6 10.1 31.7 37.4 55 70 60.3-27.1 18.2-58.6 27.8-91.4 27.8H6.7c-3.2 0-5.8 2.1-6.6 5.1-.8 3 .7 6.2 3.4 7.7 37 21.5 79.1 32.9 122 32.9 37.5 0 72.5-7.4 104.2-22.1 29-13.4 54.7-32.7 76.3-57.1 20.1-22.8 35.8-49.1 46.7-78.2 10.4-27.7 15.9-57.3 15.9-85.6V97c0-4.5 2.1-8.8 5.6-11.7 13.6-11 25.4-24 35.2-38.6 2.5-4.1-1.5-8.9-5.8-7z"/></svg>