<svg width="222" height="76" viewBox="0 0 222 76" fill="none" xmlns="http://www.w3.org/2000/svg">
<path d="M78.165 71.2909V58.7773H83.957C84.7794 58.7773 85.4944 58.9382 86.1022 59.26C86.71 59.5699 87.1867 60.0049 87.5324 60.565C87.878 61.1251 88.0508 61.7746 88.0508 62.5135C88.0508 63.2524 87.878 63.902 87.5324 64.4621C87.1867 65.0222 86.7041 65.4632 86.0844 65.785C85.4766 66.0948 84.7674 66.2497 83.957 66.2497H80.0421V71.2909H78.165ZM80.0421 64.6587H83.7604C84.4993 64.6587 85.0833 64.468 85.5123 64.0867C85.9533 63.6934 86.1737 63.175 86.1737 62.5314C86.1737 61.8879 85.9533 61.3754 85.5123 60.994C85.0833 60.6127 84.4993 60.422 83.7604 60.422H80.0421V64.6587Z" fill="white"/>
<path d="M92.1935 71.4518C91.5381 71.4518 90.96 71.3386 90.4595 71.1122C89.959 70.8738 89.5657 70.5461 89.2796 70.129C88.9936 69.7118 88.8506 69.2292 88.8506 68.681C88.8506 67.8229 89.1783 67.1495 89.8338 66.6609C90.4893 66.1604 91.3891 65.9101 92.5332 65.9101C93.427 65.9101 94.2553 66.0829 95.018 66.4285V65.4632C95.018 64.8077 94.8273 64.3191 94.446 63.9973C94.0765 63.6755 93.5283 63.5146 92.8013 63.5146C92.3842 63.5146 91.9492 63.5802 91.4963 63.7113C91.0435 63.8305 90.537 64.0211 89.9768 64.2833L89.3154 62.9426C90.0066 62.6208 90.6502 62.3884 91.2461 62.2454C91.842 62.0905 92.4438 62.013 93.0516 62.013C94.2315 62.013 95.1432 62.2931 95.7867 62.8532C96.4422 63.4133 96.7699 64.2118 96.7699 65.2487V71.2909H95.018V70.5044C94.6128 70.8261 94.1778 71.0645 93.713 71.2194C93.2482 71.3744 92.7417 71.4518 92.1935 71.4518ZM90.5668 68.6452C90.5668 69.0862 90.7515 69.4437 91.1209 69.7178C91.5023 69.98 91.9969 70.1111 92.6047 70.1111C93.0814 70.1111 93.5164 70.0455 93.9097 69.9144C94.3149 69.7714 94.6843 69.5509 95.018 69.253V67.7156C94.6724 67.513 94.3089 67.37 93.9276 67.2866C93.5581 67.1912 93.141 67.1436 92.6762 67.1436C92.0207 67.1436 91.5023 67.2806 91.1209 67.5547C90.7515 67.8169 90.5668 68.1804 90.5668 68.6452Z" fill="white"/>
<path d="M98.8298 71.2909V62.1918H100.617V63.3537C100.903 62.9247 101.255 62.591 101.672 62.3527C102.101 62.1024 102.584 61.9772 103.12 61.9772C103.49 61.9892 103.794 62.0428 104.032 62.1381V63.747C103.865 63.6755 103.692 63.6278 103.513 63.604C103.335 63.5683 103.156 63.5504 102.977 63.5504C102.453 63.5504 101.988 63.6934 101.583 63.9794C101.178 64.2535 100.856 64.6587 100.617 65.195V71.2909H98.8298Z" fill="white"/>
<path d="M109.361 71.4518C108.479 71.4518 107.805 71.2492 107.341 70.844C106.876 70.4269 106.644 69.8251 106.644 69.0385V63.6934H104.713V62.1918H106.644V59.8678L108.413 59.4388V62.1918H111.095V63.6934H108.413V68.6273C108.413 69.0921 108.515 69.4258 108.717 69.6284C108.932 69.8191 109.277 69.9144 109.754 69.9144C110.004 69.9144 110.225 69.8966 110.415 69.8608C110.618 69.8251 110.833 69.7714 111.059 69.6999V71.2016C110.821 71.285 110.541 71.3446 110.219 71.3803C109.909 71.428 109.623 71.4518 109.361 71.4518Z" fill="white"/>
<path d="M112.412 71.2909V62.1918H114.199V63.1213C114.903 62.3824 115.814 62.013 116.935 62.013C117.638 62.013 118.251 62.162 118.776 62.4599C119.312 62.7579 119.729 63.175 120.027 63.7113C120.337 64.2476 120.492 64.8673 120.492 65.5704V71.2909H118.704V65.8743C118.704 65.1593 118.502 64.5991 118.097 64.1939C117.703 63.7768 117.149 63.5683 116.434 63.5683C115.957 63.5683 115.528 63.6696 115.147 63.8722C114.766 64.0748 114.45 64.3667 114.199 64.7481V71.2909H112.412Z" fill="white"/>
<path d="M126.917 71.4518C126.023 71.4518 125.212 71.2433 124.485 70.8261C123.77 70.409 123.198 69.8429 122.769 69.1279C122.352 68.4128 122.143 67.6143 122.143 66.7324C122.143 65.8624 122.346 65.0759 122.751 64.3727C123.156 63.6576 123.705 63.0916 124.396 62.6744C125.087 62.2454 125.856 62.0309 126.702 62.0309C127.548 62.0309 128.299 62.2454 128.954 62.6744C129.61 63.0916 130.128 63.6636 130.51 64.3906C130.903 65.1056 131.1 65.916 131.1 66.8218V67.3223H123.931C124.026 67.8229 124.211 68.2698 124.485 68.6631C124.771 69.0564 125.129 69.3662 125.558 69.5927C125.999 69.8191 126.476 69.9323 126.988 69.9323C127.429 69.9323 127.852 69.8668 128.257 69.7357C128.674 69.5927 129.02 69.3901 129.294 69.1279L130.438 70.2541C129.902 70.6593 129.348 70.9632 128.776 71.1658C128.216 71.3565 127.596 71.4518 126.917 71.4518ZM123.949 65.9816H129.33C129.258 65.5049 129.091 65.0878 128.829 64.7302C128.579 64.3608 128.263 64.0748 127.882 63.8722C127.512 63.6576 127.107 63.5504 126.666 63.5504C126.213 63.5504 125.796 63.6517 125.415 63.8543C125.034 64.0569 124.712 64.3429 124.45 64.7124C124.199 65.0699 124.032 65.493 123.949 65.9816Z" fill="white"/>
<path d="M132.802 71.2909V62.1918H134.59V63.3537C134.876 62.9247 135.227 62.591 135.645 62.3527C136.074 62.1024 136.556 61.9772 137.093 61.9772C137.462 61.9892 137.766 62.0428 138.004 62.1381V63.747C137.837 63.6755 137.665 63.6278 137.486 63.604C137.307 63.5683 137.128 63.5504 136.95 63.5504C136.425 63.5504 135.96 63.6934 135.555 63.9794C135.15 64.2535 134.828 64.6587 134.59 65.195V71.2909H132.802Z" fill="white"/>
<path d="M143.387 71.2909V58.7773H149.179C150.001 58.7773 150.716 58.9382 151.324 59.26C151.932 59.5699 152.408 60.0049 152.754 60.565C153.099 61.1251 153.272 61.7746 153.272 62.5135C153.272 63.2524 153.099 63.902 152.754 64.4621C152.408 65.0222 151.926 65.4632 151.306 65.785C150.698 66.0948 149.989 66.2497 149.179 66.2497H145.264V71.2909H143.387ZM145.264 64.6587H148.982C149.721 64.6587 150.305 64.468 150.734 64.0867C151.175 63.6934 151.395 63.175 151.395 62.5314C151.395 61.8879 151.175 61.3754 150.734 60.994C150.305 60.6127 149.721 60.422 148.982 60.422H145.264V64.6587Z" fill="white"/>
<path d="M154.938 71.2909V62.1918H156.726V63.3537C157.012 62.9247 157.364 62.591 157.781 62.3527C158.21 62.1024 158.692 61.9772 159.229 61.9772C159.598 61.9892 159.902 62.0428 160.141 62.1381V63.747C159.974 63.6755 159.801 63.6278 159.622 63.604C159.443 63.5683 159.265 63.5504 159.086 63.5504C158.561 63.5504 158.097 63.6934 157.691 63.9794C157.286 64.2535 156.964 64.6587 156.726 65.195V71.2909H154.938Z" fill="white"/>
<path d="M165.375 71.4697C164.493 71.4697 163.688 71.2611 162.961 70.844C162.246 70.4269 161.68 69.8608 161.263 69.1457C160.846 68.4307 160.637 67.6322 160.637 66.7503C160.637 65.8684 160.846 65.0699 161.263 64.3548C161.68 63.6398 162.246 63.0737 162.961 62.6566C163.688 62.2275 164.493 62.013 165.375 62.013C166.269 62.013 167.073 62.2275 167.788 62.6566C168.503 63.0737 169.069 63.6398 169.486 64.3548C169.903 65.0699 170.112 65.8684 170.112 66.7503C170.112 67.6322 169.903 68.4307 169.486 69.1457C169.069 69.8608 168.503 70.4269 167.788 70.844C167.073 71.2611 166.269 71.4697 165.375 71.4697ZM165.375 69.8966C165.935 69.8966 166.441 69.7595 166.894 69.4854C167.347 69.1994 167.705 68.818 167.967 68.3413C168.229 67.8646 168.36 67.3283 168.36 66.7324C168.36 66.1484 168.223 65.6241 167.949 65.1593C167.687 64.6826 167.329 64.3012 166.876 64.0152C166.435 63.7292 165.935 63.5861 165.375 63.5861C164.815 63.5861 164.308 63.7292 163.855 64.0152C163.414 64.3012 163.057 64.6826 162.783 65.1593C162.52 65.6241 162.389 66.1484 162.389 66.7324C162.389 67.3283 162.52 67.8646 162.783 68.3413C163.045 68.818 163.402 69.1994 163.855 69.4854C164.308 69.7595 164.815 69.8966 165.375 69.8966Z" fill="white"/>
<path d="M176.307 75.1165C175.64 75.1165 174.99 75.0391 174.359 74.8841C173.727 74.7292 173.155 74.5087 172.643 74.2227L173.322 72.8283C173.858 73.1024 174.359 73.2991 174.824 73.4182C175.3 73.5493 175.777 73.6149 176.254 73.6149C177.052 73.6149 177.654 73.4302 178.059 73.0607C178.476 72.6913 178.685 72.149 178.685 71.4339V70.3971C177.886 71.0287 176.975 71.3446 175.95 71.3446C175.116 71.3446 174.347 71.142 173.644 70.7368C172.952 70.3196 172.404 69.7595 171.999 69.0564C171.594 68.3413 171.391 67.5547 171.391 66.6967C171.391 65.8267 171.594 65.0401 171.999 64.337C172.416 63.6219 172.97 63.0618 173.662 62.6566C174.365 62.2394 175.151 62.0309 176.021 62.0309C176.51 62.0309 176.981 62.1143 177.434 62.2811C177.898 62.4361 178.321 62.6625 178.703 62.9605V62.1918H180.473V71.4339C180.473 72.6138 180.109 73.5195 179.382 74.1512C178.667 74.7947 177.642 75.1165 176.307 75.1165ZM176.182 69.8072C176.707 69.8072 177.183 69.7178 177.612 69.539C178.041 69.3483 178.399 69.0802 178.685 68.7346V64.6587C178.399 64.325 178.035 64.0628 177.594 63.8722C177.165 63.6815 176.695 63.5861 176.182 63.5861C175.61 63.5861 175.092 63.7232 174.627 63.9973C174.174 64.2714 173.811 64.6468 173.536 65.1235C173.274 65.5883 173.143 66.1127 173.143 66.6967C173.143 67.2806 173.274 67.811 173.536 68.2877C173.811 68.7525 174.174 69.1219 174.627 69.396C175.092 69.6701 175.61 69.8072 176.182 69.8072Z" fill="white"/>
<path d="M182.574 71.2909V62.1918H184.361V63.3537C184.647 62.9247 184.999 62.591 185.416 62.3527C185.845 62.1024 186.328 61.9772 186.864 61.9772C187.234 61.9892 187.537 62.0428 187.776 62.1381V63.747C187.609 63.6755 187.436 63.6278 187.257 63.604C187.079 63.5683 186.9 63.5504 186.721 63.5504C186.197 63.5504 185.732 63.6934 185.327 63.9794C184.922 64.2535 184.6 64.6587 184.361 65.195V71.2909H182.574Z" fill="white"/>
<path d="M191.719 71.4518C191.064 71.4518 190.486 71.3386 189.985 71.1122C189.485 70.8738 189.091 70.5461 188.805 70.129C188.519 69.7118 188.376 69.2292 188.376 68.681C188.376 67.8229 188.704 67.1495 189.359 66.6609C190.015 66.1604 190.915 65.9101 192.059 65.9101C192.953 65.9101 193.781 66.0829 194.544 66.4285V65.4632C194.544 64.8077 194.353 64.3191 193.972 63.9973C193.602 63.6755 193.054 63.5146 192.327 63.5146C191.91 63.5146 191.475 63.5802 191.022 63.7113C190.569 63.8305 190.063 64.0211 189.502 64.2833L188.841 62.9426C189.532 62.6208 190.176 62.3884 190.772 62.2454C191.368 62.0905 191.969 62.013 192.577 62.013C193.757 62.013 194.669 62.2931 195.312 62.8532C195.968 63.4133 196.296 64.2118 196.296 65.2487V71.2909H194.544V70.5044C194.138 70.8261 193.703 71.0645 193.239 71.2194C192.774 71.3744 192.267 71.4518 191.719 71.4518ZM190.092 68.6452C190.092 69.0862 190.277 69.4437 190.647 69.7178C191.028 69.98 191.523 70.1111 192.13 70.1111C192.607 70.1111 193.042 70.0455 193.435 69.9144C193.841 69.7714 194.21 69.5509 194.544 69.253V67.7156C194.198 67.513 193.835 67.37 193.453 67.2866C193.084 67.1912 192.667 67.1436 192.202 67.1436C191.546 67.1436 191.028 67.2806 190.647 67.5547C190.277 67.8169 190.092 68.1804 190.092 68.6452Z" fill="white"/>
<path d="M198.355 71.2909V62.1918H200.143V63.0677C200.822 62.3646 201.674 62.013 202.699 62.013C203.319 62.013 203.867 62.1501 204.344 62.4242C204.833 62.6983 205.22 63.0677 205.506 63.5325C205.887 63.032 206.334 62.6566 206.847 62.4063C207.359 62.1441 207.937 62.013 208.581 62.013C209.26 62.013 209.85 62.162 210.351 62.4599C210.863 62.7579 211.262 63.175 211.548 63.7113C211.846 64.2476 211.995 64.8673 211.995 65.5704V71.2909H210.208V65.8743C210.208 65.1593 210.017 64.5991 209.636 64.1939C209.266 63.7768 208.76 63.5683 208.116 63.5683C207.675 63.5683 207.276 63.6696 206.918 63.8722C206.561 64.0748 206.251 64.3846 205.989 64.8017C206.013 64.9209 206.03 65.0461 206.042 65.1772C206.054 65.3082 206.06 65.4393 206.06 65.5704V71.2909H204.29V65.8743C204.29 65.1593 204.1 64.5991 203.718 64.1939C203.349 63.7768 202.842 63.5683 202.199 63.5683C201.77 63.5683 201.383 63.6636 201.037 63.8543C200.691 64.0331 200.393 64.3072 200.143 64.6766V71.2909H198.355Z" fill="white"/>
<path d="M12.351 47.6739C19.7525 47.6739 24.6681 43.8548 24.6681 37.9611C24.6681 30.4848 18.4317 29.5004 13.3042 28.6407C9.64085 28.0364 6.54446 27.513 6.54446 24.834C6.54446 22.6223 8.6752 21.1582 12.1267 21.1582C15.5783 21.1582 17.6653 22.4852 18.0516 24.9773C18.1077 25.3324 18.4254 25.5941 18.793 25.5941H23.229C23.6713 25.5941 24.0202 25.2141 23.9828 24.778C23.4719 19.3577 19.0049 15.875 12.2762 15.875C5.21743 15.875 0.507392 19.6007 0.507392 25.0396C0.507392 32.0673 6.46969 33.2136 11.5286 34.0796C15.248 34.7027 18.5064 35.3631 18.5064 38.2414C18.5064 40.7771 15.9271 42.1914 12.5753 42.1914C9.22344 42.1914 6.60054 40.7397 6.12704 37.9548C6.06474 37.5873 5.75946 37.3069 5.37941 37.3069H0.756615C0.314271 37.3069 -0.034634 37.6807 0.00274718 38.123C0.544775 43.9483 5.29219 47.6739 12.351 47.6739" fill="white"/>
<path d="M41.5085 27.8183C42.7857 23.912 46.0317 21.5009 50.3679 21.5009C54.6418 21.5009 57.9313 23.8247 59.2958 27.8058C59.464 28.3042 59.0964 28.8276 58.5668 28.8276H42.2437C41.7204 28.8276 41.3466 28.3167 41.5085 27.8183M50.3679 47.6802C56.7539 47.6802 62.0371 44.2349 64.6538 38.4906C64.8843 37.9797 64.5167 37.3941 63.956 37.3941H58.9718C58.7164 37.3941 58.4734 37.5187 58.3301 37.7368C56.6853 40.2974 53.8444 41.8362 50.3679 41.8362C45.7326 41.8362 42.3372 39.2071 41.2656 34.8646C41.1472 34.3725 41.5085 33.899 42.0132 33.899H65.0151C65.42 33.899 65.7503 33.5937 65.7814 33.1887C65.8188 32.7402 65.8437 32.2978 65.8437 31.8492C65.8437 23.0273 59.6571 15.875 50.3617 15.875C41.0662 15.875 34.7612 22.7033 34.7612 31.7745C34.7612 40.8456 41.4836 47.6802 50.3617 47.6802" fill="white"/>
<path d="M97.6176 46.9386H103.387C104.004 46.9386 104.359 46.2408 103.997 45.7424L93.7985 31.5998C93.6116 31.3382 93.6053 30.9893 93.7985 30.7214L102.932 17.7937C103.287 17.2953 102.932 16.6037 102.315 16.6037H96.7641C96.5149 16.6037 96.2843 16.7221 96.1473 16.9277L88.4031 28.0112C88.2598 28.2168 88.0293 28.3352 87.7864 28.3352H85.1073C84.6899 28.3352 84.3535 27.9988 84.3535 27.5814V6.49213C84.3535 6.07471 84.0171 5.73828 83.5996 5.73828H78.8647C78.4473 5.73828 78.1108 6.07471 78.1108 6.49213V46.1847C78.1108 46.6022 78.4473 46.9386 78.8647 46.9386H83.5996C84.0171 46.9386 84.3535 46.6022 84.3535 46.1847V34.7523C84.3535 34.3349 84.6899 33.9985 85.1073 33.9985H87.7427C87.9857 33.9985 88.2225 34.1168 88.3595 34.3162L97.007 46.6146C97.1503 46.814 97.3809 46.9386 97.6238 46.9386" fill="white"/>
<path d="M141.864 29.3698C139.977 27.6565 138.668 25.4697 137.771 23.395C137.615 23.0337 137.466 22.6786 137.335 22.3234C137.042 21.5447 135.877 21.7627 135.877 22.5976V33.2574C135.877 38.4659 133.049 41.7243 128.326 41.7243C123.604 41.7243 120.756 38.522 120.756 33.2574V17.3642C120.756 16.9468 120.42 16.6104 120.002 16.6104H115.268C114.85 16.6104 114.514 16.9468 114.514 17.3642V34.1359C114.514 42.2975 119.984 47.6804 128.326 47.6804C136.668 47.6804 142.12 42.2975 142.12 34.1359V29.9305C142.12 29.7187 142.026 29.5131 141.871 29.3698" fill="white"/>
<path d="M187.588 27.8183C188.865 23.912 192.111 21.5009 196.447 21.5009C200.721 21.5009 204.01 23.8247 205.369 27.8058C205.543 28.3042 205.169 28.8276 204.64 28.8276H188.316C187.793 28.8276 187.419 28.3167 187.581 27.8183M196.441 47.6802C202.827 47.6802 208.116 44.2349 210.726 38.4906C210.963 37.9797 210.596 37.3941 210.029 37.3941H205.045C204.789 37.3941 204.546 37.5187 204.403 37.7368C202.758 40.2974 199.917 41.8362 196.441 41.8362C191.805 41.8362 188.41 39.2071 187.338 34.8646C187.22 34.3725 187.581 33.899 188.086 33.899H211.088C211.493 33.899 211.823 33.5937 211.854 33.1887C211.892 32.7402 211.916 32.2978 211.916 31.8492C211.916 23.0273 205.73 15.875 196.434 15.875C187.139 15.875 180.834 22.7033 180.834 31.7745C180.834 40.8456 187.556 47.6802 196.434 47.6802" fill="white"/>
<path d="M213.758 8.25527V3.71598H212.006V3.02051H216.256V3.71598H214.505V8.25527H213.758Z" fill="white"/>
<path d="M216.882 8.25527V3.02051H217.885L219.444 6.37076L221.003 3.02051H222V8.25527H221.295V3.97772L219.437 7.88136L217.579 3.97772V8.25527H216.882Z" fill="white"/>
<path d="M162.185 19.9075C162.241 19.6021 162.49 19.3528 162.795 19.2967C163.344 19.1907 163.811 19.6644 163.712 20.2129C163.655 20.5183 163.406 20.7676 163.101 20.8237C162.552 20.9296 162.079 20.456 162.185 19.9075ZM158.862 47.0386C162.895 46.6273 166.043 43.2304 166.043 39.0919V25.1679C166.043 17.2586 173.441 16.6104 173.441 16.6104H163.144C160.333 16.6104 158.052 18.8915 158.052 21.6963V46.2782C158.052 46.7208 158.432 47.0823 158.869 47.0324" fill="white"/>
<path d="M157.224 31.7995C156.8 31.7995 156.389 31.7746 155.977 31.7185C154.257 31.4941 152.649 30.8023 151.216 29.7552C147.488 27.0315 144.97 21.8583 144.964 15.9185V15.8935C144.964 14.2855 145.157 12.7335 145.5 11.2688C145.756 10.1843 146.092 9.13725 146.516 8.16494L144.104 2.83594C137.977 5.60328 135.945 14.3354 139.567 22.3382C140.894 25.2614 142.789 27.6797 144.964 29.4373C146.223 30.4595 147.582 31.2573 148.966 31.7995C151.733 32.884 154.637 32.9713 157.224 31.7995" fill="#FF034A"/>
<path d="M145.5 11.2631C145.157 12.7278 144.964 14.286 144.964 15.9003C144.964 21.8463 147.482 27.0257 151.215 29.7556C152.649 30.8027 154.257 31.4946 155.977 31.719C156.389 31.7751 156.806 31.8 157.224 31.8L146.516 8.15918C146.092 9.13772 145.755 10.1786 145.5 11.2631" fill="#008FC4"/>
<path d="M157.224 31.7998C156.8 31.7998 156.388 31.7748 155.977 31.7188C156.388 31.7748 156.806 31.7998 157.224 31.7998Z" fill="#008FC4"/>
<path d="M151.215 29.7549C147.488 27.0249 144.964 21.8455 144.964 15.9057C144.964 14.2914 145.157 12.7395 145.5 11.2686C145.157 12.7332 144.964 14.2852 144.964 15.8933V15.9182C144.964 21.858 147.488 27.0312 151.215 29.7549" fill="#008FC4"/>
<path d="M150.249 2.82967C148.716 4.21334 147.432 6.0333 146.522 8.15866L157.23 31.7932V0C154.637 0 152.231 1.0471 150.249 2.82967" fill="#17FCC4"/>
</svg>
