<svg width="56" height="56" viewBox="0 0 56 56" fill="none" xmlns="http://www.w3.org/2000/svg">
<path d="M28 56C20.5739 56 13.452 53.05 8.20101 47.799C2.94999 42.548 0 35.4261 0 28C0 20.5739 2.94999 13.452 8.20101 8.20101C13.452 2.94999 20.5739 0 28 0C35.4261 0 42.548 2.94999 47.799 8.20101C53.05 13.452 56 20.5739 56 28C56 35.4261 53.05 42.548 47.799 47.799C42.548 53.05 35.4261 56 28 56Z" fill="#002EA6"/>
<path d="M30.7426 31.3256V48.4129H22.8846V31.3238H16.3633V24.3979H22.8846V21.8689C22.8846 12.506 26.7901 7.58706 35.0655 7.58706C36.6181 7.5707 38.1621 7.8206 39.6304 8.3259V15.1742C38.4464 14.8947 37.234 14.754 36.0175 14.7551C35.2899 14.6901 34.5574 14.8026 33.8828 15.083C33.2082 15.3633 32.6117 15.8031 32.1444 16.3646C31.0487 18.0078 30.5542 19.9789 30.7444 21.9447V24.3925H39.6394L37.2495 31.3184L30.7426 31.3256Z" fill="white"/>
</svg>
