<?xml version="1.0" encoding="utf-8"?>
<!-- Generator: Adobe Illustrator 27.8.0, SVG Export Plug-In . SVG Version: 6.00 Build 0)  -->
<svg version="1.1" id="Layer_1" xmlns="http://www.w3.org/2000/svg" xmlns:xlink="http://www.w3.org/1999/xlink" x="0px" y="0px"
	 viewBox="0 0 56 56" style="enable-background:new 0 0 56 56;" xml:space="preserve">
<style type="text/css">
	.st0{fill:#17FCC4;}
</style>
<path class="st0" d="M47.8,8.2C42.5,3,35.4,0,28,0S13.5,3,8.2,8.2C3,13.5,0,20.6,0,28s3,14.5,8.2,19.8C13.5,53,20.6,56,28,56
	s14.5-3,19.8-8.2C53,42.5,56,35.4,56,28S53,13.5,47.8,8.2z M37.2,31.3l-6.5,0v17.1h-7.9V31.3h-6.5v-6.9h6.5v-2.5
	c0-9.4,3.9-14.3,12.2-14.3c1.6,0,3.1,0.2,4.6,0.7v6.8c-1.2-0.3-2.4-0.4-3.6-0.4c-0.7-0.1-1.5,0-2.1,0.3c-0.7,0.3-1.3,0.7-1.7,1.3
	C31,18,30.6,20,30.7,21.9v2.4h8.9L37.2,31.3z"/>
</svg>
