<svg width="60" height="60" viewBox="0 0 60 60" fill="none" xmlns="http://www.w3.org/2000/svg">
<path d="M30 60C22.0435 60 14.4129 56.8393 8.7868 51.2132C3.16071 45.5871 0 37.9565 0 30C0 22.0435 3.16071 14.4129 8.7868 8.7868C14.4129 3.16071 22.0435 0 30 0C37.9565 0 45.5871 3.16071 51.2132 8.7868C56.8393 14.4129 60 22.0435 60 30C60 37.9565 56.8393 45.5871 51.2132 51.2132C45.5871 56.8393 37.9565 60 30 60Z" fill="#17FCC4"/>
<path d="M32.9377 33.5629V51.8707H24.5183V33.561H17.5312V26.1403H24.5183V23.4307C24.5183 13.3991 28.7029 8.12874 37.5693 8.12874C39.2329 8.11122 40.8872 8.37896 42.4603 8.92035V16.2578C41.1918 15.9583 39.8927 15.8076 38.5893 15.8087C37.8097 15.7391 37.0249 15.8597 36.3021 16.1601C35.5794 16.4604 34.9403 16.9316 34.4396 17.5333C33.2657 19.2938 32.7358 21.4058 32.9396 23.512V26.1345H42.47L39.9093 33.5552L32.9377 33.5629Z" fill="#002EA6"/>
</svg>
