<?xml version="1.0" encoding="utf-8"?>
<!-- Generator: Adobe Illustrator 27.8.0, SVG Export Plug-In . SVG Version: 6.00 Build 0)  -->
<svg version="1.1" id="Layer_1" xmlns="http://www.w3.org/2000/svg" xmlns:xlink="http://www.w3.org/1999/xlink" x="0px" y="0px"
	 viewBox="0 0 56 57" style="enable-background:new 0 0 56 57;" xml:space="preserve">
<style type="text/css">
	.st0{fill:#17FCC4;}
</style>
<path class="st0" d="M47.8,8.7C42.5,3.4,35.4,0.5,28,0.5c-5.5,0-11,1.6-15.6,4.7C7.8,8.3,4.3,12.6,2.1,17.8
	C0,22.9-0.5,28.5,0.5,33.9c1.1,5.4,3.7,10.4,7.7,14.3c3.9,3.9,8.9,6.6,14.3,7.7c5.4,1.1,11.1,0.5,16.2-1.6
	c5.1-2.1,9.5-5.7,12.6-10.3c3.1-4.6,4.7-10,4.7-15.6C56,21,53,13.9,47.8,8.7z M43.8,39c0,1.4-0.6,2.7-1.5,3.7c-1,1-2.3,1.5-3.7,1.5
	h-21c-1.4,0-2.7-0.6-3.7-1.5c-1-1-1.5-2.3-1.5-3.7v-21c0-1.4,0.6-2.7,1.5-3.7c1-1,2.3-1.5,3.7-1.5h21c1.4,0,2.7,0.6,3.7,1.5
	c1,1,1.5,2.3,1.5,3.7V39z"/>
<path class="st0" d="M30.7,19.4c-2.1-0.6-4.3-0.5-6.3,0.3c-2,0.8-3.7,2.3-4.7,4.3c-1,1.9-1.4,4.1-0.9,6.3c0.4,2.1,1.6,4.1,3.3,5.4
	c1.7,1.4,3.8,2.1,6,2.1c1.2,0,2.5-0.2,3.6-0.7c1.1-0.5,2.2-1.2,3.1-2c1.5-1.5,2.5-3.6,2.7-5.7c0.2-2.2-0.3-4.3-1.5-6.2
	C34.6,21.4,32.8,20.1,30.7,19.4z M33.2,31.9c-0.7,1-1.7,1.8-2.8,2.3c-1.1,0.5-2.4,0.6-3.6,0.4c-1.2-0.2-2.3-0.8-3.2-1.7
	c-0.9-0.9-1.5-2-1.7-3.2c-0.2-1.2-0.1-2.5,0.4-3.6c0.5-1.1,1.3-2.1,2.3-2.8c1-0.7,2.2-1,3.5-1c1.6,0,3.2,0.7,4.4,1.8
	c1.2,1.2,1.8,2.7,1.8,4.4C34.2,29.7,33.9,30.9,33.2,31.9z"/>
<path class="st0" d="M38.6,15.5c-0.4,0-0.8,0.1-1.2,0.3c-0.3,0.2-0.6,0.6-0.8,0.9c-0.2,0.4-0.2,0.8-0.1,1.2c0.1,0.4,0.3,0.8,0.6,1.1
	c0.3,0.3,0.7,0.5,1.1,0.6c0.4,0.1,0.8,0,1.2-0.1c0.4-0.2,0.7-0.4,0.9-0.8c0.2-0.3,0.3-0.7,0.3-1.2c0-0.6-0.2-1.1-0.6-1.5
	C39.7,15.7,39.1,15.5,38.6,15.5z"/>
</svg>
