<svg width="56" height="57" viewBox="0 0 56 57" fill="none" xmlns="http://www.w3.org/2000/svg">
<path d="M56 28.7341C56 34.2719 54.3578 39.6854 51.2812 44.29C48.2045 48.8946 43.8315 52.4834 38.7151 54.6027C33.5988 56.7219 27.9689 57.2764 22.5375 56.196C17.106 55.1157 12.1169 52.4489 8.20102 48.5331C4.28515 44.6172 1.61841 39.6281 0.538025 34.1966C-0.542361 28.7651 0.0121319 23.1353 2.13139 18.0189C4.25064 12.9026 7.83947 8.5296 12.444 5.45292C17.0486 2.37624 22.4621 0.73407 28 0.73407C35.4261 0.73407 42.548 3.68406 47.799 8.93508C53.05 14.1861 56 21.308 56 28.7341Z" fill="white"/>
<path d="M38.5209 44.5369H17.4793C16.0789 44.5354 14.7362 43.9785 13.7459 42.9882C12.7557 41.9979 12.1987 40.6553 12.1973 39.2548V18.2133C12.1987 16.8128 12.7557 15.4701 13.7459 14.4799C14.7362 13.4896 16.0789 12.9326 17.4793 12.9312H38.5209C39.9213 12.9326 41.264 13.4896 42.2543 14.4799C43.2445 15.4701 43.8015 16.8128 43.8029 18.2133V39.2548C43.8015 40.6553 43.2445 41.9979 42.2543 42.9882C41.264 43.9785 39.9213 44.5354 38.5209 44.5369Z" fill="#002EA6"/>
<path d="M28.0004 38.1583C25.82 38.1583 23.7071 37.4023 22.0217 36.0191C20.3363 34.6359 19.1826 32.711 18.7573 30.5726C18.3319 28.4341 18.6612 26.2143 19.689 24.2914C20.7169 22.3686 22.3796 20.8615 24.394 20.0272C26.4084 19.1928 28.6498 19.0827 30.7362 19.7156C32.8227 20.3486 34.6251 21.6854 35.8365 23.4983C37.0478 25.3112 37.593 27.488 37.3793 29.6579C37.1656 31.8277 36.2061 33.8563 34.6644 35.3981C33.7912 36.2759 32.7527 36.9719 31.6088 37.4457C30.465 37.9195 29.2385 38.1617 28.0004 38.1583ZM28.0004 22.5127C26.7699 22.5127 25.567 22.8775 24.5439 23.5612C23.5208 24.2448 22.7234 25.2164 22.2525 26.3532C21.7816 27.4901 21.6584 28.741 21.8985 29.9478C22.1385 31.1546 22.7311 32.2632 23.6011 33.1333C24.4712 34.0034 25.5798 34.5959 26.7866 34.8359C27.9935 35.076 29.2444 34.9528 30.3812 34.4819C31.518 34.011 32.4897 33.2136 33.1733 32.1905C33.8569 31.1674 34.2218 29.9646 34.2218 28.7341C34.2199 27.0846 33.5638 25.5033 32.3974 24.337C31.2311 23.1706 29.6498 22.5146 28.0004 22.5127Z" fill="white"/>
<path d="M40.6551 17.8429C40.6551 18.2535 40.5334 18.6548 40.3053 18.9961C40.0773 19.3374 39.7531 19.6035 39.3738 19.7606C38.9946 19.9177 38.5772 19.9588 38.1746 19.8787C37.772 19.7986 37.4021 19.6009 37.1118 19.3106C36.8216 19.0203 36.6239 18.6505 36.5438 18.2479C36.4637 17.8453 36.5048 17.4279 36.6619 17.0486C36.819 16.6694 37.085 16.3452 37.4264 16.1171C37.7677 15.8891 38.169 15.7673 38.5795 15.7673C39.13 15.7673 39.6579 15.986 40.0472 16.3753C40.4365 16.7645 40.6551 17.2925 40.6551 17.8429Z" fill="white"/>
</svg>
