<svg width="56" height="56" viewBox="0 0 56 56" fill="none" xmlns="http://www.w3.org/2000/svg">
<path d="M56 28C56 33.5379 54.3578 38.9514 51.2812 43.556C48.2045 48.1605 43.8315 51.7494 38.7151 53.8686C33.5988 55.9879 27.9689 56.5424 22.5375 55.462C17.106 54.3816 12.1169 51.7148 8.20102 47.799C4.28515 43.8831 1.61841 38.894 0.538025 33.4625C-0.542361 28.0311 0.0121319 22.4012 2.13139 17.2849C4.25064 12.1685 7.83947 7.79553 12.444 4.71885C17.0486 1.64217 22.4621 0 28 0C35.4261 0 42.548 2.94999 47.799 8.20101C53.05 13.452 56 20.5739 56 28Z" fill="#002EA6"/>
<path d="M38.5209 43.8028H17.4793C16.0789 43.8014 14.7362 43.2444 13.7459 42.2541C12.7557 41.2639 12.1987 39.9212 12.1973 38.5208V17.4792C12.1987 16.0788 12.7557 14.7361 13.7459 13.7458C14.7362 12.7555 16.0789 12.1986 17.4793 12.1971H38.5209C39.9213 12.1986 41.264 12.7555 42.2543 13.7458C43.2445 14.7361 43.8015 16.0788 43.8029 17.4792V38.5208C43.8015 39.9212 43.2445 41.2639 42.2543 42.2541C41.264 43.2444 39.9213 43.8014 38.5209 43.8028Z" fill="white"/>
<path d="M28.0004 37.4242C25.82 37.4242 23.7071 36.6681 22.0217 35.2849C20.3363 33.9017 19.1826 31.9769 18.7573 29.8384C18.3319 27.7 18.6612 25.4802 19.689 23.5573C20.7169 21.6344 22.3796 20.1274 24.394 19.293C26.4084 18.4587 28.6498 18.3486 30.7362 18.9815C32.8227 19.6144 34.6251 20.9513 35.8365 22.7642C37.0478 24.5771 37.593 26.7539 37.3793 28.9237C37.1656 31.0936 36.2061 33.1222 34.6644 34.6639C33.7912 35.5418 32.7527 36.2378 31.6088 36.7116C30.465 37.1854 29.2385 37.4276 28.0004 37.4242ZM28.0004 21.7785C26.7699 21.7785 25.567 22.1434 24.5439 22.827C23.5208 23.5106 22.7234 24.4823 22.2525 25.6191C21.7816 26.7559 21.6584 28.0068 21.8985 29.2137C22.1385 30.4205 22.7311 31.5291 23.6011 32.3991C24.4712 33.2692 25.5798 33.8618 26.7866 34.1018C27.9935 34.3419 29.2444 34.2187 30.3812 33.7478C31.518 33.2769 32.4897 32.4795 33.1733 31.4564C33.8569 30.4333 34.2218 29.2304 34.2218 27.9999C34.2199 26.3505 33.5638 24.7692 32.3974 23.6028C31.2311 22.4365 29.6498 21.7804 28.0004 21.7785Z" fill="#002FA7"/>
<path d="M40.6551 17.1089C40.6551 17.5195 40.5334 17.9208 40.3053 18.2621C40.0773 18.6034 39.7531 18.8695 39.3738 19.0266C38.9946 19.1837 38.5772 19.2248 38.1746 19.1447C37.772 19.0646 37.4021 18.8669 37.1118 18.5766C36.8216 18.2863 36.6239 17.9165 36.5438 17.5139C36.4637 17.1112 36.5048 16.6939 36.6619 16.3146C36.819 15.9354 37.085 15.6112 37.4264 15.3831C37.7677 15.1551 38.169 15.0333 38.5795 15.0333C39.13 15.0333 39.6579 15.252 40.0472 15.6413C40.4365 16.0305 40.6551 16.5585 40.6551 17.1089Z" fill="#002FA7"/>
</svg>
