<svg width="56" height="56" viewBox="0 0 56 56" fill="none" xmlns="http://www.w3.org/2000/svg">
<path d="M28 56C20.5739 56 13.452 53.05 8.20101 47.799C2.94999 42.548 0 35.4261 0 28C0 20.5739 2.94999 13.452 8.20101 8.20101C13.452 2.94999 20.5739 0 28 0C35.4261 0 42.548 2.94999 47.799 8.20101C53.05 13.452 56 20.5739 56 28C56 35.4261 53.05 42.548 47.799 47.799C42.548 53.05 35.4261 56 28 56Z" fill="#002EA6"/>
<path d="M19.4034 22.6327H12.8496V43.5277H19.4034V22.6327Z" fill="white"/>
<path d="M37.1184 22.169C36.8711 22.141 36.6179 22.1217 36.3589 22.1112C35.1234 22.0445 33.8903 22.2786 32.7652 22.7934C31.6401 23.3083 30.6568 24.0884 29.8997 25.067C29.7973 25.1982 29.7021 25.3349 29.6144 25.4765V22.6765H23.3477V43.575H29.9014V33.7575C29.7404 32.3225 29.9463 30.8701 30.4999 29.5365C30.7878 29.0216 31.2125 28.5964 31.7271 28.3079C32.2416 28.0194 32.826 27.8789 33.4154 27.902C33.9002 27.8694 34.3865 27.9388 34.8428 28.1059C35.2991 28.273 35.7152 28.5339 36.0644 28.8718C36.4135 29.2098 36.6879 29.6172 36.8698 30.0678C37.0516 30.5184 37.1369 31.0021 37.1202 31.4877V43.6695H43.6739V30.0422C43.6739 25.3785 41.3027 22.6205 37.1202 22.1672" fill="white"/>
<path d="M19.9266 16.128C19.9266 16.8794 19.7038 17.614 19.2863 18.2387C18.8689 18.8635 18.2755 19.3505 17.5813 19.638C16.8871 19.9256 16.1232 20.0008 15.3862 19.8542C14.6492 19.7076 13.9722 19.3458 13.4409 18.8145C12.9096 18.2831 12.5477 17.6062 12.4011 16.8692C12.2545 16.1322 12.3298 15.3683 12.6173 14.6741C12.9049 13.9799 13.3918 13.3865 14.0166 12.969C14.6414 12.5516 15.376 12.3287 16.1274 12.3287C17.135 12.3287 18.1014 12.729 18.8139 13.4415C19.5263 14.154 19.9266 15.1204 19.9266 16.128Z" fill="white"/>
</svg>
