<svg width="60" height="61" viewBox="0 0 60 61" fill="none" xmlns="http://www.w3.org/2000/svg">
<path d="M30 60.0873C24.0666 60.0873 18.2664 58.3252 13.3329 55.024C8.39943 51.7228 4.55426 47.0306 2.28363 41.5408C0.0129984 36.0511 -0.581101 30.0103 0.576455 24.1824C1.73401 18.3545 4.59123 13.0013 8.78681 8.79959C12.9824 4.59791 18.3279 1.73653 24.1473 0.577293C29.9667 -0.581947 35.9987 0.0130173 41.4805 2.28695C46.9623 4.56088 51.6476 8.41165 54.9441 13.3523C58.2405 18.2929 60 24.1016 60 30.0436C60 38.0117 56.8393 45.6534 51.2132 51.2877C45.5871 56.922 37.9565 60.0873 30 60.0873Z" fill="#17FCC4"/>
<path d="M33.0199 28.3661L44.0292 15.5615H41.4203L31.861 26.6796L24.226 15.5615H15.4199L26.9655 32.374L15.4199 45.8015H18.0289L28.1238 34.0605L36.1869 45.8015H44.993L33.0193 28.3661H33.0199ZM29.4466 32.5221L28.2767 30.8479L18.969 17.5266H22.9762L30.4877 28.2774L31.6575 29.9515L41.4216 43.9258H37.4143L29.4466 32.5227V32.5221Z" fill="#002EA6"/>
</svg>
