<svg width="57" height="56" viewBox="0 0 57 56" fill="none" xmlns="http://www.w3.org/2000/svg">
<path d="M28.5004 55.6364C23.0065 55.6364 17.636 54.0049 13.0679 50.9482C8.49991 47.8915 4.93956 43.5469 2.83713 38.4638C0.734692 33.3806 0.184599 27.7873 1.25641 22.3911C2.32822 16.9949 4.9738 12.0382 8.85859 8.14777C12.7434 4.25733 17.6929 1.6079 23.0813 0.534531C28.4696 -0.53884 34.0548 0.0120531 39.1305 2.11755C44.2063 4.22304 48.5446 7.78856 51.5968 12.3632C54.6491 16.9379 56.2782 22.3163 56.2782 27.8182C56.2782 35.196 53.3517 42.2717 48.1423 47.4886C42.933 52.7055 35.8676 55.6364 28.5004 55.6364Z" fill="#002EA6"/>
<path d="M31.2963 26.0834L41.49 14.2273H39.0744L30.2232 24.5218L23.1538 14.2273H15L25.6904 29.7944L15 42.2273H17.4157L26.7629 31.356L34.2287 42.2273H42.3825L31.2957 26.0834H31.2963ZM27.9876 29.9315L26.9045 28.3814L18.2861 16.0468H21.9966L28.9516 26.0012L30.0348 27.5513L39.0756 40.4905H35.3652L27.9876 29.9321V29.9315Z" fill="white"/>
</svg>
