<?xml version="1.0" encoding="UTF-8"?>
<svg id="Layer_2" data-name="Layer 2" xmlns="http://www.w3.org/2000/svg" viewBox="0 0 55.56 55.64">
  <defs>
    <style>
      .cls-1 {
        fill: #17fcc4;
        stroke-width: 0px;
      }
    </style>
  </defs>
  <g id="Layer_1-2" data-name="Layer 1">
    <path class="cls-1" d="m50.87,12.36c-3.05-4.57-7.39-8.14-12.47-10.25C33.33.01,27.75-.54,22.36.53c-5.39,1.07-10.34,3.72-14.22,7.61-3.88,3.89-6.53,8.85-7.6,14.24C-.54,27.79.01,33.38,2.11,38.46c2.1,5.08,5.66,9.43,10.23,12.48,4.57,3.06,9.94,4.69,15.43,4.69,7.37,0,14.43-2.93,19.64-8.15,5.21-5.22,8.14-12.29,8.14-19.67,0-5.5-1.63-10.88-4.68-15.45Zm-17.37,30.05l-7.47-10.87-9.35,10.87h-2.42l10.69-12.43-10.69-15.57h8.15l7.07,10.29,8.85-10.29h2.42l-10.19,11.86h0l11.09,16.14h-8.15Z"/>
    <polygon class="cls-1" points="29.31 27.73 28.23 26.18 21.27 16.23 17.56 16.23 26.18 28.56 27.26 30.11 27.26 30.11 34.64 40.67 38.35 40.67 29.31 27.73"/>
  </g>
</svg>