<svg width="56" height="56" viewBox="0 0 56 56" fill="none" xmlns="http://www.w3.org/2000/svg">
<path d="M27.7778 55.6364C22.2839 55.6364 16.9133 54.0049 12.3453 50.9482C7.77725 47.8915 4.2169 43.5469 2.11447 38.4638C0.0120356 33.3806 -0.538057 27.7873 0.533755 22.3911C1.60557 16.9949 4.25114 12.0382 8.13594 8.14777C12.0207 4.25733 16.9703 1.6079 22.3586 0.534531C27.747 -0.53884 33.3322 0.0120531 38.4079 2.11755C43.4836 4.22304 47.8219 7.78856 50.8742 12.3632C53.9264 16.9379 55.5556 22.3163 55.5556 27.8182C55.5556 35.196 52.629 42.2717 47.4196 47.4886C42.2103 52.7055 35.1449 55.6364 27.7778 55.6364Z" fill="#002EA6"/>
<path d="M41.5996 40.5016H13.9572C12.1841 40.5016 10.4835 39.7962 9.2297 38.5405C7.97587 37.2849 7.27148 35.5819 7.27148 33.8061V21.8304C7.27148 20.0546 7.97587 18.3516 9.2297 17.096C10.4835 15.8403 12.1841 15.1349 13.9572 15.1349H41.5996C43.3728 15.1349 45.0733 15.8403 46.3272 17.096C47.581 18.3516 48.2854 20.0546 48.2854 21.8304V33.8044C48.2854 35.5801 47.581 37.2831 46.3272 38.5388C45.0733 39.7944 43.3728 40.4999 41.5996 40.4999" fill="white"/>
<path d="M34.8372 27.8182L24.1914 21.6635V33.973L34.8372 27.8182Z" fill="#002EA6"/>
</svg>
