<?xml version="1.0" encoding="utf-8"?>
<!-- Generator: Adobe Illustrator 27.8.0, SVG Export Plug-In . SVG Version: 6.00 Build 0)  -->
<svg version="1.1" id="Layer_1" xmlns="http://www.w3.org/2000/svg" xmlns:xlink="http://www.w3.org/1999/xlink" x="0px" y="0px"
	 viewBox="0 0 56 57" style="enable-background:new 0 0 56 57;" xml:space="preserve">
<style type="text/css">
	.st0{fill:#17FCC4;}
</style>
<g>
	<path class="st0" d="M50.9,13.2C47.8,8.6,43.5,5,38.4,2.9c-5.1-2.1-10.7-2.7-16-1.6C17,2.4,12,5.1,8.1,9c-3.9,3.9-6.5,8.8-7.6,14.2
		c-1.1,5.4-0.5,11,1.6,16.1c2.1,5.1,5.7,9.4,10.2,12.5s9.9,4.7,15.4,4.7c7.4,0,14.4-2.9,19.6-8.1c5.2-5.2,8.1-12.3,8.1-19.7
		C55.6,23.1,53.9,17.8,50.9,13.2z M48.3,34.6c0,1.8-0.7,3.5-2,4.7c-1.3,1.3-3,2-4.7,2v0H14c-1.8,0-3.5-0.7-4.7-2c-1.3-1.3-2-3-2-4.7
		v-12c0-1.8,0.7-3.5,2-4.7c1.3-1.3,3-2,4.7-2h27.6c1.8,0,3.5,0.7,4.7,2c1.3,1.3,2,3,2,4.7V34.6z"/>
	<polygon class="st0" points="24.2,34.8 34.8,28.6 24.2,22.5 	"/>
</g>
</svg>
