<svg width="56" height="57" viewBox="0 0 56 57" fill="none" xmlns="http://www.w3.org/2000/svg">
<path d="M27.7778 56.0455C22.2839 56.0455 16.9133 54.414 12.3453 51.3573C7.77725 48.3006 4.2169 43.956 2.11447 38.8729C0.0120356 33.7898 -0.538057 28.1965 0.533755 22.8003C1.60557 17.4041 4.25114 12.4473 8.13594 8.55689C12.0207 4.66645 16.9703 2.01702 22.3586 0.94365C27.747 -0.129721 33.3322 0.421172 38.4079 2.52666C43.4836 4.63216 47.8219 8.19768 50.8742 12.7724C53.9264 17.347 55.5556 22.7254 55.5556 28.2273C55.5556 35.6052 52.629 42.6808 47.4196 47.8977C42.2103 53.1147 35.1449 56.0455 27.7778 56.0455Z" fill="white"/>
<path d="M41.5996 40.9107H13.9572C12.1841 40.9107 10.4835 40.2052 9.2297 38.9496C7.97587 37.6939 7.27148 35.9909 7.27148 34.2152V22.2394C7.27148 20.4637 7.97587 18.7607 9.2297 17.505C10.4835 16.2494 12.1841 15.5439 13.9572 15.5439H41.5996C43.3728 15.5439 45.0733 16.2494 46.3272 17.505C47.581 18.7607 48.2854 20.4637 48.2854 22.2394V34.2134C48.2854 35.9892 47.581 37.6922 46.3272 38.9478C45.0733 40.2035 43.3728 40.9107 41.5996 40.9107Z" fill="#002EA6"/>
<path d="M34.8372 28.2273L24.1914 22.0726V34.3821L34.8372 28.2273Z" fill="white"/>
</svg>
