<?xml version="1.0" encoding="UTF-8"?>
<svg xmlns="http://www.w3.org/2000/svg" width="472" height="60" viewBox="0 0 472 60" fill="none">
  <g clip-path="url(#clip0_2_15618)">
    <path fill-rule="evenodd" clip-rule="evenodd" d="M71.047 56.2366C71.047 58.1002 69.539 59.6604 67.6433 59.6604H3.40371C1.55106 59.6604 0 58.1435 0 56.2366V38.4239C0 36.5602 1.50797 35 3.40371 35H67.6863C69.539 35 71.09 36.5169 71.09 38.4239V56.2366H71.047Z" fill="#939598" stroke="#939598" stroke-width="1.175" stroke-miterlimit="10"></path>
    <path fill-rule="evenodd" clip-rule="evenodd" d="M24.9031 35H3.40371C1.55106 35 0 36.5169 0 38.4239V56.2366C0 58.1002 1.50797 59.6604 3.40371 59.6604H24.9031V35Z" fill="white"></path>
    <path fill-rule="evenodd" clip-rule="evenodd" d="M11.8052 42.6709L10.7281 44.1445C10.211 44.8812 10.3403 46.1814 11.0727 46.7015L13.0546 48.1317C13.3993 48.3918 13.3993 48.6085 13.2701 48.8685L13.5717 49.0852L14.5626 47.6983C15.1658 46.8315 15.1227 45.6614 14.2179 45.0113L12.236 43.581C11.9775 43.4077 11.9775 43.1476 12.1068 42.8876L11.8052 42.6709Z" fill="#939598"></path>
    <path fill-rule="evenodd" clip-rule="evenodd" d="M13.4855 36.1699L11.8483 38.4669C11.0728 39.5504 11.3744 41.3707 12.4084 42.1508L15.1228 44.1445C15.6829 44.5345 15.7259 45.5747 15.3382 46.0948L15.5536 46.2681L17.4063 43.6244C18.2249 42.4542 18.1818 40.6773 16.8892 39.7238L14.0025 37.6001C13.6148 37.2968 13.3994 36.82 13.744 36.2999L13.4855 36.1699Z" fill="#939598"></path>
    <path fill-rule="evenodd" clip-rule="evenodd" d="M9.177 50.5593H11.3743L11.7621 51.9029C12.9685 51.9029 14.1318 51.9029 15.3381 51.9029L15.7259 50.5593H17.9232L17.6216 49.5625C14.9073 49.5625 12.1929 49.5625 9.4786 49.5625L9.177 50.5593Z" fill="#939598"></path>
    <path fill-rule="evenodd" clip-rule="evenodd" d="M20.4223 57.4064V57.3631C20.4223 57.3631 20.4223 57.3197 20.3792 57.3197C20.3361 57.3197 20.3361 57.2764 20.3361 57.2764C20.3361 57.2764 20.293 57.2331 20.25 57.2331C20.2069 57.2331 20.2069 57.2331 20.1638 57.1897C20.1638 57.1897 20.1207 57.1897 20.1207 57.1464C20.1207 57.1464 20.1207 57.1464 20.1207 57.103C20.1207 57.103 20.1207 57.103 20.1207 57.0597C20.1207 57.0597 20.1207 57.0597 20.1207 57.0164C20.1207 57.0164 20.1207 57.0164 20.1207 56.973C20.1207 56.973 20.1207 56.973 20.1638 56.973H20.2069C20.25 56.973 20.25 56.973 20.293 56.973C20.293 56.973 20.3361 56.973 20.3361 57.0164L20.3792 56.973C20.3361 56.973 20.3361 56.9297 20.293 56.9297C20.25 56.9297 20.25 56.9297 20.2069 56.9297C20.1638 56.9297 20.1638 56.9297 20.1207 56.9297C20.0776 56.9297 20.0776 56.9297 20.0776 56.973L20.0345 57.0164V57.0597V57.103C20.0345 57.103 20.0345 57.1464 20.0776 57.1464L20.1207 57.1897C20.1207 57.1897 20.1638 57.1897 20.2069 57.2331C20.25 57.2331 20.25 57.2331 20.25 57.2764C20.25 57.2764 20.293 57.2764 20.293 57.3197C20.293 57.3197 20.293 57.3197 20.3361 57.3631V57.4064C20.3361 57.4498 20.3361 57.4498 20.293 57.4931C20.25 57.4931 20.25 57.5364 20.2069 57.5364C20.1638 57.5364 20.1638 57.5364 20.1207 57.5364C20.0776 57.5364 20.0776 57.4931 20.0345 57.4931L19.9915 57.5364C20.0345 57.5798 20.0345 57.5798 20.0776 57.5798C20.1207 57.5798 20.1638 57.5798 20.1638 57.5798C20.2069 57.5798 20.2069 57.5798 20.25 57.5798C20.293 57.5798 20.293 57.5798 20.293 57.5364L20.3361 57.4931C20.4223 57.4498 20.4223 57.4064 20.4223 57.4064Z" fill="#939598"></path>
    <path fill-rule="evenodd" clip-rule="evenodd" d="M21.0253 57.5371V56.9736H20.9392L20.8099 57.3204C20.8099 57.3204 20.8099 57.3204 20.8099 57.3637C20.8099 57.3637 20.8099 57.3637 20.8099 57.407C20.8099 57.407 20.8099 57.407 20.8099 57.4504C20.8099 57.4504 20.8099 57.4504 20.8099 57.4937C20.8099 57.4937 20.8099 57.4937 20.8099 57.4504C20.8099 57.4504 20.8099 57.4504 20.8099 57.407C20.8099 57.407 20.8099 57.407 20.8099 57.3637L20.6807 57.017H20.5945V57.5804H20.6376V57.1903V57.147C20.6376 57.147 20.6376 57.147 20.6376 57.1903C20.6376 57.1903 20.6376 57.1903 20.6376 57.2337C20.6376 57.2337 20.6376 57.2337 20.6376 57.277L20.7668 57.6237L20.8961 57.277C20.8961 57.277 20.8961 57.277 20.8961 57.2337C20.8961 57.2337 20.8961 57.2337 20.8961 57.1903C20.8961 57.1903 20.8961 57.1903 20.8961 57.147V57.1903V57.5804H21.0253V57.5371Z" fill="#939598"></path>
    <path fill-rule="evenodd" clip-rule="evenodd" d="M11.0297 56.0194C10.9435 55.3693 10.685 55.2393 10.168 55.0226C10.5558 54.8059 10.7712 54.4592 10.7712 54.0258C10.7712 53.1156 10.0388 52.7256 9.22015 52.7256H6.97974V57.5363H9.22015C10.2111 57.5363 11.2021 57.1463 11.0297 56.0194ZM8.01377 53.6357H9.17706C9.90951 53.6357 9.95259 54.6759 9.22015 54.6759H8.01377V53.6357ZM9.30632 56.6262H8.01377V55.5427H9.30632C10.2973 55.5427 10.2111 56.6262 9.30632 56.6262Z" fill="#939598"></path>
    <path fill-rule="evenodd" clip-rule="evenodd" d="M15.5107 56.0194C15.4245 55.3693 15.166 55.2393 14.649 55.0226C15.0367 54.8059 15.2522 54.4592 15.2522 54.0258C15.2522 53.1156 14.5197 52.7256 13.7011 52.7256H11.4607V57.5363H13.7011C14.6921 57.5363 15.683 57.1463 15.5107 56.0194ZM12.4947 53.6357H13.658C14.3905 53.6357 14.4336 54.6759 13.7011 54.6759H12.4947V53.6357ZM13.8304 56.6262H12.5378V55.5427H13.8304C14.7782 55.5427 14.7351 56.6262 13.8304 56.6262Z" fill="#939598"></path>
    <path fill-rule="evenodd" clip-rule="evenodd" d="M19.9914 56.0194C19.9052 55.3693 19.6467 55.2393 19.1297 55.0226C19.5175 54.8059 19.7329 54.4592 19.7329 54.0258C19.7329 53.1156 19.0004 52.7256 18.1818 52.7256H15.9414V57.5363H18.1818C19.1728 57.5363 20.1637 57.1463 19.9914 56.0194ZM16.9754 53.6357H18.1387C18.8712 53.6357 18.9143 54.6759 18.1818 54.6759H16.9754V53.6357ZM18.3111 56.6262H17.0185V55.5427H18.3111C19.2589 55.5427 19.2159 56.6262 18.3111 56.6262Z" fill="#939598"></path>
    <path fill-rule="evenodd" clip-rule="evenodd" d="M36.019 44.4914C35.7605 44.188 35.3296 43.8847 34.8988 43.7546C34.7265 43.7113 34.511 43.668 34.2956 43.668C33.994 43.668 33.7355 43.7113 33.477 43.8413C33.2185 43.9713 33.0031 44.1014 32.8307 44.3181C32.6584 44.5348 32.5291 44.7515 32.3999 45.0548C32.3137 45.3149 32.2275 45.6616 32.2275 45.965C32.2275 46.3117 32.2706 46.6151 32.3568 46.9185C32.443 47.1785 32.5722 47.4385 32.7876 47.6552C32.96 47.8719 33.1754 48.002 33.4339 48.132C33.6924 48.2187 33.9509 48.3053 34.2525 48.3053C34.8126 48.3053 35.7605 48.002 36.0621 47.4385L35.4589 46.7884C35.2866 47.0918 34.6834 47.3519 34.3387 47.3519C34.1664 47.3519 33.994 47.3085 33.8648 47.2652C33.7355 47.1785 33.6063 47.0918 33.5201 46.9618C33.4339 46.8318 33.3477 46.7018 33.3047 46.5284C33.2616 46.355 33.2185 46.1817 33.2185 45.965C33.2185 45.7483 33.2616 45.5749 33.3047 45.4016C33.3477 45.2282 33.4339 45.0982 33.5201 44.9682C33.6063 44.8381 33.7355 44.7515 33.8648 44.6648C33.994 44.5781 34.1664 44.5781 34.3387 44.5781C34.6834 44.5781 35.1573 44.7948 35.4158 45.0982L36.019 44.4914Z" fill="white"></path>
    <path fill-rule="evenodd" clip-rule="evenodd" d="M48.6858 48.1756V47.3088H46.3162V46.2686H48.255V45.4018H46.3162V44.6217H48.5997V43.7549H45.4114V48.1756H48.6858Z" fill="white"></path>
    <path fill-rule="evenodd" clip-rule="evenodd" d="M52.9513 44.9684C52.822 44.7084 52.6928 44.4483 52.4774 44.275C52.2619 44.1016 52.0465 43.9716 51.7449 43.8849C51.4864 43.7982 51.1417 43.7549 50.8401 43.7549H49.3752V48.1756H50.754C51.0556 48.1756 51.3572 48.1322 51.6157 48.0455C51.9173 47.9589 52.1327 47.8288 52.3912 47.6555C52.6066 47.4821 52.779 47.2654 52.9082 46.962C53.0375 46.702 53.1236 46.3553 53.1236 45.9652C53.1236 45.5752 53.0805 45.2284 52.9513 44.9684ZM52.0896 46.5286C52.0465 46.702 51.9603 46.832 51.8311 46.962C51.7018 47.0921 51.5726 47.1787 51.4002 47.2221C51.2279 47.3088 51.0125 47.3088 50.754 47.3088H50.28V44.6217H50.754C51.2279 44.6217 51.6157 44.7517 51.8311 44.9684C52.0465 45.1851 52.1758 45.5318 52.1758 45.9652C52.1758 46.1819 52.1758 46.3553 52.0896 46.5286Z" fill="white"></path>
    <path fill-rule="evenodd" clip-rule="evenodd" d="M54.9764 48.1756V43.7549H54.0286V48.1756H54.9764Z" fill="white"></path>
    <path fill-rule="evenodd" clip-rule="evenodd" d="M59.2848 44.6217V43.7549H55.7087V44.6217H57.0013V48.1756H57.9492V44.6217H59.2848Z" fill="white"></path>
    <path fill-rule="evenodd" clip-rule="evenodd" d="M67.4279 44.9684C67.2986 44.7084 67.1693 44.4483 66.9539 44.275C66.7385 44.1016 66.5231 43.9716 66.2215 43.8849C65.963 43.7982 65.6183 43.7549 65.3167 43.7549H63.8518V48.1756H65.2305C65.5321 48.1756 65.8337 48.1322 66.0922 48.0455C66.3938 47.9589 66.6092 47.8288 66.8677 47.6555C67.0832 47.4821 67.2555 47.2654 67.3848 46.962C67.514 46.702 67.6002 46.3553 67.6002 45.9652C67.6002 45.5752 67.5571 45.2284 67.4279 44.9684ZM66.5662 46.5286C66.5231 46.702 66.4369 46.832 66.3076 46.962C66.1784 47.0921 66.0491 47.1787 65.8768 47.2221C65.7045 47.3088 65.489 47.3088 65.2305 47.3088H64.7997V44.6217H65.2736C65.7475 44.6217 66.1353 44.7517 66.3507 44.9684C66.5662 45.1851 66.6954 45.5318 66.6954 45.9652C66.6523 46.1819 66.6523 46.3553 66.5662 46.5286Z" fill="white"></path>
    <path fill-rule="evenodd" clip-rule="evenodd" d="M63.1625 48.1756V47.3088H60.7928V46.2686H62.6886V45.4018H60.7928V44.6217H63.0763V43.7549H59.845V48.1756H63.1625Z" fill="white"></path>
    <path fill-rule="evenodd" clip-rule="evenodd" d="M55.4503 53.8963V53.0295H53.0376V51.946H54.9764V51.0792H53.0376V50.3424H55.3211V49.4756H52.1328V53.8963H55.4503Z" fill="white"></path>
    <path fill-rule="evenodd" clip-rule="evenodd" d="M40.3276 44.4914C40.0691 44.188 39.6382 43.8847 39.2074 43.7546C39.0351 43.7113 38.8196 43.668 38.6042 43.668C38.3026 43.668 38.0441 43.7113 37.7856 43.8413C37.5271 43.9713 37.3117 44.1014 37.1393 44.3181C36.967 44.5348 36.8377 44.7515 36.7085 45.0548C36.6223 45.3149 36.5361 45.6616 36.5361 45.965C36.5361 46.3117 36.5792 46.6151 36.6654 46.9185C36.7516 47.1785 36.8808 47.4385 37.0962 47.6552C37.2686 47.8719 37.484 48.002 37.7425 48.132C38.001 48.2187 38.2595 48.3053 38.5611 48.3053C39.1212 48.3053 40.0691 48.002 40.3707 47.4385L39.7244 46.7884C39.5521 47.0918 38.9489 47.3519 38.6042 47.3519C38.4319 47.3519 38.2595 47.3085 38.1303 47.2652C38.001 47.1785 37.8718 47.0918 37.7856 46.9618C37.6994 46.8318 37.6133 46.7018 37.5702 46.5284C37.5271 46.355 37.484 46.1817 37.484 45.965C37.484 45.7483 37.5271 45.5749 37.5702 45.4016C37.6133 45.2282 37.6994 45.0982 37.7856 44.9682C37.8718 44.8381 38.001 44.7515 38.1303 44.6648C38.2595 44.5781 38.4319 44.5781 38.6042 44.5781C38.9489 44.5781 39.4228 44.7948 39.6813 45.0982L40.3276 44.4914Z" fill="white"></path>
    <path fill-rule="evenodd" clip-rule="evenodd" d="M36.3638 51.8593C36.2345 51.6859 36.1053 51.5992 35.9329 51.5126C36.0622 51.4259 36.1914 51.2959 36.2776 51.1658C36.3638 51.0358 36.4069 50.8625 36.4069 50.6458C36.4069 50.2557 36.2776 49.9957 36.0191 49.779C35.7606 49.5623 35.4159 49.4756 34.9851 49.4756H32.917V53.8963H34.9851C35.2436 53.8963 35.459 53.8529 35.6313 53.8096C35.8468 53.7662 35.976 53.6796 36.1484 53.5495C36.2776 53.4195 36.4069 53.2895 36.493 53.1161C36.5792 52.9428 36.6223 52.7261 36.6223 52.5094C36.5361 52.206 36.45 52.0326 36.3638 51.8593ZM33.7787 50.299H34.942C35.1574 50.299 35.2867 50.3424 35.3728 50.3857C35.459 50.4724 35.5021 50.5591 35.5021 50.6891C35.5021 50.8191 35.459 50.9058 35.3728 50.9925C35.2867 51.0792 35.1574 51.1225 34.9851 51.1225H33.7787V50.299ZM35.459 52.8994C35.3728 52.9861 35.2005 53.0728 34.9851 53.0728H33.7787V51.946H34.9851C35.4159 51.946 35.6313 52.1193 35.6313 52.5094C35.5883 52.6394 35.5452 52.7694 35.459 52.8994Z" fill="white"></path>
    <path fill-rule="evenodd" clip-rule="evenodd" d="M40.8015 51.946V49.4756H39.8967V51.946C39.8967 52.2927 39.8105 52.5961 39.6382 52.7694C39.4659 52.9861 39.2504 53.0728 38.9488 53.0728C38.6472 53.0728 38.4318 52.9861 38.2595 52.7694C38.0871 52.5527 38.001 52.2927 38.001 51.946V49.4756H37.0962V51.946C37.0962 52.2493 37.1393 52.5527 37.2254 52.8128C37.3116 53.0728 37.4409 53.2895 37.6132 53.4195C37.7856 53.5929 37.9579 53.7229 38.1733 53.8096C38.3887 53.8963 38.6472 53.9396 38.9058 53.9396C39.4659 53.9396 39.9398 53.7662 40.2414 53.4195C40.6292 53.0728 40.8015 52.5961 40.8015 51.946Z" fill="white"></path>
    <path fill-rule="evenodd" clip-rule="evenodd" d="M44.9376 52.5527C44.9376 52.2927 44.8946 52.1193 44.8084 51.946C44.7222 51.7726 44.593 51.6426 44.4637 51.5559C44.3345 51.4692 44.1621 51.3825 43.9898 51.3392C43.8174 51.2959 43.6451 51.2525 43.4728 51.2092C43.3004 51.1658 43.1281 51.1225 43.0419 51.0792C42.9127 51.0358 42.8265 50.9925 42.7834 50.9925C42.6972 50.9491 42.6541 50.9058 42.6541 50.8625C42.6111 50.8191 42.6111 50.7758 42.6111 50.6891C42.6111 50.6458 42.6111 50.6024 42.6541 50.5591C42.6541 50.5157 42.6972 50.4724 42.7834 50.4291C42.8265 50.3857 42.9127 50.3424 42.9988 50.3424C43.085 50.299 43.1712 50.299 43.3004 50.299C43.5158 50.299 43.6882 50.3424 43.8605 50.4291C44.0329 50.5157 44.1621 50.6024 44.3345 50.7758L44.9807 50.169C44.7653 49.9523 44.5068 49.779 44.2483 49.6489C43.9898 49.5189 43.6882 49.4756 43.3435 49.4756C43.1281 49.4756 42.9126 49.5189 42.6972 49.5623C42.4818 49.6056 42.3525 49.6923 42.1802 49.8223C42.051 49.9523 41.9217 50.0823 41.8355 50.2124C41.7494 50.3857 41.7063 50.5591 41.7063 50.7758C41.7063 50.9925 41.7494 51.1658 41.7924 51.3392C41.8786 51.4692 41.9648 51.5992 42.094 51.6859C42.2233 51.7726 42.3525 51.8593 42.5249 51.946C42.6972 51.9893 42.8696 52.076 43.085 52.1193C43.3004 52.1627 43.4728 52.206 43.602 52.2493C43.7313 52.2927 43.8174 52.336 43.9036 52.3794C43.9898 52.4227 44.0329 52.466 44.0329 52.5094C44.0759 52.5527 44.0759 52.6394 44.0759 52.6827C44.0759 52.8561 44.0329 52.9861 43.9036 53.0295C43.7743 53.1161 43.5589 53.1595 43.3004 53.1595C43.085 53.1595 42.8696 53.1161 42.6972 53.0295C42.4818 52.9428 42.3095 52.8128 42.1802 52.6394L41.5339 53.2028C41.7063 53.4629 41.9648 53.6362 42.2664 53.8096C42.568 53.9396 42.9127 54.0263 43.3004 54.0263C43.602 54.0263 43.8605 53.9829 44.0759 53.9396C44.2914 53.8529 44.4637 53.7662 44.636 53.6362C44.7653 53.5062 44.8946 53.3762 44.9376 53.2028C44.8946 52.9428 44.9376 52.7694 44.9376 52.5527Z" fill="white"></path>
    <path fill-rule="evenodd" clip-rule="evenodd" d="M46.5747 53.8963V49.4756H45.6699V53.8963H46.5747Z" fill="white"></path>
    <path fill-rule="evenodd" clip-rule="evenodd" d="M51.1417 53.8963V49.4756H50.2369V51.3392C50.2369 51.3825 50.2369 51.4692 50.2369 51.5559C50.2369 51.6426 50.2369 51.7293 50.2369 51.8593C50.2369 51.946 50.2369 52.0326 50.2369 52.1193C50.2369 52.206 50.2369 52.2493 50.2369 52.2927C50.1938 52.2493 50.1508 52.1627 50.1077 52.076C50.0646 51.9893 49.9784 51.9026 49.9353 51.8159L48.3412 49.4756H47.4795V53.8963H48.3843V51.946C48.3843 51.9026 48.3843 51.8159 48.3843 51.7293C48.3843 51.6426 48.3843 51.5559 48.3843 51.4692C48.3843 51.3825 48.3843 51.2959 48.3843 51.2092C48.3843 51.1225 48.3843 51.0792 48.3843 51.0358C48.4274 51.0792 48.4704 51.1658 48.5135 51.2525C48.5566 51.3392 48.6428 51.4259 48.6859 51.5126L50.3231 53.9396H51.1417V53.8963Z" fill="white"></path>
    <path fill-rule="evenodd" clip-rule="evenodd" d="M59.1124 52.5527C59.1124 52.2927 59.0694 52.1193 58.9832 51.946C58.897 51.7726 58.7678 51.6426 58.6385 51.5559C58.5093 51.4692 58.3369 51.3825 58.1646 51.3392C57.9922 51.2959 57.8199 51.2525 57.6476 51.2092C57.4752 51.1658 57.3029 51.1225 57.2167 51.0792C57.0875 51.0358 57.0013 50.9925 56.9582 50.9925C56.872 50.9491 56.8289 50.9058 56.8289 50.8625C56.7859 50.8191 56.7859 50.7758 56.7859 50.6891C56.7859 50.6458 56.7859 50.6024 56.8289 50.5591C56.872 50.5157 56.872 50.4724 56.9582 50.4291C57.0013 50.3857 57.0875 50.3424 57.1736 50.3424C57.2598 50.299 57.346 50.299 57.4752 50.299C57.6906 50.299 57.863 50.3424 58.0353 50.4291C58.2077 50.5157 58.3369 50.6024 58.5093 50.7758L59.1555 50.169C58.9401 49.9523 58.6816 49.779 58.4231 49.6489C58.1646 49.5189 57.863 49.4756 57.5183 49.4756C57.3029 49.4756 57.0875 49.5189 56.872 49.5623C56.6566 49.6056 56.5274 49.6923 56.355 49.8223C56.2258 49.9523 56.0965 50.0823 56.0103 50.2124C55.9242 50.3857 55.8811 50.5591 55.8811 50.7758C55.8811 50.9925 55.9242 51.1658 55.9673 51.3392C56.0534 51.4692 56.1396 51.5992 56.2688 51.6859C56.3981 51.7726 56.5274 51.8593 56.6997 51.946C56.872 51.9893 57.0444 52.076 57.2598 52.1193C57.4752 52.1627 57.6476 52.206 57.7768 52.2493C57.9061 52.2927 57.9922 52.336 58.0784 52.3794C58.1646 52.4227 58.2077 52.466 58.2077 52.5094C58.2507 52.5527 58.2508 52.6394 58.2508 52.6827C58.2508 52.8561 58.2077 52.9861 58.0784 53.0295C57.9492 53.1161 57.7337 53.1595 57.4752 53.1595C57.2598 53.1595 57.0444 53.1161 56.872 53.0295C56.6566 52.9428 56.4843 52.8128 56.355 52.6394L55.7087 53.2028C55.8811 53.4629 56.1396 53.6362 56.4412 53.8096C56.7428 53.9396 57.0875 54.0263 57.4752 54.0263C57.7768 54.0263 58.0353 53.9829 58.2508 53.9396C58.4662 53.8529 58.6385 53.7662 58.8109 53.6362C58.9401 53.5062 59.0694 53.3762 59.1124 53.2028C59.0694 52.9428 59.1124 52.7694 59.1124 52.5527Z" fill="white"></path>
    <path fill-rule="evenodd" clip-rule="evenodd" d="M62.9901 52.5527C62.9901 52.2927 62.947 52.1193 62.8609 51.946C62.7747 51.7726 62.6455 51.6426 62.5162 51.5559C62.3869 51.4692 62.2146 51.3825 62.0423 51.3392C61.8699 51.2959 61.6976 51.2525 61.5252 51.2092C61.3529 51.1658 61.1806 51.1225 61.0944 51.0792C60.9651 51.0358 60.879 50.9925 60.8359 50.9925C60.7497 50.9491 60.7066 50.9058 60.7066 50.8625C60.6636 50.8191 60.6635 50.7758 60.6635 50.6891C60.6635 50.6458 60.6636 50.6024 60.7066 50.5591C60.7497 50.5157 60.7497 50.4724 60.8359 50.4291C60.879 50.3857 60.9651 50.3424 61.0513 50.3424C61.1375 50.299 61.2237 50.299 61.3529 50.299C61.5683 50.299 61.7407 50.3424 61.913 50.4291C62.0854 50.5157 62.2146 50.6024 62.3869 50.7758L63.0332 50.169C62.8178 49.9523 62.5593 49.779 62.3008 49.6489C62.0423 49.5189 61.7407 49.4756 61.396 49.4756C61.1806 49.4756 60.9651 49.5189 60.7497 49.5623C60.5343 49.6056 60.405 49.6923 60.2327 49.8223C60.1034 49.9523 59.9742 50.0823 59.888 50.2124C59.8019 50.3857 59.7588 50.5591 59.7588 50.7758C59.7588 50.9925 59.8019 51.1658 59.8449 51.3392C59.9311 51.4692 60.0173 51.5992 60.1465 51.6859C60.2758 51.7726 60.405 51.8593 60.5774 51.946C60.7497 51.9893 60.9221 52.076 61.1375 52.1193C61.3529 52.1627 61.5252 52.206 61.6545 52.2493C61.7838 52.2927 61.8699 52.336 61.9561 52.3794C62.0423 52.4227 62.0853 52.466 62.0853 52.5094C62.1284 52.5527 62.1284 52.6394 62.1284 52.6827C62.1284 52.8561 62.0853 52.9861 61.9561 53.0295C61.8268 53.1161 61.6114 53.1595 61.3529 53.1595C61.1375 53.1595 60.9221 53.1161 60.7497 53.0295C60.5343 52.9428 60.362 52.8128 60.2327 52.6394L59.5864 53.2028C59.7588 53.4629 60.0173 53.6362 60.3189 53.8096C60.6205 53.9396 60.9651 54.0263 61.3529 54.0263C61.6545 54.0263 61.913 53.9829 62.1284 53.9396C62.3439 53.8529 62.5162 53.7662 62.6885 53.6362C62.8178 53.5062 62.947 53.3762 62.9901 53.2028C62.947 52.9428 62.9901 52.7694 62.9901 52.5527Z" fill="white"></path>
    <path fill-rule="evenodd" clip-rule="evenodd" d="M30.3749 43.7549H29.4701L27.7036 48.1756H28.6946L29.0392 47.1787H30.7626L31.1073 48.1756H32.1414L30.3749 43.7549ZM29.3839 46.3553L29.6855 45.5752C29.7286 45.4451 29.7717 45.3151 29.8148 45.1851C29.8579 45.0551 29.9009 44.9684 29.9009 44.8817C29.944 44.9684 29.944 45.0551 29.9871 45.1851C30.0302 45.3151 30.0733 45.4451 30.1164 45.5752L30.418 46.3553H29.3839Z" fill="white"></path>
    <path fill-rule="evenodd" clip-rule="evenodd" d="M43.7743 46.5283C44.0759 46.3982 44.3775 46.2249 44.5498 46.0082C44.6791 45.7915 44.7652 45.5314 44.7652 45.1847C44.7652 44.968 44.7221 44.7513 44.636 44.578C44.5498 44.4046 44.4206 44.2746 44.2913 44.1446C44.162 44.0146 43.9897 43.9279 43.7743 43.8845C43.6019 43.8412 43.3865 43.7979 43.1711 43.7979H41.0168V48.2185H41.9216V46.6149L42.7402 46.6583L43.6881 48.2185H44.7652L43.7743 46.5283ZM43.1711 45.7481H41.9647V44.6213H43.1711C43.3865 44.6213 43.5589 44.6646 43.645 44.7513C43.7743 44.838 43.8174 44.968 43.8174 45.1847C43.8174 45.5748 43.6019 45.7481 43.1711 45.7481Z" fill="white"></path>
    <path d="M90.7366 56.6264C95.8526 56.6264 99.9999 52.4546 99.9999 47.3083C99.9999 42.1621 95.8526 37.9902 90.7366 37.9902C85.6207 37.9902 81.4734 42.1621 81.4734 47.3083C81.4734 52.4546 85.6207 56.6264 90.7366 56.6264Z" fill="#939598"></path>
    <path d="M90.1766 50.5591H88.7979L88.2378 49.1289H85.7389L85.2219 50.5591H83.8862L86.3421 44.2314H87.6777L90.1766 50.5591ZM87.85 48.0454L86.9883 45.705L86.1266 48.0454H87.85Z" fill="white"></path>
    <path d="M94.356 49.6492V48.0023H92.7188V46.8754H94.356V45.2285H95.4331V46.8754H97.0703V48.0023H95.4331V49.6492H94.356Z" fill="white"></path>
  </g>
  <path d="M184.531 44.9233C188.231 41.2013 188.516 37.9564 188.516 36.3339C188.516 36.0476 188.516 35.7613 188.516 35.475C188.137 30.8939 185.006 24.6904 173.905 24.6904C167.453 24.6904 158.156 24.6904 158.156 24.6904V58.9528H168.497V34.3297H174H175.708C177.605 34.3297 179.028 34.9978 179.028 36.5248C179.028 37.002 178.839 37.4792 178.554 37.9564C177.795 38.7199 171.343 45.2097 170.964 45.5914C170.395 46.164 170.679 46.7367 171.249 47.2139C171.533 47.5002 182.918 58.9528 182.918 58.9528H188.896L190.983 56.9486V53.7991V51.1268C190.793 51.1268 187.662 47.9774 184.531 44.9233ZM188.421 56.5668C188.231 56.7577 187.947 56.8531 187.662 56.8531C187.378 56.8531 187.093 56.7577 186.903 56.5668C186.524 56.1851 186.524 55.517 186.903 55.0398C187.283 54.6581 188.042 54.6581 188.421 55.0398C188.896 55.517 188.896 56.1851 188.421 56.5668Z" fill="#939598"></path>
  <path d="M144.588 24.5957V41.9655C139.085 32.6125 134.626 25.5501 134.531 25.4546C134.342 25.1683 134.152 24.6911 133.677 24.6911H124.664C124 24.6911 124 25.1683 124 25.5501V59.0489H133.583V42.2518L144.209 58.4763C144.209 58.4763 144.493 59.0489 144.968 59.0489C145.442 59.0489 144.778 59.0489 145.632 59.0489C146.011 59.0489 146.296 59.0489 146.676 59.0489C149.617 59.0489 153.317 59.0489 153.602 59.0489C153.602 59.0489 153.602 59.0489 153.507 59.0489C153.791 59.0489 154.076 58.7626 154.076 58.19V24.5957H144.588Z" fill="#939598"></path>
  <path d="M219.256 34.1393V24.5C219.256 24.5 210.338 24.5 203.127 24.5H193.829C193.165 24.5 193.165 24.9772 193.165 25.3589V26.2179V58.8578H202.558V48.6459H213.374V39.2929H202.558V34.1393H219.256Z" fill="#939598"></path>
  <path d="M222.102 24.5C221.059 24.5 220.205 25.3589 220.205 26.4088C220.205 27.4586 221.059 28.3175 222.102 28.3175C223.146 28.3175 224 27.4586 224 26.4088C224 25.3589 223.146 24.5 222.102 24.5ZM222.102 28.0312C221.248 28.0312 220.489 27.2677 220.489 26.4088C220.489 25.5498 221.248 24.7863 222.102 24.7863C222.956 24.7863 223.715 25.5498 223.715 26.4088C223.715 27.2677 222.956 28.0312 222.102 28.0312Z" fill="#939598"></path>
  <path d="M222.956 27.4583C222.956 27.4583 222.956 27.3629 222.861 27.3629C222.861 27.2674 222.767 27.172 222.767 27.172C222.672 26.9811 222.577 26.8857 222.482 26.7902C222.387 26.6948 222.387 26.6948 222.292 26.5994C222.482 26.5994 222.577 26.5039 222.672 26.4085C222.767 26.313 222.861 26.1222 222.861 26.0267C222.861 25.9313 222.861 25.8359 222.767 25.8359C222.767 25.7404 222.672 25.7404 222.672 25.645C222.577 25.5495 222.482 25.5495 222.292 25.4541C222.197 25.4541 222.102 25.4541 221.723 25.4541H221.249V26.5039V27.5537H221.438H221.628V27.0766V26.5994H221.723C221.913 26.5994 221.913 26.5994 222.008 26.5994C222.102 26.5994 222.197 26.6948 222.292 26.8857C222.387 26.9811 222.387 26.9811 222.482 27.2674V27.3629V27.4583V27.5537H222.672L222.956 27.4583ZM222.102 26.313C222.102 26.313 222.008 26.313 221.818 26.313H221.533V26.0267V25.7404H221.818C222.008 25.7404 222.102 25.7404 222.102 25.7404C222.197 25.7404 222.197 25.7404 222.292 25.7404C222.387 25.7404 222.387 25.8359 222.482 25.9313C222.482 25.9313 222.482 25.9313 222.482 26.0267C222.482 26.1222 222.482 26.1222 222.387 26.2176C222.387 26.2176 222.387 26.2176 222.292 26.2176C222.292 26.313 222.197 26.313 222.102 26.313Z" fill="#939598"></path>
  <path d="M263.967 51.8914L262.944 48.4937H255.165L254.141 51.8914H248.512L256.393 30.6816H261.92L269.699 51.8914H263.967ZM259.054 35.7267L256.495 44.6842H261.818L259.054 35.7267Z" fill="#939598"></path>
  <path d="M284.336 51.8914V42.8309H276.659V51.8914H271.337V30.6816H276.659V38.3007H284.336V30.6816H289.658V51.8914H284.336Z" fill="#939598"></path>
  <path d="M293.138 51.8914V30.6816H298.461V47.4641H306.649V51.8914H293.138Z" fill="#939598"></path>
  <path d="M323.742 51.8914L322.719 48.4937H314.94L313.916 51.8914H308.287L316.168 30.6816H321.695L329.474 51.8914H323.742ZM318.727 35.7267L316.168 44.6842H321.49L318.727 35.7267Z" fill="#939598"></path>
  <path d="M248.409 59.3041H248L249.433 56.1123H249.74L251.173 59.3041H250.764L250.456 58.4804H248.819L248.409 59.3041ZM248.921 58.1715H250.354L249.638 56.5241L248.921 58.1715Z" fill="#939598"></path>
  <path d="M253.22 58.6867L254.346 56.0098H254.755V59.3045H254.448V56.5246L253.322 59.3045H253.118L251.992 56.5246V59.3045H251.685V56.0098H252.094L253.22 58.6867Z" fill="#939598"></path>
  <path d="M256.086 58.9956H257.826V59.3045H255.779V56.0098H257.724V56.3186H256.086V57.4512H257.621V57.7601H256.086V58.9956Z" fill="#939598"></path>
  <path d="M258.85 59.3041H258.542V56.1123H259.566C259.873 56.1123 260.18 56.2153 260.282 56.3182C260.487 56.4212 260.59 56.6271 260.59 56.936C260.59 57.1419 260.487 57.3478 260.385 57.4508C260.282 57.5537 260.078 57.6567 259.771 57.7597L260.692 59.3041H260.282L259.361 57.8626H258.85V59.3041ZM258.85 57.4508H259.464C259.566 57.4508 259.771 57.4508 259.873 57.4508C259.975 57.4508 260.078 57.3478 260.078 57.3478C260.18 57.3478 260.18 57.2449 260.18 57.1419C260.18 57.0389 260.18 57.0389 260.18 56.936C260.18 56.833 260.18 56.833 260.18 56.7301C260.18 56.6271 260.078 56.6271 260.078 56.5241C259.975 56.5241 259.975 56.4212 259.873 56.4212C259.771 56.4212 259.668 56.4212 259.464 56.4212H258.85V57.4508Z" fill="#939598"></path>
  <path d="M261.612 56.0098H261.306V59.2015H261.612V56.0098Z" fill="#939598"></path>
  <path d="M265.195 58.7897C265.093 58.8926 265.093 58.9956 264.991 58.9956C264.888 59.0986 264.786 59.0986 264.684 59.2015C264.581 59.3045 264.479 59.3045 264.377 59.3045C264.274 59.3045 264.172 59.3045 263.967 59.3045C263.762 59.3045 263.558 59.3045 263.353 59.2015C263.148 59.0986 262.944 58.9956 262.841 58.8926C262.739 58.7897 262.534 58.5838 262.534 58.3778C262.432 58.1719 262.432 57.966 262.432 57.6571C262.432 57.4512 262.432 57.1423 262.534 56.9364C262.637 56.7305 262.739 56.5246 262.841 56.4216C262.944 56.3186 263.148 56.1127 263.353 56.1127C263.558 56.0098 263.762 56.0098 263.967 56.0098C264.172 56.0098 264.377 56.0098 264.581 56.1127C264.786 56.2157 264.991 56.3186 265.093 56.5246L264.786 56.7305C264.786 56.6275 264.684 56.6275 264.684 56.5246C264.581 56.5246 264.581 56.4216 264.479 56.4216C264.377 56.4216 264.377 56.3186 264.274 56.3186C264.172 56.3186 264.07 56.3186 264.07 56.3186C263.865 56.3186 263.66 56.3186 263.558 56.4216C263.353 56.5246 263.251 56.6275 263.148 56.7305C263.046 56.8334 262.944 57.0394 262.841 57.1423C262.739 57.3482 262.739 57.4512 262.739 57.6571C262.739 57.863 262.739 58.069 262.841 58.1719C262.944 58.3778 262.944 58.4808 263.148 58.5838C263.251 58.6867 263.353 58.7897 263.558 58.8926C263.762 58.9956 263.865 58.9956 264.07 58.9956C264.172 58.9956 264.274 58.9956 264.274 58.9956C264.377 58.9956 264.479 58.9956 264.479 58.8926C264.581 58.8926 264.684 58.7897 264.684 58.7897C264.786 58.6867 264.786 58.6867 264.888 58.5838L265.195 58.7897Z" fill="#939598"></path>
  <path d="M265.81 59.3041H265.4L266.833 56.1123H267.14L268.573 59.3041H268.061L267.754 58.4804H266.117L265.81 59.3041ZM266.219 58.1715H267.652L266.935 56.5241L266.219 58.1715Z" fill="#939598"></path>
  <path d="M271.337 58.7897V56.0098H271.644V59.3045H271.234L269.392 56.5246H269.29V59.3045H268.983V56.0098H269.392L271.337 58.7897Z" fill="#939598"></path>
  <path d="M273.998 56.0098H274.305V57.4512H276.045V56.0098H276.352V59.3045H276.045V57.7601H274.305V59.3045H273.998V56.0098Z" fill="#939598"></path>
  <path d="M280.446 57.6571C280.446 57.863 280.446 58.1719 280.344 58.3778C280.242 58.5838 280.139 58.7897 280.037 58.8926C279.935 58.9956 279.73 59.2015 279.525 59.2015C279.32 59.3045 279.116 59.3045 278.911 59.3045C278.706 59.3045 278.502 59.3045 278.297 59.2015C278.092 59.0986 277.887 58.9956 277.785 58.8926C277.683 58.7897 277.478 58.5838 277.478 58.3778C277.376 58.1719 277.376 57.966 277.376 57.6571C277.376 57.4512 277.376 57.1423 277.478 56.9364C277.58 56.7305 277.683 56.5246 277.785 56.4216C277.887 56.3186 278.092 56.1127 278.297 56.1127C278.502 56.0098 278.706 56.0098 278.911 56.0098C279.116 56.0098 279.32 56.0098 279.525 56.1127C279.73 56.2157 279.935 56.3186 280.037 56.4216C280.139 56.5246 280.344 56.7305 280.344 56.9364C280.344 57.1423 280.446 57.4512 280.446 57.6571ZM280.037 57.6571C280.037 57.4512 280.037 57.2453 279.935 57.1423C279.832 56.9364 279.832 56.8334 279.628 56.7305C279.525 56.6275 279.423 56.5246 279.218 56.4216C279.013 56.3186 278.911 56.3186 278.706 56.3186C278.502 56.3186 278.297 56.3186 278.195 56.4216C277.99 56.5246 277.887 56.6275 277.785 56.7305C277.683 56.8334 277.58 57.0394 277.478 57.1423C277.376 57.3482 277.376 57.4512 277.376 57.6571C277.376 57.863 277.376 58.069 277.478 58.1719C277.58 58.3778 277.58 58.4808 277.785 58.5838C277.887 58.6867 277.99 58.7897 278.195 58.8926C278.399 58.9956 278.502 58.9956 278.706 58.9956C278.911 58.9956 279.116 58.9956 279.218 58.8926C279.423 58.7897 279.525 58.6867 279.628 58.5838C279.73 58.4808 279.832 58.2749 279.935 58.1719C280.037 58.069 280.037 57.863 280.037 57.6571Z" fill="#939598"></path>
  <path d="M282.186 59.3045H281.879V56.3186H280.753V56.0098H283.21V56.3186H282.186V59.3045Z" fill="#939598"></path>
  <path d="M284.131 58.9956H285.871V59.3045H283.824V56.0098H285.769V56.3186H284.131V57.4512H285.666V57.7601H284.131V58.9956Z" fill="#939598"></path>
  <path d="M286.895 58.9956H288.43V59.3045H286.588V56.0098H286.895V58.9956Z" fill="#939598"></path>
  <path d="M292.217 58.4807L292.934 59.2014H292.422L292.012 58.6866C291.91 58.8925 291.705 58.9955 291.603 59.0984C291.501 59.2014 291.296 59.2014 291.091 59.2014C290.989 59.2014 290.784 59.2014 290.682 59.0984C290.579 59.0984 290.477 58.9955 290.375 58.8925C290.272 58.7896 290.17 58.6866 290.17 58.5836C290.068 58.4807 290.068 58.3777 290.068 58.1718C290.068 58.0688 290.068 57.9659 290.17 57.8629C290.17 57.76 290.272 57.657 290.375 57.554C290.477 57.4511 290.477 57.4511 290.579 57.3481C290.682 57.2452 290.784 57.2452 290.886 57.1422C290.784 57.0392 290.682 56.9363 290.579 56.8333C290.477 56.7304 290.477 56.5244 290.477 56.4215C290.477 56.3185 290.477 56.2156 290.579 56.1126C290.579 56.0096 290.682 55.9067 290.784 55.9067C290.886 55.8037 290.989 55.8037 290.989 55.8037C291.091 55.8037 291.194 55.8037 291.296 55.8037C291.398 55.8037 291.501 55.8037 291.603 55.8037C291.705 55.8037 291.808 55.9067 291.808 55.9067C291.91 56.0096 291.91 56.0096 292.012 56.1126C292.012 56.2156 292.115 56.3185 292.115 56.4215C292.115 56.5244 292.115 56.6274 292.012 56.7304C292.012 56.8333 291.91 56.9363 291.808 56.9363C291.705 57.0392 291.705 57.0392 291.603 57.1422C291.501 57.2452 291.398 57.2452 291.398 57.2452L292.115 57.9659L292.524 57.2452H292.934L292.217 58.4807ZM290.989 57.657C290.886 57.76 290.784 57.76 290.682 57.8629C290.579 57.9659 290.579 57.9659 290.477 58.0688C290.477 58.1718 290.375 58.1718 290.375 58.2748C290.375 58.3777 290.375 58.3777 290.375 58.4807C290.375 58.5836 290.375 58.6866 290.477 58.6866C290.477 58.7896 290.579 58.7896 290.579 58.8925C290.682 58.9955 290.682 58.9955 290.784 58.9955C290.886 58.9955 290.989 58.9955 290.989 58.9955C291.091 58.9955 291.194 58.9955 291.194 58.9955C291.296 58.9955 291.296 58.8925 291.398 58.8925C291.501 58.8925 291.501 58.7896 291.603 58.7896C291.705 58.6866 291.705 58.6866 291.808 58.5836L290.989 57.657ZM291.705 56.7304C291.705 56.6274 291.705 56.5244 291.603 56.4215C291.501 56.3185 291.398 56.3185 291.296 56.3185C291.194 56.3185 291.091 56.3185 290.989 56.4215C290.886 56.5244 290.886 56.6274 290.886 56.7304C290.886 56.8333 290.886 56.8333 290.886 56.9363C290.886 57.0392 290.989 57.0392 290.989 57.1422L291.091 57.2452L291.194 57.3481C291.296 57.3481 291.296 57.2452 291.398 57.2452C291.501 57.2452 291.501 57.1422 291.603 57.1422C291.705 57.1422 291.705 57.0392 291.705 56.9363C291.603 56.8333 291.705 56.7304 291.705 56.7304Z" fill="#939598"></path>
  <path d="M295.185 58.9956H296.721V59.3045H294.878V56.0098H295.185V58.9956Z" fill="#939598"></path>
  <path d="M300.303 57.6571C300.303 57.863 300.303 58.1719 300.201 58.3778C300.098 58.5838 299.996 58.7897 299.894 58.8926C299.791 58.9956 299.587 59.2015 299.382 59.2015C299.177 59.3045 298.972 59.3045 298.768 59.3045C298.563 59.3045 298.358 59.3045 298.154 59.2015C297.949 59.0986 297.744 58.9956 297.642 58.8926C297.539 58.7897 297.335 58.5838 297.335 58.3778C297.232 58.1719 297.232 57.966 297.232 57.6571C297.232 57.4512 297.232 57.1423 297.335 56.9364C297.437 56.7305 297.539 56.5246 297.642 56.4216C297.744 56.3186 297.949 56.1127 298.154 56.1127C298.358 56.0098 298.563 56.0098 298.768 56.0098C298.972 56.0098 299.177 56.0098 299.382 56.1127C299.587 56.2157 299.791 56.3186 299.894 56.4216C299.996 56.5246 300.201 56.7305 300.201 56.9364C300.303 57.1423 300.303 57.4512 300.303 57.6571ZM299.996 57.6571C299.996 57.4512 299.996 57.2453 299.894 57.1423C299.791 56.9364 299.791 56.8334 299.587 56.7305C299.484 56.6275 299.382 56.5246 299.177 56.4216C298.972 56.3186 298.87 56.3186 298.665 56.3186C298.461 56.3186 298.256 56.3186 298.154 56.4216C297.949 56.5246 297.847 56.6275 297.744 56.7305C297.642 56.8334 297.539 57.0394 297.437 57.1423C297.335 57.3482 297.335 57.4512 297.335 57.6571C297.335 57.863 297.335 58.069 297.437 58.1719C297.539 58.3778 297.539 58.4808 297.744 58.5838C297.847 58.6867 297.949 58.7897 298.154 58.8926C298.358 58.9956 298.461 58.9956 298.665 58.9956C298.87 58.9956 299.075 58.9956 299.177 58.8926C299.382 58.7897 299.484 58.6867 299.587 58.5838C299.689 58.4808 299.791 58.2749 299.894 58.1719C299.996 58.069 299.996 57.863 299.996 57.6571Z" fill="#939598"></path>
  <path d="M301.02 56.0098H302.043C302.248 56.0098 302.452 56.0098 302.657 56.1127C302.862 56.2157 303.067 56.3186 303.169 56.4216C303.374 56.5246 303.476 56.7305 303.578 56.9364C303.681 57.1423 303.681 57.3482 303.681 57.6571C303.681 57.966 303.681 58.1719 303.578 58.3778C303.476 58.5838 303.374 58.7897 303.169 58.8926C302.964 58.9956 302.862 59.0986 302.657 59.2015C302.452 59.3045 302.248 59.3045 302.043 59.3045H301.02V56.0098ZM301.327 58.9956H301.941C302.145 58.9956 302.35 58.9956 302.555 58.8926C302.76 58.7897 302.862 58.6867 302.964 58.5838C303.067 58.4808 303.169 58.2749 303.271 58.1719C303.374 57.966 303.374 57.863 303.374 57.6571C303.374 57.4512 303.374 57.3482 303.271 57.1423C303.169 56.9364 303.169 56.8334 302.964 56.7305C302.862 56.6275 302.657 56.5246 302.555 56.4216C302.35 56.3186 302.145 56.3186 301.941 56.3186H301.327V58.9956Z" fill="#939598"></path>
  <path d="M306.854 56.6274C306.751 56.5244 306.649 56.4215 306.444 56.3185C306.342 56.2156 306.137 56.2156 305.932 56.2156C305.728 56.2156 305.523 56.2156 305.421 56.3185C305.216 56.4215 305.114 56.5244 305.011 56.6274C304.909 56.7304 304.807 56.9363 304.704 57.0392C304.602 57.2452 304.602 57.3481 304.602 57.554C304.602 57.76 304.602 57.9659 304.704 58.0688C304.807 58.2748 304.807 58.3777 305.011 58.4807C305.114 58.5836 305.216 58.6866 305.421 58.7896C305.625 58.8925 305.728 58.8925 305.932 58.8925C306.137 58.8925 306.24 58.8925 306.444 58.7896C306.547 58.7896 306.751 58.6866 306.854 58.5836V57.554H306.137V57.2452H307.263V58.7896C307.058 58.8925 306.854 58.9955 306.649 58.9955C306.444 59.0984 306.24 59.0984 306.035 59.0984C305.83 59.0984 305.625 59.0984 305.421 58.9955C305.216 58.8925 305.011 58.7896 304.909 58.6866C304.807 58.5836 304.602 58.3777 304.602 58.1718C304.5 57.9659 304.5 57.76 304.5 57.4511C304.5 57.2452 304.5 56.9363 304.602 56.7304C304.704 56.5244 304.807 56.3185 304.909 56.2156C305.011 56.1126 305.216 55.9067 305.421 55.9067C305.625 55.8037 305.83 55.8037 306.035 55.8037C306.24 55.8037 306.547 55.8037 306.649 55.9067C306.854 56.0096 306.956 56.1126 307.161 56.2156L306.854 56.6274Z" fill="#939598"></path>
  <path d="M308.388 56.0098H308.082V59.2015H308.388V56.0098Z" fill="#939598"></path>
  <path d="M311.664 58.7897H311.767V56.0098H312.074V59.3045H311.664L309.72 56.5246V59.3045H309.413V56.0098H309.822L311.664 58.7897Z" fill="#939598"></path>
  <path d="M315.349 56.6274C315.247 56.5244 315.144 56.4215 314.94 56.3185C314.837 56.2156 314.633 56.2156 314.428 56.2156C314.223 56.2156 314.018 56.2156 313.916 56.3185C313.711 56.4215 313.609 56.5244 313.507 56.6274C313.404 56.7304 313.302 56.9363 313.2 57.0392C313.097 57.2452 313.097 57.3481 313.097 57.554C313.097 57.76 313.097 57.9659 313.2 58.0688C313.302 58.2748 313.302 58.3777 313.507 58.4807C313.609 58.5836 313.711 58.6866 313.916 58.7896C314.121 58.8925 314.223 58.8925 314.428 58.8925C314.633 58.8925 314.735 58.8925 314.94 58.7896C315.042 58.7896 315.247 58.6866 315.349 58.5836V57.554H314.633V57.2452H315.758V58.7896C315.554 58.8925 315.349 58.9955 315.144 58.9955C314.94 59.0984 314.735 59.0984 314.53 59.0984C314.325 59.0984 314.121 59.0984 313.916 58.9955C313.711 58.8925 313.507 58.7896 313.404 58.6866C313.302 58.5836 313.097 58.3777 313.097 58.1718C312.995 57.9659 312.995 57.76 312.995 57.4511C312.995 57.2452 312.995 56.9363 313.097 56.7304C313.2 56.5244 313.302 56.3185 313.404 56.2156C313.507 56.1126 313.711 55.9067 313.916 55.9067C314.121 55.8037 314.325 55.8037 314.53 55.8037C314.837 55.8037 315.042 55.8037 315.144 55.9067C315.349 56.0096 315.451 56.1126 315.656 56.2156L315.349 56.6274Z" fill="#939598"></path>
  <path d="M317.908 59.3041H317.499L318.932 56.1123H319.239L320.672 59.3041H320.262L319.955 58.4804H318.215L317.908 59.3041ZM318.317 58.1715H319.648L318.932 56.5241L318.317 58.1715Z" fill="#939598"></path>
  <path d="M322.616 56.6275C322.514 56.4216 322.309 56.3186 322.002 56.3186C321.9 56.3186 321.797 56.3186 321.797 56.3186C321.695 56.3186 321.593 56.4216 321.593 56.4216C321.49 56.4216 321.49 56.5246 321.49 56.6275C321.49 56.7305 321.388 56.8334 321.388 56.9364C321.388 57.0394 321.388 57.2453 321.49 57.2453C321.593 57.3482 321.695 57.3482 321.797 57.4512C321.9 57.5542 322.002 57.5542 322.207 57.5542C322.309 57.5542 322.514 57.6571 322.616 57.7601C322.719 57.863 322.821 57.966 322.923 58.069C323.026 58.1719 323.026 58.3778 323.026 58.4808C323.026 58.5838 323.026 58.7897 322.923 58.8926C322.821 58.9956 322.821 59.0986 322.719 59.2015C322.616 59.3045 322.514 59.3045 322.411 59.4074C322.309 59.4074 322.207 59.5104 322.002 59.5104C321.797 59.5104 321.593 59.5104 321.49 59.4074C321.286 59.3045 321.183 59.2015 321.081 58.9956L321.388 58.7897C321.49 58.8926 321.593 58.9956 321.695 59.0986C321.797 59.2015 322.002 59.2015 322.104 59.2015C322.207 59.2015 322.309 59.2015 322.309 59.2015C322.411 59.2015 322.411 59.0986 322.514 59.0986C322.616 59.0986 322.616 58.9956 322.719 58.8926C322.719 58.7897 322.821 58.6867 322.821 58.6867C322.821 58.5838 322.821 58.4808 322.719 58.3778C322.719 58.2749 322.616 58.2749 322.514 58.1719C322.411 58.1719 322.309 58.069 322.207 58.069C322.104 58.069 322.002 57.966 321.9 57.966C321.797 57.966 321.695 57.863 321.593 57.863C321.49 57.863 321.388 57.7601 321.286 57.6571C321.183 57.5542 321.183 57.5542 321.081 57.4512C321.081 57.3482 320.979 57.2453 320.979 57.0394C320.979 56.8334 320.978 56.7305 321.081 56.6275C321.183 56.5246 321.183 56.4216 321.286 56.3186C321.388 56.2157 321.49 56.2157 321.593 56.1127C321.695 56.1127 321.797 56.0098 322.002 56.0098C322.207 56.0098 322.309 56.0098 322.514 56.1127C322.616 56.2157 322.821 56.3186 322.923 56.4216L322.616 56.6275Z" fill="#939598"></path>
  <path d="M325.277 56.6275C325.175 56.4216 324.97 56.3186 324.663 56.3186C324.561 56.3186 324.459 56.3186 324.459 56.3186L324.254 56.4216C324.151 56.4216 324.151 56.5246 324.151 56.6275C324.151 56.7305 324.049 56.8334 324.049 56.9364C324.049 57.0394 324.049 57.2453 324.151 57.2453C324.254 57.3482 324.356 57.3482 324.459 57.4512C324.561 57.5542 324.663 57.5542 324.868 57.5542C324.97 57.5542 325.175 57.6571 325.277 57.7601C325.38 57.863 325.482 57.966 325.584 58.069C325.687 58.1719 325.687 58.3778 325.687 58.4808C325.687 58.5838 325.687 58.7897 325.584 58.8926C325.482 58.9956 325.482 59.0986 325.38 59.2015C325.277 59.3045 325.175 59.3045 325.073 59.4074C324.97 59.4074 324.868 59.5104 324.663 59.5104C324.458 59.5104 324.254 59.5104 324.151 59.4074C323.947 59.3045 323.844 59.2015 323.742 58.9956L324.049 58.7897C324.151 58.8926 324.254 58.9956 324.356 59.0986C324.458 59.2015 324.663 59.2015 324.766 59.2015C324.868 59.2015 324.97 59.2015 324.97 59.2015C325.073 59.2015 325.073 59.0986 325.175 59.0986C325.277 59.0986 325.277 58.9956 325.38 58.8926C325.38 58.7897 325.482 58.6867 325.482 58.6867C325.482 58.5838 325.482 58.4808 325.38 58.3778C325.38 58.2749 325.277 58.2749 325.175 58.1719C325.073 58.1719 324.97 58.069 324.868 58.069C324.766 58.069 324.663 57.966 324.561 57.966C324.459 57.966 324.356 57.863 324.254 57.863C324.151 57.863 324.049 57.7601 323.947 57.6571C323.844 57.5542 323.844 57.5542 323.742 57.4512C323.742 57.3482 323.64 57.2453 323.64 57.0394C323.64 56.8334 323.64 56.7305 323.742 56.6275C323.844 56.5246 323.844 56.4216 323.947 56.3186C324.049 56.2157 324.151 56.2157 324.254 56.1127C324.356 56.1127 324.458 56.0098 324.663 56.0098C324.868 56.0098 324.97 56.0098 325.175 56.1127C325.277 56.2157 325.482 56.3186 325.584 56.4216L325.277 56.6275Z" fill="#939598"></path>
  <path d="M329.474 57.6571C329.474 57.863 329.474 58.1719 329.372 58.3778C329.269 58.5838 329.167 58.7897 329.065 58.8926C328.962 58.9956 328.757 59.2015 328.553 59.2015C328.348 59.3045 328.143 59.3045 327.939 59.3045C327.734 59.3045 327.529 59.3045 327.325 59.2015C327.12 59.0986 326.915 58.9956 326.813 58.8926C326.71 58.7897 326.506 58.5838 326.506 58.3778C326.403 58.1719 326.403 57.966 326.403 57.6571C326.403 57.4512 326.403 57.1423 326.506 56.9364C326.608 56.7305 326.71 56.5246 326.813 56.4216C326.915 56.3186 327.12 56.1127 327.325 56.1127C327.529 56.0098 327.734 56.0098 327.939 56.0098C328.143 56.0098 328.348 56.0098 328.553 56.1127C328.757 56.2157 328.962 56.3186 329.065 56.4216C329.167 56.5246 329.372 56.7305 329.372 56.9364C329.372 57.1423 329.474 57.4512 329.474 57.6571ZM329.065 57.6571C329.065 57.4512 329.065 57.2453 328.962 57.1423C328.86 56.9364 328.86 56.8334 328.655 56.7305C328.553 56.6275 328.45 56.5246 328.246 56.4216C328.041 56.3186 327.939 56.3186 327.734 56.3186C327.529 56.3186 327.324 56.3186 327.222 56.4216C327.017 56.5246 326.915 56.6275 326.813 56.7305C326.71 56.8334 326.608 57.0394 326.506 57.1423C326.403 57.3482 326.403 57.4512 326.403 57.6571C326.403 57.863 326.403 58.069 326.506 58.1719C326.608 58.3778 326.608 58.4808 326.813 58.5838C326.915 58.6867 327.017 58.7897 327.222 58.8926C327.427 58.9956 327.529 58.9956 327.734 58.9956C327.939 58.9956 328.143 58.9956 328.246 58.8926C328.45 58.7897 328.553 58.6867 328.655 58.5838C328.757 58.4808 328.86 58.2749 328.962 58.1719C329.065 58.069 329.065 57.863 329.065 57.6571Z" fill="#939598"></path>
  <path d="M332.749 58.7897C332.647 58.8926 332.647 58.9956 332.545 58.9956C332.442 59.0986 332.34 59.0986 332.238 59.2015C332.135 59.3045 332.033 59.3045 331.93 59.3045C331.828 59.3045 331.726 59.3045 331.521 59.3045C331.316 59.3045 331.112 59.3045 330.907 59.2015C330.702 59.0986 330.497 58.9956 330.395 58.8926C330.293 58.7897 330.088 58.5838 330.088 58.3778C329.986 58.1719 329.986 57.966 329.986 57.6571C329.986 57.4512 329.986 57.1423 330.088 56.9364C330.19 56.7305 330.293 56.5246 330.395 56.4216C330.497 56.3186 330.702 56.1127 330.907 56.1127C331.112 56.0098 331.316 56.0098 331.521 56.0098C331.726 56.0098 331.93 56.0098 332.135 56.1127C332.34 56.2157 332.545 56.3186 332.647 56.5246L332.34 56.7305C332.34 56.6275 332.238 56.6275 332.238 56.5246C332.135 56.5246 332.135 56.4216 332.033 56.4216C331.93 56.4216 331.93 56.3186 331.828 56.3186C331.726 56.3186 331.623 56.3186 331.623 56.3186C331.419 56.3186 331.214 56.3186 331.112 56.4216C330.907 56.5246 330.805 56.6275 330.702 56.7305C330.6 56.8334 330.497 57.0394 330.395 57.1423C330.293 57.3482 330.293 57.4512 330.293 57.6571C330.293 57.863 330.293 58.069 330.395 58.1719C330.497 58.3778 330.498 58.4808 330.702 58.5838C330.805 58.6867 330.907 58.7897 331.112 58.8926C331.316 58.9956 331.419 58.9956 331.623 58.9956C331.726 58.9956 331.828 58.9956 331.828 58.9956C331.93 58.9956 332.033 58.9956 332.033 58.8926C332.135 58.8926 332.238 58.7897 332.238 58.7897C332.34 58.6867 332.34 58.6867 332.442 58.5838L332.749 58.7897Z" fill="#939598"></path>
  <path d="M333.772 56.0098H333.466V59.2015H333.772V56.0098Z" fill="#939598"></path>
  <path d="M334.694 59.3041H334.285L335.717 56.1123H336.025L337.458 59.3041H337.048L336.639 58.3774H335.001L334.694 59.3041ZM335.103 58.1715H336.434L335.717 56.5241L335.103 58.1715Z" fill="#939598"></path>
  <path d="M338.583 59.3045H338.276V56.3186H337.253V56.0098H339.709V56.3186H338.583V59.3045Z" fill="#939598"></path>
  <path d="M340.63 56.0098H340.323V59.2015H340.63V56.0098Z" fill="#939598"></path>
  <path d="M344.622 57.6571C344.622 57.863 344.622 58.1719 344.52 58.3778C344.418 58.5838 344.315 58.7897 344.213 58.8926C344.111 58.9956 343.906 59.2015 343.701 59.2015C343.497 59.3045 343.292 59.3045 343.087 59.3045C342.882 59.3045 342.678 59.3045 342.473 59.2015C342.268 59.0986 342.064 58.9956 341.961 58.8926C341.859 58.7897 341.654 58.5838 341.654 58.3778C341.552 58.1719 341.552 57.966 341.552 57.6571C341.552 57.4512 341.552 57.1423 341.654 56.9364C341.757 56.7305 341.859 56.5246 341.961 56.4216C342.064 56.3186 342.268 56.1127 342.473 56.1127C342.678 56.0098 342.882 56.0098 343.087 56.0098C343.292 56.0098 343.497 56.0098 343.701 56.1127C343.906 56.2157 344.111 56.3186 344.213 56.4216C344.315 56.5246 344.52 56.7305 344.52 56.9364C344.622 57.1423 344.622 57.4512 344.622 57.6571ZM344.315 57.6571C344.315 57.4512 344.315 57.2453 344.213 57.1423C344.111 56.9364 344.111 56.8334 343.906 56.7305C343.804 56.6275 343.701 56.5246 343.497 56.4216C343.292 56.3186 343.189 56.3186 342.985 56.3186C342.78 56.3186 342.575 56.3186 342.473 56.4216C342.268 56.5246 342.166 56.6275 342.064 56.7305C341.961 56.8334 341.859 57.0394 341.756 57.1423C341.654 57.3482 341.654 57.4512 341.654 57.6571C341.654 57.863 341.654 58.069 341.756 58.1719C341.859 58.3778 341.859 58.4808 342.064 58.5838C342.166 58.6867 342.268 58.7897 342.473 58.8926C342.678 58.9956 342.78 58.9956 342.985 58.9956C343.189 58.9956 343.394 58.9956 343.497 58.8926C343.701 58.7897 343.804 58.6867 343.906 58.5838C344.008 58.4808 344.111 58.2749 344.213 58.1719C344.315 58.069 344.315 57.863 344.315 57.6571Z" fill="#939598"></path>
  <path d="M347.693 58.7897V56.0098H348V59.3045H347.693L345.748 56.5246V59.3045H345.441V56.0098H345.851L347.693 58.7897Z" fill="#939598"></path>
  <path d="M348 51.7883H342.985V16.0611L332.238 5.35328L325.789 11.7368H325.073L332.647 3.5L348 17.5026V51.7883Z" fill="#939598"></path>
  <path d="M337.969 51.8908H332.852V21.1057L322.821 11.2216L311.869 22.5472H311.357L323.128 9.57422L337.969 23.062V51.8908Z" fill="#939598"></path>
  <path d="M454.855 44.6719C454.715 44.6719 454.645 44.7423 454.645 44.8127C454.645 44.8831 454.715 44.9534 454.785 44.9534C454.785 44.9534 454.785 44.9534 454.855 44.9534C456.185 45.1646 457.444 45.3758 458.634 45.6574C459.474 45.8686 460.313 46.0797 461.083 46.2909C461.153 46.0093 461.223 45.7278 461.363 45.4462C459.334 45.0942 457.164 44.8127 454.855 44.6719Z" fill="#939598"></path>
  <path d="M462.343 45.6572C462.203 45.9388 462.063 46.2908 461.923 46.5723C465.912 47.9098 468.291 49.74 468.291 51.7814C468.291 54.386 464.302 56.6386 458.214 57.976C455.205 58.4688 451.846 58.7504 448.277 58.7504C444.988 58.7504 441.909 58.5392 439.11 58.1168H439.04C438.97 58.1168 438.9 58.1872 438.9 58.2576C438.9 58.328 438.97 58.3984 438.97 58.3984H439.04C439.74 58.5392 440.439 58.7504 441.349 58.8912C441.769 58.9615 442.189 59.0319 442.539 59.1023C445.268 59.5951 448.207 59.8063 451.426 59.8063C457.234 59.8063 462.483 58.9615 466.262 57.5537C470.041 56.1458 472 54.2452 472 52.1334C472 49.4585 468.221 47.0651 462.343 45.6572Z" fill="#939598"></path>
  <path d="M443.869 17.5C437.78 17.5 432.322 20.2453 428.613 24.5393L428.543 24.6097V24.6801C428.543 24.7505 428.613 24.8209 428.683 24.8209C428.753 24.8209 428.753 24.8209 428.753 24.8209C432.252 21.794 436.801 19.9638 441.769 19.9638C452.896 19.9638 461.853 29.0445 461.853 40.1666C461.853 41.9968 461.643 43.7567 461.153 45.4461C461.013 45.9389 461.013 45.9389 460.873 46.2908C460.454 47.5579 459.964 48.7546 459.334 49.9513V50.0217C459.334 50.0921 459.404 50.1625 459.474 50.1625C459.544 50.1625 459.544 50.1625 459.614 50.0921C459.614 50.0921 459.614 50.0217 459.684 50.0217C460.523 48.9658 461.223 47.7691 461.853 46.502C461.993 46.2204 462.133 45.8685 462.273 45.5869C463.323 43.1231 463.882 40.4482 463.882 37.6325C464.022 26.5807 454.995 17.5 443.869 17.5Z" fill="#939598"></path>
  <path d="M385.786 29.1855H386.206L390.684 34.817V29.1855H391.174V35.6617H390.824L386.276 29.8895V35.6617H385.786V29.1855Z" fill="#939598"></path>
  <path d="M395.583 29.1855H396.073L399.082 35.7321H398.522L397.682 33.9019H393.834L392.994 35.7321H392.504L395.583 29.1855ZM397.472 33.4795L395.793 29.7487L394.113 33.4795H397.472Z" fill="#939598"></path>
  <path d="M401.391 29.6783H399.152V29.1855H404.12V29.6079H401.881V35.6617H401.391V29.6783Z" fill="#939598"></path>
  <path d="M405.66 29.1855H406.148V35.6617H405.66V29.1855Z" fill="#939598"></path>
  <path d="M407.829 32.4941C407.829 30.6639 409.159 29.1152 411.118 29.1152C413.078 29.1152 414.337 30.6639 414.337 32.4941C414.337 34.2539 413.008 35.873 411.048 35.873C409.089 35.8026 407.829 34.2539 407.829 32.4941ZM413.847 32.4941C413.847 30.8751 412.658 29.5376 411.118 29.5376C409.509 29.5376 408.389 30.8047 408.389 32.4237C408.389 34.0428 409.579 35.3802 411.118 35.3802C412.658 35.3802 413.847 34.1132 413.847 32.4941Z" fill="#939598"></path>
  <path d="M415.947 29.1855H416.367L420.845 34.817V29.1855H421.335V35.6617H420.985L416.437 29.8895V35.6617H415.947V29.1855Z" fill="#939598"></path>
  <path d="M425.744 29.1855H426.234L429.243 35.7321H428.683L427.843 33.9019H423.994L423.155 35.7321H422.665L425.744 29.1855ZM427.633 33.4795L425.954 29.7487L424.274 33.4795H427.633Z" fill="#939598"></path>
  <path d="M430.573 29.1855H431.062V35.2394H434.841V35.6617H430.573V29.1855Z" fill="#939598"></path>
  <path d="M372 38.126H375.429C376.409 38.126 377.178 38.4075 377.668 38.9003C378.088 39.3227 378.298 39.8858 378.298 40.5897C378.298 41.8568 377.528 42.6311 376.479 42.9831L378.578 45.9396H376.969L375.079 43.1943H373.4V45.9396H372.07V38.126H372ZM375.359 41.9976C376.339 41.9976 376.969 41.5049 376.969 40.6601C376.969 39.8154 376.339 39.3931 375.359 39.3931H373.4V41.9976H375.359Z" fill="#939598"></path>
  <path d="M380.048 38.126H385.786V39.3227H381.377V41.3641H385.296V42.5607H381.377V44.6725H385.856V45.8692H380.048V38.126Z" fill="#939598"></path>
  <path d="M386.906 44.8124L387.745 43.8269C388.515 44.4605 389.215 44.8124 390.195 44.8124C391.034 44.8124 391.594 44.3901 391.594 43.8269C391.594 43.2638 391.314 42.9822 389.845 42.6302C388.165 42.2079 387.255 41.7151 387.255 40.3073C387.255 38.9698 388.375 38.0547 389.915 38.0547C391.034 38.0547 391.944 38.4067 392.714 39.0402L392.014 40.0961C391.314 39.6033 390.614 39.3218 389.915 39.3218C389.145 39.3218 388.655 39.7441 388.655 40.2369C388.655 40.8704 389.005 41.0816 390.474 41.4336C392.084 41.8559 392.994 42.4191 392.994 43.6861C392.994 45.1644 391.874 46.0091 390.195 46.0091C389.005 46.0795 387.885 45.6572 386.906 44.8124Z" fill="#939598"></path>
  <path d="M396.283 39.3931H393.833V38.126H400.132V39.3931H397.682V45.9396H396.283V39.3931Z" fill="#939598"></path>
  <path d="M403.351 38.0547H404.61L408.039 45.9387H406.57L405.8 44.0381H402.161L401.391 45.9387H399.992L403.351 38.0547ZM405.24 42.8414L403.91 39.7441L402.581 42.8414H405.24Z" fill="#939598"></path>
  <path d="M408.949 42.6311V38.126H410.349V42.5607C410.349 44.039 411.118 44.8133 412.308 44.8133C413.498 44.8133 414.267 44.1094 414.267 42.6311V38.126H415.597V42.5607C415.597 44.8837 414.267 46.0804 412.238 46.0804C410.209 46.0804 408.949 44.8837 408.949 42.6311Z" fill="#939598"></path>
  <path d="M417.486 38.126H420.915C421.895 38.126 422.665 38.4075 423.155 38.9003C423.575 39.3227 423.784 39.8858 423.784 40.5897C423.784 41.8568 423.015 42.6311 421.965 42.9831L424.064 45.9396H422.455L420.565 43.1943H418.886V45.9396H417.556V38.126H417.486ZM420.845 41.9976C421.825 41.9976 422.455 41.5049 422.455 40.6601C422.455 39.8154 421.825 39.3931 420.845 39.3931H418.886V41.9976H420.845Z" fill="#939598"></path>
  <path d="M428.193 38.0547H429.453L432.882 45.9387H431.412L430.642 44.0381H427.004L426.234 45.9387H424.834L428.193 38.0547ZM430.153 42.8414L428.823 39.7441L427.493 42.8414H430.153Z" fill="#939598"></path>
  <path d="M434.211 38.126H435.471L439.6 43.5463V38.126H440.929V45.9396H439.81L435.541 40.3786V45.9396H434.211V38.126Z" fill="#939598"></path>
  <path d="M444.918 39.3931H442.469V38.126H448.767V39.3931H446.318V45.9396H444.918V39.3931Z" fill="#939598"></path>
  <path d="M380.398 48.6846H380.887L383.896 55.2311H383.337L382.497 53.4009H378.648L377.808 55.2311H377.318L380.398 48.6846ZM382.287 52.9786L380.607 49.2477L378.928 52.9786H382.287Z" fill="#939598"></path>
  <path d="M384.666 54.3159L384.946 53.964C385.646 54.5975 386.346 54.9495 387.255 54.9495C388.235 54.9495 388.865 54.3863 388.865 53.6824C388.865 52.9785 388.515 52.6265 387.046 52.2745C385.506 51.993 384.876 51.4298 384.876 50.4443C384.876 49.4588 385.786 48.7549 386.976 48.7549C387.885 48.7549 388.515 49.0365 389.215 49.5292L388.935 49.8812C388.305 49.318 387.745 49.1772 386.976 49.1772C385.996 49.1772 385.366 49.7404 385.366 50.3739C385.366 51.0779 385.716 51.5002 387.255 51.7818C388.725 52.0634 389.355 52.6265 389.355 53.5416C389.355 54.5975 388.445 55.3015 387.185 55.3015C386.276 55.3718 385.436 55.0199 384.666 54.3159Z" fill="#939598"></path>
  <path d="M390.474 54.3159L390.754 53.964C391.454 54.5975 392.154 54.9495 393.064 54.9495C394.043 54.9495 394.673 54.3863 394.673 53.6824C394.673 52.9785 394.323 52.6265 392.854 52.2745C391.314 51.993 390.684 51.4298 390.684 50.4443C390.684 49.4588 391.594 48.7549 392.784 48.7549C393.694 48.7549 394.323 49.0365 395.023 49.5292L394.743 49.8812C394.113 49.318 393.554 49.1772 392.784 49.1772C391.804 49.1772 391.174 49.7404 391.174 50.3739C391.174 51.0779 391.524 51.5002 393.064 51.7818C394.533 52.0634 395.163 52.6265 395.163 53.5416C395.163 54.5975 394.253 55.3015 392.994 55.3015C392.084 55.3718 391.244 55.0199 390.474 54.3159Z" fill="#939598"></path>
  <path d="M396.563 51.9931C396.563 50.2333 397.892 48.6143 399.852 48.6143C401.811 48.6143 403.071 50.1629 403.071 51.9931C403.071 53.753 401.741 55.372 399.782 55.372C397.822 55.372 396.563 53.753 396.563 51.9931ZM402.581 51.9931C402.581 50.3741 401.391 49.0366 399.852 49.0366C398.242 49.0366 397.122 50.3741 397.122 51.9227C397.122 53.5418 398.312 54.8793 399.852 54.8793C401.391 54.9496 402.581 53.6122 402.581 51.9931Z" fill="#939598"></path>
  <path d="M404.4 51.9931C404.4 50.1629 405.8 48.6143 407.619 48.6143C408.809 48.6143 409.439 49.0366 410.139 49.6702L409.789 50.0221C409.229 49.459 408.599 49.0366 407.619 49.0366C406.08 49.0366 404.89 50.3037 404.89 51.9227C404.89 53.5418 406.08 54.8793 407.619 54.8793C408.529 54.8793 409.159 54.5273 409.859 53.8938L410.209 54.1753C409.509 54.8793 408.809 55.3016 407.619 55.3016C405.73 55.372 404.4 53.8938 404.4 51.9931Z" fill="#939598"></path>
  <path d="M411.818 48.7549H412.306V55.2311H411.818V48.7549Z" fill="#939598"></path>
  <path d="M416.507 48.6846H416.997L420.006 55.2311H419.446L418.606 53.4009H414.827L413.987 55.2311H413.498L416.507 48.6846ZM418.396 52.9786L416.717 49.2477L415.037 52.9786H418.396Z" fill="#939598"></path>
  <path d="M422.315 49.1772H420.076V48.7549H425.044V49.1772H422.805V55.2311H422.315V49.1772Z" fill="#939598"></path>
  <path d="M426.584 48.7549H427.072V55.2311H426.584V48.7549Z" fill="#939598"></path>
  <path d="M428.753 51.9931C428.753 50.2333 430.083 48.6143 432.042 48.6143C434.001 48.6143 435.261 50.1629 435.261 51.9931C435.261 53.753 433.931 55.372 431.972 55.372C430.013 55.372 428.753 53.753 428.753 51.9931ZM434.771 51.9931C434.771 50.3741 433.582 49.0366 432.042 49.0366C430.433 49.0366 429.313 50.3741 429.313 51.9227C429.313 53.5418 430.503 54.8793 432.112 54.8793C433.582 54.9496 434.771 53.6122 434.771 51.9931Z" fill="#939598"></path>
  <path d="M436.871 48.7549H437.29L441.769 54.3863V48.7549H442.259V55.2311H441.909L437.36 49.4588V55.2311H436.871V48.7549Z" fill="#939598"></path>
  <path d="M469.131 58.2574C469.131 57.4831 469.691 56.9199 470.46 56.9199C471.23 56.9199 471.79 57.5535 471.79 58.2574C471.79 58.9613 471.23 59.5949 470.46 59.5949C469.691 59.5949 469.131 59.0317 469.131 58.2574ZM471.65 58.2574C471.65 57.5535 471.16 56.9903 470.46 56.9903C469.761 56.9903 469.201 57.5535 469.201 58.2574C469.201 58.9613 469.691 59.4541 470.391 59.4541C471.16 59.5245 471.65 58.9613 471.65 58.2574ZM469.901 57.5535H470.53C470.67 57.5535 470.88 57.6239 470.95 57.6942C471.02 57.7646 471.09 57.835 471.09 57.9758C471.09 58.187 470.95 58.3278 470.74 58.3982L471.16 58.9613H470.88L470.46 58.4686H470.111V58.9613H469.901V57.5535ZM470.53 58.187C470.74 58.187 470.88 58.1166 470.88 57.9758C470.88 57.835 470.74 57.7646 470.53 57.7646H470.111V58.2574H470.53V58.187Z" fill="#939598"></path>
  <defs>
    <clipPath id="clip0_2_15618">
      <rect width="100" height="60" fill="white"></rect>
    </clipPath>
  </defs>
</svg>
