<?xml version="1.0" encoding="UTF-8"?>
<svg xmlns="http://www.w3.org/2000/svg" width="88" height="88" viewBox="0 0 88 88" fill="none">
  <g clip-path="url(#clip0_1_99967)">
    <path d="M51.4124 54.8524C47.9314 59.4672 42.4085 62.4769 36.1828 62.4769C25.6727 62.4769 17.1709 53.983 17.1709 43.4826C17.1709 32.9822 25.6727 24.4883 36.1828 24.4883C42.4085 24.4883 47.9314 27.498 51.4124 32.1128C54.0567 26.8292 58.4749 22.6156 63.8973 20.2079C57.2699 12.3494 47.2954 7.33325 36.1828 7.33325C16.2003 7.33325 0 23.5185 0 43.4826C0 63.4467 16.2003 79.632 36.1828 79.632C47.2954 79.632 57.2365 74.6159 63.8973 66.7239C58.4749 64.3496 54.0567 60.1361 51.4124 54.8524Z" fill="#002EA6"></path>
    <path d="M37.737 54.707C43.9411 53.7016 48.1548 47.8618 47.1485 41.6635C46.1422 35.4651 40.297 31.2553 34.0929 32.2607C27.8888 33.266 23.6751 39.1058 24.6814 45.3042C25.6877 51.5026 31.5329 55.7124 37.737 54.707Z" fill="#17FCC4"></path>
    <path d="M64.3183 50.0857C67.9703 49.2241 70.2318 45.5678 69.3695 41.9192C68.5071 38.2705 64.8475 36.0111 61.1954 36.8726C57.5433 37.7342 55.2818 41.3905 56.1442 45.0391C57.0065 48.6878 60.6662 50.9472 64.3183 50.0857Z" fill="#17FCC4"></path>
    <path d="M86.4377 45.0423C87.3008 42.9606 86.3113 40.574 84.2277 39.7117C82.144 38.8494 79.7552 39.838 78.8921 41.9197C78.029 44.0014 79.0185 46.388 81.1021 47.2503C83.1858 48.1126 85.5746 47.124 86.4377 45.0423Z" fill="#17FCC4"></path>
  </g>
  <defs>
    <clipPath id="clip0_1_99967">
      <rect width="88" height="88" fill="white"></rect>
    </clipPath>
  </defs>
</svg>
