<?xml version="1.0" encoding="UTF-8"?>
<svg xmlns="http://www.w3.org/2000/svg" width="88" height="88" viewBox="0 0 88 88" fill="none">
  <g clip-path="url(#clip0_1_99965)">
    <path d="M75.1259 75.1196C64.8289 85.4313 50.7876 89.6051 37.4382 87.5591L87.4985 37.2283C89.5335 50.6498 85.3821 64.8079 75.1259 75.1196Z" fill="#002EA6"></path>
    <path d="M12.8966 12.554C23.4785 1.91494 38.0895 -2.177 51.7645 0.278161L0.686802 51.632C-1.75516 37.8422 2.31478 23.1521 12.8966 12.554Z" fill="#002EA6"></path>
    <path d="M75.1248 12.554C77.5668 15.0091 79.6832 17.7098 81.4332 20.5742L20.8318 81.4622C17.9829 79.7027 15.3374 77.5749 12.8548 75.1197C10.657 72.9101 8.70342 70.4958 7.07544 67.9588L68.0024 6.74341C70.5258 8.38018 72.8864 10.3034 75.1248 12.554Z" fill="#17FCC4"></path>
  </g>
  <defs>
    <clipPath id="clip0_1_99965">
      <rect width="88" height="88" fill="white"></rect>
    </clipPath>
  </defs>
</svg>
