<?xml version="1.0" encoding="UTF-8"?>
<svg xmlns="http://www.w3.org/2000/svg" width="88" height="88" viewBox="0 0 88 88" fill="none">
  <path d="M59.7043 43.9102C60.613 50.126 58.6501 56.6689 53.8883 61.4671C45.8187 69.5367 32.7692 69.5367 24.6996 61.4671C16.63 53.3974 16.63 40.3479 24.6996 32.2783C29.4977 27.4801 36.0407 25.5536 42.2565 26.4624C40.2209 20.392 40.3663 13.74 42.6926 7.74229C31.5333 6.76085 20.0468 10.5412 11.5047 19.0834C-3.83489 34.4229 -3.83489 59.3224 11.5047 74.662C26.8442 90.0015 51.7437 90.0015 67.0833 74.662C75.6254 66.1198 79.4058 54.6333 78.4607 43.474C72.4266 45.8004 65.7747 45.9458 59.7043 43.9102Z" fill="#002EA6"></path>
  <path d="M68.4645 35.4045C78.2412 35.4045 86.1667 27.479 86.1667 17.7023C86.1667 7.92558 78.2412 0 68.4645 0C58.6878 0 50.7622 7.92558 50.7622 17.7023C50.7622 27.479 58.6878 35.4045 68.4645 35.4045Z" fill="#17FCC4"></path>
</svg>
