<?xml version="1.0" encoding="UTF-8"?>
<svg xmlns="http://www.w3.org/2000/svg" width="88" height="88" viewBox="0 0 88 88" fill="none">
  <g clip-path="url(#clip0_1_99966)">
    <path d="M48.6952 44.7545C48.6952 54.0268 41.1921 61.5359 31.9271 61.5359C22.6621 61.5359 15.1589 54.0268 15.1589 44.7545L0.000727586 44.7545C0.000726044 62.3871 14.3083 76.7061 31.9271 76.7061C49.5762 76.7061 63.8838 62.3871 63.8838 44.7545L48.6952 44.7545Z" fill="#002EA6"></path>
    <path d="M72.875 44.7848C72.875 35.5125 65.3719 28.0034 56.1069 28.0034C46.8418 28.0034 39.3083 35.5125 39.3083 44.7848L24.1501 44.7848C24.1501 27.1218 38.4578 12.8333 56.0765 12.8333C73.7256 12.8333 88.0028 27.1522 88.0028 44.7848L72.875 44.7848Z" fill="#17FCC4"></path>
  </g>
  <defs>
    <clipPath id="clip0_1_99966">
      <rect width="88" height="88" fill="white"></rect>
    </clipPath>
  </defs>
</svg>
