<?xml version="1.0" encoding="UTF-8"?>
<svg xmlns="http://www.w3.org/2000/svg" width="88" height="88" viewBox="0 0 88 88" fill="none">
  <g clip-path="url(#clip0_1_99963)">
    <path d="M21.0823 45.693C21.0823 32.9649 31.3935 22.6572 44.126 22.6572C56.8584 22.6572 67.1696 32.9649 67.1696 45.693H88.0007C88.0007 21.4888 68.3385 1.83325 44.126 1.83325C19.8717 1.83325 0.209473 21.4888 0.209473 45.693H21.0823Z" fill="#002EA6"></path>
    <path d="M66.9602 85.9223C66.9602 73.1942 56.649 62.8865 43.9165 62.8865C31.1841 62.8865 20.8311 73.1942 20.8311 85.9223H0C0 61.6763 19.6622 42.0625 43.8748 42.0625C68.129 42.0625 87.7495 61.718 87.7495 85.9223H66.9602Z" fill="#17FCC4"></path>
  </g>
  <defs>
    <clipPath id="clip0_1_99963">
      <rect width="88" height="88" fill="white"></rect>
    </clipPath>
  </defs>
</svg>
