<?xml version="1.0" encoding="UTF-8"?>
<svg xmlns="http://www.w3.org/2000/svg" width="88" height="88" viewBox="0 0 88 88" fill="none">
  <path d="M55.3676 43.9803C55.3676 37.2912 49.9628 31.8838 43.2769 31.8838C36.591 31.8838 31.1863 37.2912 31.1863 43.9803C31.1863 50.6694 36.591 56.0768 43.2769 56.0768C49.9628 56.0768 55.3676 50.6694 55.3676 43.9803Z" fill="#17FCC4"></path>
  <path d="M43.2782 22.4707C52.4463 22.4707 60.2532 28.1985 63.3759 36.2895H86.5964C82.9532 15.7014 64.9373 0 43.2782 0C21.6191 0 3.64322 15.7014 0 36.3296H23.2205C26.3032 28.2385 34.1101 22.4707 43.2782 22.4707Z" fill="#17FCC4"></path>
  <path d="M43.2782 65.4893C34.1101 65.4893 26.3032 59.7614 23.1805 51.6704H0C3.64322 72.2986 21.6191 88 43.2782 88C64.9373 88 82.9532 72.2986 86.5564 51.6704H63.3359C60.2932 59.7214 52.4463 65.4893 43.2782 65.4893Z" fill="#002EA6"></path>
</svg>
